<?xml version="1.0" encoding="utf-8" standalone="no"?>
<!DOCTYPE svg PUBLIC "-//W3C//DTD SVG 1.1//EN"
  "http://www.w3.org/Graphics/SVG/1.1/DTD/svg11.dtd">
<svg xmlns:xlink="http://www.w3.org/1999/xlink" width="219.955404pt" height="156.604062pt" viewBox="0 0 219.955404 156.604062" xmlns="http://www.w3.org/2000/svg" version="1.1">
 <metadata>
  <rdf:RDF xmlns:dc="http://purl.org/dc/elements/1.1/" xmlns:cc="http://creativecommons.org/ns#" xmlns:rdf="http://www.w3.org/1999/02/22-rdf-syntax-ns#">
   <cc:Work>
    <dc:type rdf:resource="http://purl.org/dc/dcmitype/StillImage"/>
    <dc:date>2023-10-17T16:48:20.005957</dc:date>
    <dc:format>image/svg+xml</dc:format>
    <dc:creator>
     <cc:Agent>
      <dc:title>Matplotlib v3.6.2, https://matplotlib.org/</dc:title>
     </cc:Agent>
    </dc:creator>
   </cc:Work>
  </rdf:RDF>
 </metadata>
 <defs>
  <style type="text/css">*{stroke-linejoin: round; stroke-linecap: butt}</style>
 </defs>
 <g id="figure_1">
  <g id="patch_1">
   <path d="M 0 156.604062 
L 219.955404 156.604062 
L 219.955404 0 
L 0 0 
z
" style="fill: #ffffff"/>
  </g>
  <g id="axes_1">
   <g id="patch_2">
    <path d="M 41.570937 118.08 
L 208.970938 118.08 
L 208.970938 7.2 
L 41.570937 7.2 
z
" style="fill: #ffffff"/>
   </g>
   <g id="line2d_1">
    <path d="M 165.631715 118.08 
L 165.631715 7.2 
" clip-path="url(#pae9ebfee9f)" style="fill: none; stroke-dasharray: 2.96,1.28; stroke-dashoffset: 0; stroke: #2ca02c; stroke-width: 0.8"/>
   </g>
   <g id="line2d_2">
    <path d="M 89.823161 118.08 
L 89.823161 7.2 
" clip-path="url(#pae9ebfee9f)" style="fill: none; stroke-dasharray: 2.96,1.28; stroke-dashoffset: 0; stroke: #ff7f0e; stroke-width: 0.8"/>
   </g>
   <g id="line2d_3">
    <path d="M 71.335453 118.08 
L 71.335453 7.2 
" clip-path="url(#pae9ebfee9f)" style="fill: none; stroke-dasharray: 2.96,1.28; stroke-dashoffset: 0; stroke: #d62728; stroke-width: 0.8"/>
   </g>
   <g id="PolyCollection_1">
    <defs>
     <path id="mf9b46d319e" d="M 73.53797 -130.921106 
L 73.53797 -130.927019 
L 74.82912 -130.92937 
L 76.120271 -130.932738 
L 77.411421 -130.937012 
L 78.702571 -130.941793 
L 79.993721 -130.946475 
L 81.284872 -130.950462 
L 82.576022 -130.953387 
L 83.867172 -130.955203 
L 85.158322 -130.9561 
L 86.449473 -130.956367 
L 87.740623 -130.956338 
L 89.031773 -130.956472 
L 90.322923 -130.95743 
L 91.614074 -130.959949 
L 92.905224 -130.964489 
L 94.196374 -130.970844 
L 95.487525 -130.978032 
L 96.778675 -130.984678 
L 98.069825 -130.989781 
L 99.360975 -130.993543 
L 100.652126 -130.997772 
L 101.943276 -131.005523 
L 103.234426 -131.019968 
L 104.525576 -131.042901 
L 105.816727 -131.07363 
L 107.107877 -131.10894 
L 108.399027 -131.144342 
L 109.690178 -131.176063 
L 110.981328 -131.2027 
L 112.272478 -131.225642 
L 113.563628 -131.248116 
L 114.854779 -131.27355 
L 116.145929 -131.304203 
L 117.437079 -131.340615 
L 118.728229 -131.381794 
L 120.01938 -131.425816 
L 121.31053 -131.470637 
L 122.60168 -131.5151 
L 123.89283 -131.559927 
L 125.183981 -131.60811 
L 126.475131 -131.664095 
L 127.766281 -131.731851 
L 129.057432 -131.812863 
L 130.348582 -131.905477 
L 131.639732 -132.006224 
L 132.930882 -132.112256 
L 134.222033 -132.223059 
L 135.513183 -132.340154 
L 136.804333 -132.465118 
L 138.095483 -132.597671 
L 139.386634 -132.735503 
L 140.677784 -132.875951 
L 141.968934 -133.018061 
L 143.260085 -133.163285 
L 144.551235 -133.314487 
L 145.842385 -133.474621 
L 147.133535 -133.646736 
L 148.424686 -133.835539 
L 149.715836 -134.048839 
L 151.006986 -134.29671 
L 152.298136 -134.587655 
L 153.589287 -134.923336 
L 154.880437 -135.294813 
L 156.171587 -135.682714 
L 157.462737 -136.061806 
L 158.753888 -136.408107 
L 160.045038 -136.705298 
L 161.336188 -136.947502 
L 162.627339 -137.137418 
L 163.918489 -137.281308 
L 165.209639 -137.383865 
L 166.500789 -137.445678 
L 167.79194 -137.464291 
L 169.08309 -137.437907 
L 170.37424 -137.369595 
L 171.66539 -137.2695 
L 172.956541 -137.153164 
L 174.247691 -137.035691 
L 175.538841 -136.923945 
L 176.829991 -136.810728 
L 178.121142 -136.674594 
L 179.412292 -136.486141 
L 180.703442 -136.218111 
L 181.994593 -135.854664 
L 183.285743 -135.39616 
L 184.576893 -134.858652 
L 185.868043 -134.269908 
L 187.159194 -133.664276 
L 188.450344 -133.077613 
L 189.741494 -132.542396 
L 191.032644 -132.083175 
L 192.323795 -131.713273 
L 193.614945 -131.433918 
L 194.906095 -131.236201 
L 196.197246 -131.104997 
L 197.488396 -131.023283 
L 198.779546 -130.975471 
L 200.070696 -130.949179 
L 201.361847 -130.9356 
L 201.361847 -130.912525 
L 201.361847 -130.912525 
L 200.070696 -130.898946 
L 198.779546 -130.872654 
L 197.488396 -130.824842 
L 196.197246 -130.743128 
L 194.906095 -130.611924 
L 193.614945 -130.414207 
L 192.323795 -130.134852 
L 191.032644 -129.76495 
L 189.741494 -129.305729 
L 188.450344 -128.770512 
L 187.159194 -128.183849 
L 185.868043 -127.578217 
L 184.576893 -126.989473 
L 183.285743 -126.451965 
L 181.994593 -125.993461 
L 180.703442 -125.630014 
L 179.412292 -125.361984 
L 178.121142 -125.173531 
L 176.829991 -125.037397 
L 175.538841 -124.92418 
L 174.247691 -124.812434 
L 172.956541 -124.694961 
L 171.66539 -124.578625 
L 170.37424 -124.47853 
L 169.08309 -124.410218 
L 167.79194 -124.383834 
L 166.500789 -124.402447 
L 165.209639 -124.46426 
L 163.918489 -124.566817 
L 162.627339 -124.710707 
L 161.336188 -124.900623 
L 160.045038 -125.142827 
L 158.753888 -125.440018 
L 157.462737 -125.786319 
L 156.171587 -126.165411 
L 154.880437 -126.553312 
L 153.589287 -126.924789 
L 152.298136 -127.26047 
L 151.006986 -127.551415 
L 149.715836 -127.799286 
L 148.424686 -128.012586 
L 147.133535 -128.201389 
L 145.842385 -128.373504 
L 144.551235 -128.533638 
L 143.260085 -128.68484 
L 141.968934 -128.830064 
L 140.677784 -128.972174 
L 139.386634 -129.112622 
L 138.095483 -129.250454 
L 136.804333 -129.383007 
L 135.513183 -129.507971 
L 134.222033 -129.625066 
L 132.930882 -129.735869 
L 131.639732 -129.841901 
L 130.348582 -129.942648 
L 129.057432 -130.035262 
L 127.766281 -130.116274 
L 126.475131 -130.18403 
L 125.183981 -130.240015 
L 123.89283 -130.288198 
L 122.60168 -130.333025 
L 121.31053 -130.377488 
L 120.01938 -130.422309 
L 118.728229 -130.466331 
L 117.437079 -130.50751 
L 116.145929 -130.543922 
L 114.854779 -130.574575 
L 113.563628 -130.600009 
L 112.272478 -130.622483 
L 110.981328 -130.645425 
L 109.690178 -130.672062 
L 108.399027 -130.703783 
L 107.107877 -130.739185 
L 105.816727 -130.774495 
L 104.525576 -130.805224 
L 103.234426 -130.828157 
L 101.943276 -130.842602 
L 100.652126 -130.850353 
L 99.360975 -130.854582 
L 98.069825 -130.858344 
L 96.778675 -130.863447 
L 95.487525 -130.870093 
L 94.196374 -130.877281 
L 92.905224 -130.883636 
L 91.614074 -130.888176 
L 90.322923 -130.890695 
L 89.031773 -130.891653 
L 87.740623 -130.891787 
L 86.449473 -130.891758 
L 85.158322 -130.892025 
L 83.867172 -130.892922 
L 82.576022 -130.894738 
L 81.284872 -130.897663 
L 79.993721 -130.90165 
L 78.702571 -130.906332 
L 77.411421 -130.911113 
L 76.120271 -130.915387 
L 74.82912 -130.918755 
L 73.53797 -130.921106 
z
" style="stroke: #3d3d3d; stroke-width: 1.5"/>
    </defs>
    <g clip-path="url(#pae9ebfee9f)">
     <use xlink:href="#mf9b46d319e" x="0" y="156.604062" style="fill: #3a923a; stroke: #3d3d3d; stroke-width: 1.5"/>
    </g>
   </g>
   <g id="PolyCollection_2">
    <defs>
     <path id="m8c6f4da60c" d="M 51.031391 -93.952875 
L 51.031391 -93.97525 
L 52.117202 -93.986797 
L 53.203012 -94.006694 
L 54.288822 -94.03814 
L 55.374632 -94.083952 
L 56.460442 -94.145966 
L 57.546252 -94.224873 
L 58.632062 -94.320713 
L 59.717872 -94.433819 
L 60.803682 -94.565619 
L 61.889492 -94.718772 
L 62.975302 -94.896624 
L 64.061112 -95.102519 
L 65.146922 -95.339415 
L 66.232733 -95.609705 
L 67.318543 -95.914657 
L 68.404353 -96.253179 
L 69.490163 -96.620482 
L 70.575973 -97.007787 
L 71.661783 -97.403804 
L 72.747593 -97.797463 
L 73.833403 -98.180389 
L 74.919213 -98.547755 
L 76.005023 -98.897288 
L 77.090833 -99.227525 
L 78.176643 -99.536844 
L 79.262453 -99.824094 
L 80.348264 -100.090235 
L 81.434074 -100.339305 
L 82.519884 -100.577274 
L 83.605694 -100.808881 
L 84.691504 -101.034225 
L 85.777314 -101.247002 
L 86.863124 -101.434825 
L 87.948934 -101.580794 
L 89.034744 -101.665725 
L 90.120554 -101.671463 
L 91.206364 -101.585639 
L 92.292174 -101.406521 
L 93.377984 -101.145289 
L 94.463794 -100.823648 
L 95.549605 -100.467296 
L 96.635415 -100.098196 
L 97.721225 -99.729475 
L 98.807035 -99.36543 
L 99.892845 -99.006379 
L 100.978655 -98.655242 
L 102.064465 -98.3215 
L 103.150275 -98.019532 
L 104.236085 -97.761901 
L 105.321895 -97.551663 
L 106.407705 -97.378703 
L 107.493515 -97.222576 
L 108.579325 -97.06023 
L 109.665136 -96.874228 
L 110.750946 -96.657479 
L 111.836756 -96.413216 
L 112.922566 -96.15174 
L 114.008376 -95.886455 
L 115.094186 -95.630826 
L 116.179996 -95.396402 
L 117.265806 -95.191284 
L 118.351616 -95.018838 
L 119.437426 -94.877257 
L 120.523236 -94.760711 
L 121.609046 -94.661973 
L 122.694856 -94.575332 
L 123.780666 -94.498317 
L 124.866477 -94.431482 
L 125.952287 -94.376609 
L 127.038097 -94.334489 
L 128.123907 -94.303512 
L 129.209717 -94.279748 
L 130.295527 -94.258405 
L 131.381337 -94.235768 
L 132.467147 -94.210461 
L 133.552957 -94.183354 
L 134.638767 -94.156345 
L 135.724577 -94.130946 
L 136.810387 -94.10759 
L 137.896197 -94.085891 
L 138.982008 -94.065368 
L 140.067818 -94.046014 
L 141.153628 -94.028414 
L 142.239438 -94.013532 
L 143.325248 -94.002411 
L 144.411058 -93.995878 
L 145.496868 -93.99423 
L 146.582678 -93.996953 
L 147.668488 -94.002583 
L 148.754298 -94.008903 
L 149.840108 -94.013499 
L 150.925918 -94.014519 
L 152.011728 -94.011275 
L 153.097538 -94.004401 
L 154.183349 -93.995477 
L 155.269159 -93.986341 
L 156.354969 -93.97844 
L 157.440779 -93.972501 
L 158.526589 -93.968564 
L 158.526589 -93.959561 
L 158.526589 -93.959561 
L 157.440779 -93.955624 
L 156.354969 -93.949685 
L 155.269159 -93.941784 
L 154.183349 -93.932648 
L 153.097538 -93.923724 
L 152.011728 -93.91685 
L 150.925918 -93.913606 
L 149.840108 -93.914626 
L 148.754298 -93.919222 
L 147.668488 -93.925542 
L 146.582678 -93.931172 
L 145.496868 -93.933895 
L 144.411058 -93.932247 
L 143.325248 -93.925714 
L 142.239438 -93.914593 
L 141.153628 -93.899711 
L 140.067818 -93.882111 
L 138.982008 -93.862757 
L 137.896197 -93.842234 
L 136.810387 -93.820535 
L 135.724577 -93.797179 
L 134.638767 -93.77178 
L 133.552957 -93.744771 
L 132.467147 -93.717664 
L 131.381337 -93.692357 
L 130.295527 -93.66972 
L 129.209717 -93.648377 
L 128.123907 -93.624613 
L 127.038097 -93.593636 
L 125.952287 -93.551516 
L 124.866477 -93.496643 
L 123.780666 -93.429808 
L 122.694856 -93.352793 
L 121.609046 -93.266152 
L 120.523236 -93.167414 
L 119.437426 -93.050868 
L 118.351616 -92.909287 
L 117.265806 -92.736841 
L 116.179996 -92.531723 
L 115.094186 -92.297299 
L 114.008376 -92.04167 
L 112.922566 -91.776385 
L 111.836756 -91.514909 
L 110.750946 -91.270646 
L 109.665136 -91.053897 
L 108.579325 -90.867895 
L 107.493515 -90.705549 
L 106.407705 -90.549422 
L 105.321895 -90.376462 
L 104.236085 -90.166224 
L 103.150275 -89.908593 
L 102.064465 -89.606625 
L 100.978655 -89.272883 
L 99.892845 -88.921746 
L 98.807035 -88.562695 
L 97.721225 -88.19865 
L 96.635415 -87.829929 
L 95.549605 -87.460829 
L 94.463794 -87.104477 
L 93.377984 -86.782836 
L 92.292174 -86.521604 
L 91.206364 -86.342486 
L 90.120554 -86.256662 
L 89.034744 -86.2624 
L 87.948934 -86.347331 
L 86.863124 -86.4933 
L 85.777314 -86.681123 
L 84.691504 -86.8939 
L 83.605694 -87.119244 
L 82.519884 -87.350851 
L 81.434074 -87.58882 
L 80.348264 -87.83789 
L 79.262453 -88.104031 
L 78.176643 -88.391281 
L 77.090833 -88.7006 
L 76.005023 -89.030837 
L 74.919213 -89.38037 
L 73.833403 -89.747736 
L 72.747593 -90.130662 
L 71.661783 -90.524321 
L 70.575973 -90.920338 
L 69.490163 -91.307643 
L 68.404353 -91.674946 
L 67.318543 -92.013468 
L 66.232733 -92.31842 
L 65.146922 -92.58871 
L 64.061112 -92.825606 
L 62.975302 -93.031501 
L 61.889492 -93.209353 
L 60.803682 -93.362506 
L 59.717872 -93.494306 
L 58.632062 -93.607412 
L 57.546252 -93.703252 
L 56.460442 -93.782159 
L 55.374632 -93.844173 
L 54.288822 -93.889985 
L 53.203012 -93.921431 
L 52.117202 -93.941328 
L 51.031391 -93.952875 
z
" style="stroke: #3d3d3d; stroke-width: 1.5"/>
    </defs>
    <g clip-path="url(#pae9ebfee9f)">
     <use xlink:href="#m8c6f4da60c" x="0" y="156.604062" style="fill: #e1812c; stroke: #3d3d3d; stroke-width: 1.5"/>
    </g>
   </g>
   <g id="PolyCollection_3">
    <defs>
     <path id="m5e91107caa" d="M 49.180028 -56.975677 
L 49.180028 -57.032448 
L 49.806697 -57.063955 
L 50.433366 -57.11813 
L 51.060035 -57.201523 
L 51.686703 -57.317524 
L 52.313372 -57.465363 
L 52.940041 -57.641206 
L 53.566709 -57.840655 
L 54.193378 -58.061036 
L 54.820047 -58.30253 
L 55.446716 -58.568623 
L 56.073384 -58.866511 
L 56.700053 -59.20689 
L 57.326722 -59.601655 
L 57.95339 -60.059088 
L 58.580059 -60.578454 
L 59.206728 -61.147569 
L 59.833397 -61.746042 
L 60.460065 -62.353443 
L 61.086734 -62.957386 
L 61.713403 -63.55554 
L 62.340072 -64.150032 
L 62.96674 -64.739454 
L 63.593409 -65.315599 
L 64.220078 -65.867063 
L 64.846746 -66.386112 
L 65.473415 -66.874899 
L 66.100084 -67.349382 
L 66.726753 -67.838311 
L 67.353421 -68.372672 
L 67.98009 -68.966344 
L 68.606759 -69.59998 
L 69.233427 -70.223481 
L 69.860096 -70.778807 
L 70.486765 -71.225665 
L 71.113434 -71.548687 
L 71.740102 -71.741925 
L 72.366771 -71.788062 
L 72.99344 -71.65421 
L 73.620108 -71.309768 
L 74.246777 -70.75133 
L 74.873446 -70.013957 
L 75.500115 -69.160639 
L 76.126783 -68.259411 
L 76.753452 -67.364802 
L 77.380121 -66.513164 
L 78.00679 -65.728338 
L 78.633458 -65.026884 
L 79.260127 -64.415639 
L 79.886796 -63.883973 
L 80.513464 -63.399677 
L 81.140133 -62.915579 
L 81.766802 -62.385948 
L 82.393471 -61.784538 
L 83.020139 -61.115255 
L 83.646808 -60.411232 
L 84.273477 -59.723841 
L 84.900145 -59.106407 
L 85.526814 -58.598364 
L 86.153483 -58.215203 
L 86.780152 -57.947529 
L 87.40682 -57.768722 
L 88.033489 -57.646869 
L 88.660158 -57.555327 
L 89.286827 -57.478218 
L 89.913495 -57.41034 
L 90.540164 -57.353283 
L 91.166833 -57.310238 
L 91.793501 -57.281772 
L 92.42017 -57.264188 
L 93.046839 -57.250843 
L 93.673508 -57.235284 
L 94.300176 -57.214142 
L 94.926845 -57.188207 
L 95.553514 -57.161476 
L 96.180182 -57.139001 
L 96.806851 -57.124506 
L 97.43352 -57.118571 
L 98.060189 -57.118149 
L 98.686857 -57.117982 
L 99.313526 -57.113526 
L 99.940195 -57.103721 
L 100.566863 -57.091707 
L 101.193532 -57.082873 
L 101.820201 -57.08145 
L 102.44687 -57.087863 
L 103.073538 -57.098427 
L 103.700207 -57.107516 
L 104.326876 -57.110741 
L 104.953545 -57.107118 
L 105.580213 -57.098862 
L 106.206882 -57.089195 
L 106.833551 -57.080002 
L 107.460219 -57.071071 
L 108.086888 -57.061175 
L 108.713557 -57.049712 
L 109.340226 -57.037469 
L 109.966894 -57.026098 
L 110.593563 -57.017044 
L 111.220232 -57.010859 
L 111.220232 -56.997266 
L 111.220232 -56.997266 
L 110.593563 -56.991081 
L 109.966894 -56.982027 
L 109.340226 -56.970656 
L 108.713557 -56.958413 
L 108.086888 -56.94695 
L 107.460219 -56.937054 
L 106.833551 -56.928123 
L 106.206882 -56.91893 
L 105.580213 -56.909263 
L 104.953545 -56.901007 
L 104.326876 -56.897384 
L 103.700207 -56.900609 
L 103.073538 -56.909698 
L 102.44687 -56.920262 
L 101.820201 -56.926675 
L 101.193532 -56.925252 
L 100.566863 -56.916418 
L 99.940195 -56.904404 
L 99.313526 -56.894599 
L 98.686857 -56.890143 
L 98.060189 -56.889976 
L 97.43352 -56.889554 
L 96.806851 -56.883619 
L 96.180182 -56.869124 
L 95.553514 -56.846649 
L 94.926845 -56.819918 
L 94.300176 -56.793983 
L 93.673508 -56.772841 
L 93.046839 -56.757282 
L 92.42017 -56.743937 
L 91.793501 -56.726353 
L 91.166833 -56.697887 
L 90.540164 -56.654842 
L 89.913495 -56.597785 
L 89.286827 -56.529907 
L 88.660158 -56.452798 
L 88.033489 -56.361256 
L 87.40682 -56.239403 
L 86.780152 -56.060596 
L 86.153483 -55.792922 
L 85.526814 -55.409761 
L 84.900145 -54.901718 
L 84.273477 -54.284284 
L 83.646808 -53.596893 
L 83.020139 -52.89287 
L 82.393471 -52.223587 
L 81.766802 -51.622177 
L 81.140133 -51.092546 
L 80.513464 -50.608448 
L 79.886796 -50.124152 
L 79.260127 -49.592486 
L 78.633458 -48.981241 
L 78.00679 -48.279787 
L 77.380121 -47.494961 
L 76.753452 -46.643323 
L 76.126783 -45.748714 
L 75.500115 -44.847486 
L 74.873446 -43.994168 
L 74.246777 -43.256795 
L 73.620108 -42.698357 
L 72.99344 -42.353915 
L 72.366771 -42.220063 
L 71.740102 -42.2662 
L 71.113434 -42.459438 
L 70.486765 -42.78246 
L 69.860096 -43.229318 
L 69.233427 -43.784644 
L 68.606759 -44.408145 
L 67.98009 -45.041781 
L 67.353421 -45.635453 
L 66.726753 -46.169814 
L 66.100084 -46.658743 
L 65.473415 -47.133226 
L 64.846746 -47.622013 
L 64.220078 -48.141062 
L 63.593409 -48.692526 
L 62.96674 -49.268671 
L 62.340072 -49.858093 
L 61.713403 -50.452585 
L 61.086734 -51.050739 
L 60.460065 -51.654682 
L 59.833397 -52.262083 
L 59.206728 -52.860556 
L 58.580059 -53.429671 
L 57.95339 -53.949037 
L 57.326722 -54.40647 
L 56.700053 -54.801235 
L 56.073384 -55.141614 
L 55.446716 -55.439502 
L 54.820047 -55.705595 
L 54.193378 -55.947089 
L 53.566709 -56.16747 
L 52.940041 -56.366919 
L 52.313372 -56.542762 
L 51.686703 -56.690601 
L 51.060035 -56.806602 
L 50.433366 -56.889995 
L 49.806697 -56.94417 
L 49.180028 -56.975677 
z
" style="stroke: #3d3d3d; stroke-width: 1.5"/>
    </defs>
    <g clip-path="url(#pae9ebfee9f)">
     <use xlink:href="#m5e91107caa" x="0" y="156.604062" style="fill: #c03d3e; stroke: #3d3d3d; stroke-width: 1.5"/>
    </g>
   </g>
   <g id="matplotlib.axis_1">
    <g id="xtick_1">
     <g id="line2d_4">
      <defs>
       <path id="m0ed606c44d" d="M 0 0 
L 0 3.5 
" style="stroke: #000000; stroke-width: 0.8"/>
      </defs>
      <g>
       <use xlink:href="#m0ed606c44d" x="46.059181" y="118.08" style="stroke: #000000; stroke-width: 0.8"/>
      </g>
     </g>
     <g id="text_1">
      <!-- 0 -->
      <g transform="translate(42.877931 132.678438) scale(0.1 -0.1)">
       <defs>
        <path id="DejaVuSans-30" d="M 2034 4250 
Q 1547 4250 1301 3770 
Q 1056 3291 1056 2328 
Q 1056 1369 1301 889 
Q 1547 409 2034 409 
Q 2525 409 2770 889 
Q 3016 1369 3016 2328 
Q 3016 3291 2770 3770 
Q 2525 4250 2034 4250 
z
M 2034 4750 
Q 2819 4750 3233 4129 
Q 3647 3509 3647 2328 
Q 3647 1150 3233 529 
Q 2819 -91 2034 -91 
Q 1250 -91 836 529 
Q 422 1150 422 2328 
Q 422 3509 836 4129 
Q 1250 4750 2034 4750 
z
" transform="scale(0.015625)"/>
       </defs>
       <use xlink:href="#DejaVuSans-30"/>
      </g>
     </g>
    </g>
    <g id="xtick_2">
     <g id="line2d_5">
      <g>
       <use xlink:href="#m0ed606c44d" x="85.347299" y="118.08" style="stroke: #000000; stroke-width: 0.8"/>
      </g>
     </g>
     <g id="text_2">
      <!-- 25 -->
      <g transform="translate(78.984799 132.678438) scale(0.1 -0.1)">
       <defs>
        <path id="DejaVuSans-32" d="M 1228 531 
L 3431 531 
L 3431 0 
L 469 0 
L 469 531 
Q 828 903 1448 1529 
Q 2069 2156 2228 2338 
Q 2531 2678 2651 2914 
Q 2772 3150 2772 3378 
Q 2772 3750 2511 3984 
Q 2250 4219 1831 4219 
Q 1534 4219 1204 4116 
Q 875 4013 500 3803 
L 500 4441 
Q 881 4594 1212 4672 
Q 1544 4750 1819 4750 
Q 2544 4750 2975 4387 
Q 3406 4025 3406 3419 
Q 3406 3131 3298 2873 
Q 3191 2616 2906 2266 
Q 2828 2175 2409 1742 
Q 1991 1309 1228 531 
z
" transform="scale(0.015625)"/>
        <path id="DejaVuSans-35" d="M 691 4666 
L 3169 4666 
L 3169 4134 
L 1269 4134 
L 1269 2991 
Q 1406 3038 1543 3061 
Q 1681 3084 1819 3084 
Q 2600 3084 3056 2656 
Q 3513 2228 3513 1497 
Q 3513 744 3044 326 
Q 2575 -91 1722 -91 
Q 1428 -91 1123 -41 
Q 819 9 494 109 
L 494 744 
Q 775 591 1075 516 
Q 1375 441 1709 441 
Q 2250 441 2565 725 
Q 2881 1009 2881 1497 
Q 2881 1984 2565 2268 
Q 2250 2553 1709 2553 
Q 1456 2553 1204 2497 
Q 953 2441 691 2322 
L 691 4666 
z
" transform="scale(0.015625)"/>
       </defs>
       <use xlink:href="#DejaVuSans-32"/>
       <use xlink:href="#DejaVuSans-35" x="63.623047"/>
      </g>
     </g>
    </g>
    <g id="xtick_3">
     <g id="line2d_6">
      <g>
       <use xlink:href="#m0ed606c44d" x="124.635418" y="118.08" style="stroke: #000000; stroke-width: 0.8"/>
      </g>
     </g>
     <g id="text_3">
      <!-- 50 -->
      <g transform="translate(118.272918 132.678438) scale(0.1 -0.1)">
       <use xlink:href="#DejaVuSans-35"/>
       <use xlink:href="#DejaVuSans-30" x="63.623047"/>
      </g>
     </g>
    </g>
    <g id="xtick_4">
     <g id="line2d_7">
      <g>
       <use xlink:href="#m0ed606c44d" x="163.923536" y="118.08" style="stroke: #000000; stroke-width: 0.8"/>
      </g>
     </g>
     <g id="text_4">
      <!-- 75 -->
      <g transform="translate(157.561036 132.678438) scale(0.1 -0.1)">
       <defs>
        <path id="DejaVuSans-37" d="M 525 4666 
L 3525 4666 
L 3525 4397 
L 1831 0 
L 1172 0 
L 2766 4134 
L 525 4134 
L 525 4666 
z
" transform="scale(0.015625)"/>
       </defs>
       <use xlink:href="#DejaVuSans-37"/>
       <use xlink:href="#DejaVuSans-35" x="63.623047"/>
      </g>
     </g>
    </g>
    <g id="xtick_5">
     <g id="line2d_8">
      <g>
       <use xlink:href="#m0ed606c44d" x="203.211654" y="118.08" style="stroke: #000000; stroke-width: 0.8"/>
      </g>
     </g>
     <g id="text_5">
      <!-- 100 -->
      <g transform="translate(193.667904 132.678438) scale(0.1 -0.1)">
       <defs>
        <path id="DejaVuSans-31" d="M 794 531 
L 1825 531 
L 1825 4091 
L 703 3866 
L 703 4441 
L 1819 4666 
L 2450 4666 
L 2450 531 
L 3481 531 
L 3481 0 
L 794 0 
L 794 531 
z
" transform="scale(0.015625)"/>
       </defs>
       <use xlink:href="#DejaVuSans-31"/>
       <use xlink:href="#DejaVuSans-30" x="63.623047"/>
       <use xlink:href="#DejaVuSans-30" x="127.246094"/>
      </g>
     </g>
    </g>
    <g id="text_6">
     <!-- % of alleles -->
     <g transform="translate(93.659688 147.116406) scale(0.11 -0.11)">
      <defs>
       <path id="DejaVuSans-25" d="M 4653 2053 
Q 4381 2053 4226 1822 
Q 4072 1591 4072 1178 
Q 4072 772 4226 539 
Q 4381 306 4653 306 
Q 4919 306 5073 539 
Q 5228 772 5228 1178 
Q 5228 1588 5073 1820 
Q 4919 2053 4653 2053 
z
M 4653 2450 
Q 5147 2450 5437 2106 
Q 5728 1763 5728 1178 
Q 5728 594 5436 251 
Q 5144 -91 4653 -91 
Q 4153 -91 3862 251 
Q 3572 594 3572 1178 
Q 3572 1766 3864 2108 
Q 4156 2450 4653 2450 
z
M 1428 4353 
Q 1159 4353 1004 4120 
Q 850 3888 850 3481 
Q 850 3069 1003 2837 
Q 1156 2606 1428 2606 
Q 1700 2606 1854 2837 
Q 2009 3069 2009 3481 
Q 2009 3884 1853 4118 
Q 1697 4353 1428 4353 
z
M 4250 4750 
L 4750 4750 
L 1831 -91 
L 1331 -91 
L 4250 4750 
z
M 1428 4750 
Q 1922 4750 2215 4408 
Q 2509 4066 2509 3481 
Q 2509 2891 2217 2550 
Q 1925 2209 1428 2209 
Q 931 2209 642 2551 
Q 353 2894 353 3481 
Q 353 4063 643 4406 
Q 934 4750 1428 4750 
z
" transform="scale(0.015625)"/>
       <path id="DejaVuSans-20" transform="scale(0.015625)"/>
       <path id="DejaVuSans-6f" d="M 1959 3097 
Q 1497 3097 1228 2736 
Q 959 2375 959 1747 
Q 959 1119 1226 758 
Q 1494 397 1959 397 
Q 2419 397 2687 759 
Q 2956 1122 2956 1747 
Q 2956 2369 2687 2733 
Q 2419 3097 1959 3097 
z
M 1959 3584 
Q 2709 3584 3137 3096 
Q 3566 2609 3566 1747 
Q 3566 888 3137 398 
Q 2709 -91 1959 -91 
Q 1206 -91 779 398 
Q 353 888 353 1747 
Q 353 2609 779 3096 
Q 1206 3584 1959 3584 
z
" transform="scale(0.015625)"/>
       <path id="DejaVuSans-66" d="M 2375 4863 
L 2375 4384 
L 1825 4384 
Q 1516 4384 1395 4259 
Q 1275 4134 1275 3809 
L 1275 3500 
L 2222 3500 
L 2222 3053 
L 1275 3053 
L 1275 0 
L 697 0 
L 697 3053 
L 147 3053 
L 147 3500 
L 697 3500 
L 697 3744 
Q 697 4328 969 4595 
Q 1241 4863 1831 4863 
L 2375 4863 
z
" transform="scale(0.015625)"/>
       <path id="DejaVuSans-61" d="M 2194 1759 
Q 1497 1759 1228 1600 
Q 959 1441 959 1056 
Q 959 750 1161 570 
Q 1363 391 1709 391 
Q 2188 391 2477 730 
Q 2766 1069 2766 1631 
L 2766 1759 
L 2194 1759 
z
M 3341 1997 
L 3341 0 
L 2766 0 
L 2766 531 
Q 2569 213 2275 61 
Q 1981 -91 1556 -91 
Q 1019 -91 701 211 
Q 384 513 384 1019 
Q 384 1609 779 1909 
Q 1175 2209 1959 2209 
L 2766 2209 
L 2766 2266 
Q 2766 2663 2505 2880 
Q 2244 3097 1772 3097 
Q 1472 3097 1187 3025 
Q 903 2953 641 2809 
L 641 3341 
Q 956 3463 1253 3523 
Q 1550 3584 1831 3584 
Q 2591 3584 2966 3190 
Q 3341 2797 3341 1997 
z
" transform="scale(0.015625)"/>
       <path id="DejaVuSans-6c" d="M 603 4863 
L 1178 4863 
L 1178 0 
L 603 0 
L 603 4863 
z
" transform="scale(0.015625)"/>
       <path id="DejaVuSans-65" d="M 3597 1894 
L 3597 1613 
L 953 1613 
Q 991 1019 1311 708 
Q 1631 397 2203 397 
Q 2534 397 2845 478 
Q 3156 559 3463 722 
L 3463 178 
Q 3153 47 2828 -22 
Q 2503 -91 2169 -91 
Q 1331 -91 842 396 
Q 353 884 353 1716 
Q 353 2575 817 3079 
Q 1281 3584 2069 3584 
Q 2775 3584 3186 3129 
Q 3597 2675 3597 1894 
z
M 3022 2063 
Q 3016 2534 2758 2815 
Q 2500 3097 2075 3097 
Q 1594 3097 1305 2825 
Q 1016 2553 972 2059 
L 3022 2063 
z
" transform="scale(0.015625)"/>
       <path id="DejaVuSans-73" d="M 2834 3397 
L 2834 2853 
Q 2591 2978 2328 3040 
Q 2066 3103 1784 3103 
Q 1356 3103 1142 2972 
Q 928 2841 928 2578 
Q 928 2378 1081 2264 
Q 1234 2150 1697 2047 
L 1894 2003 
Q 2506 1872 2764 1633 
Q 3022 1394 3022 966 
Q 3022 478 2636 193 
Q 2250 -91 1575 -91 
Q 1294 -91 989 -36 
Q 684 19 347 128 
L 347 722 
Q 666 556 975 473 
Q 1284 391 1588 391 
Q 1994 391 2212 530 
Q 2431 669 2431 922 
Q 2431 1156 2273 1281 
Q 2116 1406 1581 1522 
L 1381 1569 
Q 847 1681 609 1914 
Q 372 2147 372 2553 
Q 372 3047 722 3315 
Q 1072 3584 1716 3584 
Q 2034 3584 2315 3537 
Q 2597 3491 2834 3397 
z
" transform="scale(0.015625)"/>
      </defs>
      <use xlink:href="#DejaVuSans-25"/>
      <use xlink:href="#DejaVuSans-20" x="95.019531"/>
      <use xlink:href="#DejaVuSans-6f" x="126.806641"/>
      <use xlink:href="#DejaVuSans-66" x="187.988281"/>
      <use xlink:href="#DejaVuSans-20" x="223.193359"/>
      <use xlink:href="#DejaVuSans-61" x="254.980469"/>
      <use xlink:href="#DejaVuSans-6c" x="316.259766"/>
      <use xlink:href="#DejaVuSans-6c" x="344.042969"/>
      <use xlink:href="#DejaVuSans-65" x="371.826172"/>
      <use xlink:href="#DejaVuSans-6c" x="433.349609"/>
      <use xlink:href="#DejaVuSans-65" x="461.132812"/>
      <use xlink:href="#DejaVuSans-73" x="522.65625"/>
     </g>
    </g>
   </g>
   <g id="matplotlib.axis_2">
    <g id="ytick_1">
     <g id="line2d_9">
      <defs>
       <path id="m262b65b369" d="M 0 0 
L -3.5 0 
" style="stroke: #000000; stroke-width: 0.8"/>
      </defs>
      <g>
       <use xlink:href="#m262b65b369" x="41.570937" y="25.68" style="stroke: #000000; stroke-width: 0.8"/>
      </g>
     </g>
     <g id="text_7">
      <!-- 99 -->
      <g transform="translate(21.845937 29.479219) scale(0.1 -0.1)">
       <defs>
        <path id="DejaVuSans-39" d="M 703 97 
L 703 672 
Q 941 559 1184 500 
Q 1428 441 1663 441 
Q 2288 441 2617 861 
Q 2947 1281 2994 2138 
Q 2813 1869 2534 1725 
Q 2256 1581 1919 1581 
Q 1219 1581 811 2004 
Q 403 2428 403 3163 
Q 403 3881 828 4315 
Q 1253 4750 1959 4750 
Q 2769 4750 3195 4129 
Q 3622 3509 3622 2328 
Q 3622 1225 3098 567 
Q 2575 -91 1691 -91 
Q 1453 -91 1209 -44 
Q 966 3 703 97 
z
M 1959 2075 
Q 2384 2075 2632 2365 
Q 2881 2656 2881 3163 
Q 2881 3666 2632 3958 
Q 2384 4250 1959 4250 
Q 1534 4250 1286 3958 
Q 1038 3666 1038 3163 
Q 1038 2656 1286 2365 
Q 1534 2075 1959 2075 
z
" transform="scale(0.015625)"/>
       </defs>
       <use xlink:href="#DejaVuSans-39"/>
       <use xlink:href="#DejaVuSans-39" x="63.623047"/>
      </g>
     </g>
    </g>
    <g id="ytick_2">
     <g id="line2d_10">
      <g>
       <use xlink:href="#m262b65b369" x="41.570937" y="62.64" style="stroke: #000000; stroke-width: 0.8"/>
      </g>
     </g>
     <g id="text_8">
      <!-- 95 -->
      <g transform="translate(21.845937 66.439219) scale(0.1 -0.1)">
       <use xlink:href="#DejaVuSans-39"/>
       <use xlink:href="#DejaVuSans-35" x="63.623047"/>
      </g>
     </g>
    </g>
    <g id="ytick_3">
     <g id="line2d_11">
      <g>
       <use xlink:href="#m262b65b369" x="41.570937" y="99.6" style="stroke: #000000; stroke-width: 0.8"/>
      </g>
     </g>
     <g id="text_9">
      <!-- 90 -->
      <g transform="translate(21.845937 103.399219) scale(0.1 -0.1)">
       <use xlink:href="#DejaVuSans-39"/>
       <use xlink:href="#DejaVuSans-30" x="63.623047"/>
      </g>
     </g>
    </g>
    <g id="text_10">
     <!-- % of genomes -->
     <g transform="translate(15.558281 101.996797) rotate(-90) scale(0.11 -0.11)">
      <defs>
       <path id="DejaVuSans-67" d="M 2906 1791 
Q 2906 2416 2648 2759 
Q 2391 3103 1925 3103 
Q 1463 3103 1205 2759 
Q 947 2416 947 1791 
Q 947 1169 1205 825 
Q 1463 481 1925 481 
Q 2391 481 2648 825 
Q 2906 1169 2906 1791 
z
M 3481 434 
Q 3481 -459 3084 -895 
Q 2688 -1331 1869 -1331 
Q 1566 -1331 1297 -1286 
Q 1028 -1241 775 -1147 
L 775 -588 
Q 1028 -725 1275 -790 
Q 1522 -856 1778 -856 
Q 2344 -856 2625 -561 
Q 2906 -266 2906 331 
L 2906 616 
Q 2728 306 2450 153 
Q 2172 0 1784 0 
Q 1141 0 747 490 
Q 353 981 353 1791 
Q 353 2603 747 3093 
Q 1141 3584 1784 3584 
Q 2172 3584 2450 3431 
Q 2728 3278 2906 2969 
L 2906 3500 
L 3481 3500 
L 3481 434 
z
" transform="scale(0.015625)"/>
       <path id="DejaVuSans-6e" d="M 3513 2113 
L 3513 0 
L 2938 0 
L 2938 2094 
Q 2938 2591 2744 2837 
Q 2550 3084 2163 3084 
Q 1697 3084 1428 2787 
Q 1159 2491 1159 1978 
L 1159 0 
L 581 0 
L 581 3500 
L 1159 3500 
L 1159 2956 
Q 1366 3272 1645 3428 
Q 1925 3584 2291 3584 
Q 2894 3584 3203 3211 
Q 3513 2838 3513 2113 
z
" transform="scale(0.015625)"/>
       <path id="DejaVuSans-6d" d="M 3328 2828 
Q 3544 3216 3844 3400 
Q 4144 3584 4550 3584 
Q 5097 3584 5394 3201 
Q 5691 2819 5691 2113 
L 5691 0 
L 5113 0 
L 5113 2094 
Q 5113 2597 4934 2840 
Q 4756 3084 4391 3084 
Q 3944 3084 3684 2787 
Q 3425 2491 3425 1978 
L 3425 0 
L 2847 0 
L 2847 2094 
Q 2847 2600 2669 2842 
Q 2491 3084 2119 3084 
Q 1678 3084 1418 2786 
Q 1159 2488 1159 1978 
L 1159 0 
L 581 0 
L 581 3500 
L 1159 3500 
L 1159 2956 
Q 1356 3278 1631 3431 
Q 1906 3584 2284 3584 
Q 2666 3584 2933 3390 
Q 3200 3197 3328 2828 
z
" transform="scale(0.015625)"/>
      </defs>
      <use xlink:href="#DejaVuSans-25"/>
      <use xlink:href="#DejaVuSans-20" x="95.019531"/>
      <use xlink:href="#DejaVuSans-6f" x="126.806641"/>
      <use xlink:href="#DejaVuSans-66" x="187.988281"/>
      <use xlink:href="#DejaVuSans-20" x="223.193359"/>
      <use xlink:href="#DejaVuSans-67" x="254.980469"/>
      <use xlink:href="#DejaVuSans-65" x="318.457031"/>
      <use xlink:href="#DejaVuSans-6e" x="379.980469"/>
      <use xlink:href="#DejaVuSans-6f" x="443.359375"/>
      <use xlink:href="#DejaVuSans-6d" x="504.541016"/>
      <use xlink:href="#DejaVuSans-65" x="601.953125"/>
      <use xlink:href="#DejaVuSans-73" x="663.476562"/>
     </g>
    </g>
   </g>
   <g id="line2d_12">
    <path d="M 122.808063 25.68 
L 193.124165 25.68 
" clip-path="url(#pae9ebfee9f)" style="fill: none; stroke: #3d3d3d; stroke-width: 1.5; stroke-linecap: square"/>
   </g>
   <g id="line2d_13">
    <path d="M 154.516522 25.68 
L 175.772334 25.68 
" clip-path="url(#pae9ebfee9f)" style="fill: none; stroke: #3d3d3d; stroke-width: 4.5; stroke-linecap: square"/>
   </g>
   <g id="line2d_14">
    <path d="M 57.845616 62.64 
L 126.599824 62.64 
" clip-path="url(#pae9ebfee9f)" style="fill: none; stroke: #3d3d3d; stroke-width: 1.5; stroke-linecap: square"/>
   </g>
   <g id="line2d_15">
    <path d="M 80.798149 62.64 
L 99.123652 62.64 
" clip-path="url(#pae9ebfee9f)" style="fill: none; stroke: #3d3d3d; stroke-width: 4.5; stroke-linecap: square"/>
   </g>
   <g id="line2d_16">
    <path d="M 52.74652 99.6 
L 89.276111 99.6 
" clip-path="url(#pae9ebfee9f)" style="fill: none; stroke: #3d3d3d; stroke-width: 1.5; stroke-linecap: square"/>
   </g>
   <g id="line2d_17">
    <path d="M 66.264499 99.6 
L 75.79073 99.6 
" clip-path="url(#pae9ebfee9f)" style="fill: none; stroke: #3d3d3d; stroke-width: 4.5; stroke-linecap: square"/>
   </g>
   <g id="patch_3">
    <path d="M 41.570937 118.08 
L 41.570937 7.2 
" style="fill: none; stroke: #000000; stroke-width: 0.8; stroke-linejoin: miter; stroke-linecap: square"/>
   </g>
   <g id="patch_4">
    <path d="M 208.970938 118.08 
L 208.970938 7.2 
" style="fill: none; stroke: #000000; stroke-width: 0.8; stroke-linejoin: miter; stroke-linecap: square"/>
   </g>
   <g id="patch_5">
    <path d="M 41.570937 118.08 
L 208.970938 118.08 
" style="fill: none; stroke: #000000; stroke-width: 0.8; stroke-linejoin: miter; stroke-linecap: square"/>
   </g>
   <g id="patch_6">
    <path d="M 41.570937 7.2 
L 208.970938 7.2 
" style="fill: none; stroke: #000000; stroke-width: 0.8; stroke-linejoin: miter; stroke-linecap: square"/>
   </g>
   <g id="PathCollection_1">
    <defs>
     <path id="mb4044eef87" d="M 0 1.5 
C 0.397805 1.5 0.77937 1.341951 1.06066 1.06066 
C 1.341951 0.77937 1.5 0.397805 1.5 0 
C 1.5 -0.397805 1.341951 -0.77937 1.06066 -1.06066 
C 0.77937 -1.341951 0.397805 -1.5 0 -1.5 
C -0.397805 -1.5 -0.77937 -1.341951 -1.06066 -1.06066 
C -1.341951 -0.77937 -1.5 -0.397805 -1.5 0 
C -1.5 0.397805 -1.341951 0.77937 -1.06066 1.06066 
C -0.77937 1.341951 -0.397805 1.5 0 1.5 
z
" style="stroke: #3d3d3d"/>
    </defs>
    <g clip-path="url(#pae9ebfee9f)">
     <use xlink:href="#mb4044eef87" x="165.631715" y="25.68" style="fill: #ffffff; stroke: #3d3d3d"/>
    </g>
   </g>
   <g id="PathCollection_2">
    <g clip-path="url(#pae9ebfee9f)">
     <use xlink:href="#mb4044eef87" x="89.823161" y="62.64" style="fill: #ffffff; stroke: #3d3d3d"/>
    </g>
   </g>
   <g id="PathCollection_3">
    <g clip-path="url(#pae9ebfee9f)">
     <use xlink:href="#mb4044eef87" x="71.335453" y="99.6" style="fill: #ffffff; stroke: #3d3d3d"/>
    </g>
   </g>
  </g>
 </g>
 <defs>
  <clipPath id="pae9ebfee9f">
   <rect x="41.570937" y="7.2" width="167.4" height="110.88"/>
  </clipPath>
 </defs>
</svg>
