<?xml version="1.0" encoding="utf-8" standalone="no"?>
<!DOCTYPE svg PUBLIC "-//W3C//DTD SVG 1.1//EN"
  "http://www.w3.org/Graphics/SVG/1.1/DTD/svg11.dtd">
<svg xmlns:xlink="http://www.w3.org/1999/xlink" width="170.601592pt" height="155.63625pt" viewBox="0 0 170.601592 155.63625" xmlns="http://www.w3.org/2000/svg" version="1.1">
 <metadata>
  <rdf:RDF xmlns:dc="http://purl.org/dc/elements/1.1/" xmlns:cc="http://creativecommons.org/ns#" xmlns:rdf="http://www.w3.org/1999/02/22-rdf-syntax-ns#">
   <cc:Work>
    <dc:type rdf:resource="http://purl.org/dc/dcmitype/StillImage"/>
    <dc:date>2023-10-17T16:32:14.360889</dc:date>
    <dc:format>image/svg+xml</dc:format>
    <dc:creator>
     <cc:Agent>
      <dc:title>Matplotlib v3.6.2, https://matplotlib.org/</dc:title>
     </cc:Agent>
    </dc:creator>
   </cc:Work>
  </rdf:RDF>
 </metadata>
 <defs>
  <style type="text/css">*{stroke-linejoin: round; stroke-linecap: butt}</style>
 </defs>
 <g id="figure_1">
  <g id="patch_1">
   <path d="M 0 155.63625 
L 170.601592 155.63625 
L 170.601592 0 
L 0 0 
z
" style="fill: #ffffff"/>
  </g>
  <g id="axes_1">
   <g id="patch_2">
    <path d="M 46.965625 118.08 
L 158.565625 118.08 
L 158.565625 7.2 
L 46.965625 7.2 
z
" style="fill: #ffffff"/>
   </g>
   <g id="patch_3">
    <path d="M 52.038352 118.08 
L 55.661729 118.08 
L 55.661729 111.291429 
L 52.038352 111.291429 
z
" clip-path="url(#pbdb989b329)" style="fill: #1f77b4; fill-opacity: 0.75; stroke: #000000; stroke-width: 0.362338; stroke-linejoin: miter"/>
   </g>
   <g id="patch_4">
    <path d="M 55.661729 118.08 
L 59.285106 118.08 
L 59.285106 102.24 
L 55.661729 102.24 
z
" clip-path="url(#pbdb989b329)" style="fill: #1f77b4; fill-opacity: 0.75; stroke: #000000; stroke-width: 0.362338; stroke-linejoin: miter"/>
   </g>
   <g id="patch_5">
    <path d="M 59.285106 118.08 
L 62.908482 118.08 
L 62.908482 77.348571 
L 59.285106 77.348571 
z
" clip-path="url(#pbdb989b329)" style="fill: #1f77b4; fill-opacity: 0.75; stroke: #000000; stroke-width: 0.362338; stroke-linejoin: miter"/>
   </g>
   <g id="patch_6">
    <path d="M 62.908482 118.08 
L 66.531859 118.08 
L 66.531859 47.931429 
L 62.908482 47.931429 
z
" clip-path="url(#pbdb989b329)" style="fill: #1f77b4; fill-opacity: 0.75; stroke: #000000; stroke-width: 0.362338; stroke-linejoin: miter"/>
   </g>
   <g id="patch_7">
    <path d="M 66.531859 118.08 
L 70.155235 118.08 
L 70.155235 35.108571 
L 66.531859 35.108571 
z
" clip-path="url(#pbdb989b329)" style="fill: #1f77b4; fill-opacity: 0.75; stroke: #000000; stroke-width: 0.362338; stroke-linejoin: miter"/>
   </g>
   <g id="patch_8">
    <path d="M 70.155235 118.08 
L 73.778612 118.08 
L 73.778612 12.48 
L 70.155235 12.48 
z
" clip-path="url(#pbdb989b329)" style="fill: #1f77b4; fill-opacity: 0.75; stroke: #000000; stroke-width: 0.362338; stroke-linejoin: miter"/>
   </g>
   <g id="patch_9">
    <path d="M 73.778612 118.08 
L 77.401989 118.08 
L 77.401989 13.234286 
L 73.778612 13.234286 
z
" clip-path="url(#pbdb989b329)" style="fill: #1f77b4; fill-opacity: 0.75; stroke: #000000; stroke-width: 0.362338; stroke-linejoin: miter"/>
   </g>
   <g id="patch_10">
    <path d="M 77.401989 118.08 
L 81.025365 118.08 
L 81.025365 23.04 
L 77.401989 23.04 
z
" clip-path="url(#pbdb989b329)" style="fill: #1f77b4; fill-opacity: 0.75; stroke: #000000; stroke-width: 0.362338; stroke-linejoin: miter"/>
   </g>
   <g id="patch_11">
    <path d="M 81.025365 118.08 
L 84.648742 118.08 
L 84.648742 44.914286 
L 81.025365 44.914286 
z
" clip-path="url(#pbdb989b329)" style="fill: #1f77b4; fill-opacity: 0.75; stroke: #000000; stroke-width: 0.362338; stroke-linejoin: miter"/>
   </g>
   <g id="patch_12">
    <path d="M 84.648742 118.08 
L 88.272119 118.08 
L 88.272119 63.771429 
L 84.648742 63.771429 
z
" clip-path="url(#pbdb989b329)" style="fill: #1f77b4; fill-opacity: 0.75; stroke: #000000; stroke-width: 0.362338; stroke-linejoin: miter"/>
   </g>
   <g id="patch_13">
    <path d="M 88.272119 118.08 
L 91.895495 118.08 
L 91.895495 75.085714 
L 88.272119 75.085714 
z
" clip-path="url(#pbdb989b329)" style="fill: #1f77b4; fill-opacity: 0.75; stroke: #000000; stroke-width: 0.362338; stroke-linejoin: miter"/>
   </g>
   <g id="patch_14">
    <path d="M 91.895495 118.08 
L 95.518872 118.08 
L 95.518872 77.348571 
L 91.895495 77.348571 
z
" clip-path="url(#pbdb989b329)" style="fill: #1f77b4; fill-opacity: 0.75; stroke: #000000; stroke-width: 0.362338; stroke-linejoin: miter"/>
   </g>
   <g id="patch_15">
    <path d="M 95.518872 118.08 
L 99.142248 118.08 
L 99.142248 86.4 
L 95.518872 86.4 
z
" clip-path="url(#pbdb989b329)" style="fill: #1f77b4; fill-opacity: 0.75; stroke: #000000; stroke-width: 0.362338; stroke-linejoin: miter"/>
   </g>
   <g id="patch_16">
    <path d="M 99.142248 118.08 
L 102.765625 118.08 
L 102.765625 93.188571 
L 99.142248 93.188571 
z
" clip-path="url(#pbdb989b329)" style="fill: #1f77b4; fill-opacity: 0.75; stroke: #000000; stroke-width: 0.362338; stroke-linejoin: miter"/>
   </g>
   <g id="patch_17">
    <path d="M 102.765625 118.08 
L 106.389002 118.08 
L 106.389002 98.468571 
L 102.765625 98.468571 
z
" clip-path="url(#pbdb989b329)" style="fill: #1f77b4; fill-opacity: 0.75; stroke: #000000; stroke-width: 0.362338; stroke-linejoin: miter"/>
   </g>
   <g id="patch_18">
    <path d="M 106.389002 118.08 
L 110.012378 118.08 
L 110.012378 102.994286 
L 106.389002 102.994286 
z
" clip-path="url(#pbdb989b329)" style="fill: #1f77b4; fill-opacity: 0.75; stroke: #000000; stroke-width: 0.362338; stroke-linejoin: miter"/>
   </g>
   <g id="patch_19">
    <path d="M 110.012378 118.08 
L 113.635755 118.08 
L 113.635755 99.222857 
L 110.012378 99.222857 
z
" clip-path="url(#pbdb989b329)" style="fill: #1f77b4; fill-opacity: 0.75; stroke: #000000; stroke-width: 0.362338; stroke-linejoin: miter"/>
   </g>
   <g id="patch_20">
    <path d="M 113.635755 118.08 
L 117.259131 118.08 
L 117.259131 106.765714 
L 113.635755 106.765714 
z
" clip-path="url(#pbdb989b329)" style="fill: #1f77b4; fill-opacity: 0.75; stroke: #000000; stroke-width: 0.362338; stroke-linejoin: miter"/>
   </g>
   <g id="patch_21">
    <path d="M 117.259131 118.08 
L 120.882508 118.08 
L 120.882508 112.045714 
L 117.259131 112.045714 
z
" clip-path="url(#pbdb989b329)" style="fill: #1f77b4; fill-opacity: 0.75; stroke: #000000; stroke-width: 0.362338; stroke-linejoin: miter"/>
   </g>
   <g id="patch_22">
    <path d="M 120.882508 118.08 
L 124.505885 118.08 
L 124.505885 109.028571 
L 120.882508 109.028571 
z
" clip-path="url(#pbdb989b329)" style="fill: #1f77b4; fill-opacity: 0.75; stroke: #000000; stroke-width: 0.362338; stroke-linejoin: miter"/>
   </g>
   <g id="patch_23">
    <path d="M 124.505885 118.08 
L 128.129261 118.08 
L 128.129261 116.571429 
L 124.505885 116.571429 
z
" clip-path="url(#pbdb989b329)" style="fill: #1f77b4; fill-opacity: 0.75; stroke: #000000; stroke-width: 0.362338; stroke-linejoin: miter"/>
   </g>
   <g id="patch_24">
    <path d="M 128.129261 118.08 
L 131.752638 118.08 
L 131.752638 113.554286 
L 128.129261 113.554286 
z
" clip-path="url(#pbdb989b329)" style="fill: #1f77b4; fill-opacity: 0.75; stroke: #000000; stroke-width: 0.362338; stroke-linejoin: miter"/>
   </g>
   <g id="patch_25">
    <path d="M 131.752638 118.08 
L 135.376015 118.08 
L 135.376015 117.325714 
L 131.752638 117.325714 
z
" clip-path="url(#pbdb989b329)" style="fill: #1f77b4; fill-opacity: 0.75; stroke: #000000; stroke-width: 0.362338; stroke-linejoin: miter"/>
   </g>
   <g id="patch_26">
    <path d="M 135.376015 118.08 
L 138.999391 118.08 
L 138.999391 117.325714 
L 135.376015 117.325714 
z
" clip-path="url(#pbdb989b329)" style="fill: #1f77b4; fill-opacity: 0.75; stroke: #000000; stroke-width: 0.362338; stroke-linejoin: miter"/>
   </g>
   <g id="patch_27">
    <path d="M 138.999391 118.08 
L 142.622768 118.08 
L 142.622768 117.325714 
L 138.999391 117.325714 
z
" clip-path="url(#pbdb989b329)" style="fill: #1f77b4; fill-opacity: 0.75; stroke: #000000; stroke-width: 0.362338; stroke-linejoin: miter"/>
   </g>
   <g id="patch_28">
    <path d="M 142.622768 118.08 
L 146.246144 118.08 
L 146.246144 116.571429 
L 142.622768 116.571429 
z
" clip-path="url(#pbdb989b329)" style="fill: #1f77b4; fill-opacity: 0.75; stroke: #000000; stroke-width: 0.362338; stroke-linejoin: miter"/>
   </g>
   <g id="patch_29">
    <path d="M 146.246144 118.08 
L 149.869521 118.08 
L 149.869521 118.08 
L 146.246144 118.08 
z
" clip-path="url(#pbdb989b329)" style="fill: #1f77b4; fill-opacity: 0.75; stroke: #000000; stroke-width: 0.362338; stroke-linejoin: miter"/>
   </g>
   <g id="patch_30">
    <path d="M 149.869521 118.08 
L 153.492898 118.08 
L 153.492898 115.817143 
L 149.869521 115.817143 
z
" clip-path="url(#pbdb989b329)" style="fill: #1f77b4; fill-opacity: 0.75; stroke: #000000; stroke-width: 0.362338; stroke-linejoin: miter"/>
   </g>
   <g id="matplotlib.axis_1">
    <g id="xtick_1">
     <g id="line2d_1">
      <defs>
       <path id="m6a0c0e9933" d="M 0 0 
L 0 3.5 
" style="stroke: #000000; stroke-width: 0.8"/>
      </defs>
      <g>
       <use xlink:href="#m6a0c0e9933" x="80.868961" y="118.08" style="stroke: #000000; stroke-width: 0.8"/>
      </g>
     </g>
     <g id="text_1">
      <!-- 100 -->
      <g transform="translate(71.325211 132.678438) scale(0.1 -0.1)">
       <defs>
        <path id="DejaVuSans-31" d="M 794 531 
L 1825 531 
L 1825 4091 
L 703 3866 
L 703 4441 
L 1819 4666 
L 2450 4666 
L 2450 531 
L 3481 531 
L 3481 0 
L 794 0 
L 794 531 
z
" transform="scale(0.015625)"/>
        <path id="DejaVuSans-30" d="M 2034 4250 
Q 1547 4250 1301 3770 
Q 1056 3291 1056 2328 
Q 1056 1369 1301 889 
Q 1547 409 2034 409 
Q 2525 409 2770 889 
Q 3016 1369 3016 2328 
Q 3016 3291 2770 3770 
Q 2525 4250 2034 4250 
z
M 2034 4750 
Q 2819 4750 3233 4129 
Q 3647 3509 3647 2328 
Q 3647 1150 3233 529 
Q 2819 -91 2034 -91 
Q 1250 -91 836 529 
Q 422 1150 422 2328 
Q 422 3509 836 4129 
Q 1250 4750 2034 4750 
z
" transform="scale(0.015625)"/>
       </defs>
       <use xlink:href="#DejaVuSans-31"/>
       <use xlink:href="#DejaVuSans-30" x="63.623047"/>
       <use xlink:href="#DejaVuSans-30" x="127.246094"/>
      </g>
     </g>
    </g>
    <g id="xtick_2">
     <g id="line2d_2">
      <g>
       <use xlink:href="#m6a0c0e9933" x="117.363401" y="118.08" style="stroke: #000000; stroke-width: 0.8"/>
      </g>
     </g>
     <g id="text_2">
      <!-- 200 -->
      <g transform="translate(107.819651 132.678438) scale(0.1 -0.1)">
       <defs>
        <path id="DejaVuSans-32" d="M 1228 531 
L 3431 531 
L 3431 0 
L 469 0 
L 469 531 
Q 828 903 1448 1529 
Q 2069 2156 2228 2338 
Q 2531 2678 2651 2914 
Q 2772 3150 2772 3378 
Q 2772 3750 2511 3984 
Q 2250 4219 1831 4219 
Q 1534 4219 1204 4116 
Q 875 4013 500 3803 
L 500 4441 
Q 881 4594 1212 4672 
Q 1544 4750 1819 4750 
Q 2544 4750 2975 4387 
Q 3406 4025 3406 3419 
Q 3406 3131 3298 2873 
Q 3191 2616 2906 2266 
Q 2828 2175 2409 1742 
Q 1991 1309 1228 531 
z
" transform="scale(0.015625)"/>
       </defs>
       <use xlink:href="#DejaVuSans-32"/>
       <use xlink:href="#DejaVuSans-30" x="63.623047"/>
       <use xlink:href="#DejaVuSans-30" x="127.246094"/>
      </g>
     </g>
    </g>
    <g id="xtick_3">
     <g id="line2d_3">
      <g>
       <use xlink:href="#m6a0c0e9933" x="153.857842" y="118.08" style="stroke: #000000; stroke-width: 0.8"/>
      </g>
     </g>
     <g id="text_3">
      <!-- 300 -->
      <g transform="translate(144.314092 132.678438) scale(0.1 -0.1)">
       <defs>
        <path id="DejaVuSans-33" d="M 2597 2516 
Q 3050 2419 3304 2112 
Q 3559 1806 3559 1356 
Q 3559 666 3084 287 
Q 2609 -91 1734 -91 
Q 1441 -91 1130 -33 
Q 819 25 488 141 
L 488 750 
Q 750 597 1062 519 
Q 1375 441 1716 441 
Q 2309 441 2620 675 
Q 2931 909 2931 1356 
Q 2931 1769 2642 2001 
Q 2353 2234 1838 2234 
L 1294 2234 
L 1294 2753 
L 1863 2753 
Q 2328 2753 2575 2939 
Q 2822 3125 2822 3475 
Q 2822 3834 2567 4026 
Q 2313 4219 1838 4219 
Q 1578 4219 1281 4162 
Q 984 4106 628 3988 
L 628 4550 
Q 988 4650 1302 4700 
Q 1616 4750 1894 4750 
Q 2613 4750 3031 4423 
Q 3450 4097 3450 3541 
Q 3450 3153 3228 2886 
Q 3006 2619 2597 2516 
z
" transform="scale(0.015625)"/>
       </defs>
       <use xlink:href="#DejaVuSans-33"/>
       <use xlink:href="#DejaVuSans-30" x="63.623047"/>
       <use xlink:href="#DejaVuSans-30" x="127.246094"/>
      </g>
     </g>
    </g>
    <g id="text_4">
     <!-- # of alleles -->
     <g transform="translate(74.589062 146.356562) scale(0.1 -0.1)">
      <defs>
       <path id="DejaVuSans-23" d="M 3272 2816 
L 2363 2816 
L 2100 1772 
L 3016 1772 
L 3272 2816 
z
M 2803 4594 
L 2478 3297 
L 3391 3297 
L 3719 4594 
L 4219 4594 
L 3897 3297 
L 4872 3297 
L 4872 2816 
L 3775 2816 
L 3519 1772 
L 4513 1772 
L 4513 1294 
L 3397 1294 
L 3072 0 
L 2572 0 
L 2894 1294 
L 1978 1294 
L 1656 0 
L 1153 0 
L 1478 1294 
L 494 1294 
L 494 1772 
L 1594 1772 
L 1856 2816 
L 850 2816 
L 850 3297 
L 1978 3297 
L 2297 4594 
L 2803 4594 
z
" transform="scale(0.015625)"/>
       <path id="DejaVuSans-20" transform="scale(0.015625)"/>
       <path id="DejaVuSans-6f" d="M 1959 3097 
Q 1497 3097 1228 2736 
Q 959 2375 959 1747 
Q 959 1119 1226 758 
Q 1494 397 1959 397 
Q 2419 397 2687 759 
Q 2956 1122 2956 1747 
Q 2956 2369 2687 2733 
Q 2419 3097 1959 3097 
z
M 1959 3584 
Q 2709 3584 3137 3096 
Q 3566 2609 3566 1747 
Q 3566 888 3137 398 
Q 2709 -91 1959 -91 
Q 1206 -91 779 398 
Q 353 888 353 1747 
Q 353 2609 779 3096 
Q 1206 3584 1959 3584 
z
" transform="scale(0.015625)"/>
       <path id="DejaVuSans-66" d="M 2375 4863 
L 2375 4384 
L 1825 4384 
Q 1516 4384 1395 4259 
Q 1275 4134 1275 3809 
L 1275 3500 
L 2222 3500 
L 2222 3053 
L 1275 3053 
L 1275 0 
L 697 0 
L 697 3053 
L 147 3053 
L 147 3500 
L 697 3500 
L 697 3744 
Q 697 4328 969 4595 
Q 1241 4863 1831 4863 
L 2375 4863 
z
" transform="scale(0.015625)"/>
       <path id="DejaVuSans-61" d="M 2194 1759 
Q 1497 1759 1228 1600 
Q 959 1441 959 1056 
Q 959 750 1161 570 
Q 1363 391 1709 391 
Q 2188 391 2477 730 
Q 2766 1069 2766 1631 
L 2766 1759 
L 2194 1759 
z
M 3341 1997 
L 3341 0 
L 2766 0 
L 2766 531 
Q 2569 213 2275 61 
Q 1981 -91 1556 -91 
Q 1019 -91 701 211 
Q 384 513 384 1019 
Q 384 1609 779 1909 
Q 1175 2209 1959 2209 
L 2766 2209 
L 2766 2266 
Q 2766 2663 2505 2880 
Q 2244 3097 1772 3097 
Q 1472 3097 1187 3025 
Q 903 2953 641 2809 
L 641 3341 
Q 956 3463 1253 3523 
Q 1550 3584 1831 3584 
Q 2591 3584 2966 3190 
Q 3341 2797 3341 1997 
z
" transform="scale(0.015625)"/>
       <path id="DejaVuSans-6c" d="M 603 4863 
L 1178 4863 
L 1178 0 
L 603 0 
L 603 4863 
z
" transform="scale(0.015625)"/>
       <path id="DejaVuSans-65" d="M 3597 1894 
L 3597 1613 
L 953 1613 
Q 991 1019 1311 708 
Q 1631 397 2203 397 
Q 2534 397 2845 478 
Q 3156 559 3463 722 
L 3463 178 
Q 3153 47 2828 -22 
Q 2503 -91 2169 -91 
Q 1331 -91 842 396 
Q 353 884 353 1716 
Q 353 2575 817 3079 
Q 1281 3584 2069 3584 
Q 2775 3584 3186 3129 
Q 3597 2675 3597 1894 
z
M 3022 2063 
Q 3016 2534 2758 2815 
Q 2500 3097 2075 3097 
Q 1594 3097 1305 2825 
Q 1016 2553 972 2059 
L 3022 2063 
z
" transform="scale(0.015625)"/>
       <path id="DejaVuSans-73" d="M 2834 3397 
L 2834 2853 
Q 2591 2978 2328 3040 
Q 2066 3103 1784 3103 
Q 1356 3103 1142 2972 
Q 928 2841 928 2578 
Q 928 2378 1081 2264 
Q 1234 2150 1697 2047 
L 1894 2003 
Q 2506 1872 2764 1633 
Q 3022 1394 3022 966 
Q 3022 478 2636 193 
Q 2250 -91 1575 -91 
Q 1294 -91 989 -36 
Q 684 19 347 128 
L 347 722 
Q 666 556 975 473 
Q 1284 391 1588 391 
Q 1994 391 2212 530 
Q 2431 669 2431 922 
Q 2431 1156 2273 1281 
Q 2116 1406 1581 1522 
L 1381 1569 
Q 847 1681 609 1914 
Q 372 2147 372 2553 
Q 372 3047 722 3315 
Q 1072 3584 1716 3584 
Q 2034 3584 2315 3537 
Q 2597 3491 2834 3397 
z
" transform="scale(0.015625)"/>
      </defs>
      <use xlink:href="#DejaVuSans-23"/>
      <use xlink:href="#DejaVuSans-20" x="83.789062"/>
      <use xlink:href="#DejaVuSans-6f" x="115.576172"/>
      <use xlink:href="#DejaVuSans-66" x="176.757812"/>
      <use xlink:href="#DejaVuSans-20" x="211.962891"/>
      <use xlink:href="#DejaVuSans-61" x="243.75"/>
      <use xlink:href="#DejaVuSans-6c" x="305.029297"/>
      <use xlink:href="#DejaVuSans-6c" x="332.8125"/>
      <use xlink:href="#DejaVuSans-65" x="360.595703"/>
      <use xlink:href="#DejaVuSans-6c" x="422.119141"/>
      <use xlink:href="#DejaVuSans-65" x="449.902344"/>
      <use xlink:href="#DejaVuSans-73" x="511.425781"/>
     </g>
    </g>
   </g>
   <g id="matplotlib.axis_2">
    <g id="ytick_1">
     <g id="line2d_4">
      <defs>
       <path id="me2f7d079c7" d="M 0 0 
L -3.5 0 
" style="stroke: #000000; stroke-width: 0.8"/>
      </defs>
      <g>
       <use xlink:href="#me2f7d079c7" x="46.965625" y="118.08" style="stroke: #000000; stroke-width: 0.8"/>
      </g>
     </g>
     <g id="text_5">
      <!-- 0 -->
      <g transform="translate(33.603125 121.879219) scale(0.1 -0.1)">
       <use xlink:href="#DejaVuSans-30"/>
      </g>
     </g>
    </g>
    <g id="ytick_2">
     <g id="line2d_5">
      <g>
       <use xlink:href="#me2f7d079c7" x="46.965625" y="80.365714" style="stroke: #000000; stroke-width: 0.8"/>
      </g>
     </g>
     <g id="text_6">
      <!-- 50 -->
      <g transform="translate(27.240625 84.164933) scale(0.1 -0.1)">
       <defs>
        <path id="DejaVuSans-35" d="M 691 4666 
L 3169 4666 
L 3169 4134 
L 1269 4134 
L 1269 2991 
Q 1406 3038 1543 3061 
Q 1681 3084 1819 3084 
Q 2600 3084 3056 2656 
Q 3513 2228 3513 1497 
Q 3513 744 3044 326 
Q 2575 -91 1722 -91 
Q 1428 -91 1123 -41 
Q 819 9 494 109 
L 494 744 
Q 775 591 1075 516 
Q 1375 441 1709 441 
Q 2250 441 2565 725 
Q 2881 1009 2881 1497 
Q 2881 1984 2565 2268 
Q 2250 2553 1709 2553 
Q 1456 2553 1204 2497 
Q 953 2441 691 2322 
L 691 4666 
z
" transform="scale(0.015625)"/>
       </defs>
       <use xlink:href="#DejaVuSans-35"/>
       <use xlink:href="#DejaVuSans-30" x="63.623047"/>
      </g>
     </g>
    </g>
    <g id="ytick_3">
     <g id="line2d_6">
      <g>
       <use xlink:href="#me2f7d079c7" x="46.965625" y="42.651429" style="stroke: #000000; stroke-width: 0.8"/>
      </g>
     </g>
     <g id="text_7">
      <!-- 100 -->
      <g transform="translate(20.878125 46.450647) scale(0.1 -0.1)">
       <use xlink:href="#DejaVuSans-31"/>
       <use xlink:href="#DejaVuSans-30" x="63.623047"/>
       <use xlink:href="#DejaVuSans-30" x="127.246094"/>
      </g>
     </g>
    </g>
    <g id="text_8">
     <!-- # of regions -->
     <g transform="translate(14.798437 93.243125) rotate(-90) scale(0.1 -0.1)">
      <defs>
       <path id="DejaVuSans-72" d="M 2631 2963 
Q 2534 3019 2420 3045 
Q 2306 3072 2169 3072 
Q 1681 3072 1420 2755 
Q 1159 2438 1159 1844 
L 1159 0 
L 581 0 
L 581 3500 
L 1159 3500 
L 1159 2956 
Q 1341 3275 1631 3429 
Q 1922 3584 2338 3584 
Q 2397 3584 2469 3576 
Q 2541 3569 2628 3553 
L 2631 2963 
z
" transform="scale(0.015625)"/>
       <path id="DejaVuSans-67" d="M 2906 1791 
Q 2906 2416 2648 2759 
Q 2391 3103 1925 3103 
Q 1463 3103 1205 2759 
Q 947 2416 947 1791 
Q 947 1169 1205 825 
Q 1463 481 1925 481 
Q 2391 481 2648 825 
Q 2906 1169 2906 1791 
z
M 3481 434 
Q 3481 -459 3084 -895 
Q 2688 -1331 1869 -1331 
Q 1566 -1331 1297 -1286 
Q 1028 -1241 775 -1147 
L 775 -588 
Q 1028 -725 1275 -790 
Q 1522 -856 1778 -856 
Q 2344 -856 2625 -561 
Q 2906 -266 2906 331 
L 2906 616 
Q 2728 306 2450 153 
Q 2172 0 1784 0 
Q 1141 0 747 490 
Q 353 981 353 1791 
Q 353 2603 747 3093 
Q 1141 3584 1784 3584 
Q 2172 3584 2450 3431 
Q 2728 3278 2906 2969 
L 2906 3500 
L 3481 3500 
L 3481 434 
z
" transform="scale(0.015625)"/>
       <path id="DejaVuSans-69" d="M 603 3500 
L 1178 3500 
L 1178 0 
L 603 0 
L 603 3500 
z
M 603 4863 
L 1178 4863 
L 1178 4134 
L 603 4134 
L 603 4863 
z
" transform="scale(0.015625)"/>
       <path id="DejaVuSans-6e" d="M 3513 2113 
L 3513 0 
L 2938 0 
L 2938 2094 
Q 2938 2591 2744 2837 
Q 2550 3084 2163 3084 
Q 1697 3084 1428 2787 
Q 1159 2491 1159 1978 
L 1159 0 
L 581 0 
L 581 3500 
L 1159 3500 
L 1159 2956 
Q 1366 3272 1645 3428 
Q 1925 3584 2291 3584 
Q 2894 3584 3203 3211 
Q 3513 2838 3513 2113 
z
" transform="scale(0.015625)"/>
      </defs>
      <use xlink:href="#DejaVuSans-23"/>
      <use xlink:href="#DejaVuSans-20" x="83.789062"/>
      <use xlink:href="#DejaVuSans-6f" x="115.576172"/>
      <use xlink:href="#DejaVuSans-66" x="176.757812"/>
      <use xlink:href="#DejaVuSans-20" x="211.962891"/>
      <use xlink:href="#DejaVuSans-72" x="243.75"/>
      <use xlink:href="#DejaVuSans-65" x="282.613281"/>
      <use xlink:href="#DejaVuSans-67" x="344.136719"/>
      <use xlink:href="#DejaVuSans-69" x="407.613281"/>
      <use xlink:href="#DejaVuSans-6f" x="435.396484"/>
      <use xlink:href="#DejaVuSans-6e" x="496.578125"/>
      <use xlink:href="#DejaVuSans-73" x="559.957031"/>
     </g>
    </g>
   </g>
   <g id="patch_31">
    <path d="M 46.965625 118.08 
L 46.965625 7.2 
" style="fill: none; stroke: #000000; stroke-width: 0.8; stroke-linejoin: miter; stroke-linecap: square"/>
   </g>
   <g id="patch_32">
    <path d="M 158.565625 118.08 
L 158.565625 7.2 
" style="fill: none; stroke: #000000; stroke-width: 0.8; stroke-linejoin: miter; stroke-linecap: square"/>
   </g>
   <g id="patch_33">
    <path d="M 46.965625 118.08 
L 158.565625 118.08 
" style="fill: none; stroke: #000000; stroke-width: 0.8; stroke-linejoin: miter; stroke-linecap: square"/>
   </g>
   <g id="patch_34">
    <path d="M 46.965625 7.2 
L 158.565625 7.2 
" style="fill: none; stroke: #000000; stroke-width: 0.8; stroke-linejoin: miter; stroke-linecap: square"/>
   </g>
  </g>
 </g>
 <defs>
  <clipPath id="pbdb989b329">
   <rect x="46.965625" y="7.2" width="111.6" height="110.88"/>
  </clipPath>
 </defs>
</svg>
