<?xml version="1.0" encoding="utf-8" standalone="no"?>
<!DOCTYPE svg PUBLIC "-//W3C//DTD SVG 1.1//EN"
  "http://www.w3.org/Graphics/SVG/1.1/DTD/svg11.dtd">
<svg xmlns:xlink="http://www.w3.org/1999/xlink" width="444.17125pt" height="350.54pt" viewBox="0 0 444.17125 350.54" xmlns="http://www.w3.org/2000/svg" version="1.1">
 <metadata>
  <rdf:RDF xmlns:dc="http://purl.org/dc/elements/1.1/" xmlns:cc="http://creativecommons.org/ns#" xmlns:rdf="http://www.w3.org/1999/02/22-rdf-syntax-ns#">
   <cc:Work>
    <dc:type rdf:resource="http://purl.org/dc/dcmitype/StillImage"/>
    <dc:date>2023-10-03T12:26:07.575051</dc:date>
    <dc:format>image/svg+xml</dc:format>
    <dc:creator>
     <cc:Agent>
      <dc:title>Matplotlib v3.6.2, https://matplotlib.org/</dc:title>
     </cc:Agent>
    </dc:creator>
   </cc:Work>
  </rdf:RDF>
 </metadata>
 <defs>
  <style type="text/css">*{stroke-linejoin: round; stroke-linecap: butt}</style>
 </defs>
 <g id="figure_1">
  <g id="patch_1">
   <path d="M 0 350.54 
L 444.17125 350.54 
L 444.17125 0 
L 0 0 
z
" style="fill: #ffffff"/>
  </g>
  <g id="axes_1">
   <g id="patch_2">
    <path d="M 63.35875 140.85 
L 342.35875 140.85 
L 342.35875 7.2 
L 63.35875 7.2 
z
" style="fill: #ffffff"/>
   </g>
   <g id="patch_3">
    <path d="M 66.45875 47243.139672 
L 78.85875 47243.139672 
L 78.85875 50.113175 
L 66.45875 50.113175 
z
" clip-path="url(#p75e3676f6c)" style="fill: #3274a1"/>
   </g>
   <g id="patch_4">
    <path d="M 97.45875 47243.139672 
L 109.85875 47243.139672 
L 109.85875 84.35124 
L 97.45875 84.35124 
z
" clip-path="url(#p75e3676f6c)" style="fill: #3274a1"/>
   </g>
   <g id="patch_5">
    <path d="M 128.45875 47243.139672 
L 140.85875 47243.139672 
L 140.85875 64.248401 
L 128.45875 64.248401 
z
" clip-path="url(#p75e3676f6c)" style="fill: #3274a1"/>
   </g>
   <g id="patch_6">
    <path d="M 159.45875 47243.139672 
L 171.85875 47243.139672 
L 171.85875 81.459277 
L 159.45875 81.459277 
z
" clip-path="url(#p75e3676f6c)" style="fill: #3274a1"/>
   </g>
   <g id="patch_7">
    <path d="M 190.45875 47243.139672 
L 202.85875 47243.139672 
L 202.85875 75.448242 
L 190.45875 75.448242 
z
" clip-path="url(#p75e3676f6c)" style="fill: #3274a1"/>
   </g>
   <g id="patch_8">
    <path d="M 221.45875 47243.139672 
L 233.85875 47243.139672 
L 233.85875 60.235975 
L 221.45875 60.235975 
z
" clip-path="url(#p75e3676f6c)" style="fill: #3274a1"/>
   </g>
   <g id="patch_9">
    <path d="M 252.45875 47243.139672 
L 264.85875 47243.139672 
L 264.85875 19.870926 
L 252.45875 19.870926 
z
" clip-path="url(#p75e3676f6c)" style="fill: #3274a1"/>
   </g>
   <g id="patch_10">
    <path d="M 283.45875 47243.139672 
L 295.85875 47243.139672 
L 295.85875 125.301475 
L 283.45875 125.301475 
z
" clip-path="url(#p75e3676f6c)" style="fill: #3274a1"/>
   </g>
   <g id="patch_11">
    <path d="M 314.45875 47243.139672 
L 326.85875 47243.139672 
L 326.85875 13.275 
L 314.45875 13.275 
z
" clip-path="url(#p75e3676f6c)" style="fill: #3274a1"/>
   </g>
   <g id="patch_12">
    <path d="M 78.85875 47243.139672 
L 91.25875 47243.139672 
L 91.25875 49.692638 
L 78.85875 49.692638 
z
" clip-path="url(#p75e3676f6c)" style="fill: #c03d3e"/>
   </g>
   <g id="patch_13">
    <path d="M 109.85875 47243.139672 
L 122.25875 47243.139672 
L 122.25875 90.768545 
L 109.85875 90.768545 
z
" clip-path="url(#p75e3676f6c)" style="fill: #c03d3e"/>
   </g>
   <g id="patch_14">
    <path d="M 140.85875 47243.139672 
L 153.25875 47243.139672 
L 153.25875 64.898323 
L 140.85875 64.898323 
z
" clip-path="url(#p75e3676f6c)" style="fill: #c03d3e"/>
   </g>
   <g id="patch_15">
    <path d="M 171.85875 47243.139672 
L 184.25875 47243.139672 
L 184.25875 91.009979 
L 171.85875 91.009979 
z
" clip-path="url(#p75e3676f6c)" style="fill: #c03d3e"/>
   </g>
   <g id="patch_16">
    <path d="M 202.85875 47243.139672 
L 215.25875 47243.139672 
L 215.25875 76.057218 
L 202.85875 76.057218 
z
" clip-path="url(#p75e3676f6c)" style="fill: #c03d3e"/>
   </g>
   <g id="patch_17">
    <path d="M 233.85875 47243.139672 
L 246.25875 47243.139672 
L 246.25875 59.633819 
L 233.85875 59.633819 
z
" clip-path="url(#p75e3676f6c)" style="fill: #c03d3e"/>
   </g>
   <g id="patch_18">
    <path d="M 264.85875 47243.139672 
L 277.25875 47243.139672 
L 277.25875 17.306685 
L 264.85875 17.306685 
z
" clip-path="url(#p75e3676f6c)" style="fill: #c03d3e"/>
   </g>
   <g id="patch_19">
    <path d="M 295.85875 47243.139672 
L 308.25875 47243.139672 
L 308.25875 134.775 
L 295.85875 134.775 
z
" clip-path="url(#p75e3676f6c)" style="fill: #c03d3e"/>
   </g>
   <g id="patch_20">
    <path d="M 326.85875 47243.139672 
L 339.25875 47243.139672 
L 339.25875 15.342267 
L 326.85875 15.342267 
z
" clip-path="url(#p75e3676f6c)" style="fill: #c03d3e"/>
   </g>
   <g id="matplotlib.axis_1"/>
   <g id="matplotlib.axis_2">
    <g id="ytick_1">
     <g id="line2d_1">
      <path d="M 63.35875 92.754109 
L 342.35875 92.754109 
" clip-path="url(#p75e3676f6c)" style="fill: none; stroke: #b0b0b0; stroke-width: 0.8; stroke-linecap: square"/>
     </g>
     <g id="line2d_2">
      <defs>
       <path id="m2130569b6f" d="M 0 0 
L -3.5 0 
" style="stroke: #000000; stroke-width: 0.8"/>
      </defs>
      <g>
       <use xlink:href="#m2130569b6f" x="63.35875" y="92.754109" style="stroke: #000000; stroke-width: 0.8"/>
      </g>
     </g>
     <g id="text_1">
      <!-- 1 -->
      <g transform="translate(49.99625 96.553328) scale(0.1 -0.1)">
       <defs>
        <path id="DejaVuSans-31" d="M 794 531 
L 1825 531 
L 1825 4091 
L 703 3866 
L 703 4441 
L 1819 4666 
L 2450 4666 
L 2450 531 
L 3481 531 
L 3481 0 
L 794 0 
L 794 531 
z
" transform="scale(0.015625)"/>
       </defs>
       <use xlink:href="#DejaVuSans-31"/>
      </g>
     </g>
    </g>
    <g id="ytick_2">
     <g id="line2d_3">
      <path d="M 63.35875 45.603723 
L 342.35875 45.603723 
" clip-path="url(#p75e3676f6c)" style="fill: none; stroke: #b0b0b0; stroke-width: 0.8; stroke-linecap: square"/>
     </g>
     <g id="line2d_4">
      <g>
       <use xlink:href="#m2130569b6f" x="63.35875" y="45.603723" style="stroke: #000000; stroke-width: 0.8"/>
      </g>
     </g>
     <g id="text_2">
      <!-- 10 -->
      <g transform="translate(43.63375 49.402942) scale(0.1 -0.1)">
       <defs>
        <path id="DejaVuSans-30" d="M 2034 4250 
Q 1547 4250 1301 3770 
Q 1056 3291 1056 2328 
Q 1056 1369 1301 889 
Q 1547 409 2034 409 
Q 2525 409 2770 889 
Q 3016 1369 3016 2328 
Q 3016 3291 2770 3770 
Q 2525 4250 2034 4250 
z
M 2034 4750 
Q 2819 4750 3233 4129 
Q 3647 3509 3647 2328 
Q 3647 1150 3233 529 
Q 2819 -91 2034 -91 
Q 1250 -91 836 529 
Q 422 1150 422 2328 
Q 422 3509 836 4129 
Q 1250 4750 2034 4750 
z
" transform="scale(0.015625)"/>
       </defs>
       <use xlink:href="#DejaVuSans-31"/>
       <use xlink:href="#DejaVuSans-30" x="63.623047"/>
      </g>
     </g>
    </g>
    <g id="ytick_3">
     <g id="line2d_5">
      <defs>
       <path id="m33f3ca664c" d="M 0 0 
L -2 0 
" style="stroke: #000000; stroke-width: 0.6"/>
      </defs>
      <g>
       <use xlink:href="#m33f3ca664c" x="63.35875" y="125.710814" style="stroke: #000000; stroke-width: 0.6"/>
      </g>
     </g>
    </g>
    <g id="ytick_4">
     <g id="line2d_6">
      <g>
       <use xlink:href="#m33f3ca664c" x="63.35875" y="117.408043" style="stroke: #000000; stroke-width: 0.6"/>
      </g>
     </g>
    </g>
    <g id="ytick_5">
     <g id="line2d_7">
      <g>
       <use xlink:href="#m33f3ca664c" x="63.35875" y="111.517134" style="stroke: #000000; stroke-width: 0.6"/>
      </g>
     </g>
    </g>
    <g id="ytick_6">
     <g id="line2d_8">
      <g>
       <use xlink:href="#m33f3ca664c" x="63.35875" y="106.947789" style="stroke: #000000; stroke-width: 0.6"/>
      </g>
     </g>
    </g>
    <g id="ytick_7">
     <g id="line2d_9">
      <g>
       <use xlink:href="#m33f3ca664c" x="63.35875" y="103.214363" style="stroke: #000000; stroke-width: 0.6"/>
      </g>
     </g>
    </g>
    <g id="ytick_8">
     <g id="line2d_10">
      <g>
       <use xlink:href="#m33f3ca664c" x="63.35875" y="100.057796" style="stroke: #000000; stroke-width: 0.6"/>
      </g>
     </g>
    </g>
    <g id="ytick_9">
     <g id="line2d_11">
      <g>
       <use xlink:href="#m33f3ca664c" x="63.35875" y="97.323454" style="stroke: #000000; stroke-width: 0.6"/>
      </g>
     </g>
    </g>
    <g id="ytick_10">
     <g id="line2d_12">
      <g>
       <use xlink:href="#m33f3ca664c" x="63.35875" y="94.911592" style="stroke: #000000; stroke-width: 0.6"/>
      </g>
     </g>
    </g>
    <g id="ytick_11">
     <g id="line2d_13">
      <g>
       <use xlink:href="#m33f3ca664c" x="63.35875" y="78.560429" style="stroke: #000000; stroke-width: 0.6"/>
      </g>
     </g>
    </g>
    <g id="ytick_12">
     <g id="line2d_14">
      <g>
       <use xlink:href="#m33f3ca664c" x="63.35875" y="70.257658" style="stroke: #000000; stroke-width: 0.6"/>
      </g>
     </g>
    </g>
    <g id="ytick_13">
     <g id="line2d_15">
      <g>
       <use xlink:href="#m33f3ca664c" x="63.35875" y="64.366748" style="stroke: #000000; stroke-width: 0.6"/>
      </g>
     </g>
    </g>
    <g id="ytick_14">
     <g id="line2d_16">
      <g>
       <use xlink:href="#m33f3ca664c" x="63.35875" y="59.797404" style="stroke: #000000; stroke-width: 0.6"/>
      </g>
     </g>
    </g>
    <g id="ytick_15">
     <g id="line2d_17">
      <g>
       <use xlink:href="#m33f3ca664c" x="63.35875" y="56.063978" style="stroke: #000000; stroke-width: 0.6"/>
      </g>
     </g>
    </g>
    <g id="ytick_16">
     <g id="line2d_18">
      <g>
       <use xlink:href="#m33f3ca664c" x="63.35875" y="52.907411" style="stroke: #000000; stroke-width: 0.6"/>
      </g>
     </g>
    </g>
    <g id="ytick_17">
     <g id="line2d_19">
      <g>
       <use xlink:href="#m33f3ca664c" x="63.35875" y="50.173068" style="stroke: #000000; stroke-width: 0.6"/>
      </g>
     </g>
    </g>
    <g id="ytick_18">
     <g id="line2d_20">
      <g>
       <use xlink:href="#m33f3ca664c" x="63.35875" y="47.761207" style="stroke: #000000; stroke-width: 0.6"/>
      </g>
     </g>
    </g>
    <g id="ytick_19">
     <g id="line2d_21">
      <g>
       <use xlink:href="#m33f3ca664c" x="63.35875" y="31.410043" style="stroke: #000000; stroke-width: 0.6"/>
      </g>
     </g>
    </g>
    <g id="ytick_20">
     <g id="line2d_22">
      <g>
       <use xlink:href="#m33f3ca664c" x="63.35875" y="23.107272" style="stroke: #000000; stroke-width: 0.6"/>
      </g>
     </g>
    </g>
    <g id="ytick_21">
     <g id="line2d_23">
      <g>
       <use xlink:href="#m33f3ca664c" x="63.35875" y="17.216363" style="stroke: #000000; stroke-width: 0.6"/>
      </g>
     </g>
    </g>
    <g id="ytick_22">
     <g id="line2d_24">
      <g>
       <use xlink:href="#m33f3ca664c" x="63.35875" y="12.647018" style="stroke: #000000; stroke-width: 0.6"/>
      </g>
     </g>
    </g>
    <g id="ytick_23">
     <g id="line2d_25">
      <g>
       <use xlink:href="#m33f3ca664c" x="63.35875" y="8.913592" style="stroke: #000000; stroke-width: 0.6"/>
      </g>
     </g>
    </g>
    <g id="text_3">
     <!-- % of total bps -->
     <g transform="translate(37.554063 108.748438) rotate(-90) scale(0.1 -0.1)">
      <defs>
       <path id="DejaVuSans-25" d="M 4653 2053 
Q 4381 2053 4226 1822 
Q 4072 1591 4072 1178 
Q 4072 772 4226 539 
Q 4381 306 4653 306 
Q 4919 306 5073 539 
Q 5228 772 5228 1178 
Q 5228 1588 5073 1820 
Q 4919 2053 4653 2053 
z
M 4653 2450 
Q 5147 2450 5437 2106 
Q 5728 1763 5728 1178 
Q 5728 594 5436 251 
Q 5144 -91 4653 -91 
Q 4153 -91 3862 251 
Q 3572 594 3572 1178 
Q 3572 1766 3864 2108 
Q 4156 2450 4653 2450 
z
M 1428 4353 
Q 1159 4353 1004 4120 
Q 850 3888 850 3481 
Q 850 3069 1003 2837 
Q 1156 2606 1428 2606 
Q 1700 2606 1854 2837 
Q 2009 3069 2009 3481 
Q 2009 3884 1853 4118 
Q 1697 4353 1428 4353 
z
M 4250 4750 
L 4750 4750 
L 1831 -91 
L 1331 -91 
L 4250 4750 
z
M 1428 4750 
Q 1922 4750 2215 4408 
Q 2509 4066 2509 3481 
Q 2509 2891 2217 2550 
Q 1925 2209 1428 2209 
Q 931 2209 642 2551 
Q 353 2894 353 3481 
Q 353 4063 643 4406 
Q 934 4750 1428 4750 
z
" transform="scale(0.015625)"/>
       <path id="DejaVuSans-20" transform="scale(0.015625)"/>
       <path id="DejaVuSans-6f" d="M 1959 3097 
Q 1497 3097 1228 2736 
Q 959 2375 959 1747 
Q 959 1119 1226 758 
Q 1494 397 1959 397 
Q 2419 397 2687 759 
Q 2956 1122 2956 1747 
Q 2956 2369 2687 2733 
Q 2419 3097 1959 3097 
z
M 1959 3584 
Q 2709 3584 3137 3096 
Q 3566 2609 3566 1747 
Q 3566 888 3137 398 
Q 2709 -91 1959 -91 
Q 1206 -91 779 398 
Q 353 888 353 1747 
Q 353 2609 779 3096 
Q 1206 3584 1959 3584 
z
" transform="scale(0.015625)"/>
       <path id="DejaVuSans-66" d="M 2375 4863 
L 2375 4384 
L 1825 4384 
Q 1516 4384 1395 4259 
Q 1275 4134 1275 3809 
L 1275 3500 
L 2222 3500 
L 2222 3053 
L 1275 3053 
L 1275 0 
L 697 0 
L 697 3053 
L 147 3053 
L 147 3500 
L 697 3500 
L 697 3744 
Q 697 4328 969 4595 
Q 1241 4863 1831 4863 
L 2375 4863 
z
" transform="scale(0.015625)"/>
       <path id="DejaVuSans-74" d="M 1172 4494 
L 1172 3500 
L 2356 3500 
L 2356 3053 
L 1172 3053 
L 1172 1153 
Q 1172 725 1289 603 
Q 1406 481 1766 481 
L 2356 481 
L 2356 0 
L 1766 0 
Q 1100 0 847 248 
Q 594 497 594 1153 
L 594 3053 
L 172 3053 
L 172 3500 
L 594 3500 
L 594 4494 
L 1172 4494 
z
" transform="scale(0.015625)"/>
       <path id="DejaVuSans-61" d="M 2194 1759 
Q 1497 1759 1228 1600 
Q 959 1441 959 1056 
Q 959 750 1161 570 
Q 1363 391 1709 391 
Q 2188 391 2477 730 
Q 2766 1069 2766 1631 
L 2766 1759 
L 2194 1759 
z
M 3341 1997 
L 3341 0 
L 2766 0 
L 2766 531 
Q 2569 213 2275 61 
Q 1981 -91 1556 -91 
Q 1019 -91 701 211 
Q 384 513 384 1019 
Q 384 1609 779 1909 
Q 1175 2209 1959 2209 
L 2766 2209 
L 2766 2266 
Q 2766 2663 2505 2880 
Q 2244 3097 1772 3097 
Q 1472 3097 1187 3025 
Q 903 2953 641 2809 
L 641 3341 
Q 956 3463 1253 3523 
Q 1550 3584 1831 3584 
Q 2591 3584 2966 3190 
Q 3341 2797 3341 1997 
z
" transform="scale(0.015625)"/>
       <path id="DejaVuSans-6c" d="M 603 4863 
L 1178 4863 
L 1178 0 
L 603 0 
L 603 4863 
z
" transform="scale(0.015625)"/>
       <path id="DejaVuSans-62" d="M 3116 1747 
Q 3116 2381 2855 2742 
Q 2594 3103 2138 3103 
Q 1681 3103 1420 2742 
Q 1159 2381 1159 1747 
Q 1159 1113 1420 752 
Q 1681 391 2138 391 
Q 2594 391 2855 752 
Q 3116 1113 3116 1747 
z
M 1159 2969 
Q 1341 3281 1617 3432 
Q 1894 3584 2278 3584 
Q 2916 3584 3314 3078 
Q 3713 2572 3713 1747 
Q 3713 922 3314 415 
Q 2916 -91 2278 -91 
Q 1894 -91 1617 61 
Q 1341 213 1159 525 
L 1159 0 
L 581 0 
L 581 4863 
L 1159 4863 
L 1159 2969 
z
" transform="scale(0.015625)"/>
       <path id="DejaVuSans-70" d="M 1159 525 
L 1159 -1331 
L 581 -1331 
L 581 3500 
L 1159 3500 
L 1159 2969 
Q 1341 3281 1617 3432 
Q 1894 3584 2278 3584 
Q 2916 3584 3314 3078 
Q 3713 2572 3713 1747 
Q 3713 922 3314 415 
Q 2916 -91 2278 -91 
Q 1894 -91 1617 61 
Q 1341 213 1159 525 
z
M 3116 1747 
Q 3116 2381 2855 2742 
Q 2594 3103 2138 3103 
Q 1681 3103 1420 2742 
Q 1159 2381 1159 1747 
Q 1159 1113 1420 752 
Q 1681 391 2138 391 
Q 2594 391 2855 752 
Q 3116 1113 3116 1747 
z
" transform="scale(0.015625)"/>
       <path id="DejaVuSans-73" d="M 2834 3397 
L 2834 2853 
Q 2591 2978 2328 3040 
Q 2066 3103 1784 3103 
Q 1356 3103 1142 2972 
Q 928 2841 928 2578 
Q 928 2378 1081 2264 
Q 1234 2150 1697 2047 
L 1894 2003 
Q 2506 1872 2764 1633 
Q 3022 1394 3022 966 
Q 3022 478 2636 193 
Q 2250 -91 1575 -91 
Q 1294 -91 989 -36 
Q 684 19 347 128 
L 347 722 
Q 666 556 975 473 
Q 1284 391 1588 391 
Q 1994 391 2212 530 
Q 2431 669 2431 922 
Q 2431 1156 2273 1281 
Q 2116 1406 1581 1522 
L 1381 1569 
Q 847 1681 609 1914 
Q 372 2147 372 2553 
Q 372 3047 722 3315 
Q 1072 3584 1716 3584 
Q 2034 3584 2315 3537 
Q 2597 3491 2834 3397 
z
" transform="scale(0.015625)"/>
      </defs>
      <use xlink:href="#DejaVuSans-25"/>
      <use xlink:href="#DejaVuSans-20" x="95.019531"/>
      <use xlink:href="#DejaVuSans-6f" x="126.806641"/>
      <use xlink:href="#DejaVuSans-66" x="187.988281"/>
      <use xlink:href="#DejaVuSans-20" x="223.193359"/>
      <use xlink:href="#DejaVuSans-74" x="254.980469"/>
      <use xlink:href="#DejaVuSans-6f" x="294.189453"/>
      <use xlink:href="#DejaVuSans-74" x="355.371094"/>
      <use xlink:href="#DejaVuSans-61" x="394.580078"/>
      <use xlink:href="#DejaVuSans-6c" x="455.859375"/>
      <use xlink:href="#DejaVuSans-20" x="483.642578"/>
      <use xlink:href="#DejaVuSans-62" x="515.429688"/>
      <use xlink:href="#DejaVuSans-70" x="578.90625"/>
      <use xlink:href="#DejaVuSans-73" x="642.382812"/>
     </g>
    </g>
   </g>
   <g id="line2d_26">
    <path clip-path="url(#p75e3676f6c)" style="fill: none; stroke: #424242; stroke-width: 2.7; stroke-linecap: square"/>
   </g>
   <g id="line2d_27">
    <path clip-path="url(#p75e3676f6c)" style="fill: none; stroke: #424242; stroke-width: 2.7; stroke-linecap: square"/>
   </g>
   <g id="line2d_28">
    <path clip-path="url(#p75e3676f6c)" style="fill: none; stroke: #424242; stroke-width: 2.7; stroke-linecap: square"/>
   </g>
   <g id="line2d_29">
    <path clip-path="url(#p75e3676f6c)" style="fill: none; stroke: #424242; stroke-width: 2.7; stroke-linecap: square"/>
   </g>
   <g id="line2d_30">
    <path clip-path="url(#p75e3676f6c)" style="fill: none; stroke: #424242; stroke-width: 2.7; stroke-linecap: square"/>
   </g>
   <g id="line2d_31">
    <path clip-path="url(#p75e3676f6c)" style="fill: none; stroke: #424242; stroke-width: 2.7; stroke-linecap: square"/>
   </g>
   <g id="line2d_32">
    <path clip-path="url(#p75e3676f6c)" style="fill: none; stroke: #424242; stroke-width: 2.7; stroke-linecap: square"/>
   </g>
   <g id="line2d_33">
    <path clip-path="url(#p75e3676f6c)" style="fill: none; stroke: #424242; stroke-width: 2.7; stroke-linecap: square"/>
   </g>
   <g id="line2d_34">
    <path clip-path="url(#p75e3676f6c)" style="fill: none; stroke: #424242; stroke-width: 2.7; stroke-linecap: square"/>
   </g>
   <g id="line2d_35">
    <path clip-path="url(#p75e3676f6c)" style="fill: none; stroke: #424242; stroke-width: 2.7; stroke-linecap: square"/>
   </g>
   <g id="line2d_36">
    <path clip-path="url(#p75e3676f6c)" style="fill: none; stroke: #424242; stroke-width: 2.7; stroke-linecap: square"/>
   </g>
   <g id="line2d_37">
    <path clip-path="url(#p75e3676f6c)" style="fill: none; stroke: #424242; stroke-width: 2.7; stroke-linecap: square"/>
   </g>
   <g id="line2d_38">
    <path clip-path="url(#p75e3676f6c)" style="fill: none; stroke: #424242; stroke-width: 2.7; stroke-linecap: square"/>
   </g>
   <g id="line2d_39">
    <path clip-path="url(#p75e3676f6c)" style="fill: none; stroke: #424242; stroke-width: 2.7; stroke-linecap: square"/>
   </g>
   <g id="line2d_40">
    <path clip-path="url(#p75e3676f6c)" style="fill: none; stroke: #424242; stroke-width: 2.7; stroke-linecap: square"/>
   </g>
   <g id="line2d_41">
    <path clip-path="url(#p75e3676f6c)" style="fill: none; stroke: #424242; stroke-width: 2.7; stroke-linecap: square"/>
   </g>
   <g id="line2d_42">
    <path clip-path="url(#p75e3676f6c)" style="fill: none; stroke: #424242; stroke-width: 2.7; stroke-linecap: square"/>
   </g>
   <g id="line2d_43">
    <path clip-path="url(#p75e3676f6c)" style="fill: none; stroke: #424242; stroke-width: 2.7; stroke-linecap: square"/>
   </g>
   <g id="patch_21">
    <path d="M 63.35875 140.85 
L 63.35875 7.2 
" style="fill: none; stroke: #000000; stroke-width: 0.8; stroke-linejoin: miter; stroke-linecap: square"/>
   </g>
   <g id="patch_22">
    <path d="M 342.35875 140.85 
L 342.35875 7.2 
" style="fill: none; stroke: #000000; stroke-width: 0.8; stroke-linejoin: miter; stroke-linecap: square"/>
   </g>
   <g id="patch_23">
    <path d="M 63.35875 140.85 
L 342.35875 140.85 
" style="fill: none; stroke: #000000; stroke-width: 0.8; stroke-linejoin: miter; stroke-linecap: square"/>
   </g>
   <g id="patch_24">
    <path d="M 63.35875 7.2 
L 342.35875 7.2 
" style="fill: none; stroke: #000000; stroke-width: 0.8; stroke-linejoin: miter; stroke-linecap: square"/>
   </g>
   <g id="legend_1">
    <g id="patch_25">
     <path d="M 69.65875 40.820625 
L 130.389062 40.820625 
Q 132.189063 40.820625 132.189063 39.020625 
L 132.189063 13.5 
Q 132.189063 11.7 130.389062 11.7 
L 69.65875 11.7 
Q 67.85875 11.7 67.85875 13.5 
L 67.85875 39.020625 
Q 67.85875 40.820625 69.65875 40.820625 
z
" style="fill: #ffffff; opacity: 0.8; stroke: #cccccc; stroke-linejoin: miter"/>
    </g>
    <g id="patch_26">
     <path d="M 71.45875 22.138594 
L 89.45875 22.138594 
L 89.45875 15.838594 
L 71.45875 15.838594 
z
" style="fill: #3274a1"/>
    </g>
    <g id="text_4">
     <!-- Seq -->
     <g transform="translate(96.65875 22.138594) scale(0.09 -0.09)">
      <defs>
       <path id="DejaVuSans-53" d="M 3425 4513 
L 3425 3897 
Q 3066 4069 2747 4153 
Q 2428 4238 2131 4238 
Q 1616 4238 1336 4038 
Q 1056 3838 1056 3469 
Q 1056 3159 1242 3001 
Q 1428 2844 1947 2747 
L 2328 2669 
Q 3034 2534 3370 2195 
Q 3706 1856 3706 1288 
Q 3706 609 3251 259 
Q 2797 -91 1919 -91 
Q 1588 -91 1214 -16 
Q 841 59 441 206 
L 441 856 
Q 825 641 1194 531 
Q 1563 422 1919 422 
Q 2459 422 2753 634 
Q 3047 847 3047 1241 
Q 3047 1584 2836 1778 
Q 2625 1972 2144 2069 
L 1759 2144 
Q 1053 2284 737 2584 
Q 422 2884 422 3419 
Q 422 4038 858 4394 
Q 1294 4750 2059 4750 
Q 2388 4750 2728 4690 
Q 3069 4631 3425 4513 
z
" transform="scale(0.015625)"/>
       <path id="DejaVuSans-65" d="M 3597 1894 
L 3597 1613 
L 953 1613 
Q 991 1019 1311 708 
Q 1631 397 2203 397 
Q 2534 397 2845 478 
Q 3156 559 3463 722 
L 3463 178 
Q 3153 47 2828 -22 
Q 2503 -91 2169 -91 
Q 1331 -91 842 396 
Q 353 884 353 1716 
Q 353 2575 817 3079 
Q 1281 3584 2069 3584 
Q 2775 3584 3186 3129 
Q 3597 2675 3597 1894 
z
M 3022 2063 
Q 3016 2534 2758 2815 
Q 2500 3097 2075 3097 
Q 1594 3097 1305 2825 
Q 1016 2553 972 2059 
L 3022 2063 
z
" transform="scale(0.015625)"/>
       <path id="DejaVuSans-71" d="M 947 1747 
Q 947 1113 1208 752 
Q 1469 391 1925 391 
Q 2381 391 2643 752 
Q 2906 1113 2906 1747 
Q 2906 2381 2643 2742 
Q 2381 3103 1925 3103 
Q 1469 3103 1208 2742 
Q 947 2381 947 1747 
z
M 2906 525 
Q 2725 213 2448 61 
Q 2172 -91 1784 -91 
Q 1150 -91 751 415 
Q 353 922 353 1747 
Q 353 2572 751 3078 
Q 1150 3584 1784 3584 
Q 2172 3584 2448 3432 
Q 2725 3281 2906 2969 
L 2906 3500 
L 3481 3500 
L 3481 -1331 
L 2906 -1331 
L 2906 525 
z
" transform="scale(0.015625)"/>
      </defs>
      <use xlink:href="#DejaVuSans-53"/>
      <use xlink:href="#DejaVuSans-65" x="63.476562"/>
      <use xlink:href="#DejaVuSans-71" x="125"/>
     </g>
    </g>
    <g id="patch_27">
     <path d="M 71.45875 35.348906 
L 89.45875 35.348906 
L 89.45875 29.048906 
L 71.45875 29.048906 
z
" style="fill: #c03d3e"/>
    </g>
    <g id="text_5">
     <!-- WT Var -->
     <g transform="translate(96.65875 35.348906) scale(0.09 -0.09)">
      <defs>
       <path id="DejaVuSans-57" d="M 213 4666 
L 850 4666 
L 1831 722 
L 2809 4666 
L 3519 4666 
L 4500 722 
L 5478 4666 
L 6119 4666 
L 4947 0 
L 4153 0 
L 3169 4050 
L 2175 0 
L 1381 0 
L 213 4666 
z
" transform="scale(0.015625)"/>
       <path id="DejaVuSans-54" d="M -19 4666 
L 3928 4666 
L 3928 4134 
L 2272 4134 
L 2272 0 
L 1638 0 
L 1638 4134 
L -19 4134 
L -19 4666 
z
" transform="scale(0.015625)"/>
       <path id="DejaVuSans-56" d="M 1831 0 
L 50 4666 
L 709 4666 
L 2188 738 
L 3669 4666 
L 4325 4666 
L 2547 0 
L 1831 0 
z
" transform="scale(0.015625)"/>
       <path id="DejaVuSans-72" d="M 2631 2963 
Q 2534 3019 2420 3045 
Q 2306 3072 2169 3072 
Q 1681 3072 1420 2755 
Q 1159 2438 1159 1844 
L 1159 0 
L 581 0 
L 581 3500 
L 1159 3500 
L 1159 2956 
Q 1341 3275 1631 3429 
Q 1922 3584 2338 3584 
Q 2397 3584 2469 3576 
Q 2541 3569 2628 3553 
L 2631 2963 
z
" transform="scale(0.015625)"/>
      </defs>
      <use xlink:href="#DejaVuSans-57"/>
      <use xlink:href="#DejaVuSans-54" x="98.876953"/>
      <use xlink:href="#DejaVuSans-20" x="159.960938"/>
      <use xlink:href="#DejaVuSans-56" x="191.748047"/>
      <use xlink:href="#DejaVuSans-61" x="252.40625"/>
      <use xlink:href="#DejaVuSans-72" x="313.685547"/>
     </g>
    </g>
   </g>
  </g>
  <g id="axes_2">
   <g id="patch_28">
    <path d="M 63.35875 195.795 
L 342.35875 195.795 
L 342.35875 151.245 
L 63.35875 151.245 
z
" style="fill: #ffffff"/>
   </g>
   <g id="patch_29">
    <path d="M 252.45875 173.52 
L 277.25875 173.52 
L 277.25875 155.7 
L 252.45875 155.7 
z
" clip-path="url(#p2c6bdcbe84)" style="fill: #ffffff; stroke-dasharray: 3.7,1.6; stroke-dashoffset: 0; stroke: #7f7f7f; stroke-linejoin: miter"/>
   </g>
   <g id="line2d_44">
    <path d="M 63.35875 164.61 
L 342.35875 164.61 
" clip-path="url(#p2c6bdcbe84)" style="fill: none; stroke: #000000; stroke-linecap: square"/>
   </g>
   <g id="patch_30">
    <path d="M 66.45875 173.52 
L 91.25875 173.52 
L 91.25875 155.7 
L 66.45875 155.7 
z
" clip-path="url(#p2c6bdcbe84)" style="fill: #1f77b4; opacity: 0.6; stroke: #1f77b4; stroke-linejoin: miter"/>
   </g>
   <g id="patch_31">
    <path d="M 97.45875 173.52 
L 122.25875 173.52 
L 122.25875 155.7 
L 97.45875 155.7 
z
" clip-path="url(#p2c6bdcbe84)" style="fill: #ffa07a; opacity: 0.6; stroke: #ffa07a; stroke-linejoin: miter"/>
   </g>
   <g id="patch_32">
    <path d="M 128.45875 173.52 
L 153.25875 173.52 
L 153.25875 155.7 
L 128.45875 155.7 
z
" clip-path="url(#p2c6bdcbe84)" style="fill: #7f7f7f; opacity: 0.2; stroke: #7f7f7f; stroke-linejoin: miter"/>
   </g>
   <g id="patch_33">
    <path d="M 159.45875 173.52 
L 184.25875 173.52 
L 184.25875 155.7 
L 159.45875 155.7 
z
" clip-path="url(#p2c6bdcbe84)" style="fill: #90ee90; opacity: 0.6; stroke: #90ee90; stroke-linejoin: miter"/>
   </g>
   <g id="patch_34">
    <path d="M 212.15875 155.7 
L 209.05875 157.370625 
L 209.05875 155.92275 
L 196.65875 155.92275 
L 196.65875 155.47725 
L 209.05875 155.47725 
L 209.05875 154.029375 
z
" clip-path="url(#p2c6bdcbe84)" style="stroke: #000000; stroke-width: 0.8; stroke-linejoin: miter"/>
   </g>
   <g id="patch_35">
    <path d="M 221.45875 173.52 
L 246.25875 173.52 
L 246.25875 155.7 
L 221.45875 155.7 
z
" clip-path="url(#p2c6bdcbe84)" style="fill: #daa520; opacity: 0.6; stroke: #daa520; stroke-linejoin: miter"/>
   </g>
   <g id="patch_36">
    <path d="M 289.65875 173.52 
L 302.05875 173.52 
L 302.05875 155.7 
L 289.65875 155.7 
z
" clip-path="url(#p2c6bdcbe84)" style="fill: #ee82ee; opacity: 0.6; stroke: #ee82ee; stroke-linejoin: miter"/>
   </g>
   <g id="patch_37">
    <path d="M 314.45875 173.52 
L 334.60875 173.52 
L 339.25875 164.61 
L 334.60875 155.7 
L 314.45875 155.7 
z
" clip-path="url(#p2c6bdcbe84)" style="fill: #ffffff; stroke: #000000; stroke-linejoin: miter"/>
   </g>
   <g id="matplotlib.axis_3"/>
   <g id="matplotlib.axis_4">
    <g id="ytick_24">
     <g id="line2d_45"/>
     <g id="text_6">
      <!-- # WT Var -->
      <g transform="translate(12.822812 196.475719) scale(0.1 -0.1)">
       <defs>
        <path id="DejaVuSans-23" d="M 3272 2816 
L 2363 2816 
L 2100 1772 
L 3016 1772 
L 3272 2816 
z
M 2803 4594 
L 2478 3297 
L 3391 3297 
L 3719 4594 
L 4219 4594 
L 3897 3297 
L 4872 3297 
L 4872 2816 
L 3775 2816 
L 3519 1772 
L 4513 1772 
L 4513 1294 
L 3397 1294 
L 3072 0 
L 2572 0 
L 2894 1294 
L 1978 1294 
L 1656 0 
L 1153 0 
L 1478 1294 
L 494 1294 
L 494 1772 
L 1594 1772 
L 1856 2816 
L 850 2816 
L 850 3297 
L 1978 3297 
L 2297 4594 
L 2803 4594 
z
" transform="scale(0.015625)"/>
       </defs>
       <use xlink:href="#DejaVuSans-23"/>
       <use xlink:href="#DejaVuSans-20" x="83.789062"/>
       <use xlink:href="#DejaVuSans-57" x="115.576172"/>
       <use xlink:href="#DejaVuSans-54" x="214.453125"/>
       <use xlink:href="#DejaVuSans-20" x="275.537109"/>
       <use xlink:href="#DejaVuSans-56" x="307.324219"/>
       <use xlink:href="#DejaVuSans-61" x="367.982422"/>
       <use xlink:href="#DejaVuSans-72" x="429.261719"/>
      </g>
     </g>
    </g>
    <g id="ytick_25">
     <g id="line2d_46"/>
     <g id="text_7">
      <!-- # Seq -->
      <g transform="translate(29.450937 185.338219) scale(0.1 -0.1)">
       <use xlink:href="#DejaVuSans-23"/>
       <use xlink:href="#DejaVuSans-20" x="83.789062"/>
       <use xlink:href="#DejaVuSans-53" x="115.576172"/>
       <use xlink:href="#DejaVuSans-65" x="179.052734"/>
       <use xlink:href="#DejaVuSans-71" x="240.576172"/>
      </g>
     </g>
    </g>
   </g>
   <g id="line2d_47">
    <path d="M 196.65875 164.61 
L 196.65875 155.7 
" clip-path="url(#p2c6bdcbe84)" style="fill: none; stroke: #000000; stroke-width: 0.8; stroke-linecap: square"/>
   </g>
   <g id="text_8">
    <!-- 33.5k -->
    <g style="fill: #1f77b4" transform="translate(66.233438 184.913438) scale(0.09 -0.09)">
     <defs>
      <path id="DejaVuSans-33" d="M 2597 2516 
Q 3050 2419 3304 2112 
Q 3559 1806 3559 1356 
Q 3559 666 3084 287 
Q 2609 -91 1734 -91 
Q 1441 -91 1130 -33 
Q 819 25 488 141 
L 488 750 
Q 750 597 1062 519 
Q 1375 441 1716 441 
Q 2309 441 2620 675 
Q 2931 909 2931 1356 
Q 2931 1769 2642 2001 
Q 2353 2234 1838 2234 
L 1294 2234 
L 1294 2753 
L 1863 2753 
Q 2328 2753 2575 2939 
Q 2822 3125 2822 3475 
Q 2822 3834 2567 4026 
Q 2313 4219 1838 4219 
Q 1578 4219 1281 4162 
Q 984 4106 628 3988 
L 628 4550 
Q 988 4650 1302 4700 
Q 1616 4750 1894 4750 
Q 2613 4750 3031 4423 
Q 3450 4097 3450 3541 
Q 3450 3153 3228 2886 
Q 3006 2619 2597 2516 
z
" transform="scale(0.015625)"/>
      <path id="DejaVuSans-2e" d="M 684 794 
L 1344 794 
L 1344 0 
L 684 0 
L 684 794 
z
" transform="scale(0.015625)"/>
      <path id="DejaVuSans-35" d="M 691 4666 
L 3169 4666 
L 3169 4134 
L 1269 4134 
L 1269 2991 
Q 1406 3038 1543 3061 
Q 1681 3084 1819 3084 
Q 2600 3084 3056 2656 
Q 3513 2228 3513 1497 
Q 3513 744 3044 326 
Q 2575 -91 1722 -91 
Q 1428 -91 1123 -41 
Q 819 9 494 109 
L 494 744 
Q 775 591 1075 516 
Q 1375 441 1709 441 
Q 2250 441 2565 725 
Q 2881 1009 2881 1497 
Q 2881 1984 2565 2268 
Q 2250 2553 1709 2553 
Q 1456 2553 1204 2497 
Q 953 2441 691 2322 
L 691 4666 
z
" transform="scale(0.015625)"/>
      <path id="DejaVuSans-6b" d="M 581 4863 
L 1159 4863 
L 1159 1991 
L 2875 3500 
L 3609 3500 
L 1753 1863 
L 3688 0 
L 2938 0 
L 1159 1709 
L 1159 0 
L 581 0 
L 581 4863 
z
" transform="scale(0.015625)"/>
     </defs>
     <use xlink:href="#DejaVuSans-33"/>
     <use xlink:href="#DejaVuSans-33" x="63.623047"/>
     <use xlink:href="#DejaVuSans-2e" x="127.246094"/>
     <use xlink:href="#DejaVuSans-35" x="159.033203"/>
     <use xlink:href="#DejaVuSans-6b" x="222.65625"/>
    </g>
   </g>
   <g id="text_9">
    <!-- 12.0k -->
    <g style="fill: #d62728" transform="translate(66.233438 196.050938) scale(0.09 -0.09)">
     <defs>
      <path id="DejaVuSans-32" d="M 1228 531 
L 3431 531 
L 3431 0 
L 469 0 
L 469 531 
Q 828 903 1448 1529 
Q 2069 2156 2228 2338 
Q 2531 2678 2651 2914 
Q 2772 3150 2772 3378 
Q 2772 3750 2511 3984 
Q 2250 4219 1831 4219 
Q 1534 4219 1204 4116 
Q 875 4013 500 3803 
L 500 4441 
Q 881 4594 1212 4672 
Q 1544 4750 1819 4750 
Q 2544 4750 2975 4387 
Q 3406 4025 3406 3419 
Q 3406 3131 3298 2873 
Q 3191 2616 2906 2266 
Q 2828 2175 2409 1742 
Q 1991 1309 1228 531 
z
" transform="scale(0.015625)"/>
     </defs>
     <use xlink:href="#DejaVuSans-31"/>
     <use xlink:href="#DejaVuSans-32" x="63.623047"/>
     <use xlink:href="#DejaVuSans-2e" x="127.246094"/>
     <use xlink:href="#DejaVuSans-30" x="159.033203"/>
     <use xlink:href="#DejaVuSans-6b" x="222.65625"/>
    </g>
   </g>
   <g id="text_10">
    <!-- 6.3k -->
    <g style="fill: #1f77b4" transform="translate(100.096563 184.913438) scale(0.09 -0.09)">
     <defs>
      <path id="DejaVuSans-36" d="M 2113 2584 
Q 1688 2584 1439 2293 
Q 1191 2003 1191 1497 
Q 1191 994 1439 701 
Q 1688 409 2113 409 
Q 2538 409 2786 701 
Q 3034 994 3034 1497 
Q 3034 2003 2786 2293 
Q 2538 2584 2113 2584 
z
M 3366 4563 
L 3366 3988 
Q 3128 4100 2886 4159 
Q 2644 4219 2406 4219 
Q 1781 4219 1451 3797 
Q 1122 3375 1075 2522 
Q 1259 2794 1537 2939 
Q 1816 3084 2150 3084 
Q 2853 3084 3261 2657 
Q 3669 2231 3669 1497 
Q 3669 778 3244 343 
Q 2819 -91 2113 -91 
Q 1303 -91 875 529 
Q 447 1150 447 2328 
Q 447 3434 972 4092 
Q 1497 4750 2381 4750 
Q 2619 4750 2861 4703 
Q 3103 4656 3366 4563 
z
" transform="scale(0.015625)"/>
     </defs>
     <use xlink:href="#DejaVuSans-36"/>
     <use xlink:href="#DejaVuSans-2e" x="63.623047"/>
     <use xlink:href="#DejaVuSans-33" x="95.410156"/>
     <use xlink:href="#DejaVuSans-6b" x="159.033203"/>
    </g>
   </g>
   <g id="text_11">
    <!-- 1.6k -->
    <g style="fill: #d62728" transform="translate(100.096563 196.050938) scale(0.09 -0.09)">
     <use xlink:href="#DejaVuSans-31"/>
     <use xlink:href="#DejaVuSans-2e" x="63.623047"/>
     <use xlink:href="#DejaVuSans-36" x="95.410156"/>
     <use xlink:href="#DejaVuSans-6b" x="159.033203"/>
    </g>
   </g>
   <g id="text_12">
    <!-- 16.8k -->
    <g style="fill: #1f77b4" transform="translate(128.233437 184.913438) scale(0.09 -0.09)">
     <defs>
      <path id="DejaVuSans-38" d="M 2034 2216 
Q 1584 2216 1326 1975 
Q 1069 1734 1069 1313 
Q 1069 891 1326 650 
Q 1584 409 2034 409 
Q 2484 409 2743 651 
Q 3003 894 3003 1313 
Q 3003 1734 2745 1975 
Q 2488 2216 2034 2216 
z
M 1403 2484 
Q 997 2584 770 2862 
Q 544 3141 544 3541 
Q 544 4100 942 4425 
Q 1341 4750 2034 4750 
Q 2731 4750 3128 4425 
Q 3525 4100 3525 3541 
Q 3525 3141 3298 2862 
Q 3072 2584 2669 2484 
Q 3125 2378 3379 2068 
Q 3634 1759 3634 1313 
Q 3634 634 3220 271 
Q 2806 -91 2034 -91 
Q 1263 -91 848 271 
Q 434 634 434 1313 
Q 434 1759 690 2068 
Q 947 2378 1403 2484 
z
M 1172 3481 
Q 1172 3119 1398 2916 
Q 1625 2713 2034 2713 
Q 2441 2713 2670 2916 
Q 2900 3119 2900 3481 
Q 2900 3844 2670 4047 
Q 2441 4250 2034 4250 
Q 1625 4250 1398 4047 
Q 1172 3844 1172 3481 
z
" transform="scale(0.015625)"/>
     </defs>
     <use xlink:href="#DejaVuSans-31"/>
     <use xlink:href="#DejaVuSans-36" x="63.623047"/>
     <use xlink:href="#DejaVuSans-2e" x="127.246094"/>
     <use xlink:href="#DejaVuSans-38" x="159.033203"/>
     <use xlink:href="#DejaVuSans-6b" x="222.65625"/>
    </g>
   </g>
   <g id="text_13">
    <!-- 5.7k -->
    <g style="fill: #d62728" transform="translate(131.096562 196.050938) scale(0.09 -0.09)">
     <defs>
      <path id="DejaVuSans-37" d="M 525 4666 
L 3525 4666 
L 3525 4397 
L 1831 0 
L 1172 0 
L 2766 4134 
L 525 4134 
L 525 4666 
z
" transform="scale(0.015625)"/>
     </defs>
     <use xlink:href="#DejaVuSans-35"/>
     <use xlink:href="#DejaVuSans-2e" x="63.623047"/>
     <use xlink:href="#DejaVuSans-37" x="95.410156"/>
     <use xlink:href="#DejaVuSans-6b" x="159.033203"/>
    </g>
   </g>
   <g id="text_14">
    <!-- 7.2k -->
    <g style="fill: #1f77b4" transform="translate(162.096562 184.913438) scale(0.09 -0.09)">
     <use xlink:href="#DejaVuSans-37"/>
     <use xlink:href="#DejaVuSans-2e" x="63.623047"/>
     <use xlink:href="#DejaVuSans-32" x="95.410156"/>
     <use xlink:href="#DejaVuSans-6b" x="159.033203"/>
    </g>
   </g>
   <g id="text_15">
    <!-- 1.6k -->
    <g style="fill: #d62728" transform="translate(162.096562 196.050938) scale(0.09 -0.09)">
     <use xlink:href="#DejaVuSans-31"/>
     <use xlink:href="#DejaVuSans-2e" x="63.623047"/>
     <use xlink:href="#DejaVuSans-36" x="95.410156"/>
     <use xlink:href="#DejaVuSans-6b" x="159.033203"/>
    </g>
   </g>
   <g id="text_16">
    <!-- 9.7k -->
    <g style="fill: #1f77b4" transform="translate(193.096562 184.913438) scale(0.09 -0.09)">
     <defs>
      <path id="DejaVuSans-39" d="M 703 97 
L 703 672 
Q 941 559 1184 500 
Q 1428 441 1663 441 
Q 2288 441 2617 861 
Q 2947 1281 2994 2138 
Q 2813 1869 2534 1725 
Q 2256 1581 1919 1581 
Q 1219 1581 811 2004 
Q 403 2428 403 3163 
Q 403 3881 828 4315 
Q 1253 4750 1959 4750 
Q 2769 4750 3195 4129 
Q 3622 3509 3622 2328 
Q 3622 1225 3098 567 
Q 2575 -91 1691 -91 
Q 1453 -91 1209 -44 
Q 966 3 703 97 
z
M 1959 2075 
Q 2384 2075 2632 2365 
Q 2881 2656 2881 3163 
Q 2881 3666 2632 3958 
Q 2384 4250 1959 4250 
Q 1534 4250 1286 3958 
Q 1038 3666 1038 3163 
Q 1038 2656 1286 2365 
Q 1534 2075 1959 2075 
z
" transform="scale(0.015625)"/>
     </defs>
     <use xlink:href="#DejaVuSans-39"/>
     <use xlink:href="#DejaVuSans-2e" x="63.623047"/>
     <use xlink:href="#DejaVuSans-37" x="95.410156"/>
     <use xlink:href="#DejaVuSans-6b" x="159.033203"/>
    </g>
   </g>
   <g id="text_17">
    <!-- 3.3k -->
    <g style="fill: #d62728" transform="translate(193.096562 196.050938) scale(0.09 -0.09)">
     <use xlink:href="#DejaVuSans-33"/>
     <use xlink:href="#DejaVuSans-2e" x="63.623047"/>
     <use xlink:href="#DejaVuSans-33" x="95.410156"/>
     <use xlink:href="#DejaVuSans-6b" x="159.033203"/>
    </g>
   </g>
   <g id="text_18">
    <!-- 20.4k -->
    <g style="fill: #1f77b4" transform="translate(221.233437 184.913438) scale(0.09 -0.09)">
     <defs>
      <path id="DejaVuSans-34" d="M 2419 4116 
L 825 1625 
L 2419 1625 
L 2419 4116 
z
M 2253 4666 
L 3047 4666 
L 3047 1625 
L 3713 1625 
L 3713 1100 
L 3047 1100 
L 3047 0 
L 2419 0 
L 2419 1100 
L 313 1100 
L 313 1709 
L 2253 4666 
z
" transform="scale(0.015625)"/>
     </defs>
     <use xlink:href="#DejaVuSans-32"/>
     <use xlink:href="#DejaVuSans-30" x="63.623047"/>
     <use xlink:href="#DejaVuSans-2e" x="127.246094"/>
     <use xlink:href="#DejaVuSans-34" x="159.033203"/>
     <use xlink:href="#DejaVuSans-6b" x="222.65625"/>
    </g>
   </g>
   <g id="text_19">
    <!-- 7.4k -->
    <g style="fill: #d62728" transform="translate(224.096562 196.050938) scale(0.09 -0.09)">
     <use xlink:href="#DejaVuSans-37"/>
     <use xlink:href="#DejaVuSans-2e" x="63.623047"/>
     <use xlink:href="#DejaVuSans-34" x="95.410156"/>
     <use xlink:href="#DejaVuSans-6b" x="159.033203"/>
    </g>
   </g>
   <g id="text_20">
    <!-- 147.0k -->
    <g style="fill: #1f77b4" transform="translate(249.370312 184.913438) scale(0.09 -0.09)">
     <use xlink:href="#DejaVuSans-31"/>
     <use xlink:href="#DejaVuSans-34" x="63.623047"/>
     <use xlink:href="#DejaVuSans-37" x="127.246094"/>
     <use xlink:href="#DejaVuSans-2e" x="190.869141"/>
     <use xlink:href="#DejaVuSans-30" x="222.65625"/>
     <use xlink:href="#DejaVuSans-6b" x="286.279297"/>
    </g>
   </g>
   <g id="text_21">
    <!-- 58.5k -->
    <g style="fill: #d62728" transform="translate(252.233437 196.050938) scale(0.09 -0.09)">
     <use xlink:href="#DejaVuSans-35"/>
     <use xlink:href="#DejaVuSans-38" x="63.623047"/>
     <use xlink:href="#DejaVuSans-2e" x="127.246094"/>
     <use xlink:href="#DejaVuSans-35" x="159.033203"/>
     <use xlink:href="#DejaVuSans-6b" x="222.65625"/>
    </g>
   </g>
   <g id="text_22">
    <!-- 854 -->
    <g style="fill: #1f77b4" transform="translate(287.269375 184.913438) scale(0.09 -0.09)">
     <use xlink:href="#DejaVuSans-38"/>
     <use xlink:href="#DejaVuSans-35" x="63.623047"/>
     <use xlink:href="#DejaVuSans-34" x="127.246094"/>
    </g>
   </g>
   <g id="text_23">
    <!-- 189 -->
    <g style="fill: #d62728" transform="translate(287.269375 196.050938) scale(0.09 -0.09)">
     <use xlink:href="#DejaVuSans-31"/>
     <use xlink:href="#DejaVuSans-38" x="63.623047"/>
     <use xlink:href="#DejaVuSans-39" x="127.246094"/>
    </g>
   </g>
   <g id="text_24">
    <!-- 202.9k -->
    <g style="fill: #1f77b4" transform="translate(311.370313 184.913438) scale(0.09 -0.09)">
     <use xlink:href="#DejaVuSans-32"/>
     <use xlink:href="#DejaVuSans-30" x="63.623047"/>
     <use xlink:href="#DejaVuSans-32" x="127.246094"/>
     <use xlink:href="#DejaVuSans-2e" x="190.869141"/>
     <use xlink:href="#DejaVuSans-39" x="222.65625"/>
     <use xlink:href="#DejaVuSans-6b" x="286.279297"/>
    </g>
   </g>
   <g id="text_25">
    <!-- 64.4k -->
    <g style="fill: #d62728" transform="translate(314.233437 196.050938) scale(0.09 -0.09)">
     <use xlink:href="#DejaVuSans-36"/>
     <use xlink:href="#DejaVuSans-34" x="63.623047"/>
     <use xlink:href="#DejaVuSans-2e" x="127.246094"/>
     <use xlink:href="#DejaVuSans-34" x="159.033203"/>
     <use xlink:href="#DejaVuSans-6b" x="222.65625"/>
    </g>
   </g>
   <g id="legend_2">
    <g id="patch_38">
     <path d="M 349.35875 241.071563 
L 434.97125 241.071563 
Q 436.97125 241.071563 436.97125 239.071563 
L 436.97125 107.968438 
Q 436.97125 105.968438 434.97125 105.968438 
L 349.35875 105.968438 
Q 347.35875 105.968438 347.35875 107.968438 
L 347.35875 239.071563 
Q 347.35875 241.071563 349.35875 241.071563 
z
" style="fill: #ffffff; opacity: 0.8; stroke: #cccccc; stroke-linejoin: miter"/>
    </g>
    <g id="patch_39">
     <path d="M 351.35875 117.566875 
L 371.35875 117.566875 
L 371.35875 110.566875 
L 351.35875 110.566875 
z
" style="fill: #1f77b4; opacity: 0.6; stroke: #1f77b4; stroke-linejoin: miter"/>
    </g>
    <g id="text_26">
     <!-- TFBS -->
     <g transform="translate(379.35875 117.566875) scale(0.1 -0.1)">
      <defs>
       <path id="DejaVuSans-46" d="M 628 4666 
L 3309 4666 
L 3309 4134 
L 1259 4134 
L 1259 2759 
L 3109 2759 
L 3109 2228 
L 1259 2228 
L 1259 0 
L 628 0 
L 628 4666 
z
" transform="scale(0.015625)"/>
       <path id="DejaVuSans-42" d="M 1259 2228 
L 1259 519 
L 2272 519 
Q 2781 519 3026 730 
Q 3272 941 3272 1375 
Q 3272 1813 3026 2020 
Q 2781 2228 2272 2228 
L 1259 2228 
z
M 1259 4147 
L 1259 2741 
L 2194 2741 
Q 2656 2741 2882 2914 
Q 3109 3088 3109 3444 
Q 3109 3797 2882 3972 
Q 2656 4147 2194 4147 
L 1259 4147 
z
M 628 4666 
L 2241 4666 
Q 2963 4666 3353 4366 
Q 3744 4066 3744 3513 
Q 3744 3084 3544 2831 
Q 3344 2578 2956 2516 
Q 3422 2416 3680 2098 
Q 3938 1781 3938 1306 
Q 3938 681 3513 340 
Q 3088 0 2303 0 
L 628 0 
L 628 4666 
z
" transform="scale(0.015625)"/>
      </defs>
      <use xlink:href="#DejaVuSans-54"/>
      <use xlink:href="#DejaVuSans-46" x="61.083984"/>
      <use xlink:href="#DejaVuSans-42" x="118.603516"/>
      <use xlink:href="#DejaVuSans-53" x="185.457031"/>
     </g>
    </g>
    <g id="patch_40">
     <path d="M 351.35875 132.245 
L 371.35875 132.245 
L 371.35875 125.245 
L 351.35875 125.245 
z
" style="fill: #ffa07a; opacity: 0.6; stroke: #ffa07a; stroke-linejoin: miter"/>
    </g>
    <g id="text_27">
     <!-- -35 Box -->
     <g transform="translate(379.35875 132.245) scale(0.1 -0.1)">
      <defs>
       <path id="DejaVuSans-2d" d="M 313 2009 
L 1997 2009 
L 1997 1497 
L 313 1497 
L 313 2009 
z
" transform="scale(0.015625)"/>
       <path id="DejaVuSans-78" d="M 3513 3500 
L 2247 1797 
L 3578 0 
L 2900 0 
L 1881 1375 
L 863 0 
L 184 0 
L 1544 1831 
L 300 3500 
L 978 3500 
L 1906 2253 
L 2834 3500 
L 3513 3500 
z
" transform="scale(0.015625)"/>
      </defs>
      <use xlink:href="#DejaVuSans-2d"/>
      <use xlink:href="#DejaVuSans-33" x="36.083984"/>
      <use xlink:href="#DejaVuSans-35" x="99.707031"/>
      <use xlink:href="#DejaVuSans-20" x="163.330078"/>
      <use xlink:href="#DejaVuSans-42" x="195.117188"/>
      <use xlink:href="#DejaVuSans-6f" x="263.720703"/>
      <use xlink:href="#DejaVuSans-78" x="321.777344"/>
     </g>
    </g>
    <g id="patch_41">
     <path d="M 351.35875 146.923125 
L 371.35875 146.923125 
L 371.35875 139.923125 
L 351.35875 139.923125 
z
" style="fill: #7f7f7f; opacity: 0.2; stroke: #7f7f7f; stroke-linejoin: miter"/>
    </g>
    <g id="text_28">
     <!-- Spacer -->
     <g transform="translate(379.35875 146.923125) scale(0.1 -0.1)">
      <defs>
       <path id="DejaVuSans-63" d="M 3122 3366 
L 3122 2828 
Q 2878 2963 2633 3030 
Q 2388 3097 2138 3097 
Q 1578 3097 1268 2742 
Q 959 2388 959 1747 
Q 959 1106 1268 751 
Q 1578 397 2138 397 
Q 2388 397 2633 464 
Q 2878 531 3122 666 
L 3122 134 
Q 2881 22 2623 -34 
Q 2366 -91 2075 -91 
Q 1284 -91 818 406 
Q 353 903 353 1747 
Q 353 2603 823 3093 
Q 1294 3584 2113 3584 
Q 2378 3584 2631 3529 
Q 2884 3475 3122 3366 
z
" transform="scale(0.015625)"/>
      </defs>
      <use xlink:href="#DejaVuSans-53"/>
      <use xlink:href="#DejaVuSans-70" x="63.476562"/>
      <use xlink:href="#DejaVuSans-61" x="126.953125"/>
      <use xlink:href="#DejaVuSans-63" x="188.232422"/>
      <use xlink:href="#DejaVuSans-65" x="243.212891"/>
      <use xlink:href="#DejaVuSans-72" x="304.736328"/>
     </g>
    </g>
    <g id="patch_42">
     <path d="M 351.35875 161.60125 
L 371.35875 161.60125 
L 371.35875 154.60125 
L 351.35875 154.60125 
z
" style="fill: #90ee90; opacity: 0.6; stroke: #90ee90; stroke-linejoin: miter"/>
    </g>
    <g id="text_29">
     <!-- -10 Box -->
     <g transform="translate(379.35875 161.60125) scale(0.1 -0.1)">
      <use xlink:href="#DejaVuSans-2d"/>
      <use xlink:href="#DejaVuSans-31" x="36.083984"/>
      <use xlink:href="#DejaVuSans-30" x="99.707031"/>
      <use xlink:href="#DejaVuSans-20" x="163.330078"/>
      <use xlink:href="#DejaVuSans-42" x="195.117188"/>
      <use xlink:href="#DejaVuSans-6f" x="263.720703"/>
      <use xlink:href="#DejaVuSans-78" x="321.777344"/>
     </g>
    </g>
    <g id="line2d_48">
     <path d="M 351.35875 172.779375 
L 361.35875 172.779375 
L 371.35875 172.779375 
" style="fill: none; stroke: #000000; stroke-width: 0.8; stroke-linecap: square"/>
    </g>
    <g id="text_30">
     <!-- TSS/CRE -->
     <g transform="translate(379.35875 176.279375) scale(0.1 -0.1)">
      <defs>
       <path id="DejaVuSans-2f" d="M 1625 4666 
L 2156 4666 
L 531 -594 
L 0 -594 
L 1625 4666 
z
" transform="scale(0.015625)"/>
       <path id="DejaVuSans-43" d="M 4122 4306 
L 4122 3641 
Q 3803 3938 3442 4084 
Q 3081 4231 2675 4231 
Q 1875 4231 1450 3742 
Q 1025 3253 1025 2328 
Q 1025 1406 1450 917 
Q 1875 428 2675 428 
Q 3081 428 3442 575 
Q 3803 722 4122 1019 
L 4122 359 
Q 3791 134 3420 21 
Q 3050 -91 2638 -91 
Q 1578 -91 968 557 
Q 359 1206 359 2328 
Q 359 3453 968 4101 
Q 1578 4750 2638 4750 
Q 3056 4750 3426 4639 
Q 3797 4528 4122 4306 
z
" transform="scale(0.015625)"/>
       <path id="DejaVuSans-52" d="M 2841 2188 
Q 3044 2119 3236 1894 
Q 3428 1669 3622 1275 
L 4263 0 
L 3584 0 
L 2988 1197 
Q 2756 1666 2539 1819 
Q 2322 1972 1947 1972 
L 1259 1972 
L 1259 0 
L 628 0 
L 628 4666 
L 2053 4666 
Q 2853 4666 3247 4331 
Q 3641 3997 3641 3322 
Q 3641 2881 3436 2590 
Q 3231 2300 2841 2188 
z
M 1259 4147 
L 1259 2491 
L 2053 2491 
Q 2509 2491 2742 2702 
Q 2975 2913 2975 3322 
Q 2975 3731 2742 3939 
Q 2509 4147 2053 4147 
L 1259 4147 
z
" transform="scale(0.015625)"/>
       <path id="DejaVuSans-45" d="M 628 4666 
L 3578 4666 
L 3578 4134 
L 1259 4134 
L 1259 2753 
L 3481 2753 
L 3481 2222 
L 1259 2222 
L 1259 531 
L 3634 531 
L 3634 0 
L 628 0 
L 628 4666 
z
" transform="scale(0.015625)"/>
      </defs>
      <use xlink:href="#DejaVuSans-54"/>
      <use xlink:href="#DejaVuSans-53" x="61.083984"/>
      <use xlink:href="#DejaVuSans-53" x="124.560547"/>
      <use xlink:href="#DejaVuSans-2f" x="188.037109"/>
      <use xlink:href="#DejaVuSans-43" x="221.728516"/>
      <use xlink:href="#DejaVuSans-52" x="291.552734"/>
      <use xlink:href="#DejaVuSans-45" x="361.035156"/>
     </g>
    </g>
    <g id="patch_43">
     <path d="M 351.35875 190.9575 
L 371.35875 190.9575 
L 371.35875 183.9575 
L 351.35875 183.9575 
z
" style="fill: #daa520; opacity: 0.6; stroke: #daa520; stroke-linejoin: miter"/>
    </g>
    <g id="text_31">
     <!-- Attenuator -->
     <g transform="translate(379.35875 190.9575) scale(0.1 -0.1)">
      <defs>
       <path id="DejaVuSans-41" d="M 2188 4044 
L 1331 1722 
L 3047 1722 
L 2188 4044 
z
M 1831 4666 
L 2547 4666 
L 4325 0 
L 3669 0 
L 3244 1197 
L 1141 1197 
L 716 0 
L 50 0 
L 1831 4666 
z
" transform="scale(0.015625)"/>
       <path id="DejaVuSans-6e" d="M 3513 2113 
L 3513 0 
L 2938 0 
L 2938 2094 
Q 2938 2591 2744 2837 
Q 2550 3084 2163 3084 
Q 1697 3084 1428 2787 
Q 1159 2491 1159 1978 
L 1159 0 
L 581 0 
L 581 3500 
L 1159 3500 
L 1159 2956 
Q 1366 3272 1645 3428 
Q 1925 3584 2291 3584 
Q 2894 3584 3203 3211 
Q 3513 2838 3513 2113 
z
" transform="scale(0.015625)"/>
       <path id="DejaVuSans-75" d="M 544 1381 
L 544 3500 
L 1119 3500 
L 1119 1403 
Q 1119 906 1312 657 
Q 1506 409 1894 409 
Q 2359 409 2629 706 
Q 2900 1003 2900 1516 
L 2900 3500 
L 3475 3500 
L 3475 0 
L 2900 0 
L 2900 538 
Q 2691 219 2414 64 
Q 2138 -91 1772 -91 
Q 1169 -91 856 284 
Q 544 659 544 1381 
z
M 1991 3584 
L 1991 3584 
z
" transform="scale(0.015625)"/>
      </defs>
      <use xlink:href="#DejaVuSans-41"/>
      <use xlink:href="#DejaVuSans-74" x="66.658203"/>
      <use xlink:href="#DejaVuSans-74" x="105.867188"/>
      <use xlink:href="#DejaVuSans-65" x="145.076172"/>
      <use xlink:href="#DejaVuSans-6e" x="206.599609"/>
      <use xlink:href="#DejaVuSans-75" x="269.978516"/>
      <use xlink:href="#DejaVuSans-61" x="333.357422"/>
      <use xlink:href="#DejaVuSans-74" x="394.636719"/>
      <use xlink:href="#DejaVuSans-6f" x="433.845703"/>
      <use xlink:href="#DejaVuSans-72" x="495.027344"/>
     </g>
    </g>
    <g id="patch_44">
     <path d="M 351.35875 205.635625 
L 371.35875 205.635625 
L 371.35875 198.635625 
L 351.35875 198.635625 
z
" style="fill: #ffffff; stroke-dasharray: 3.7,1.6; stroke-dashoffset: 0; stroke: #7f7f7f; stroke-linejoin: miter"/>
    </g>
    <g id="text_32">
     <!-- No annot. -->
     <g transform="translate(379.35875 205.635625) scale(0.1 -0.1)">
      <defs>
       <path id="DejaVuSans-4e" d="M 628 4666 
L 1478 4666 
L 3547 763 
L 3547 4666 
L 4159 4666 
L 4159 0 
L 3309 0 
L 1241 3903 
L 1241 0 
L 628 0 
L 628 4666 
z
" transform="scale(0.015625)"/>
      </defs>
      <use xlink:href="#DejaVuSans-4e"/>
      <use xlink:href="#DejaVuSans-6f" x="74.804688"/>
      <use xlink:href="#DejaVuSans-20" x="135.986328"/>
      <use xlink:href="#DejaVuSans-61" x="167.773438"/>
      <use xlink:href="#DejaVuSans-6e" x="229.052734"/>
      <use xlink:href="#DejaVuSans-6e" x="292.431641"/>
      <use xlink:href="#DejaVuSans-6f" x="355.810547"/>
      <use xlink:href="#DejaVuSans-74" x="416.992188"/>
      <use xlink:href="#DejaVuSans-2e" x="456.201172"/>
     </g>
    </g>
    <g id="patch_45">
     <path d="M 351.35875 220.31375 
L 371.35875 220.31375 
L 371.35875 213.31375 
L 351.35875 213.31375 
z
" style="fill: #ee82ee; opacity: 0.6; stroke: #ee82ee; stroke-linejoin: miter"/>
    </g>
    <g id="text_33">
     <!-- RBS -->
     <g transform="translate(379.35875 220.31375) scale(0.1 -0.1)">
      <use xlink:href="#DejaVuSans-52"/>
      <use xlink:href="#DejaVuSans-42" x="69.482422"/>
      <use xlink:href="#DejaVuSans-53" x="136.335938"/>
     </g>
    </g>
    <g id="patch_46">
     <path d="M 351.35875 234.991875 
L 371.35875 234.991875 
L 371.35875 227.991875 
L 351.35875 227.991875 
z
" style="fill: #ffffff; stroke: #000000; stroke-linejoin: miter"/>
    </g>
    <g id="text_34">
     <!-- Coding -->
     <g transform="translate(379.35875 234.991875) scale(0.1 -0.1)">
      <defs>
       <path id="DejaVuSans-64" d="M 2906 2969 
L 2906 4863 
L 3481 4863 
L 3481 0 
L 2906 0 
L 2906 525 
Q 2725 213 2448 61 
Q 2172 -91 1784 -91 
Q 1150 -91 751 415 
Q 353 922 353 1747 
Q 353 2572 751 3078 
Q 1150 3584 1784 3584 
Q 2172 3584 2448 3432 
Q 2725 3281 2906 2969 
z
M 947 1747 
Q 947 1113 1208 752 
Q 1469 391 1925 391 
Q 2381 391 2643 752 
Q 2906 1113 2906 1747 
Q 2906 2381 2643 2742 
Q 2381 3103 1925 3103 
Q 1469 3103 1208 2742 
Q 947 2381 947 1747 
z
" transform="scale(0.015625)"/>
       <path id="DejaVuSans-69" d="M 603 3500 
L 1178 3500 
L 1178 0 
L 603 0 
L 603 3500 
z
M 603 4863 
L 1178 4863 
L 1178 4134 
L 603 4134 
L 603 4863 
z
" transform="scale(0.015625)"/>
       <path id="DejaVuSans-67" d="M 2906 1791 
Q 2906 2416 2648 2759 
Q 2391 3103 1925 3103 
Q 1463 3103 1205 2759 
Q 947 2416 947 1791 
Q 947 1169 1205 825 
Q 1463 481 1925 481 
Q 2391 481 2648 825 
Q 2906 1169 2906 1791 
z
M 3481 434 
Q 3481 -459 3084 -895 
Q 2688 -1331 1869 -1331 
Q 1566 -1331 1297 -1286 
Q 1028 -1241 775 -1147 
L 775 -588 
Q 1028 -725 1275 -790 
Q 1522 -856 1778 -856 
Q 2344 -856 2625 -561 
Q 2906 -266 2906 331 
L 2906 616 
Q 2728 306 2450 153 
Q 2172 0 1784 0 
Q 1141 0 747 490 
Q 353 981 353 1791 
Q 353 2603 747 3093 
Q 1141 3584 1784 3584 
Q 2172 3584 2450 3431 
Q 2728 3278 2906 2969 
L 2906 3500 
L 3481 3500 
L 3481 434 
z
" transform="scale(0.015625)"/>
      </defs>
      <use xlink:href="#DejaVuSans-43"/>
      <use xlink:href="#DejaVuSans-6f" x="69.824219"/>
      <use xlink:href="#DejaVuSans-64" x="131.005859"/>
      <use xlink:href="#DejaVuSans-69" x="194.482422"/>
      <use xlink:href="#DejaVuSans-6e" x="222.265625"/>
      <use xlink:href="#DejaVuSans-67" x="285.644531"/>
     </g>
    </g>
   </g>
  </g>
  <g id="axes_3">
   <g id="patch_47">
    <path d="M 63.35875 339.84 
L 342.35875 339.84 
L 342.35875 206.19 
L 63.35875 206.19 
z
" style="fill: #ffffff"/>
   </g>
   <g id="patch_48">
    <path d="M 66.45875 244.287926 
L 91.25875 244.287926 
L 91.25875 239.307152 
L 66.45875 239.307152 
z
" clip-path="url(#p7896661eb4)" style="fill: #c03d3e"/>
   </g>
   <g id="patch_49">
    <path d="M 97.45875 244.287926 
L 122.25875 244.287926 
L 122.25875 308.868709 
L 97.45875 308.868709 
z
" clip-path="url(#p7896661eb4)" style="fill: #c03d3e"/>
   </g>
   <g id="patch_50">
    <path d="M 128.45875 244.287926 
L 153.25875 244.287926 
L 153.25875 251.787102 
L 128.45875 251.787102 
z
" clip-path="url(#p7896661eb4)" style="fill: #c03d3e"/>
   </g>
   <g id="patch_51">
    <path d="M 159.45875 244.287926 
L 184.25875 244.287926 
L 184.25875 333.765 
L 159.45875 333.765 
z
" clip-path="url(#p7896661eb4)" style="fill: #c03d3e"/>
   </g>
   <g id="patch_52">
    <path d="M 190.45875 244.287926 
L 215.25875 244.287926 
L 215.25875 251.321635 
L 190.45875 251.321635 
z
" clip-path="url(#p7896661eb4)" style="fill: #c03d3e"/>
   </g>
   <g id="patch_53">
    <path d="M 221.45875 244.287926 
L 246.25875 244.287926 
L 246.25875 237.124233 
L 221.45875 237.124233 
z
" clip-path="url(#p7896661eb4)" style="fill: #c03d3e"/>
   </g>
   <g id="patch_54">
    <path d="M 252.45875 244.287926 
L 277.25875 244.287926 
L 277.25875 212.265 
L 252.45875 212.265 
z
" clip-path="url(#p7896661eb4)" style="fill: #c03d3e"/>
   </g>
   <g id="patch_55">
    <path d="M 283.45875 244.287926 
L 308.25875 244.287926 
L 308.25875 333.196446 
L 283.45875 333.196446 
z
" clip-path="url(#p7896661eb4)" style="fill: #c03d3e"/>
   </g>
   <g id="patch_56">
    <path d="M 314.45875 244.287926 
L 339.25875 244.287926 
L 339.25875 267.338684 
L 314.45875 267.338684 
z
" clip-path="url(#p7896661eb4)" style="fill: #c03d3e"/>
   </g>
   <g id="matplotlib.axis_5"/>
   <g id="matplotlib.axis_6">
    <g id="ytick_26">
     <g id="line2d_49">
      <g>
       <use xlink:href="#m2130569b6f" x="63.35875" y="316.301958" style="stroke: #000000; stroke-width: 0.8"/>
      </g>
     </g>
     <g id="text_35">
      <!-- 0.3 -->
      <g transform="translate(32.075937 320.101177) scale(0.1 -0.1)">
       <defs>
        <path id="DejaVuSans-2212" d="M 678 2272 
L 4684 2272 
L 4684 1741 
L 678 1741 
L 678 2272 
z
" transform="scale(0.015625)"/>
       </defs>
       <use xlink:href="#DejaVuSans-2212"/>
       <use xlink:href="#DejaVuSans-30" x="83.789062"/>
       <use xlink:href="#DejaVuSans-2e" x="147.412109"/>
       <use xlink:href="#DejaVuSans-33" x="179.199219"/>
      </g>
     </g>
    </g>
    <g id="ytick_27">
     <g id="line2d_50">
      <g>
       <use xlink:href="#m2130569b6f" x="63.35875" y="292.297281" style="stroke: #000000; stroke-width: 0.8"/>
      </g>
     </g>
     <g id="text_36">
      <!-- 0.2 -->
      <g transform="translate(32.075937 296.096499) scale(0.1 -0.1)">
       <use xlink:href="#DejaVuSans-2212"/>
       <use xlink:href="#DejaVuSans-30" x="83.789062"/>
       <use xlink:href="#DejaVuSans-2e" x="147.412109"/>
       <use xlink:href="#DejaVuSans-32" x="179.199219"/>
      </g>
     </g>
    </g>
    <g id="ytick_28">
     <g id="line2d_51">
      <g>
       <use xlink:href="#m2130569b6f" x="63.35875" y="268.292603" style="stroke: #000000; stroke-width: 0.8"/>
      </g>
     </g>
     <g id="text_37">
      <!-- 0.1 -->
      <g transform="translate(32.075937 272.091822) scale(0.1 -0.1)">
       <use xlink:href="#DejaVuSans-2212"/>
       <use xlink:href="#DejaVuSans-30" x="83.789062"/>
       <use xlink:href="#DejaVuSans-2e" x="147.412109"/>
       <use xlink:href="#DejaVuSans-31" x="179.199219"/>
      </g>
     </g>
    </g>
    <g id="ytick_29">
     <g id="line2d_52">
      <g>
       <use xlink:href="#m2130569b6f" x="63.35875" y="244.287926" style="stroke: #000000; stroke-width: 0.8"/>
      </g>
     </g>
     <g id="text_38">
      <!-- 0.0 -->
      <g transform="translate(40.455625 248.087145) scale(0.1 -0.1)">
       <use xlink:href="#DejaVuSans-30"/>
       <use xlink:href="#DejaVuSans-2e" x="63.623047"/>
       <use xlink:href="#DejaVuSans-30" x="95.410156"/>
      </g>
     </g>
    </g>
    <g id="ytick_30">
     <g id="line2d_53">
      <g>
       <use xlink:href="#m2130569b6f" x="63.35875" y="220.283248" style="stroke: #000000; stroke-width: 0.8"/>
      </g>
     </g>
     <g id="text_39">
      <!-- 0.1 -->
      <g transform="translate(40.455625 224.082467) scale(0.1 -0.1)">
       <use xlink:href="#DejaVuSans-30"/>
       <use xlink:href="#DejaVuSans-2e" x="63.623047"/>
       <use xlink:href="#DejaVuSans-31" x="95.410156"/>
      </g>
     </g>
    </g>
    <g id="text_40">
     <!-- Rel Variant -->
     <g transform="translate(14.798437 300.053281) rotate(-90) scale(0.1 -0.1)">
      <use xlink:href="#DejaVuSans-52"/>
      <use xlink:href="#DejaVuSans-65" x="64.982422"/>
      <use xlink:href="#DejaVuSans-6c" x="126.505859"/>
      <use xlink:href="#DejaVuSans-20" x="154.289062"/>
      <use xlink:href="#DejaVuSans-56" x="186.076172"/>
      <use xlink:href="#DejaVuSans-61" x="246.734375"/>
      <use xlink:href="#DejaVuSans-72" x="308.013672"/>
      <use xlink:href="#DejaVuSans-69" x="349.126953"/>
      <use xlink:href="#DejaVuSans-61" x="376.910156"/>
      <use xlink:href="#DejaVuSans-6e" x="438.189453"/>
      <use xlink:href="#DejaVuSans-74" x="501.568359"/>
     </g>
     <!-- Enrichment -->
     <g transform="translate(25.99625 301.781406) rotate(-90) scale(0.1 -0.1)">
      <defs>
       <path id="DejaVuSans-68" d="M 3513 2113 
L 3513 0 
L 2938 0 
L 2938 2094 
Q 2938 2591 2744 2837 
Q 2550 3084 2163 3084 
Q 1697 3084 1428 2787 
Q 1159 2491 1159 1978 
L 1159 0 
L 581 0 
L 581 4863 
L 1159 4863 
L 1159 2956 
Q 1366 3272 1645 3428 
Q 1925 3584 2291 3584 
Q 2894 3584 3203 3211 
Q 3513 2838 3513 2113 
z
" transform="scale(0.015625)"/>
       <path id="DejaVuSans-6d" d="M 3328 2828 
Q 3544 3216 3844 3400 
Q 4144 3584 4550 3584 
Q 5097 3584 5394 3201 
Q 5691 2819 5691 2113 
L 5691 0 
L 5113 0 
L 5113 2094 
Q 5113 2597 4934 2840 
Q 4756 3084 4391 3084 
Q 3944 3084 3684 2787 
Q 3425 2491 3425 1978 
L 3425 0 
L 2847 0 
L 2847 2094 
Q 2847 2600 2669 2842 
Q 2491 3084 2119 3084 
Q 1678 3084 1418 2786 
Q 1159 2488 1159 1978 
L 1159 0 
L 581 0 
L 581 3500 
L 1159 3500 
L 1159 2956 
Q 1356 3278 1631 3431 
Q 1906 3584 2284 3584 
Q 2666 3584 2933 3390 
Q 3200 3197 3328 2828 
z
" transform="scale(0.015625)"/>
      </defs>
      <use xlink:href="#DejaVuSans-45"/>
      <use xlink:href="#DejaVuSans-6e" x="63.183594"/>
      <use xlink:href="#DejaVuSans-72" x="126.5625"/>
      <use xlink:href="#DejaVuSans-69" x="167.675781"/>
      <use xlink:href="#DejaVuSans-63" x="195.458984"/>
      <use xlink:href="#DejaVuSans-68" x="250.439453"/>
      <use xlink:href="#DejaVuSans-6d" x="313.818359"/>
      <use xlink:href="#DejaVuSans-65" x="411.230469"/>
      <use xlink:href="#DejaVuSans-6e" x="472.753906"/>
      <use xlink:href="#DejaVuSans-74" x="536.132812"/>
     </g>
    </g>
   </g>
   <g id="line2d_54">
    <path clip-path="url(#p7896661eb4)" style="fill: none; stroke: #424242; stroke-width: 2.7; stroke-linecap: square"/>
   </g>
   <g id="line2d_55">
    <path clip-path="url(#p7896661eb4)" style="fill: none; stroke: #424242; stroke-width: 2.7; stroke-linecap: square"/>
   </g>
   <g id="line2d_56">
    <path clip-path="url(#p7896661eb4)" style="fill: none; stroke: #424242; stroke-width: 2.7; stroke-linecap: square"/>
   </g>
   <g id="line2d_57">
    <path clip-path="url(#p7896661eb4)" style="fill: none; stroke: #424242; stroke-width: 2.7; stroke-linecap: square"/>
   </g>
   <g id="line2d_58">
    <path clip-path="url(#p7896661eb4)" style="fill: none; stroke: #424242; stroke-width: 2.7; stroke-linecap: square"/>
   </g>
   <g id="line2d_59">
    <path clip-path="url(#p7896661eb4)" style="fill: none; stroke: #424242; stroke-width: 2.7; stroke-linecap: square"/>
   </g>
   <g id="line2d_60">
    <path clip-path="url(#p7896661eb4)" style="fill: none; stroke: #424242; stroke-width: 2.7; stroke-linecap: square"/>
   </g>
   <g id="line2d_61">
    <path clip-path="url(#p7896661eb4)" style="fill: none; stroke: #424242; stroke-width: 2.7; stroke-linecap: square"/>
   </g>
   <g id="line2d_62">
    <path clip-path="url(#p7896661eb4)" style="fill: none; stroke: #424242; stroke-width: 2.7; stroke-linecap: square"/>
   </g>
   <g id="line2d_63">
    <path d="M 63.35875 244.287926 
L 342.35875 244.287926 
" clip-path="url(#p7896661eb4)" style="fill: none; stroke-dasharray: 2.96,1.28; stroke-dashoffset: 0; stroke: #7f7f7f; stroke-width: 0.8"/>
   </g>
   <g id="patch_57">
    <path d="M 63.35875 339.84 
L 63.35875 206.19 
" style="fill: none; stroke: #000000; stroke-width: 0.8; stroke-linejoin: miter; stroke-linecap: square"/>
   </g>
   <g id="patch_58">
    <path d="M 342.35875 339.84 
L 342.35875 206.19 
" style="fill: none; stroke: #000000; stroke-width: 0.8; stroke-linejoin: miter; stroke-linecap: square"/>
   </g>
   <g id="patch_59">
    <path d="M 63.35875 339.84 
L 342.35875 339.84 
" style="fill: none; stroke: #000000; stroke-width: 0.8; stroke-linejoin: miter; stroke-linecap: square"/>
   </g>
   <g id="patch_60">
    <path d="M 63.35875 206.19 
L 342.35875 206.19 
" style="fill: none; stroke: #000000; stroke-width: 0.8; stroke-linejoin: miter; stroke-linecap: square"/>
   </g>
  </g>
 </g>
 <defs>
  <clipPath id="p75e3676f6c">
   <rect x="63.35875" y="7.2" width="279" height="133.65"/>
  </clipPath>
  <clipPath id="p2c6bdcbe84">
   <rect x="63.35875" y="151.245" width="279" height="44.55"/>
  </clipPath>
  <clipPath id="p7896661eb4">
   <rect x="63.35875" y="206.19" width="279" height="133.65"/>
  </clipPath>
 </defs>
</svg>
