<?xml version="1.0" encoding="utf-8" standalone="no"?>
<!DOCTYPE svg PUBLIC "-//W3C//DTD SVG 1.1//EN"
  "http://www.w3.org/Graphics/SVG/1.1/DTD/svg11.dtd">
<svg xmlns:xlink="http://www.w3.org/1999/xlink" width="474.116875pt" height="253.069125pt" viewBox="0 0 474.116875 253.069125" xmlns="http://www.w3.org/2000/svg" version="1.1">
 <metadata>
  <rdf:RDF xmlns:dc="http://purl.org/dc/elements/1.1/" xmlns:cc="http://creativecommons.org/ns#" xmlns:rdf="http://www.w3.org/1999/02/22-rdf-syntax-ns#">
   <cc:Work>
    <dc:type rdf:resource="http://purl.org/dc/dcmitype/StillImage"/>
    <dc:date>2023-09-12T14:02:05.239792</dc:date>
    <dc:format>image/svg+xml</dc:format>
    <dc:creator>
     <cc:Agent>
      <dc:title>Matplotlib v3.6.2, https://matplotlib.org/</dc:title>
     </cc:Agent>
    </dc:creator>
   </cc:Work>
  </rdf:RDF>
 </metadata>
 <defs>
  <style type="text/css">*{stroke-linejoin: round; stroke-linecap: butt}</style>
 </defs>
 <g id="figure_1">
  <g id="patch_1">
   <path d="M 0 253.069125 
L 474.116875 253.069125 
L 474.116875 0 
L 0 0 
z
" style="fill: #ffffff"/>
  </g>
  <g id="axes_1">
   <g id="patch_2">
    <path d="M 46.965625 215.512875 
L 381.765625 215.512875 
L 381.765625 49.192875 
L 46.965625 49.192875 
z
" style="fill: #ffffff"/>
   </g>
   <g id="line2d_1">
    <path d="M 46.965625 132.352875 
L 381.765625 132.352875 
" clip-path="url(#p305f1ec975)" style="fill: none; stroke: #000000; stroke-linecap: square"/>
   </g>
   <g id="line2d_2">
    <path d="M 46.965625 56.752875 
L 381.765625 56.752875 
" clip-path="url(#p305f1ec975)" style="fill: none; stroke-dasharray: 2.59,1.12; stroke-dashoffset: 0; stroke: #d62728; stroke-width: 0.7"/>
   </g>
   <g id="line2d_3">
    <path d="M 126.576048 147.472875 
L 126.576048 132.352875 
" clip-path="url(#p305f1ec975)" style="fill: none; stroke: #cd853f; stroke-width: 1.5; stroke-linecap: square"/>
   </g>
   <g id="PathCollection_1">
    <defs>
     <path id="m856cd08116" d="M 0 0.559017 
C 0.148253 0.559017 0.290454 0.500115 0.395285 0.395285 
C 0.500115 0.290454 0.559017 0.148253 0.559017 0 
C 0.559017 -0.148253 0.500115 -0.290454 0.395285 -0.395285 
C 0.290454 -0.500115 0.148253 -0.559017 0 -0.559017 
C -0.148253 -0.559017 -0.290454 -0.500115 -0.395285 -0.395285 
C -0.500115 -0.290454 -0.559017 -0.148253 -0.559017 0 
C -0.559017 0.148253 -0.500115 0.290454 -0.395285 0.395285 
C -0.290454 0.500115 -0.148253 0.559017 0 0.559017 
z
" style="stroke: #7f7f7f"/>
    </defs>
    <g clip-path="url(#p305f1ec975)">
     <use xlink:href="#m856cd08116" x="46.965625" y="207.820707" style="fill: #7f7f7f; stroke: #7f7f7f"/>
    </g>
   </g>
   <g id="PathCollection_2">
    <g clip-path="url(#p305f1ec975)">
     <use xlink:href="#m856cd08116" x="48.056179" y="207.820707" style="fill: #7f7f7f; stroke: #7f7f7f"/>
    </g>
   </g>
   <g id="PathCollection_3">
    <g clip-path="url(#p305f1ec975)">
     <use xlink:href="#m856cd08116" x="49.146732" y="207.820707" style="fill: #7f7f7f; stroke: #7f7f7f"/>
    </g>
   </g>
   <g id="PathCollection_4">
    <g clip-path="url(#p305f1ec975)">
     <use xlink:href="#m856cd08116" x="50.237286" y="207.820707" style="fill: #7f7f7f; stroke: #7f7f7f"/>
    </g>
   </g>
   <g id="PathCollection_5">
    <g clip-path="url(#p305f1ec975)">
     <use xlink:href="#m856cd08116" x="51.32784" y="207.820707" style="fill: #7f7f7f; stroke: #7f7f7f"/>
    </g>
   </g>
   <g id="PathCollection_6">
    <g clip-path="url(#p305f1ec975)">
     <use xlink:href="#m856cd08116" x="52.418394" y="207.820707" style="fill: #7f7f7f; stroke: #7f7f7f"/>
    </g>
   </g>
   <g id="PathCollection_7">
    <g clip-path="url(#p305f1ec975)">
     <use xlink:href="#m856cd08116" x="53.508947" y="207.886791" style="fill: #7f7f7f; stroke: #7f7f7f"/>
    </g>
   </g>
   <g id="PathCollection_8">
    <g clip-path="url(#p305f1ec975)">
     <use xlink:href="#m856cd08116" x="53.508947" y="207.820707" style="fill: #7f7f7f; stroke: #7f7f7f"/>
    </g>
   </g>
   <g id="PathCollection_9">
    <g clip-path="url(#p305f1ec975)">
     <use xlink:href="#m856cd08116" x="54.599501" y="207.820707" style="fill: #7f7f7f; stroke: #7f7f7f"/>
    </g>
   </g>
   <g id="PathCollection_10">
    <g clip-path="url(#p305f1ec975)">
     <use xlink:href="#m856cd08116" x="55.690055" y="207.820707" style="fill: #7f7f7f; stroke: #7f7f7f"/>
    </g>
   </g>
   <g id="PathCollection_11">
    <g clip-path="url(#p305f1ec975)">
     <use xlink:href="#m856cd08116" x="56.780609" y="207.886791" style="fill: #7f7f7f; stroke: #7f7f7f"/>
    </g>
   </g>
   <g id="PathCollection_12">
    <g clip-path="url(#p305f1ec975)">
     <use xlink:href="#m856cd08116" x="56.780609" y="207.820707" style="fill: #7f7f7f; stroke: #7f7f7f"/>
    </g>
   </g>
   <g id="PathCollection_13">
    <g clip-path="url(#p305f1ec975)">
     <use xlink:href="#m856cd08116" x="57.871162" y="207.820707" style="fill: #7f7f7f; stroke: #7f7f7f"/>
    </g>
   </g>
   <g id="PathCollection_14">
    <g clip-path="url(#p305f1ec975)">
     <use xlink:href="#m856cd08116" x="58.961716" y="207.820707" style="fill: #7f7f7f; stroke: #7f7f7f"/>
    </g>
   </g>
   <g id="PathCollection_15">
    <defs>
     <path id="mfe9da19c62" d="M -1.581139 1.581139 
L 1.581139 -1.581139 
M -1.581139 -1.581139 
L 1.581139 1.581139 
" style="stroke: #d62728; stroke-width: 1.5"/>
    </defs>
    <g clip-path="url(#p305f1ec975)">
     <use xlink:href="#mfe9da19c62" x="60.05227" y="163.346232" style="fill: #d62728; stroke: #d62728; stroke-width: 1.5"/>
    </g>
   </g>
   <g id="PathCollection_16">
    <g clip-path="url(#p305f1ec975)">
     <use xlink:href="#m856cd08116" x="60.05227" y="207.820707" style="fill: #7f7f7f; stroke: #7f7f7f"/>
    </g>
   </g>
   <g id="PathCollection_17">
    <g clip-path="url(#p305f1ec975)">
     <use xlink:href="#m856cd08116" x="60.05227" y="207.886791" style="fill: #7f7f7f; stroke: #7f7f7f"/>
    </g>
   </g>
   <g id="PathCollection_18">
    <g clip-path="url(#p305f1ec975)">
     <use xlink:href="#m856cd08116" x="61.142824" y="207.820707" style="fill: #7f7f7f; stroke: #7f7f7f"/>
    </g>
   </g>
   <g id="PathCollection_19">
    <g clip-path="url(#p305f1ec975)">
     <use xlink:href="#m856cd08116" x="62.233377" y="207.820707" style="fill: #7f7f7f; stroke: #7f7f7f"/>
    </g>
   </g>
   <g id="PathCollection_20">
    <g clip-path="url(#p305f1ec975)">
     <use xlink:href="#m856cd08116" x="63.323931" y="205.177351" style="fill: #7f7f7f; stroke: #7f7f7f"/>
    </g>
   </g>
   <g id="PathCollection_21">
    <g clip-path="url(#p305f1ec975)">
     <use xlink:href="#m856cd08116" x="63.323931" y="207.820707" style="fill: #7f7f7f; stroke: #7f7f7f"/>
    </g>
   </g>
   <g id="PathCollection_22">
    <g clip-path="url(#p305f1ec975)">
     <use xlink:href="#m856cd08116" x="64.414485" y="207.820707" style="fill: #7f7f7f; stroke: #7f7f7f"/>
    </g>
   </g>
   <g id="PathCollection_23">
    <g clip-path="url(#p305f1ec975)">
     <use xlink:href="#m856cd08116" x="65.505039" y="207.820707" style="fill: #7f7f7f; stroke: #7f7f7f"/>
    </g>
   </g>
   <g id="PathCollection_24">
    <g clip-path="url(#p305f1ec975)">
     <use xlink:href="#m856cd08116" x="66.595592" y="207.820707" style="fill: #7f7f7f; stroke: #7f7f7f"/>
    </g>
   </g>
   <g id="PathCollection_25">
    <g clip-path="url(#p305f1ec975)">
     <use xlink:href="#m856cd08116" x="67.686146" y="207.820707" style="fill: #7f7f7f; stroke: #7f7f7f"/>
    </g>
   </g>
   <g id="PathCollection_26">
    <g clip-path="url(#p305f1ec975)">
     <use xlink:href="#m856cd08116" x="68.7767" y="207.820707" style="fill: #7f7f7f; stroke: #7f7f7f"/>
    </g>
   </g>
   <g id="PathCollection_27">
    <g clip-path="url(#p305f1ec975)">
     <use xlink:href="#m856cd08116" x="69.867254" y="207.820707" style="fill: #7f7f7f; stroke: #7f7f7f"/>
    </g>
   </g>
   <g id="PathCollection_28">
    <g clip-path="url(#p305f1ec975)">
     <use xlink:href="#m856cd08116" x="70.957807" y="207.886791" style="fill: #7f7f7f; stroke: #7f7f7f"/>
    </g>
   </g>
   <g id="PathCollection_29">
    <g clip-path="url(#p305f1ec975)">
     <use xlink:href="#m856cd08116" x="70.957807" y="207.820707" style="fill: #7f7f7f; stroke: #7f7f7f"/>
    </g>
   </g>
   <g id="PathCollection_30">
    <g clip-path="url(#p305f1ec975)">
     <use xlink:href="#m856cd08116" x="72.048361" y="207.820707" style="fill: #7f7f7f; stroke: #7f7f7f"/>
    </g>
   </g>
   <g id="PathCollection_31">
    <g clip-path="url(#p305f1ec975)">
     <use xlink:href="#m856cd08116" x="73.138915" y="207.820707" style="fill: #7f7f7f; stroke: #7f7f7f"/>
    </g>
   </g>
   <g id="PathCollection_32">
    <g clip-path="url(#p305f1ec975)">
     <use xlink:href="#m856cd08116" x="74.229469" y="207.820707" style="fill: #7f7f7f; stroke: #7f7f7f"/>
    </g>
   </g>
   <g id="PathCollection_33">
    <g clip-path="url(#p305f1ec975)">
     <use xlink:href="#m856cd08116" x="92.768882" y="197.643784" style="fill: #7f7f7f; stroke: #7f7f7f"/>
    </g>
   </g>
   <g id="PathCollection_34">
    <g clip-path="url(#p305f1ec975)">
     <use xlink:href="#m856cd08116" x="96.040544" y="207.820707" style="fill: #7f7f7f; stroke: #7f7f7f"/>
    </g>
   </g>
   <g id="PathCollection_35">
    <g clip-path="url(#p305f1ec975)">
     <use xlink:href="#m856cd08116" x="102.583866" y="197.643784" style="fill: #7f7f7f; stroke: #7f7f7f"/>
    </g>
   </g>
   <g id="PathCollection_36">
    <g clip-path="url(#p305f1ec975)">
     <use xlink:href="#m856cd08116" x="109.127189" y="205.83819" style="fill: #7f7f7f; stroke: #7f7f7f"/>
    </g>
   </g>
   <g id="PathCollection_37">
    <g clip-path="url(#p305f1ec975)">
     <use xlink:href="#m856cd08116" x="112.39885" y="197.643784" style="fill: #7f7f7f; stroke: #7f7f7f"/>
    </g>
   </g>
   <g id="PathCollection_38">
    <g clip-path="url(#p305f1ec975)">
     <use xlink:href="#m856cd08116" x="116.761065" y="207.754623" style="fill: #7f7f7f; stroke: #7f7f7f"/>
    </g>
   </g>
   <g id="PathCollection_39">
    <g clip-path="url(#p305f1ec975)">
     <use xlink:href="#m856cd08116" x="122.213833" y="194.53784" style="fill: #7f7f7f; stroke: #7f7f7f"/>
    </g>
   </g>
   <g id="PathCollection_40">
    <g clip-path="url(#p305f1ec975)">
     <use xlink:href="#m856cd08116" x="123.304387" y="207.886791" style="fill: #7f7f7f; stroke: #7f7f7f"/>
    </g>
   </g>
   <g id="PathCollection_41">
    <g clip-path="url(#p305f1ec975)">
     <use xlink:href="#m856cd08116" x="128.757156" y="197.643784" style="fill: #7f7f7f; stroke: #7f7f7f"/>
    </g>
   </g>
   <g id="PathCollection_42">
    <g clip-path="url(#p305f1ec975)">
     <use xlink:href="#m856cd08116" x="129.84771" y="207.820707" style="fill: #7f7f7f; stroke: #7f7f7f"/>
    </g>
   </g>
   <g id="PathCollection_43">
    <g clip-path="url(#p305f1ec975)">
     <use xlink:href="#m856cd08116" x="130.938263" y="207.820707" style="fill: #7f7f7f; stroke: #7f7f7f"/>
    </g>
   </g>
   <g id="PathCollection_44">
    <g clip-path="url(#p305f1ec975)">
     <use xlink:href="#m856cd08116" x="132.028817" y="207.424204" style="fill: #7f7f7f; stroke: #7f7f7f"/>
    </g>
   </g>
   <g id="PathCollection_45">
    <g clip-path="url(#p305f1ec975)">
     <use xlink:href="#m856cd08116" x="134.209925" y="206.168609" style="fill: #7f7f7f; stroke: #7f7f7f"/>
    </g>
   </g>
   <g id="PathCollection_46">
    <g clip-path="url(#p305f1ec975)">
     <use xlink:href="#m856cd08116" x="134.209925" y="199.824553" style="fill: #7f7f7f; stroke: #7f7f7f"/>
    </g>
   </g>
   <g id="PathCollection_47">
    <g clip-path="url(#p305f1ec975)">
     <use xlink:href="#m856cd08116" x="137.481586" y="207.886791" style="fill: #7f7f7f; stroke: #7f7f7f"/>
    </g>
   </g>
   <g id="PathCollection_48">
    <g clip-path="url(#p305f1ec975)">
     <use xlink:href="#m856cd08116" x="154.930446" y="207.886791" style="fill: #7f7f7f; stroke: #7f7f7f"/>
    </g>
   </g>
   <g id="PathCollection_49">
    <g clip-path="url(#p305f1ec975)">
     <use xlink:href="#m856cd08116" x="154.930446" y="207.424204" style="fill: #7f7f7f; stroke: #7f7f7f"/>
    </g>
   </g>
   <g id="PathCollection_50">
    <g clip-path="url(#p305f1ec975)">
     <use xlink:href="#m856cd08116" x="154.930446" y="195.066511" style="fill: #7f7f7f; stroke: #7f7f7f"/>
    </g>
   </g>
   <g id="PathCollection_51">
    <g clip-path="url(#p305f1ec975)">
     <use xlink:href="#m856cd08116" x="160.383215" y="207.886791" style="fill: #7f7f7f; stroke: #7f7f7f"/>
    </g>
   </g>
   <g id="PathCollection_52">
    <g clip-path="url(#p305f1ec975)">
     <use xlink:href="#m856cd08116" x="163.654876" y="195.066511" style="fill: #7f7f7f; stroke: #7f7f7f"/>
    </g>
   </g>
   <g id="PathCollection_53">
    <g clip-path="url(#p305f1ec975)">
     <use xlink:href="#m856cd08116" x="166.926537" y="205.375602" style="fill: #7f7f7f; stroke: #7f7f7f"/>
    </g>
   </g>
   <g id="PathCollection_54">
    <g clip-path="url(#p305f1ec975)">
     <use xlink:href="#m856cd08116" x="168.017091" y="195.066511" style="fill: #7f7f7f; stroke: #7f7f7f"/>
    </g>
   </g>
   <g id="PathCollection_55">
    <g clip-path="url(#p305f1ec975)">
     <use xlink:href="#m856cd08116" x="170.198198" y="195.066511" style="fill: #7f7f7f; stroke: #7f7f7f"/>
    </g>
   </g>
   <g id="PathCollection_56">
    <g clip-path="url(#p305f1ec975)">
     <use xlink:href="#m856cd08116" x="182.194289" y="207.159868" style="fill: #7f7f7f; stroke: #7f7f7f"/>
    </g>
   </g>
   <g id="PathCollection_57">
    <g clip-path="url(#p305f1ec975)">
     <use xlink:href="#mfe9da19c62" x="184.375397" y="144.115812" style="fill: #d62728; stroke: #d62728; stroke-width: 1.5"/>
    </g>
   </g>
   <g id="PathCollection_58">
    <g clip-path="url(#p305f1ec975)">
     <use xlink:href="#m856cd08116" x="185.465951" y="195.000427" style="fill: #7f7f7f; stroke: #7f7f7f"/>
    </g>
   </g>
   <g id="PathCollection_59">
    <g clip-path="url(#p305f1ec975)">
     <use xlink:href="#m856cd08116" x="186.556504" y="191.894483" style="fill: #7f7f7f; stroke: #7f7f7f"/>
    </g>
   </g>
   <g id="PathCollection_60">
    <g clip-path="url(#p305f1ec975)">
     <use xlink:href="#m856cd08116" x="198.552596" y="197.511616" style="fill: #7f7f7f; stroke: #7f7f7f"/>
    </g>
   </g>
   <g id="PathCollection_61">
    <g clip-path="url(#p305f1ec975)">
     <use xlink:href="#m856cd08116" x="198.552596" y="188.392036" style="fill: #7f7f7f; stroke: #7f7f7f"/>
    </g>
   </g>
   <g id="PathCollection_62">
    <g clip-path="url(#p305f1ec975)">
     <use xlink:href="#m856cd08116" x="199.643149" y="205.573854" style="fill: #7f7f7f; stroke: #7f7f7f"/>
    </g>
   </g>
   <g id="PathCollection_63">
    <g clip-path="url(#p305f1ec975)">
     <use xlink:href="#m856cd08116" x="201.824257" y="207.886791" style="fill: #7f7f7f; stroke: #7f7f7f"/>
    </g>
   </g>
   <g id="PathCollection_64">
    <g clip-path="url(#p305f1ec975)">
     <use xlink:href="#m856cd08116" x="202.914811" y="207.886791" style="fill: #7f7f7f; stroke: #7f7f7f"/>
    </g>
   </g>
   <g id="PathCollection_65">
    <g clip-path="url(#p305f1ec975)">
     <use xlink:href="#m856cd08116" x="204.005364" y="207.35812" style="fill: #7f7f7f; stroke: #7f7f7f"/>
    </g>
   </g>
   <g id="PathCollection_66">
    <g clip-path="url(#p305f1ec975)">
     <use xlink:href="#m856cd08116" x="204.005364" y="197.445532" style="fill: #7f7f7f; stroke: #7f7f7f"/>
    </g>
   </g>
   <g id="PathCollection_67">
    <g clip-path="url(#p305f1ec975)">
     <use xlink:href="#m856cd08116" x="204.005364" y="190.771057" style="fill: #7f7f7f; stroke: #7f7f7f"/>
    </g>
   </g>
   <g id="PathCollection_68">
    <g clip-path="url(#p305f1ec975)">
     <use xlink:href="#m856cd08116" x="206.186472" y="204.714763" style="fill: #7f7f7f; stroke: #7f7f7f"/>
    </g>
   </g>
   <g id="PathCollection_69">
    <g clip-path="url(#p305f1ec975)">
     <use xlink:href="#m856cd08116" x="207.277026" y="207.886791" style="fill: #7f7f7f; stroke: #7f7f7f"/>
    </g>
   </g>
   <g id="PathCollection_70">
    <g clip-path="url(#p305f1ec975)">
     <use xlink:href="#m856cd08116" x="211.639241" y="207.886791" style="fill: #7f7f7f; stroke: #7f7f7f"/>
    </g>
   </g>
   <g id="PathCollection_71">
    <g clip-path="url(#p305f1ec975)">
     <use xlink:href="#m856cd08116" x="217.092009" y="207.820707" style="fill: #7f7f7f; stroke: #7f7f7f"/>
    </g>
   </g>
   <g id="PathCollection_72">
    <g clip-path="url(#p305f1ec975)">
     <use xlink:href="#m856cd08116" x="218.182563" y="207.820707" style="fill: #7f7f7f; stroke: #7f7f7f"/>
    </g>
   </g>
   <g id="PathCollection_73">
    <g clip-path="url(#p305f1ec975)">
     <use xlink:href="#m856cd08116" x="219.273117" y="207.820707" style="fill: #7f7f7f; stroke: #7f7f7f"/>
    </g>
   </g>
   <g id="PathCollection_74">
    <g clip-path="url(#p305f1ec975)">
     <use xlink:href="#m856cd08116" x="220.363671" y="207.820707" style="fill: #7f7f7f; stroke: #7f7f7f"/>
    </g>
   </g>
   <g id="PathCollection_75">
    <g clip-path="url(#p305f1ec975)">
     <use xlink:href="#m856cd08116" x="222.544778" y="207.820707" style="fill: #7f7f7f; stroke: #7f7f7f"/>
    </g>
   </g>
   <g id="PathCollection_76">
    <g clip-path="url(#p305f1ec975)">
     <use xlink:href="#m856cd08116" x="222.544778" y="207.886791" style="fill: #7f7f7f; stroke: #7f7f7f"/>
    </g>
   </g>
   <g id="PathCollection_77">
    <g clip-path="url(#p305f1ec975)">
     <use xlink:href="#m856cd08116" x="224.725886" y="207.886791" style="fill: #7f7f7f; stroke: #7f7f7f"/>
    </g>
   </g>
   <g id="PathCollection_78">
    <g clip-path="url(#p305f1ec975)">
     <use xlink:href="#m856cd08116" x="224.725886" y="207.754623" style="fill: #7f7f7f; stroke: #7f7f7f"/>
    </g>
   </g>
   <g id="PathCollection_79">
    <g clip-path="url(#p305f1ec975)">
     <use xlink:href="#m856cd08116" x="225.816439" y="207.820707" style="fill: #7f7f7f; stroke: #7f7f7f"/>
    </g>
   </g>
   <g id="PathCollection_80">
    <g clip-path="url(#p305f1ec975)">
     <use xlink:href="#m856cd08116" x="227.997547" y="207.886791" style="fill: #7f7f7f; stroke: #7f7f7f"/>
    </g>
   </g>
   <g id="PathCollection_81">
    <g clip-path="url(#p305f1ec975)">
     <use xlink:href="#m856cd08116" x="229.088101" y="207.886791" style="fill: #7f7f7f; stroke: #7f7f7f"/>
    </g>
   </g>
   <g id="PathCollection_82">
    <g clip-path="url(#p305f1ec975)">
     <use xlink:href="#m856cd08116" x="230.178654" y="191.233644" style="fill: #7f7f7f; stroke: #7f7f7f"/>
    </g>
   </g>
   <g id="PathCollection_83">
    <g clip-path="url(#p305f1ec975)">
     <use xlink:href="#m856cd08116" x="232.359762" y="205.375602" style="fill: #7f7f7f; stroke: #7f7f7f"/>
    </g>
   </g>
   <g id="PathCollection_84">
    <g clip-path="url(#p305f1ec975)">
     <use xlink:href="#m856cd08116" x="246.536961" y="207.886791" style="fill: #7f7f7f; stroke: #7f7f7f"/>
    </g>
   </g>
   <g id="PathCollection_85">
    <g clip-path="url(#p305f1ec975)">
     <use xlink:href="#m856cd08116" x="247.627514" y="207.688539" style="fill: #7f7f7f; stroke: #7f7f7f"/>
    </g>
   </g>
   <g id="PathCollection_86">
    <g clip-path="url(#p305f1ec975)">
     <use xlink:href="#mfe9da19c62" x="249.808622" y="179.867211" style="fill: #d62728; stroke: #d62728; stroke-width: 1.5"/>
    </g>
   </g>
   <g id="PathCollection_87">
    <g clip-path="url(#p305f1ec975)">
     <use xlink:href="#m856cd08116" x="250.899175" y="207.754623" style="fill: #7f7f7f; stroke: #7f7f7f"/>
    </g>
   </g>
   <g id="PathCollection_88">
    <g clip-path="url(#p305f1ec975)">
     <use xlink:href="#m856cd08116" x="251.989729" y="197.643784" style="fill: #7f7f7f; stroke: #7f7f7f"/>
    </g>
   </g>
   <g id="PathCollection_89">
    <g clip-path="url(#p305f1ec975)">
     <use xlink:href="#m856cd08116" x="253.080283" y="194.934344" style="fill: #7f7f7f; stroke: #7f7f7f"/>
    </g>
   </g>
   <g id="PathCollection_90">
    <g clip-path="url(#p305f1ec975)">
     <use xlink:href="#m856cd08116" x="255.26139" y="207.820707" style="fill: #7f7f7f; stroke: #7f7f7f"/>
    </g>
   </g>
   <g id="PathCollection_91">
    <g clip-path="url(#p305f1ec975)">
     <use xlink:href="#m856cd08116" x="256.351944" y="207.886791" style="fill: #7f7f7f; stroke: #7f7f7f"/>
    </g>
   </g>
   <g id="PathCollection_92">
    <g clip-path="url(#p305f1ec975)">
     <use xlink:href="#m856cd08116" x="257.442498" y="194.603924" style="fill: #7f7f7f; stroke: #7f7f7f"/>
    </g>
   </g>
   <g id="PathCollection_93">
    <g clip-path="url(#p305f1ec975)">
     <use xlink:href="#m856cd08116" x="277.072465" y="197.5777" style="fill: #7f7f7f; stroke: #7f7f7f"/>
    </g>
   </g>
   <g id="PathCollection_94">
    <g clip-path="url(#p305f1ec975)">
     <use xlink:href="#m856cd08116" x="278.163019" y="197.5777" style="fill: #7f7f7f; stroke: #7f7f7f"/>
    </g>
   </g>
   <g id="PathCollection_95">
    <g clip-path="url(#p305f1ec975)">
     <use xlink:href="#m856cd08116" x="283.615788" y="207.886791" style="fill: #7f7f7f; stroke: #7f7f7f"/>
    </g>
   </g>
   <g id="PathCollection_96">
    <g clip-path="url(#p305f1ec975)">
     <use xlink:href="#m856cd08116" x="285.796895" y="202.996581" style="fill: #7f7f7f; stroke: #7f7f7f"/>
    </g>
   </g>
   <g id="PathCollection_97">
    <g clip-path="url(#p305f1ec975)">
     <use xlink:href="#m856cd08116" x="290.15911" y="197.643784" style="fill: #7f7f7f; stroke: #7f7f7f"/>
    </g>
   </g>
   <g id="PathCollection_98">
    <g clip-path="url(#p305f1ec975)">
     <use xlink:href="#m856cd08116" x="299.974094" y="207.886791" style="fill: #7f7f7f; stroke: #7f7f7f"/>
    </g>
   </g>
   <g id="PathCollection_99">
    <g clip-path="url(#p305f1ec975)">
     <use xlink:href="#m856cd08116" x="301.064648" y="207.886791" style="fill: #7f7f7f; stroke: #7f7f7f"/>
    </g>
   </g>
   <g id="PathCollection_100">
    <g clip-path="url(#p305f1ec975)">
     <use xlink:href="#m856cd08116" x="302.155202" y="207.886791" style="fill: #7f7f7f; stroke: #7f7f7f"/>
    </g>
   </g>
   <g id="PathCollection_101">
    <g clip-path="url(#p305f1ec975)">
     <use xlink:href="#m856cd08116" x="303.245755" y="207.886791" style="fill: #7f7f7f; stroke: #7f7f7f"/>
    </g>
   </g>
   <g id="PathCollection_102">
    <g clip-path="url(#p305f1ec975)">
     <use xlink:href="#m856cd08116" x="304.336309" y="207.886791" style="fill: #7f7f7f; stroke: #7f7f7f"/>
    </g>
   </g>
   <g id="PathCollection_103">
    <g clip-path="url(#p305f1ec975)">
     <use xlink:href="#m856cd08116" x="305.426863" y="207.886791" style="fill: #7f7f7f; stroke: #7f7f7f"/>
    </g>
   </g>
   <g id="PathCollection_104">
    <g clip-path="url(#p305f1ec975)">
     <use xlink:href="#m856cd08116" x="306.517417" y="207.886791" style="fill: #7f7f7f; stroke: #7f7f7f"/>
    </g>
   </g>
   <g id="PathCollection_105">
    <g clip-path="url(#p305f1ec975)">
     <use xlink:href="#m856cd08116" x="307.60797" y="207.886791" style="fill: #7f7f7f; stroke: #7f7f7f"/>
    </g>
   </g>
   <g id="PathCollection_106">
    <g clip-path="url(#p305f1ec975)">
     <use xlink:href="#m856cd08116" x="308.698524" y="207.886791" style="fill: #7f7f7f; stroke: #7f7f7f"/>
    </g>
   </g>
   <g id="PathCollection_107">
    <g clip-path="url(#p305f1ec975)">
     <use xlink:href="#m856cd08116" x="311.970185" y="205.375602" style="fill: #7f7f7f; stroke: #7f7f7f"/>
    </g>
   </g>
   <g id="PathCollection_108">
    <g clip-path="url(#p305f1ec975)">
     <use xlink:href="#m856cd08116" x="313.060739" y="207.688539" style="fill: #7f7f7f; stroke: #7f7f7f"/>
    </g>
   </g>
   <g id="PathCollection_109">
    <g clip-path="url(#p305f1ec975)">
     <use xlink:href="#m856cd08116" x="318.513508" y="207.820707" style="fill: #7f7f7f; stroke: #7f7f7f"/>
    </g>
   </g>
   <g id="PathCollection_110">
    <g clip-path="url(#p305f1ec975)">
     <use xlink:href="#m856cd08116" x="337.052921" y="207.820707" style="fill: #7f7f7f; stroke: #7f7f7f"/>
    </g>
   </g>
   <g id="PathCollection_111">
    <g clip-path="url(#p305f1ec975)">
     <use xlink:href="#m856cd08116" x="338.143475" y="207.754623" style="fill: #7f7f7f; stroke: #7f7f7f"/>
    </g>
   </g>
   <g id="PathCollection_112">
    <g clip-path="url(#p305f1ec975)">
     <use xlink:href="#m856cd08116" x="338.143475" y="202.864413" style="fill: #7f7f7f; stroke: #7f7f7f"/>
    </g>
   </g>
   <g id="PathCollection_113">
    <g clip-path="url(#p305f1ec975)">
     <use xlink:href="#m856cd08116" x="340.324583" y="207.886791" style="fill: #7f7f7f; stroke: #7f7f7f"/>
    </g>
   </g>
   <g id="PathCollection_114">
    <g clip-path="url(#p305f1ec975)">
     <use xlink:href="#m856cd08116" x="352.320674" y="197.643784" style="fill: #7f7f7f; stroke: #7f7f7f"/>
    </g>
   </g>
   <g id="PathCollection_115">
    <g clip-path="url(#p305f1ec975)">
     <use xlink:href="#m856cd08116" x="354.501781" y="207.820707" style="fill: #7f7f7f; stroke: #7f7f7f"/>
    </g>
   </g>
   <g id="PathCollection_116">
    <g clip-path="url(#p305f1ec975)">
     <use xlink:href="#m856cd08116" x="355.592335" y="193.744833" style="fill: #7f7f7f; stroke: #7f7f7f"/>
    </g>
   </g>
   <g id="PathCollection_117">
    <g clip-path="url(#p305f1ec975)">
     <use xlink:href="#m856cd08116" x="356.682889" y="207.820707" style="fill: #7f7f7f; stroke: #7f7f7f"/>
    </g>
   </g>
   <g id="PathCollection_118">
    <g clip-path="url(#p305f1ec975)">
     <use xlink:href="#m856cd08116" x="357.773443" y="207.688539" style="fill: #7f7f7f; stroke: #7f7f7f"/>
    </g>
   </g>
   <g id="PathCollection_119">
    <g clip-path="url(#p305f1ec975)">
     <use xlink:href="#m856cd08116" x="366.497873" y="207.754623" style="fill: #7f7f7f; stroke: #7f7f7f"/>
    </g>
   </g>
   <g id="PathCollection_120">
    <g clip-path="url(#p305f1ec975)">
     <use xlink:href="#m856cd08116" x="367.588426" y="207.886791" style="fill: #7f7f7f; stroke: #7f7f7f"/>
    </g>
   </g>
   <g id="PathCollection_121">
    <g clip-path="url(#p305f1ec975)">
     <use xlink:href="#m856cd08116" x="374.131749" y="194.934344" style="fill: #7f7f7f; stroke: #7f7f7f"/>
    </g>
   </g>
   <g id="PathCollection_122">
    <g clip-path="url(#p305f1ec975)">
     <use xlink:href="#mfe9da19c62" x="379.584518" y="154.821406" style="fill: #d62728; stroke: #d62728; stroke-width: 1.5"/>
    </g>
   </g>
   <g id="PathCollection_123">
    <g clip-path="url(#p305f1ec975)">
     <use xlink:href="#mfe9da19c62" x="380.675071" y="154.821406" style="fill: #d62728; stroke: #d62728; stroke-width: 1.5"/>
    </g>
   </g>
   <g id="patch_3">
    <path d="M 46.965625 139.912875 
L 46.965625 124.792875 
L 169.107645 124.792875 
L 180.013182 132.352875 
L 169.107645 139.912875 
z
" clip-path="url(#p305f1ec975)" style="fill: #ffffff; stroke: #000000; stroke-linejoin: miter"/>
   </g>
   <g id="patch_4">
    <path d="M 325.05683 139.912875 
L 325.05683 124.792875 
L 369.769534 124.792875 
L 380.675071 132.352875 
L 369.769534 139.912875 
z
" clip-path="url(#p305f1ec975)" style="fill: #ffffff; stroke: #000000; stroke-linejoin: miter"/>
   </g>
   <g id="patch_5">
    <path d="M 314.151293 139.912875 
L 319.604061 139.912875 
L 319.604061 124.792875 
L 314.151293 124.792875 
z
" clip-path="url(#p305f1ec975)" style="fill: #ee82ee; opacity: 0.6; stroke: #ee82ee; stroke-linejoin: miter"/>
   </g>
   <g id="patch_6">
    <path d="M 292.340218 124.792875 
L 286.887449 126.304875 
L 286.887449 125.170875 
L 275.981912 125.170875 
L 275.981912 124.414875 
L 286.887449 124.414875 
L 286.887449 123.280875 
z
" clip-path="url(#p305f1ec975)" style="stroke: #000000; stroke-width: 0.8; stroke-linejoin: miter"/>
   </g>
   <g id="patch_7">
    <path d="M 263.98582 139.912875 
L 269.438589 139.912875 
L 269.438589 124.792875 
L 263.98582 124.792875 
z
" clip-path="url(#p305f1ec975)" style="fill: #90ee90; opacity: 0.6; stroke: #90ee90; stroke-linejoin: miter"/>
   </g>
   <g id="patch_8">
    <path d="M 237.812531 139.912875 
L 243.265299 139.912875 
L 243.265299 124.792875 
L 237.812531 124.792875 
z
" clip-path="url(#p305f1ec975)" style="fill: #ffa07a; opacity: 0.6; stroke: #ffa07a; stroke-linejoin: miter"/>
   </g>
   <g id="PathCollection_124">
    <defs>
     <path id="md1e7ccd683" d="M 0 1.322876 
C 0.350831 1.322876 0.68734 1.183489 0.935414 0.935414 
C 1.183489 0.68734 1.322876 0.350831 1.322876 0 
C 1.322876 -0.350831 1.183489 -0.68734 0.935414 -0.935414 
C 0.68734 -1.183489 0.350831 -1.322876 0 -1.322876 
C -0.350831 -1.322876 -0.68734 -1.183489 -0.935414 -0.935414 
C -1.183489 -0.68734 -1.322876 -0.350831 -1.322876 0 
C -1.322876 0.350831 -1.183489 0.68734 -0.935414 0.935414 
C -0.68734 1.183489 -0.350831 1.322876 0 1.322876 
z
" style="stroke: #cd853f"/>
    </defs>
    <g clip-path="url(#p305f1ec975)">
     <use xlink:href="#md1e7ccd683" x="126.576048" y="147.472875" style="fill: #cd853f; stroke: #cd853f"/>
    </g>
   </g>
   <g id="patch_9">
    <path d="M 123.304387 139.156875 
L 225.816439 139.156875 
L 225.816439 133.108875 
L 123.304387 133.108875 
z
" clip-path="url(#p305f1ec975)" style="fill: #daa520; opacity: 0.6; stroke: #daa520; stroke-linejoin: miter"/>
   </g>
   <g id="matplotlib.axis_1">
    <g id="xtick_1">
     <g id="line2d_4">
      <defs>
       <path id="m24124573b2" d="M 0 0 
L 0 3.5 
" style="stroke: #000000; stroke-width: 0.8"/>
      </defs>
      <g>
       <use xlink:href="#m24124573b2" x="86.22556" y="215.512875" style="stroke: #000000; stroke-width: 0.8"/>
      </g>
     </g>
     <g id="text_1">
      <!-- -200 -->
      <g transform="translate(74.877904 230.111313) scale(0.1 -0.1)">
       <defs>
        <path id="DejaVuSans-2d" d="M 313 2009 
L 1997 2009 
L 1997 1497 
L 313 1497 
L 313 2009 
z
" transform="scale(0.015625)"/>
        <path id="DejaVuSans-32" d="M 1228 531 
L 3431 531 
L 3431 0 
L 469 0 
L 469 531 
Q 828 903 1448 1529 
Q 2069 2156 2228 2338 
Q 2531 2678 2651 2914 
Q 2772 3150 2772 3378 
Q 2772 3750 2511 3984 
Q 2250 4219 1831 4219 
Q 1534 4219 1204 4116 
Q 875 4013 500 3803 
L 500 4441 
Q 881 4594 1212 4672 
Q 1544 4750 1819 4750 
Q 2544 4750 2975 4387 
Q 3406 4025 3406 3419 
Q 3406 3131 3298 2873 
Q 3191 2616 2906 2266 
Q 2828 2175 2409 1742 
Q 1991 1309 1228 531 
z
" transform="scale(0.015625)"/>
        <path id="DejaVuSans-30" d="M 2034 4250 
Q 1547 4250 1301 3770 
Q 1056 3291 1056 2328 
Q 1056 1369 1301 889 
Q 1547 409 2034 409 
Q 2525 409 2770 889 
Q 3016 1369 3016 2328 
Q 3016 3291 2770 3770 
Q 2525 4250 2034 4250 
z
M 2034 4750 
Q 2819 4750 3233 4129 
Q 3647 3509 3647 2328 
Q 3647 1150 3233 529 
Q 2819 -91 2034 -91 
Q 1250 -91 836 529 
Q 422 1150 422 2328 
Q 422 3509 836 4129 
Q 1250 4750 2034 4750 
z
" transform="scale(0.015625)"/>
       </defs>
       <use xlink:href="#DejaVuSans-2d"/>
       <use xlink:href="#DejaVuSans-32" x="36.083984"/>
       <use xlink:href="#DejaVuSans-30" x="99.707031"/>
       <use xlink:href="#DejaVuSans-30" x="163.330078"/>
      </g>
     </g>
    </g>
    <g id="xtick_2">
     <g id="line2d_5">
      <g>
       <use xlink:href="#m24124573b2" x="142.934355" y="215.512875" style="stroke: #000000; stroke-width: 0.8"/>
      </g>
     </g>
     <g id="text_2">
      <!-- -150 -->
      <g transform="translate(131.586698 230.111313) scale(0.1 -0.1)">
       <defs>
        <path id="DejaVuSans-31" d="M 794 531 
L 1825 531 
L 1825 4091 
L 703 3866 
L 703 4441 
L 1819 4666 
L 2450 4666 
L 2450 531 
L 3481 531 
L 3481 0 
L 794 0 
L 794 531 
z
" transform="scale(0.015625)"/>
        <path id="DejaVuSans-35" d="M 691 4666 
L 3169 4666 
L 3169 4134 
L 1269 4134 
L 1269 2991 
Q 1406 3038 1543 3061 
Q 1681 3084 1819 3084 
Q 2600 3084 3056 2656 
Q 3513 2228 3513 1497 
Q 3513 744 3044 326 
Q 2575 -91 1722 -91 
Q 1428 -91 1123 -41 
Q 819 9 494 109 
L 494 744 
Q 775 591 1075 516 
Q 1375 441 1709 441 
Q 2250 441 2565 725 
Q 2881 1009 2881 1497 
Q 2881 1984 2565 2268 
Q 2250 2553 1709 2553 
Q 1456 2553 1204 2497 
Q 953 2441 691 2322 
L 691 4666 
z
" transform="scale(0.015625)"/>
       </defs>
       <use xlink:href="#DejaVuSans-2d"/>
       <use xlink:href="#DejaVuSans-31" x="36.083984"/>
       <use xlink:href="#DejaVuSans-35" x="99.707031"/>
       <use xlink:href="#DejaVuSans-30" x="163.330078"/>
      </g>
     </g>
    </g>
    <g id="xtick_3">
     <g id="line2d_6">
      <g>
       <use xlink:href="#m24124573b2" x="197.462042" y="215.512875" style="stroke: #000000; stroke-width: 0.8"/>
      </g>
     </g>
     <g id="text_3">
      <!-- -100 -->
      <g transform="translate(186.114386 230.111313) scale(0.1 -0.1)">
       <use xlink:href="#DejaVuSans-2d"/>
       <use xlink:href="#DejaVuSans-31" x="36.083984"/>
       <use xlink:href="#DejaVuSans-30" x="99.707031"/>
       <use xlink:href="#DejaVuSans-30" x="163.330078"/>
      </g>
     </g>
    </g>
    <g id="xtick_4">
     <g id="line2d_7">
      <g>
       <use xlink:href="#m24124573b2" x="260.714159" y="215.512875" style="stroke: #000000; stroke-width: 0.8"/>
      </g>
     </g>
     <g id="text_4">
      <!-- -50 -->
      <g transform="translate(252.547753 230.111313) scale(0.1 -0.1)">
       <use xlink:href="#DejaVuSans-2d"/>
       <use xlink:href="#DejaVuSans-35" x="36.083984"/>
       <use xlink:href="#DejaVuSans-30" x="99.707031"/>
      </g>
     </g>
    </g>
    <g id="xtick_5">
     <g id="line2d_8">
      <g>
       <use xlink:href="#m24124573b2" x="325.05683" y="215.512875" style="stroke: #000000; stroke-width: 0.8"/>
      </g>
     </g>
     <g id="text_5">
      <!-- 0 -->
      <g transform="translate(321.87558 230.111313) scale(0.1 -0.1)">
       <use xlink:href="#DejaVuSans-30"/>
      </g>
     </g>
    </g>
    <g id="xtick_6">
     <g id="line2d_9">
      <g>
       <use xlink:href="#m24124573b2" x="380.675071" y="215.512875" style="stroke: #000000; stroke-width: 0.8"/>
      </g>
     </g>
     <g id="text_6">
      <!-- 50 -->
      <g transform="translate(374.312571 230.111313) scale(0.1 -0.1)">
       <use xlink:href="#DejaVuSans-35"/>
       <use xlink:href="#DejaVuSans-30" x="63.623047"/>
      </g>
     </g>
    </g>
    <g id="text_7">
     <!-- bp from cutA Gene Start -->
     <g transform="translate(153.319531 243.789438) scale(0.1 -0.1)">
      <defs>
       <path id="DejaVuSans-62" d="M 3116 1747 
Q 3116 2381 2855 2742 
Q 2594 3103 2138 3103 
Q 1681 3103 1420 2742 
Q 1159 2381 1159 1747 
Q 1159 1113 1420 752 
Q 1681 391 2138 391 
Q 2594 391 2855 752 
Q 3116 1113 3116 1747 
z
M 1159 2969 
Q 1341 3281 1617 3432 
Q 1894 3584 2278 3584 
Q 2916 3584 3314 3078 
Q 3713 2572 3713 1747 
Q 3713 922 3314 415 
Q 2916 -91 2278 -91 
Q 1894 -91 1617 61 
Q 1341 213 1159 525 
L 1159 0 
L 581 0 
L 581 4863 
L 1159 4863 
L 1159 2969 
z
" transform="scale(0.015625)"/>
       <path id="DejaVuSans-70" d="M 1159 525 
L 1159 -1331 
L 581 -1331 
L 581 3500 
L 1159 3500 
L 1159 2969 
Q 1341 3281 1617 3432 
Q 1894 3584 2278 3584 
Q 2916 3584 3314 3078 
Q 3713 2572 3713 1747 
Q 3713 922 3314 415 
Q 2916 -91 2278 -91 
Q 1894 -91 1617 61 
Q 1341 213 1159 525 
z
M 3116 1747 
Q 3116 2381 2855 2742 
Q 2594 3103 2138 3103 
Q 1681 3103 1420 2742 
Q 1159 2381 1159 1747 
Q 1159 1113 1420 752 
Q 1681 391 2138 391 
Q 2594 391 2855 752 
Q 3116 1113 3116 1747 
z
" transform="scale(0.015625)"/>
       <path id="DejaVuSans-20" transform="scale(0.015625)"/>
       <path id="DejaVuSans-66" d="M 2375 4863 
L 2375 4384 
L 1825 4384 
Q 1516 4384 1395 4259 
Q 1275 4134 1275 3809 
L 1275 3500 
L 2222 3500 
L 2222 3053 
L 1275 3053 
L 1275 0 
L 697 0 
L 697 3053 
L 147 3053 
L 147 3500 
L 697 3500 
L 697 3744 
Q 697 4328 969 4595 
Q 1241 4863 1831 4863 
L 2375 4863 
z
" transform="scale(0.015625)"/>
       <path id="DejaVuSans-72" d="M 2631 2963 
Q 2534 3019 2420 3045 
Q 2306 3072 2169 3072 
Q 1681 3072 1420 2755 
Q 1159 2438 1159 1844 
L 1159 0 
L 581 0 
L 581 3500 
L 1159 3500 
L 1159 2956 
Q 1341 3275 1631 3429 
Q 1922 3584 2338 3584 
Q 2397 3584 2469 3576 
Q 2541 3569 2628 3553 
L 2631 2963 
z
" transform="scale(0.015625)"/>
       <path id="DejaVuSans-6f" d="M 1959 3097 
Q 1497 3097 1228 2736 
Q 959 2375 959 1747 
Q 959 1119 1226 758 
Q 1494 397 1959 397 
Q 2419 397 2687 759 
Q 2956 1122 2956 1747 
Q 2956 2369 2687 2733 
Q 2419 3097 1959 3097 
z
M 1959 3584 
Q 2709 3584 3137 3096 
Q 3566 2609 3566 1747 
Q 3566 888 3137 398 
Q 2709 -91 1959 -91 
Q 1206 -91 779 398 
Q 353 888 353 1747 
Q 353 2609 779 3096 
Q 1206 3584 1959 3584 
z
" transform="scale(0.015625)"/>
       <path id="DejaVuSans-6d" d="M 3328 2828 
Q 3544 3216 3844 3400 
Q 4144 3584 4550 3584 
Q 5097 3584 5394 3201 
Q 5691 2819 5691 2113 
L 5691 0 
L 5113 0 
L 5113 2094 
Q 5113 2597 4934 2840 
Q 4756 3084 4391 3084 
Q 3944 3084 3684 2787 
Q 3425 2491 3425 1978 
L 3425 0 
L 2847 0 
L 2847 2094 
Q 2847 2600 2669 2842 
Q 2491 3084 2119 3084 
Q 1678 3084 1418 2786 
Q 1159 2488 1159 1978 
L 1159 0 
L 581 0 
L 581 3500 
L 1159 3500 
L 1159 2956 
Q 1356 3278 1631 3431 
Q 1906 3584 2284 3584 
Q 2666 3584 2933 3390 
Q 3200 3197 3328 2828 
z
" transform="scale(0.015625)"/>
       <path id="DejaVuSans-63" d="M 3122 3366 
L 3122 2828 
Q 2878 2963 2633 3030 
Q 2388 3097 2138 3097 
Q 1578 3097 1268 2742 
Q 959 2388 959 1747 
Q 959 1106 1268 751 
Q 1578 397 2138 397 
Q 2388 397 2633 464 
Q 2878 531 3122 666 
L 3122 134 
Q 2881 22 2623 -34 
Q 2366 -91 2075 -91 
Q 1284 -91 818 406 
Q 353 903 353 1747 
Q 353 2603 823 3093 
Q 1294 3584 2113 3584 
Q 2378 3584 2631 3529 
Q 2884 3475 3122 3366 
z
" transform="scale(0.015625)"/>
       <path id="DejaVuSans-75" d="M 544 1381 
L 544 3500 
L 1119 3500 
L 1119 1403 
Q 1119 906 1312 657 
Q 1506 409 1894 409 
Q 2359 409 2629 706 
Q 2900 1003 2900 1516 
L 2900 3500 
L 3475 3500 
L 3475 0 
L 2900 0 
L 2900 538 
Q 2691 219 2414 64 
Q 2138 -91 1772 -91 
Q 1169 -91 856 284 
Q 544 659 544 1381 
z
M 1991 3584 
L 1991 3584 
z
" transform="scale(0.015625)"/>
       <path id="DejaVuSans-74" d="M 1172 4494 
L 1172 3500 
L 2356 3500 
L 2356 3053 
L 1172 3053 
L 1172 1153 
Q 1172 725 1289 603 
Q 1406 481 1766 481 
L 2356 481 
L 2356 0 
L 1766 0 
Q 1100 0 847 248 
Q 594 497 594 1153 
L 594 3053 
L 172 3053 
L 172 3500 
L 594 3500 
L 594 4494 
L 1172 4494 
z
" transform="scale(0.015625)"/>
       <path id="DejaVuSans-41" d="M 2188 4044 
L 1331 1722 
L 3047 1722 
L 2188 4044 
z
M 1831 4666 
L 2547 4666 
L 4325 0 
L 3669 0 
L 3244 1197 
L 1141 1197 
L 716 0 
L 50 0 
L 1831 4666 
z
" transform="scale(0.015625)"/>
       <path id="DejaVuSans-47" d="M 3809 666 
L 3809 1919 
L 2778 1919 
L 2778 2438 
L 4434 2438 
L 4434 434 
Q 4069 175 3628 42 
Q 3188 -91 2688 -91 
Q 1594 -91 976 548 
Q 359 1188 359 2328 
Q 359 3472 976 4111 
Q 1594 4750 2688 4750 
Q 3144 4750 3555 4637 
Q 3966 4525 4313 4306 
L 4313 3634 
Q 3963 3931 3569 4081 
Q 3175 4231 2741 4231 
Q 1884 4231 1454 3753 
Q 1025 3275 1025 2328 
Q 1025 1384 1454 906 
Q 1884 428 2741 428 
Q 3075 428 3337 486 
Q 3600 544 3809 666 
z
" transform="scale(0.015625)"/>
       <path id="DejaVuSans-65" d="M 3597 1894 
L 3597 1613 
L 953 1613 
Q 991 1019 1311 708 
Q 1631 397 2203 397 
Q 2534 397 2845 478 
Q 3156 559 3463 722 
L 3463 178 
Q 3153 47 2828 -22 
Q 2503 -91 2169 -91 
Q 1331 -91 842 396 
Q 353 884 353 1716 
Q 353 2575 817 3079 
Q 1281 3584 2069 3584 
Q 2775 3584 3186 3129 
Q 3597 2675 3597 1894 
z
M 3022 2063 
Q 3016 2534 2758 2815 
Q 2500 3097 2075 3097 
Q 1594 3097 1305 2825 
Q 1016 2553 972 2059 
L 3022 2063 
z
" transform="scale(0.015625)"/>
       <path id="DejaVuSans-6e" d="M 3513 2113 
L 3513 0 
L 2938 0 
L 2938 2094 
Q 2938 2591 2744 2837 
Q 2550 3084 2163 3084 
Q 1697 3084 1428 2787 
Q 1159 2491 1159 1978 
L 1159 0 
L 581 0 
L 581 3500 
L 1159 3500 
L 1159 2956 
Q 1366 3272 1645 3428 
Q 1925 3584 2291 3584 
Q 2894 3584 3203 3211 
Q 3513 2838 3513 2113 
z
" transform="scale(0.015625)"/>
       <path id="DejaVuSans-53" d="M 3425 4513 
L 3425 3897 
Q 3066 4069 2747 4153 
Q 2428 4238 2131 4238 
Q 1616 4238 1336 4038 
Q 1056 3838 1056 3469 
Q 1056 3159 1242 3001 
Q 1428 2844 1947 2747 
L 2328 2669 
Q 3034 2534 3370 2195 
Q 3706 1856 3706 1288 
Q 3706 609 3251 259 
Q 2797 -91 1919 -91 
Q 1588 -91 1214 -16 
Q 841 59 441 206 
L 441 856 
Q 825 641 1194 531 
Q 1563 422 1919 422 
Q 2459 422 2753 634 
Q 3047 847 3047 1241 
Q 3047 1584 2836 1778 
Q 2625 1972 2144 2069 
L 1759 2144 
Q 1053 2284 737 2584 
Q 422 2884 422 3419 
Q 422 4038 858 4394 
Q 1294 4750 2059 4750 
Q 2388 4750 2728 4690 
Q 3069 4631 3425 4513 
z
" transform="scale(0.015625)"/>
       <path id="DejaVuSans-61" d="M 2194 1759 
Q 1497 1759 1228 1600 
Q 959 1441 959 1056 
Q 959 750 1161 570 
Q 1363 391 1709 391 
Q 2188 391 2477 730 
Q 2766 1069 2766 1631 
L 2766 1759 
L 2194 1759 
z
M 3341 1997 
L 3341 0 
L 2766 0 
L 2766 531 
Q 2569 213 2275 61 
Q 1981 -91 1556 -91 
Q 1019 -91 701 211 
Q 384 513 384 1019 
Q 384 1609 779 1909 
Q 1175 2209 1959 2209 
L 2766 2209 
L 2766 2266 
Q 2766 2663 2505 2880 
Q 2244 3097 1772 3097 
Q 1472 3097 1187 3025 
Q 903 2953 641 2809 
L 641 3341 
Q 956 3463 1253 3523 
Q 1550 3584 1831 3584 
Q 2591 3584 2966 3190 
Q 3341 2797 3341 1997 
z
" transform="scale(0.015625)"/>
      </defs>
      <use xlink:href="#DejaVuSans-62"/>
      <use xlink:href="#DejaVuSans-70" x="63.476562"/>
      <use xlink:href="#DejaVuSans-20" x="126.953125"/>
      <use xlink:href="#DejaVuSans-66" x="158.740234"/>
      <use xlink:href="#DejaVuSans-72" x="193.945312"/>
      <use xlink:href="#DejaVuSans-6f" x="232.808594"/>
      <use xlink:href="#DejaVuSans-6d" x="293.990234"/>
      <use xlink:href="#DejaVuSans-20" x="391.402344"/>
      <use xlink:href="#DejaVuSans-63" x="423.189453"/>
      <use xlink:href="#DejaVuSans-75" x="478.169922"/>
      <use xlink:href="#DejaVuSans-74" x="541.548828"/>
      <use xlink:href="#DejaVuSans-41" x="580.757812"/>
      <use xlink:href="#DejaVuSans-20" x="649.166016"/>
      <use xlink:href="#DejaVuSans-47" x="680.953125"/>
      <use xlink:href="#DejaVuSans-65" x="758.443359"/>
      <use xlink:href="#DejaVuSans-6e" x="819.966797"/>
      <use xlink:href="#DejaVuSans-65" x="883.345703"/>
      <use xlink:href="#DejaVuSans-20" x="944.869141"/>
      <use xlink:href="#DejaVuSans-53" x="976.65625"/>
      <use xlink:href="#DejaVuSans-74" x="1040.132812"/>
      <use xlink:href="#DejaVuSans-61" x="1079.341797"/>
      <use xlink:href="#DejaVuSans-72" x="1140.621094"/>
      <use xlink:href="#DejaVuSans-74" x="1181.734375"/>
     </g>
    </g>
   </g>
   <g id="matplotlib.axis_2">
    <g id="ytick_1">
     <g id="line2d_10">
      <defs>
       <path id="m49d48270b9" d="M 0 0 
L -3.5 0 
" style="stroke: #000000; stroke-width: 0.8"/>
      </defs>
      <g>
       <use xlink:href="#m49d48270b9" x="46.965625" y="207.952875" style="stroke: #000000; stroke-width: 0.8"/>
      </g>
     </g>
     <g id="text_8">
      <!-- 0 -->
      <g transform="translate(33.603125 211.752094) scale(0.1 -0.1)">
       <use xlink:href="#DejaVuSans-30"/>
      </g>
     </g>
    </g>
    <g id="ytick_2">
     <g id="line2d_11">
      <g>
       <use xlink:href="#m49d48270b9" x="46.965625" y="177.712875" style="stroke: #000000; stroke-width: 0.8"/>
      </g>
     </g>
     <g id="text_9">
      <!-- 20 -->
      <g transform="translate(27.240625 181.512094) scale(0.1 -0.1)">
       <use xlink:href="#DejaVuSans-32"/>
       <use xlink:href="#DejaVuSans-30" x="63.623047"/>
      </g>
     </g>
    </g>
    <g id="ytick_3">
     <g id="line2d_12">
      <g>
       <use xlink:href="#m49d48270b9" x="46.965625" y="147.472875" style="stroke: #000000; stroke-width: 0.8"/>
      </g>
     </g>
     <g id="text_10">
      <!-- 40 -->
      <g transform="translate(27.240625 151.272094) scale(0.1 -0.1)">
       <defs>
        <path id="DejaVuSans-34" d="M 2419 4116 
L 825 1625 
L 2419 1625 
L 2419 4116 
z
M 2253 4666 
L 3047 4666 
L 3047 1625 
L 3713 1625 
L 3713 1100 
L 3047 1100 
L 3047 0 
L 2419 0 
L 2419 1100 
L 313 1100 
L 313 1709 
L 2253 4666 
z
" transform="scale(0.015625)"/>
       </defs>
       <use xlink:href="#DejaVuSans-34"/>
       <use xlink:href="#DejaVuSans-30" x="63.623047"/>
      </g>
     </g>
    </g>
    <g id="ytick_4">
     <g id="line2d_13">
      <g>
       <use xlink:href="#m49d48270b9" x="46.965625" y="117.232875" style="stroke: #000000; stroke-width: 0.8"/>
      </g>
     </g>
     <g id="text_11">
      <!-- 60 -->
      <g transform="translate(27.240625 121.032094) scale(0.1 -0.1)">
       <defs>
        <path id="DejaVuSans-36" d="M 2113 2584 
Q 1688 2584 1439 2293 
Q 1191 2003 1191 1497 
Q 1191 994 1439 701 
Q 1688 409 2113 409 
Q 2538 409 2786 701 
Q 3034 994 3034 1497 
Q 3034 2003 2786 2293 
Q 2538 2584 2113 2584 
z
M 3366 4563 
L 3366 3988 
Q 3128 4100 2886 4159 
Q 2644 4219 2406 4219 
Q 1781 4219 1451 3797 
Q 1122 3375 1075 2522 
Q 1259 2794 1537 2939 
Q 1816 3084 2150 3084 
Q 2853 3084 3261 2657 
Q 3669 2231 3669 1497 
Q 3669 778 3244 343 
Q 2819 -91 2113 -91 
Q 1303 -91 875 529 
Q 447 1150 447 2328 
Q 447 3434 972 4092 
Q 1497 4750 2381 4750 
Q 2619 4750 2861 4703 
Q 3103 4656 3366 4563 
z
" transform="scale(0.015625)"/>
       </defs>
       <use xlink:href="#DejaVuSans-36"/>
       <use xlink:href="#DejaVuSans-30" x="63.623047"/>
      </g>
     </g>
    </g>
    <g id="ytick_5">
     <g id="line2d_14">
      <g>
       <use xlink:href="#m49d48270b9" x="46.965625" y="86.992875" style="stroke: #000000; stroke-width: 0.8"/>
      </g>
     </g>
     <g id="text_12">
      <!-- 80 -->
      <g transform="translate(27.240625 90.792094) scale(0.1 -0.1)">
       <defs>
        <path id="DejaVuSans-38" d="M 2034 2216 
Q 1584 2216 1326 1975 
Q 1069 1734 1069 1313 
Q 1069 891 1326 650 
Q 1584 409 2034 409 
Q 2484 409 2743 651 
Q 3003 894 3003 1313 
Q 3003 1734 2745 1975 
Q 2488 2216 2034 2216 
z
M 1403 2484 
Q 997 2584 770 2862 
Q 544 3141 544 3541 
Q 544 4100 942 4425 
Q 1341 4750 2034 4750 
Q 2731 4750 3128 4425 
Q 3525 4100 3525 3541 
Q 3525 3141 3298 2862 
Q 3072 2584 2669 2484 
Q 3125 2378 3379 2068 
Q 3634 1759 3634 1313 
Q 3634 634 3220 271 
Q 2806 -91 2034 -91 
Q 1263 -91 848 271 
Q 434 634 434 1313 
Q 434 1759 690 2068 
Q 947 2378 1403 2484 
z
M 1172 3481 
Q 1172 3119 1398 2916 
Q 1625 2713 2034 2713 
Q 2441 2713 2670 2916 
Q 2900 3119 2900 3481 
Q 2900 3844 2670 4047 
Q 2441 4250 2034 4250 
Q 1625 4250 1398 4047 
Q 1172 3844 1172 3481 
z
" transform="scale(0.015625)"/>
       </defs>
       <use xlink:href="#DejaVuSans-38"/>
       <use xlink:href="#DejaVuSans-30" x="63.623047"/>
      </g>
     </g>
    </g>
    <g id="ytick_6">
     <g id="line2d_15">
      <g>
       <use xlink:href="#m49d48270b9" x="46.965625" y="56.752875" style="stroke: #000000; stroke-width: 0.8"/>
      </g>
     </g>
     <g id="text_13">
      <!-- 100 -->
      <g transform="translate(20.878125 60.552094) scale(0.1 -0.1)">
       <use xlink:href="#DejaVuSans-31"/>
       <use xlink:href="#DejaVuSans-30" x="63.623047"/>
       <use xlink:href="#DejaVuSans-30" x="127.246094"/>
      </g>
     </g>
    </g>
    <g id="text_14">
     <!-- % Genomes with Allele -->
     <g transform="translate(14.798438 189.948969) rotate(-90) scale(0.1 -0.1)">
      <defs>
       <path id="DejaVuSans-25" d="M 4653 2053 
Q 4381 2053 4226 1822 
Q 4072 1591 4072 1178 
Q 4072 772 4226 539 
Q 4381 306 4653 306 
Q 4919 306 5073 539 
Q 5228 772 5228 1178 
Q 5228 1588 5073 1820 
Q 4919 2053 4653 2053 
z
M 4653 2450 
Q 5147 2450 5437 2106 
Q 5728 1763 5728 1178 
Q 5728 594 5436 251 
Q 5144 -91 4653 -91 
Q 4153 -91 3862 251 
Q 3572 594 3572 1178 
Q 3572 1766 3864 2108 
Q 4156 2450 4653 2450 
z
M 1428 4353 
Q 1159 4353 1004 4120 
Q 850 3888 850 3481 
Q 850 3069 1003 2837 
Q 1156 2606 1428 2606 
Q 1700 2606 1854 2837 
Q 2009 3069 2009 3481 
Q 2009 3884 1853 4118 
Q 1697 4353 1428 4353 
z
M 4250 4750 
L 4750 4750 
L 1831 -91 
L 1331 -91 
L 4250 4750 
z
M 1428 4750 
Q 1922 4750 2215 4408 
Q 2509 4066 2509 3481 
Q 2509 2891 2217 2550 
Q 1925 2209 1428 2209 
Q 931 2209 642 2551 
Q 353 2894 353 3481 
Q 353 4063 643 4406 
Q 934 4750 1428 4750 
z
" transform="scale(0.015625)"/>
       <path id="DejaVuSans-73" d="M 2834 3397 
L 2834 2853 
Q 2591 2978 2328 3040 
Q 2066 3103 1784 3103 
Q 1356 3103 1142 2972 
Q 928 2841 928 2578 
Q 928 2378 1081 2264 
Q 1234 2150 1697 2047 
L 1894 2003 
Q 2506 1872 2764 1633 
Q 3022 1394 3022 966 
Q 3022 478 2636 193 
Q 2250 -91 1575 -91 
Q 1294 -91 989 -36 
Q 684 19 347 128 
L 347 722 
Q 666 556 975 473 
Q 1284 391 1588 391 
Q 1994 391 2212 530 
Q 2431 669 2431 922 
Q 2431 1156 2273 1281 
Q 2116 1406 1581 1522 
L 1381 1569 
Q 847 1681 609 1914 
Q 372 2147 372 2553 
Q 372 3047 722 3315 
Q 1072 3584 1716 3584 
Q 2034 3584 2315 3537 
Q 2597 3491 2834 3397 
z
" transform="scale(0.015625)"/>
       <path id="DejaVuSans-77" d="M 269 3500 
L 844 3500 
L 1563 769 
L 2278 3500 
L 2956 3500 
L 3675 769 
L 4391 3500 
L 4966 3500 
L 4050 0 
L 3372 0 
L 2619 2869 
L 1863 0 
L 1184 0 
L 269 3500 
z
" transform="scale(0.015625)"/>
       <path id="DejaVuSans-69" d="M 603 3500 
L 1178 3500 
L 1178 0 
L 603 0 
L 603 3500 
z
M 603 4863 
L 1178 4863 
L 1178 4134 
L 603 4134 
L 603 4863 
z
" transform="scale(0.015625)"/>
       <path id="DejaVuSans-68" d="M 3513 2113 
L 3513 0 
L 2938 0 
L 2938 2094 
Q 2938 2591 2744 2837 
Q 2550 3084 2163 3084 
Q 1697 3084 1428 2787 
Q 1159 2491 1159 1978 
L 1159 0 
L 581 0 
L 581 4863 
L 1159 4863 
L 1159 2956 
Q 1366 3272 1645 3428 
Q 1925 3584 2291 3584 
Q 2894 3584 3203 3211 
Q 3513 2838 3513 2113 
z
" transform="scale(0.015625)"/>
       <path id="DejaVuSans-6c" d="M 603 4863 
L 1178 4863 
L 1178 0 
L 603 0 
L 603 4863 
z
" transform="scale(0.015625)"/>
      </defs>
      <use xlink:href="#DejaVuSans-25"/>
      <use xlink:href="#DejaVuSans-20" x="95.019531"/>
      <use xlink:href="#DejaVuSans-47" x="126.806641"/>
      <use xlink:href="#DejaVuSans-65" x="204.296875"/>
      <use xlink:href="#DejaVuSans-6e" x="265.820312"/>
      <use xlink:href="#DejaVuSans-6f" x="329.199219"/>
      <use xlink:href="#DejaVuSans-6d" x="390.380859"/>
      <use xlink:href="#DejaVuSans-65" x="487.792969"/>
      <use xlink:href="#DejaVuSans-73" x="549.316406"/>
      <use xlink:href="#DejaVuSans-20" x="601.416016"/>
      <use xlink:href="#DejaVuSans-77" x="633.203125"/>
      <use xlink:href="#DejaVuSans-69" x="714.990234"/>
      <use xlink:href="#DejaVuSans-74" x="742.773438"/>
      <use xlink:href="#DejaVuSans-68" x="781.982422"/>
      <use xlink:href="#DejaVuSans-20" x="845.361328"/>
      <use xlink:href="#DejaVuSans-41" x="877.148438"/>
      <use xlink:href="#DejaVuSans-6c" x="945.556641"/>
      <use xlink:href="#DejaVuSans-6c" x="973.339844"/>
      <use xlink:href="#DejaVuSans-65" x="1001.123047"/>
      <use xlink:href="#DejaVuSans-6c" x="1062.646484"/>
      <use xlink:href="#DejaVuSans-65" x="1090.429688"/>
     </g>
    </g>
   </g>
   <g id="line2d_16">
    <path d="M 46.965625 56.885043 
L 58.961716 56.885043 
L 60.05227 101.55777 
L 61.142824 56.885043 
L 62.233377 56.885043 
L 63.323931 59.660567 
L 64.414485 56.885043 
L 74.229469 56.885043 
L 75.320022 56.752875 
L 91.678329 56.752875 
L 92.768882 67.061966 
L 93.859436 56.752875 
L 94.94999 56.752875 
L 96.040544 56.885043 
L 97.131097 56.752875 
L 101.493312 56.752875 
L 102.583866 67.061966 
L 103.67442 56.752875 
L 108.036635 56.752875 
L 109.127189 58.86756 
L 110.217742 56.752875 
L 111.308296 56.752875 
L 112.39885 67.061966 
L 113.489404 56.752875 
L 115.670511 56.752875 
L 116.761065 56.951127 
L 117.851618 56.752875 
L 121.12328 56.752875 
L 122.213833 70.16791 
L 123.304387 56.818959 
L 125.485495 56.752875 
L 127.666602 56.752875 
L 128.757156 67.061966 
L 129.84771 56.885043 
L 130.938263 56.885043 
L 132.028817 57.281546 
L 133.119371 56.752875 
L 134.209925 66.665462 
L 135.300478 56.752875 
L 153.839892 56.752875 
L 154.930446 70.233994 
L 156.021 56.752875 
L 162.564322 56.752875 
L 163.654876 69.639239 
L 164.74543 56.752875 
L 165.835983 56.752875 
L 166.926537 59.330148 
L 168.017091 69.639239 
L 169.107645 56.752875 
L 170.198198 69.639239 
L 171.288752 56.752875 
L 181.103736 56.752875 
L 182.194289 57.545882 
L 183.284843 56.752875 
L 184.375397 120.589938 
L 185.465951 69.705323 
L 186.556504 72.811267 
L 187.647058 56.752875 
L 197.462042 56.752875 
L 198.552596 86.754973 
L 199.643149 59.131896 
L 200.733703 56.752875 
L 202.914811 56.818959 
L 204.005364 85.036791 
L 205.095918 56.752875 
L 206.186472 59.990987 
L 207.277026 56.818959 
L 209.458133 56.752875 
L 216.001456 56.752875 
L 217.092009 56.885043 
L 220.363671 56.885043 
L 221.454224 56.752875 
L 222.544778 56.951127 
L 223.635332 56.752875 
L 224.725886 57.017211 
L 226.906993 56.752875 
L 229.088101 56.818959 
L 230.178654 73.472106 
L 231.269208 56.752875 
L 232.359762 59.330148 
L 233.450316 56.752875 
L 246.536961 56.818959 
L 247.627514 57.017211 
L 248.718068 56.752875 
L 249.808622 84.838539 
L 250.899175 56.951127 
L 251.989729 67.061966 
L 253.080283 69.771406 
L 254.170837 56.752875 
L 255.26139 56.885043 
L 256.351944 56.818959 
L 257.442498 70.101826 
L 258.533052 56.752875 
L 275.981912 56.752875 
L 277.072465 67.12805 
L 278.163019 67.12805 
L 279.253573 56.752875 
L 284.706342 56.752875 
L 285.796895 61.709169 
L 286.887449 56.752875 
L 289.068557 56.752875 
L 290.15911 67.061966 
L 291.249664 56.752875 
L 310.879632 56.752875 
L 311.970185 59.330148 
L 313.060739 57.017211 
L 314.151293 56.752875 
L 317.422954 56.752875 
L 318.513508 56.885043 
L 319.604061 56.752875 
L 335.962368 56.752875 
L 337.052921 56.885043 
L 338.143475 62.039588 
L 339.234029 56.752875 
L 340.324583 56.818959 
L 342.50569 56.752875 
L 351.23012 56.752875 
L 352.320674 67.061966 
L 353.411228 56.752875 
L 354.501781 56.885043 
L 355.592335 70.960917 
L 356.682889 56.885043 
L 357.773443 57.017211 
L 358.863996 56.752875 
L 365.407319 56.752875 
L 366.497873 56.951127 
L 368.67898 56.752875 
L 373.041195 56.752875 
L 374.131749 69.771406 
L 375.222303 56.752875 
L 378.493964 56.752875 
L 379.584518 109.884344 
L 380.675071 109.884344 
L 380.675071 109.884344 
" clip-path="url(#p305f1ec975)" style="fill: none; stroke: #1f77b4; stroke-width: 0.8; stroke-linecap: square"/>
   </g>
   <g id="line2d_17">
    <path d="M 60.05227 163.346232 
L 60.05227 132.352875 
" clip-path="url(#p305f1ec975)" style="fill: none; stroke-dasharray: 3.2,0.8,0.5,0.8; stroke-dashoffset: 0; stroke: #d62728; stroke-width: 0.5"/>
   </g>
   <g id="line2d_18">
    <path d="M 184.375397 144.115812 
L 184.375397 132.352875 
" clip-path="url(#p305f1ec975)" style="fill: none; stroke-dasharray: 3.2,0.8,0.5,0.8; stroke-dashoffset: 0; stroke: #d62728; stroke-width: 0.5"/>
   </g>
   <g id="line2d_19">
    <path d="M 249.808622 179.867211 
L 249.808622 132.352875 
" clip-path="url(#p305f1ec975)" style="fill: none; stroke-dasharray: 3.2,0.8,0.5,0.8; stroke-dashoffset: 0; stroke: #d62728; stroke-width: 0.5"/>
   </g>
   <g id="line2d_20">
    <path d="M 379.584518 154.821406 
L 379.584518 132.352875 
" clip-path="url(#p305f1ec975)" style="fill: none; stroke-dasharray: 3.2,0.8,0.5,0.8; stroke-dashoffset: 0; stroke: #d62728; stroke-width: 0.5"/>
   </g>
   <g id="line2d_21">
    <path d="M 380.675071 154.821406 
L 380.675071 132.352875 
" clip-path="url(#p305f1ec975)" style="fill: none; stroke-dasharray: 3.2,0.8,0.5,0.8; stroke-dashoffset: 0; stroke: #d62728; stroke-width: 0.5"/>
   </g>
   <g id="line2d_22">
    <path d="M 275.981912 132.352875 
L 275.981912 124.792875 
" clip-path="url(#p305f1ec975)" style="fill: none; stroke: #000000; stroke-width: 0.8; stroke-linecap: square"/>
   </g>
   <g id="patch_10">
    <path d="M 46.965625 215.512875 
L 46.965625 49.192875 
" style="fill: none; stroke: #000000; stroke-width: 0.8; stroke-linejoin: miter; stroke-linecap: square"/>
   </g>
   <g id="patch_11">
    <path d="M 381.765625 215.512875 
L 381.765625 49.192875 
" style="fill: none; stroke: #000000; stroke-width: 0.8; stroke-linejoin: miter; stroke-linecap: square"/>
   </g>
   <g id="patch_12">
    <path d="M 46.965625 215.512875 
L 381.765625 215.512875 
" style="fill: none; stroke: #000000; stroke-width: 0.8; stroke-linejoin: miter; stroke-linecap: square"/>
   </g>
   <g id="patch_13">
    <path d="M 46.965625 49.192875 
L 381.765625 49.192875 
" style="fill: none; stroke: #000000; stroke-width: 0.8; stroke-linejoin: miter; stroke-linecap: square"/>
   </g>
   <g id="text_15">
    <!-- dcuA -->
    <g transform="translate(100.976904 135.11225) scale(0.1 -0.1)">
     <defs>
      <path id="DejaVuSans-Oblique-64" d="M 2675 525 
Q 2444 222 2128 65 
Q 1813 -91 1428 -91 
Q 903 -91 598 267 
Q 294 625 294 1247 
Q 294 1766 478 2236 
Q 663 2706 1013 3078 
Q 1244 3325 1534 3454 
Q 1825 3584 2144 3584 
Q 2481 3584 2739 3421 
Q 2997 3259 3138 2956 
L 3513 4863 
L 4091 4863 
L 3144 0 
L 2566 0 
L 2675 525 
z
M 891 1350 
Q 891 897 1095 644 
Q 1300 391 1663 391 
Q 1931 391 2161 520 
Q 2391 650 2566 903 
Q 2750 1166 2856 1509 
Q 2963 1853 2963 2188 
Q 2963 2622 2758 2865 
Q 2553 3109 2194 3109 
Q 1922 3109 1687 2981 
Q 1453 2853 1288 2613 
Q 1106 2353 998 2009 
Q 891 1666 891 1350 
z
" transform="scale(0.015625)"/>
      <path id="DejaVuSans-Oblique-63" d="M 3431 3366 
L 3316 2797 
Q 3109 2947 2876 3022 
Q 2644 3097 2394 3097 
Q 2119 3097 1870 3000 
Q 1622 2903 1453 2725 
Q 1184 2453 1037 2087 
Q 891 1722 891 1331 
Q 891 859 1127 628 
Q 1363 397 1844 397 
Q 2081 397 2348 469 
Q 2616 541 2906 684 
L 2797 116 
Q 2547 13 2283 -39 
Q 2019 -91 1741 -91 
Q 1044 -91 669 257 
Q 294 606 294 1253 
Q 294 1797 489 2255 
Q 684 2713 1069 3078 
Q 1331 3328 1684 3456 
Q 2038 3584 2456 3584 
Q 2700 3584 2940 3529 
Q 3181 3475 3431 3366 
z
" transform="scale(0.015625)"/>
      <path id="DejaVuSans-Oblique-75" d="M 428 1388 
L 838 3500 
L 1416 3500 
L 1006 1409 
Q 975 1256 961 1147 
Q 947 1038 947 966 
Q 947 700 1109 554 
Q 1272 409 1569 409 
Q 2031 409 2368 721 
Q 2706 1034 2809 1563 
L 3194 3500 
L 3769 3500 
L 3091 0 
L 2516 0 
L 2631 550 
Q 2388 244 2052 76 
Q 1716 -91 1338 -91 
Q 878 -91 622 161 
Q 366 413 366 863 
Q 366 956 381 1097 
Q 397 1238 428 1388 
z
" transform="scale(0.015625)"/>
      <path id="DejaVuSans-Oblique-41" d="M 2356 4666 
L 3072 4666 
L 3938 0 
L 3278 0 
L 3084 1197 
L 984 1197 
L 325 0 
L -341 0 
L 2356 4666 
z
M 2584 4044 
L 1275 1722 
L 2988 1722 
L 2584 4044 
z
" transform="scale(0.015625)"/>
     </defs>
     <use xlink:href="#DejaVuSans-Oblique-64"/>
     <use xlink:href="#DejaVuSans-Oblique-63" x="63.476562"/>
     <use xlink:href="#DejaVuSans-Oblique-75" x="118.457031"/>
     <use xlink:href="#DejaVuSans-Oblique-41" x="181.835938"/>
    </g>
   </g>
   <g id="text_16">
    <!-- cutA -->
    <g transform="translate(341.022236 135.11225) scale(0.1 -0.1)">
     <defs>
      <path id="DejaVuSans-Oblique-74" d="M 2706 3500 
L 2619 3053 
L 1472 3053 
L 1100 1153 
Q 1081 1047 1072 975 
Q 1063 903 1063 863 
Q 1063 663 1183 572 
Q 1303 481 1569 481 
L 2150 481 
L 2053 0 
L 1503 0 
Q 991 0 739 200 
Q 488 400 488 806 
Q 488 878 497 964 
Q 506 1050 525 1153 
L 897 3053 
L 409 3053 
L 500 3500 
L 978 3500 
L 1172 4494 
L 1747 4494 
L 1556 3500 
L 2706 3500 
z
" transform="scale(0.015625)"/>
     </defs>
     <use xlink:href="#DejaVuSans-Oblique-63"/>
     <use xlink:href="#DejaVuSans-Oblique-75" x="54.980469"/>
     <use xlink:href="#DejaVuSans-Oblique-74" x="118.359375"/>
     <use xlink:href="#DejaVuSans-Oblique-41" x="157.568359"/>
    </g>
   </g>
   <g id="text_17">
    <!-- cutA UTR and promoter (307 total bps) -->
    <g transform="translate(97.417188 16.318125) scale(0.12 -0.12)">
     <defs>
      <path id="DejaVuSans-55" d="M 556 4666 
L 1191 4666 
L 1191 1831 
Q 1191 1081 1462 751 
Q 1734 422 2344 422 
Q 2950 422 3222 751 
Q 3494 1081 3494 1831 
L 3494 4666 
L 4128 4666 
L 4128 1753 
Q 4128 841 3676 375 
Q 3225 -91 2344 -91 
Q 1459 -91 1007 375 
Q 556 841 556 1753 
L 556 4666 
z
" transform="scale(0.015625)"/>
      <path id="DejaVuSans-54" d="M -19 4666 
L 3928 4666 
L 3928 4134 
L 2272 4134 
L 2272 0 
L 1638 0 
L 1638 4134 
L -19 4134 
L -19 4666 
z
" transform="scale(0.015625)"/>
      <path id="DejaVuSans-52" d="M 2841 2188 
Q 3044 2119 3236 1894 
Q 3428 1669 3622 1275 
L 4263 0 
L 3584 0 
L 2988 1197 
Q 2756 1666 2539 1819 
Q 2322 1972 1947 1972 
L 1259 1972 
L 1259 0 
L 628 0 
L 628 4666 
L 2053 4666 
Q 2853 4666 3247 4331 
Q 3641 3997 3641 3322 
Q 3641 2881 3436 2590 
Q 3231 2300 2841 2188 
z
M 1259 4147 
L 1259 2491 
L 2053 2491 
Q 2509 2491 2742 2702 
Q 2975 2913 2975 3322 
Q 2975 3731 2742 3939 
Q 2509 4147 2053 4147 
L 1259 4147 
z
" transform="scale(0.015625)"/>
      <path id="DejaVuSans-64" d="M 2906 2969 
L 2906 4863 
L 3481 4863 
L 3481 0 
L 2906 0 
L 2906 525 
Q 2725 213 2448 61 
Q 2172 -91 1784 -91 
Q 1150 -91 751 415 
Q 353 922 353 1747 
Q 353 2572 751 3078 
Q 1150 3584 1784 3584 
Q 2172 3584 2448 3432 
Q 2725 3281 2906 2969 
z
M 947 1747 
Q 947 1113 1208 752 
Q 1469 391 1925 391 
Q 2381 391 2643 752 
Q 2906 1113 2906 1747 
Q 2906 2381 2643 2742 
Q 2381 3103 1925 3103 
Q 1469 3103 1208 2742 
Q 947 2381 947 1747 
z
" transform="scale(0.015625)"/>
      <path id="DejaVuSans-28" d="M 1984 4856 
Q 1566 4138 1362 3434 
Q 1159 2731 1159 2009 
Q 1159 1288 1364 580 
Q 1569 -128 1984 -844 
L 1484 -844 
Q 1016 -109 783 600 
Q 550 1309 550 2009 
Q 550 2706 781 3412 
Q 1013 4119 1484 4856 
L 1984 4856 
z
" transform="scale(0.015625)"/>
      <path id="DejaVuSans-33" d="M 2597 2516 
Q 3050 2419 3304 2112 
Q 3559 1806 3559 1356 
Q 3559 666 3084 287 
Q 2609 -91 1734 -91 
Q 1441 -91 1130 -33 
Q 819 25 488 141 
L 488 750 
Q 750 597 1062 519 
Q 1375 441 1716 441 
Q 2309 441 2620 675 
Q 2931 909 2931 1356 
Q 2931 1769 2642 2001 
Q 2353 2234 1838 2234 
L 1294 2234 
L 1294 2753 
L 1863 2753 
Q 2328 2753 2575 2939 
Q 2822 3125 2822 3475 
Q 2822 3834 2567 4026 
Q 2313 4219 1838 4219 
Q 1578 4219 1281 4162 
Q 984 4106 628 3988 
L 628 4550 
Q 988 4650 1302 4700 
Q 1616 4750 1894 4750 
Q 2613 4750 3031 4423 
Q 3450 4097 3450 3541 
Q 3450 3153 3228 2886 
Q 3006 2619 2597 2516 
z
" transform="scale(0.015625)"/>
      <path id="DejaVuSans-37" d="M 525 4666 
L 3525 4666 
L 3525 4397 
L 1831 0 
L 1172 0 
L 2766 4134 
L 525 4134 
L 525 4666 
z
" transform="scale(0.015625)"/>
      <path id="DejaVuSans-29" d="M 513 4856 
L 1013 4856 
Q 1481 4119 1714 3412 
Q 1947 2706 1947 2009 
Q 1947 1309 1714 600 
Q 1481 -109 1013 -844 
L 513 -844 
Q 928 -128 1133 580 
Q 1338 1288 1338 2009 
Q 1338 2731 1133 3434 
Q 928 4138 513 4856 
z
" transform="scale(0.015625)"/>
     </defs>
     <use xlink:href="#DejaVuSans-63"/>
     <use xlink:href="#DejaVuSans-75" x="54.980469"/>
     <use xlink:href="#DejaVuSans-74" x="118.359375"/>
     <use xlink:href="#DejaVuSans-41" x="157.568359"/>
     <use xlink:href="#DejaVuSans-20" x="225.976562"/>
     <use xlink:href="#DejaVuSans-55" x="257.763672"/>
     <use xlink:href="#DejaVuSans-54" x="330.957031"/>
     <use xlink:href="#DejaVuSans-52" x="392.041016"/>
     <use xlink:href="#DejaVuSans-20" x="461.523438"/>
     <use xlink:href="#DejaVuSans-61" x="493.310547"/>
     <use xlink:href="#DejaVuSans-6e" x="554.589844"/>
     <use xlink:href="#DejaVuSans-64" x="617.96875"/>
     <use xlink:href="#DejaVuSans-20" x="681.445312"/>
     <use xlink:href="#DejaVuSans-70" x="713.232422"/>
     <use xlink:href="#DejaVuSans-72" x="776.708984"/>
     <use xlink:href="#DejaVuSans-6f" x="815.572266"/>
     <use xlink:href="#DejaVuSans-6d" x="876.753906"/>
     <use xlink:href="#DejaVuSans-6f" x="974.166016"/>
     <use xlink:href="#DejaVuSans-74" x="1035.347656"/>
     <use xlink:href="#DejaVuSans-65" x="1074.556641"/>
     <use xlink:href="#DejaVuSans-72" x="1136.080078"/>
     <use xlink:href="#DejaVuSans-20" x="1177.193359"/>
     <use xlink:href="#DejaVuSans-28" x="1208.980469"/>
     <use xlink:href="#DejaVuSans-33" x="1247.994141"/>
     <use xlink:href="#DejaVuSans-30" x="1311.617188"/>
     <use xlink:href="#DejaVuSans-37" x="1375.240234"/>
     <use xlink:href="#DejaVuSans-20" x="1438.863281"/>
     <use xlink:href="#DejaVuSans-74" x="1470.650391"/>
     <use xlink:href="#DejaVuSans-6f" x="1509.859375"/>
     <use xlink:href="#DejaVuSans-74" x="1571.041016"/>
     <use xlink:href="#DejaVuSans-61" x="1610.25"/>
     <use xlink:href="#DejaVuSans-6c" x="1671.529297"/>
     <use xlink:href="#DejaVuSans-20" x="1699.3125"/>
     <use xlink:href="#DejaVuSans-62" x="1731.099609"/>
     <use xlink:href="#DejaVuSans-70" x="1794.576172"/>
     <use xlink:href="#DejaVuSans-73" x="1858.052734"/>
     <use xlink:href="#DejaVuSans-29" x="1910.152344"/>
    </g>
    <!-- 2288/2350 strains with feature (73 alleles) -->
    <g transform="translate(86.1625 29.7555) scale(0.12 -0.12)">
     <defs>
      <path id="DejaVuSans-2f" d="M 1625 4666 
L 2156 4666 
L 531 -594 
L 0 -594 
L 1625 4666 
z
" transform="scale(0.015625)"/>
     </defs>
     <use xlink:href="#DejaVuSans-32"/>
     <use xlink:href="#DejaVuSans-32" x="63.623047"/>
     <use xlink:href="#DejaVuSans-38" x="127.246094"/>
     <use xlink:href="#DejaVuSans-38" x="190.869141"/>
     <use xlink:href="#DejaVuSans-2f" x="254.492188"/>
     <use xlink:href="#DejaVuSans-32" x="288.183594"/>
     <use xlink:href="#DejaVuSans-33" x="351.806641"/>
     <use xlink:href="#DejaVuSans-35" x="415.429688"/>
     <use xlink:href="#DejaVuSans-30" x="479.052734"/>
     <use xlink:href="#DejaVuSans-20" x="542.675781"/>
     <use xlink:href="#DejaVuSans-73" x="574.462891"/>
     <use xlink:href="#DejaVuSans-74" x="626.5625"/>
     <use xlink:href="#DejaVuSans-72" x="665.771484"/>
     <use xlink:href="#DejaVuSans-61" x="706.884766"/>
     <use xlink:href="#DejaVuSans-69" x="768.164062"/>
     <use xlink:href="#DejaVuSans-6e" x="795.947266"/>
     <use xlink:href="#DejaVuSans-73" x="859.326172"/>
     <use xlink:href="#DejaVuSans-20" x="911.425781"/>
     <use xlink:href="#DejaVuSans-77" x="943.212891"/>
     <use xlink:href="#DejaVuSans-69" x="1025"/>
     <use xlink:href="#DejaVuSans-74" x="1052.783203"/>
     <use xlink:href="#DejaVuSans-68" x="1091.992188"/>
     <use xlink:href="#DejaVuSans-20" x="1155.371094"/>
     <use xlink:href="#DejaVuSans-66" x="1187.158203"/>
     <use xlink:href="#DejaVuSans-65" x="1222.363281"/>
     <use xlink:href="#DejaVuSans-61" x="1283.886719"/>
     <use xlink:href="#DejaVuSans-74" x="1345.166016"/>
     <use xlink:href="#DejaVuSans-75" x="1384.375"/>
     <use xlink:href="#DejaVuSans-72" x="1447.753906"/>
     <use xlink:href="#DejaVuSans-65" x="1486.617188"/>
     <use xlink:href="#DejaVuSans-20" x="1548.140625"/>
     <use xlink:href="#DejaVuSans-28" x="1579.927734"/>
     <use xlink:href="#DejaVuSans-37" x="1618.941406"/>
     <use xlink:href="#DejaVuSans-33" x="1682.564453"/>
     <use xlink:href="#DejaVuSans-20" x="1746.1875"/>
     <use xlink:href="#DejaVuSans-61" x="1777.974609"/>
     <use xlink:href="#DejaVuSans-6c" x="1839.253906"/>
     <use xlink:href="#DejaVuSans-6c" x="1867.037109"/>
     <use xlink:href="#DejaVuSans-65" x="1894.820312"/>
     <use xlink:href="#DejaVuSans-6c" x="1956.34375"/>
     <use xlink:href="#DejaVuSans-65" x="1984.126953"/>
     <use xlink:href="#DejaVuSans-73" x="2045.650391"/>
     <use xlink:href="#DejaVuSans-29" x="2097.75"/>
    </g>
    <!-- Non-Essential; Inorganic ion transport and metabolism -->
    <g transform="translate(50.422188 43.192875) scale(0.12 -0.12)">
     <defs>
      <path id="DejaVuSans-4e" d="M 628 4666 
L 1478 4666 
L 3547 763 
L 3547 4666 
L 4159 4666 
L 4159 0 
L 3309 0 
L 1241 3903 
L 1241 0 
L 628 0 
L 628 4666 
z
" transform="scale(0.015625)"/>
      <path id="DejaVuSans-45" d="M 628 4666 
L 3578 4666 
L 3578 4134 
L 1259 4134 
L 1259 2753 
L 3481 2753 
L 3481 2222 
L 1259 2222 
L 1259 531 
L 3634 531 
L 3634 0 
L 628 0 
L 628 4666 
z
" transform="scale(0.015625)"/>
      <path id="DejaVuSans-3b" d="M 750 3309 
L 1409 3309 
L 1409 2516 
L 750 2516 
L 750 3309 
z
M 750 794 
L 1409 794 
L 1409 256 
L 897 -744 
L 494 -744 
L 750 256 
L 750 794 
z
" transform="scale(0.015625)"/>
      <path id="DejaVuSans-49" d="M 628 4666 
L 1259 4666 
L 1259 0 
L 628 0 
L 628 4666 
z
" transform="scale(0.015625)"/>
      <path id="DejaVuSans-67" d="M 2906 1791 
Q 2906 2416 2648 2759 
Q 2391 3103 1925 3103 
Q 1463 3103 1205 2759 
Q 947 2416 947 1791 
Q 947 1169 1205 825 
Q 1463 481 1925 481 
Q 2391 481 2648 825 
Q 2906 1169 2906 1791 
z
M 3481 434 
Q 3481 -459 3084 -895 
Q 2688 -1331 1869 -1331 
Q 1566 -1331 1297 -1286 
Q 1028 -1241 775 -1147 
L 775 -588 
Q 1028 -725 1275 -790 
Q 1522 -856 1778 -856 
Q 2344 -856 2625 -561 
Q 2906 -266 2906 331 
L 2906 616 
Q 2728 306 2450 153 
Q 2172 0 1784 0 
Q 1141 0 747 490 
Q 353 981 353 1791 
Q 353 2603 747 3093 
Q 1141 3584 1784 3584 
Q 2172 3584 2450 3431 
Q 2728 3278 2906 2969 
L 2906 3500 
L 3481 3500 
L 3481 434 
z
" transform="scale(0.015625)"/>
     </defs>
     <use xlink:href="#DejaVuSans-4e"/>
     <use xlink:href="#DejaVuSans-6f" x="74.804688"/>
     <use xlink:href="#DejaVuSans-6e" x="135.986328"/>
     <use xlink:href="#DejaVuSans-2d" x="199.365234"/>
     <use xlink:href="#DejaVuSans-45" x="235.449219"/>
     <use xlink:href="#DejaVuSans-73" x="298.632812"/>
     <use xlink:href="#DejaVuSans-73" x="350.732422"/>
     <use xlink:href="#DejaVuSans-65" x="402.832031"/>
     <use xlink:href="#DejaVuSans-6e" x="464.355469"/>
     <use xlink:href="#DejaVuSans-74" x="527.734375"/>
     <use xlink:href="#DejaVuSans-69" x="566.943359"/>
     <use xlink:href="#DejaVuSans-61" x="594.726562"/>
     <use xlink:href="#DejaVuSans-6c" x="656.005859"/>
     <use xlink:href="#DejaVuSans-3b" x="683.789062"/>
     <use xlink:href="#DejaVuSans-20" x="717.480469"/>
     <use xlink:href="#DejaVuSans-49" x="749.267578"/>
     <use xlink:href="#DejaVuSans-6e" x="778.759766"/>
     <use xlink:href="#DejaVuSans-6f" x="842.138672"/>
     <use xlink:href="#DejaVuSans-72" x="903.320312"/>
     <use xlink:href="#DejaVuSans-67" x="942.683594"/>
     <use xlink:href="#DejaVuSans-61" x="1006.160156"/>
     <use xlink:href="#DejaVuSans-6e" x="1067.439453"/>
     <use xlink:href="#DejaVuSans-69" x="1130.818359"/>
     <use xlink:href="#DejaVuSans-63" x="1158.601562"/>
     <use xlink:href="#DejaVuSans-20" x="1213.582031"/>
     <use xlink:href="#DejaVuSans-69" x="1245.369141"/>
     <use xlink:href="#DejaVuSans-6f" x="1273.152344"/>
     <use xlink:href="#DejaVuSans-6e" x="1334.333984"/>
     <use xlink:href="#DejaVuSans-20" x="1397.712891"/>
     <use xlink:href="#DejaVuSans-74" x="1429.5"/>
     <use xlink:href="#DejaVuSans-72" x="1468.708984"/>
     <use xlink:href="#DejaVuSans-61" x="1509.822266"/>
     <use xlink:href="#DejaVuSans-6e" x="1571.101562"/>
     <use xlink:href="#DejaVuSans-73" x="1634.480469"/>
     <use xlink:href="#DejaVuSans-70" x="1686.580078"/>
     <use xlink:href="#DejaVuSans-6f" x="1750.056641"/>
     <use xlink:href="#DejaVuSans-72" x="1811.238281"/>
     <use xlink:href="#DejaVuSans-74" x="1852.351562"/>
     <use xlink:href="#DejaVuSans-20" x="1891.560547"/>
     <use xlink:href="#DejaVuSans-61" x="1923.347656"/>
     <use xlink:href="#DejaVuSans-6e" x="1984.626953"/>
     <use xlink:href="#DejaVuSans-64" x="2048.005859"/>
     <use xlink:href="#DejaVuSans-20" x="2111.482422"/>
     <use xlink:href="#DejaVuSans-6d" x="2143.269531"/>
     <use xlink:href="#DejaVuSans-65" x="2240.681641"/>
     <use xlink:href="#DejaVuSans-74" x="2302.205078"/>
     <use xlink:href="#DejaVuSans-61" x="2341.414062"/>
     <use xlink:href="#DejaVuSans-62" x="2402.693359"/>
     <use xlink:href="#DejaVuSans-6f" x="2466.169922"/>
     <use xlink:href="#DejaVuSans-6c" x="2527.351562"/>
     <use xlink:href="#DejaVuSans-69" x="2555.134766"/>
     <use xlink:href="#DejaVuSans-73" x="2582.917969"/>
     <use xlink:href="#DejaVuSans-6d" x="2635.017578"/>
    </g>
   </g>
   <g id="legend_1">
    <g id="patch_14">
     <path d="M 388.065625 193.149281 
L 465.116875 193.149281 
Q 466.916875 193.149281 466.916875 191.349281 
L 466.916875 73.356469 
Q 466.916875 71.556469 465.116875 71.556469 
L 388.065625 71.556469 
Q 386.265625 71.556469 386.265625 73.356469 
L 386.265625 191.349281 
Q 386.265625 193.149281 388.065625 193.149281 
z
" style="fill: #ffffff; opacity: 0.8; stroke: #cccccc; stroke-linejoin: miter"/>
    </g>
    <g id="line2d_23">
     <path d="M 389.865625 78.845063 
L 398.865625 78.845063 
L 407.865625 78.845063 
" style="fill: none; stroke: #1f77b4; stroke-width: 0.8; stroke-linecap: square"/>
    </g>
    <g id="text_18">
     <!-- Dom var -->
     <g transform="translate(415.065625 81.995063) scale(0.09 -0.09)">
      <defs>
       <path id="DejaVuSans-44" d="M 1259 4147 
L 1259 519 
L 2022 519 
Q 2988 519 3436 956 
Q 3884 1394 3884 2338 
Q 3884 3275 3436 3711 
Q 2988 4147 2022 4147 
L 1259 4147 
z
M 628 4666 
L 1925 4666 
Q 3281 4666 3915 4102 
Q 4550 3538 4550 2338 
Q 4550 1131 3912 565 
Q 3275 0 1925 0 
L 628 0 
L 628 4666 
z
" transform="scale(0.015625)"/>
       <path id="DejaVuSans-76" d="M 191 3500 
L 800 3500 
L 1894 563 
L 2988 3500 
L 3597 3500 
L 2284 0 
L 1503 0 
L 191 3500 
z
" transform="scale(0.015625)"/>
      </defs>
      <use xlink:href="#DejaVuSans-44"/>
      <use xlink:href="#DejaVuSans-6f" x="77.001953"/>
      <use xlink:href="#DejaVuSans-6d" x="138.183594"/>
      <use xlink:href="#DejaVuSans-20" x="235.595703"/>
      <use xlink:href="#DejaVuSans-76" x="267.382812"/>
      <use xlink:href="#DejaVuSans-61" x="326.5625"/>
      <use xlink:href="#DejaVuSans-72" x="387.841797"/>
     </g>
    </g>
    <g id="PathCollection_125">
     <g>
      <use xlink:href="#m856cd08116" x="398.865625" y="92.842875" style="fill: #7f7f7f; stroke: #7f7f7f"/>
     </g>
    </g>
    <g id="text_19">
     <!-- Minor -->
     <g transform="translate(415.065625 95.205375) scale(0.09 -0.09)">
      <defs>
       <path id="DejaVuSans-4d" d="M 628 4666 
L 1569 4666 
L 2759 1491 
L 3956 4666 
L 4897 4666 
L 4897 0 
L 4281 0 
L 4281 4097 
L 3078 897 
L 2444 897 
L 1241 4097 
L 1241 0 
L 628 0 
L 628 4666 
z
" transform="scale(0.015625)"/>
      </defs>
      <use xlink:href="#DejaVuSans-4d"/>
      <use xlink:href="#DejaVuSans-69" x="86.279297"/>
      <use xlink:href="#DejaVuSans-6e" x="114.0625"/>
      <use xlink:href="#DejaVuSans-6f" x="177.441406"/>
      <use xlink:href="#DejaVuSans-72" x="238.623047"/>
     </g>
    </g>
    <g id="PathCollection_126">
     <g>
      <use xlink:href="#mfe9da19c62" x="398.865625" y="106.053188" style="fill: #d62728; stroke: #d62728; stroke-width: 1.5"/>
     </g>
    </g>
    <g id="text_20">
     <!-- Major -->
     <g transform="translate(415.065625 108.415688) scale(0.09 -0.09)">
      <defs>
       <path id="DejaVuSans-6a" d="M 603 3500 
L 1178 3500 
L 1178 -63 
Q 1178 -731 923 -1031 
Q 669 -1331 103 -1331 
L -116 -1331 
L -116 -844 
L 38 -844 
Q 366 -844 484 -692 
Q 603 -541 603 -63 
L 603 3500 
z
M 603 4863 
L 1178 4863 
L 1178 4134 
L 603 4134 
L 603 4863 
z
" transform="scale(0.015625)"/>
      </defs>
      <use xlink:href="#DejaVuSans-4d"/>
      <use xlink:href="#DejaVuSans-61" x="86.279297"/>
      <use xlink:href="#DejaVuSans-6a" x="147.558594"/>
      <use xlink:href="#DejaVuSans-6f" x="175.341797"/>
      <use xlink:href="#DejaVuSans-72" x="236.523438"/>
     </g>
    </g>
    <g id="patch_15">
     <path d="M 389.865625 121.626 
L 407.865625 121.626 
L 407.865625 115.326 
L 389.865625 115.326 
z
" style="fill: #ffffff; stroke: #000000; stroke-linejoin: miter"/>
    </g>
    <g id="text_21">
     <!-- Coding -->
     <g transform="translate(415.065625 121.626) scale(0.09 -0.09)">
      <defs>
       <path id="DejaVuSans-43" d="M 4122 4306 
L 4122 3641 
Q 3803 3938 3442 4084 
Q 3081 4231 2675 4231 
Q 1875 4231 1450 3742 
Q 1025 3253 1025 2328 
Q 1025 1406 1450 917 
Q 1875 428 2675 428 
Q 3081 428 3442 575 
Q 3803 722 4122 1019 
L 4122 359 
Q 3791 134 3420 21 
Q 3050 -91 2638 -91 
Q 1578 -91 968 557 
Q 359 1206 359 2328 
Q 359 3453 968 4101 
Q 1578 4750 2638 4750 
Q 3056 4750 3426 4639 
Q 3797 4528 4122 4306 
z
" transform="scale(0.015625)"/>
      </defs>
      <use xlink:href="#DejaVuSans-43"/>
      <use xlink:href="#DejaVuSans-6f" x="69.824219"/>
      <use xlink:href="#DejaVuSans-64" x="131.005859"/>
      <use xlink:href="#DejaVuSans-69" x="194.482422"/>
      <use xlink:href="#DejaVuSans-6e" x="222.265625"/>
      <use xlink:href="#DejaVuSans-67" x="285.644531"/>
     </g>
    </g>
    <g id="patch_16">
     <path d="M 389.865625 134.836313 
L 407.865625 134.836313 
L 407.865625 128.536313 
L 389.865625 128.536313 
z
" style="fill: #ee82ee; opacity: 0.6; stroke: #ee82ee; stroke-linejoin: miter"/>
    </g>
    <g id="text_22">
     <!-- RBS -->
     <g transform="translate(415.065625 134.836313) scale(0.09 -0.09)">
      <defs>
       <path id="DejaVuSans-42" d="M 1259 2228 
L 1259 519 
L 2272 519 
Q 2781 519 3026 730 
Q 3272 941 3272 1375 
Q 3272 1813 3026 2020 
Q 2781 2228 2272 2228 
L 1259 2228 
z
M 1259 4147 
L 1259 2741 
L 2194 2741 
Q 2656 2741 2882 2914 
Q 3109 3088 3109 3444 
Q 3109 3797 2882 3972 
Q 2656 4147 2194 4147 
L 1259 4147 
z
M 628 4666 
L 2241 4666 
Q 2963 4666 3353 4366 
Q 3744 4066 3744 3513 
Q 3744 3084 3544 2831 
Q 3344 2578 2956 2516 
Q 3422 2416 3680 2098 
Q 3938 1781 3938 1306 
Q 3938 681 3513 340 
Q 3088 0 2303 0 
L 628 0 
L 628 4666 
z
" transform="scale(0.015625)"/>
      </defs>
      <use xlink:href="#DejaVuSans-52"/>
      <use xlink:href="#DejaVuSans-42" x="69.482422"/>
      <use xlink:href="#DejaVuSans-53" x="136.335938"/>
     </g>
    </g>
    <g id="patch_17">
     <path d="M 389.865625 148.046625 
L 407.865625 148.046625 
L 407.865625 141.746625 
L 389.865625 141.746625 
z
" style="fill: #90ee90; opacity: 0.6; stroke: #90ee90; stroke-linejoin: miter"/>
    </g>
    <g id="text_23">
     <!-- -10 Box -->
     <g transform="translate(415.065625 148.046625) scale(0.09 -0.09)">
      <defs>
       <path id="DejaVuSans-78" d="M 3513 3500 
L 2247 1797 
L 3578 0 
L 2900 0 
L 1881 1375 
L 863 0 
L 184 0 
L 1544 1831 
L 300 3500 
L 978 3500 
L 1906 2253 
L 2834 3500 
L 3513 3500 
z
" transform="scale(0.015625)"/>
      </defs>
      <use xlink:href="#DejaVuSans-2d"/>
      <use xlink:href="#DejaVuSans-31" x="36.083984"/>
      <use xlink:href="#DejaVuSans-30" x="99.707031"/>
      <use xlink:href="#DejaVuSans-20" x="163.330078"/>
      <use xlink:href="#DejaVuSans-42" x="195.117188"/>
      <use xlink:href="#DejaVuSans-6f" x="263.720703"/>
      <use xlink:href="#DejaVuSans-78" x="321.777344"/>
     </g>
    </g>
    <g id="patch_18">
     <path d="M 389.865625 161.256937 
L 407.865625 161.256937 
L 407.865625 154.956937 
L 389.865625 154.956937 
z
" style="fill: #ffa07a; opacity: 0.6; stroke: #ffa07a; stroke-linejoin: miter"/>
    </g>
    <g id="text_24">
     <!-- -35 Box -->
     <g transform="translate(415.065625 161.256937) scale(0.09 -0.09)">
      <use xlink:href="#DejaVuSans-2d"/>
      <use xlink:href="#DejaVuSans-33" x="36.083984"/>
      <use xlink:href="#DejaVuSans-35" x="99.707031"/>
      <use xlink:href="#DejaVuSans-20" x="163.330078"/>
      <use xlink:href="#DejaVuSans-42" x="195.117188"/>
      <use xlink:href="#DejaVuSans-6f" x="263.720703"/>
      <use xlink:href="#DejaVuSans-78" x="321.777344"/>
     </g>
    </g>
    <g id="line2d_24">
     <path d="M 389.865625 171.31725 
L 398.865625 171.31725 
L 407.865625 171.31725 
" style="fill: none; stroke: #cd853f; stroke-width: 1.5; stroke-linecap: square"/>
    </g>
    <g id="text_25">
     <!-- ALE Mut -->
     <g transform="translate(415.065625 174.46725) scale(0.09 -0.09)">
      <defs>
       <path id="DejaVuSans-4c" d="M 628 4666 
L 1259 4666 
L 1259 531 
L 3531 531 
L 3531 0 
L 628 0 
L 628 4666 
z
" transform="scale(0.015625)"/>
      </defs>
      <use xlink:href="#DejaVuSans-41"/>
      <use xlink:href="#DejaVuSans-4c" x="68.408203"/>
      <use xlink:href="#DejaVuSans-45" x="124.121094"/>
      <use xlink:href="#DejaVuSans-20" x="187.304688"/>
      <use xlink:href="#DejaVuSans-4d" x="219.091797"/>
      <use xlink:href="#DejaVuSans-75" x="305.371094"/>
      <use xlink:href="#DejaVuSans-74" x="368.75"/>
     </g>
    </g>
    <g id="patch_19">
     <path d="M 389.865625 187.677563 
L 407.865625 187.677563 
L 407.865625 181.377563 
L 389.865625 181.377563 
z
" style="fill: #daa520; opacity: 0.6; stroke: #daa520; stroke-linejoin: miter"/>
    </g>
    <g id="text_26">
     <!-- Attenuator -->
     <g transform="translate(415.065625 187.677563) scale(0.09 -0.09)">
      <use xlink:href="#DejaVuSans-41"/>
      <use xlink:href="#DejaVuSans-74" x="66.658203"/>
      <use xlink:href="#DejaVuSans-74" x="105.867188"/>
      <use xlink:href="#DejaVuSans-65" x="145.076172"/>
      <use xlink:href="#DejaVuSans-6e" x="206.599609"/>
      <use xlink:href="#DejaVuSans-75" x="269.978516"/>
      <use xlink:href="#DejaVuSans-61" x="333.357422"/>
      <use xlink:href="#DejaVuSans-74" x="394.636719"/>
      <use xlink:href="#DejaVuSans-6f" x="433.845703"/>
      <use xlink:href="#DejaVuSans-72" x="495.027344"/>
     </g>
    </g>
   </g>
  </g>
 </g>
 <defs>
  <clipPath id="p305f1ec975">
   <rect x="46.965625" y="49.192875" width="334.8" height="166.32"/>
  </clipPath>
 </defs>
</svg>
