<?xml version="1.0" encoding="utf-8" standalone="no"?>
<!DOCTYPE svg PUBLIC "-//W3C//DTD SVG 1.1//EN"
  "http://www.w3.org/Graphics/SVG/1.1/DTD/svg11.dtd">
<svg xmlns:xlink="http://www.w3.org/1999/xlink" width="181.8pt" height="84.958125pt" viewBox="0 0 181.8 84.958125" xmlns="http://www.w3.org/2000/svg" version="1.1">
 <metadata>
  <rdf:RDF xmlns:dc="http://purl.org/dc/elements/1.1/" xmlns:cc="http://creativecommons.org/ns#" xmlns:rdf="http://www.w3.org/1999/02/22-rdf-syntax-ns#">
   <cc:Work>
    <dc:type rdf:resource="http://purl.org/dc/dcmitype/StillImage"/>
    <dc:date>2023-09-14T17:35:55.869901</dc:date>
    <dc:format>image/svg+xml</dc:format>
    <dc:creator>
     <cc:Agent>
      <dc:title>Matplotlib v3.6.2, https://matplotlib.org/</dc:title>
     </cc:Agent>
    </dc:creator>
   </cc:Work>
  </rdf:RDF>
 </metadata>
 <defs>
  <style type="text/css">*{stroke-linejoin: round; stroke-linecap: butt}</style>
 </defs>
 <g id="figure_1">
  <g id="patch_1">
   <path d="M 0 84.958125 
L 181.8 84.958125 
L 181.8 0 
L 0 0 
z
" style="fill: #ffffff"/>
  </g>
  <g id="axes_1">
   <g id="patch_2">
    <path d="M 7.2 77.758125 
L 174.6 77.758125 
L 174.6 22.318125 
L 7.2 22.318125 
z
" style="fill: #ffffff"/>
   </g>
   <g id="line2d_1">
    <path d="M 7.2 77.758125 
L 174.6 77.758125 
" clip-path="url(#p29be888e6b)" style="fill: none; stroke: #000000; stroke-width: 0.5; stroke-linecap: square"/>
   </g>
   <g id="patch_3">
    <path d="M 12.00001 67.706057 
L 9.335069 67.706057 
L 8.914289 77.758125 
L 7.2 77.758125 
L 9.648175 22.578185 
L 11.681237 22.578185 
L 14.129412 77.758125 
L 12.416539 77.758125 
L 12.00001 67.706057 
z
M 9.7601 57.464774 
L 11.570729 57.464774 
L 10.666831 35.515788 
L 9.7601 57.464774 
z
" clip-path="url(#p29be888e6b)" style="fill: #008000"/>
   </g>
   <g id="patch_4">
    <path d="M 19.294127 67.671603 
L 16.629187 67.671603 
L 16.208407 77.758125 
L 14.494118 77.758125 
L 16.942293 22.38905 
L 18.975354 22.38905 
L 21.423529 77.758125 
L 19.710657 77.758125 
L 19.294127 67.671603 
z
M 17.054217 57.395216 
L 18.864847 57.395216 
L 17.960949 35.370998 
L 17.054217 57.395216 
z
" clip-path="url(#p29be888e6b)" style="fill: #008000"/>
   </g>
   <g id="patch_5">
    <path d="M 26.588245 77.753818 
L 23.923305 77.753818 
L 23.502524 77.758125 
L 21.788235 77.758125 
L 24.23641 77.734483 
L 26.269472 77.734483 
L 28.717647 77.758125 
L 27.004775 77.758125 
L 26.588245 77.753818 
z
M 24.348335 77.74943 
L 26.158964 77.74943 
L 25.255066 77.740026 
L 24.348335 77.74943 
z
" clip-path="url(#p29be888e6b)" style="fill: #008000"/>
   </g>
   <g id="patch_6">
    <path d="M 28.717647 77.719232 
Q 28.138014 77.726791 27.511242 77.730615 
Q 26.884469 77.734483 26.201829 77.734483 
Q 24.166129 77.734483 22.977182 77.705826 
Q 21.788235 77.677169 21.788235 77.628161 
Q 21.788235 77.578978 22.977182 77.550364 
Q 24.166129 77.521707 26.201829 77.521707 
Q 26.884469 77.521707 27.511242 77.525575 
Q 28.138014 77.529399 28.717647 77.536959 
L 28.717647 77.579373 
Q 28.132776 77.569352 27.565364 77.564693 
Q 26.997952 77.560034 26.37118 77.560034 
Q 25.246831 77.560034 24.6026 77.578187 
Q 23.960114 77.596295 23.960114 77.628161 
Q 23.960114 77.659895 24.6026 77.678048 
Q 25.246831 77.696156 26.37118 77.696156 
Q 26.997952 77.696156 27.565364 77.691497 
Q 28.132776 77.686794 28.717647 77.676773 
L 28.717647 77.719232 
z
" clip-path="url(#p29be888e6b)" style="fill: #0000ff"/>
   </g>
   <g id="patch_7">
    <path d="M 21.788235 22.341767 
L 28.717647 22.341767 
L 28.717647 33.103393 
L 26.22467 33.103393 
L 26.22467 77.521707 
L 24.286047 77.521707 
L 24.286047 33.103393 
L 21.788235 33.103393 
L 21.788235 22.341767 
z
" clip-path="url(#p29be888e6b)" style="fill: #ff0000"/>
   </g>
   <g id="patch_8">
    <path d="M 29.082353 22.341767 
L 36.011765 22.341767 
L 36.011765 33.149501 
L 33.518788 33.149501 
L 33.518788 77.758125 
L 31.580164 77.758125 
L 31.580164 33.149501 
L 29.082353 33.149501 
L 29.082353 22.341767 
z
" clip-path="url(#p29be888e6b)" style="fill: #ff0000"/>
   </g>
   <g id="patch_9">
    <path d="M 41.17648 77.753818 
L 38.51154 77.753818 
L 38.09076 77.758125 
L 36.376471 77.758125 
L 38.824646 77.734483 
L 40.857707 77.734483 
L 43.305882 77.758125 
L 41.59301 77.758125 
L 41.17648 77.753818 
z
M 38.93657 77.74943 
L 40.7472 77.74943 
L 39.843302 77.740026 
L 38.93657 77.74943 
z
" clip-path="url(#p29be888e6b)" style="fill: #008000"/>
   </g>
   <g id="patch_10">
    <path d="M 43.305882 72.722707 
Q 42.60704 75.228595 41.855396 76.48726 
Q 41.103752 77.734483 40.302413 77.734483 
Q 38.491634 77.734483 37.434052 70.274031 
Q 36.376471 62.813578 36.376471 50.055289 
Q 36.376471 37.148248 37.452688 29.745007 
Q 38.530459 22.341767 40.404909 22.341767 
Q 41.127047 22.341767 41.788618 23.348699 
Q 42.451742 24.344189 43.038769 26.312284 
L 43.038769 37.354211 
Q 42.433106 34.825438 41.833654 33.578215 
Q 41.234203 32.31955 40.631645 32.31955 
Q 39.516603 32.31955 38.912492 36.9194 
Q 38.308382 41.507807 38.308382 50.055289 
Q 38.308382 58.522673 38.890751 63.145408 
Q 39.473119 67.7567 40.544678 67.7567 
Q 40.836639 67.7567 41.086669 67.493524 
Q 41.336699 67.218907 41.535481 66.646786 
L 41.535481 56.279961 
L 40.394039 56.279961 
L 40.394039 47.045934 
L 43.305882 47.045934 
L 43.305882 72.722707 
z
" clip-path="url(#p29be888e6b)" style="fill: #ffa600"/>
   </g>
   <g id="patch_11">
    <path d="M 43.670588 22.341767 
L 50.6 22.341767 
L 50.6 33.149501 
L 48.107023 33.149501 
L 48.107023 77.758125 
L 46.168399 77.758125 
L 46.168399 33.149501 
L 43.670588 33.149501 
L 43.670588 22.341767 
z
" clip-path="url(#p29be888e6b)" style="fill: #ff0000"/>
   </g>
   <g id="patch_12">
    <path d="M 57.894118 77.754736 
Q 57.314484 77.756416 56.687712 77.757265 
Q 56.06094 77.758125 55.378299 77.758125 
Q 53.342599 77.758125 52.153653 77.751757 
Q 50.964706 77.745388 50.964706 77.734498 
Q 50.964706 77.723568 52.153653 77.71721 
Q 53.342599 77.710841 55.378299 77.710841 
Q 56.06094 77.710841 56.687712 77.711701 
Q 57.314484 77.712551 57.894118 77.714231 
L 57.894118 77.723656 
Q 57.309247 77.721429 56.741835 77.720394 
Q 56.174422 77.719359 55.54765 77.719359 
Q 54.423301 77.719359 53.77907 77.723392 
Q 53.136585 77.727417 53.136585 77.734498 
Q 53.136585 77.74155 53.77907 77.745584 
Q 54.423301 77.749608 55.54765 77.749608 
Q 56.174422 77.749608 56.741835 77.748573 
Q 57.309247 77.747527 57.894118 77.745301 
L 57.894118 77.754736 
z
" clip-path="url(#p29be888e6b)" style="fill: #0000ff"/>
   </g>
   <g id="patch_13">
    <path d="M 50.964706 22.341767 
L 57.894118 22.341767 
L 57.894118 33.140279 
L 55.401141 33.140279 
L 55.401141 77.710841 
L 53.462517 77.710841 
L 53.462517 33.140279 
L 50.964706 33.140279 
L 50.964706 22.341767 
z
" clip-path="url(#p29be888e6b)" style="fill: #ff0000"/>
   </g>
   <g id="patch_14">
    <path d="M 58.258824 77.734483 
L 65.188235 77.734483 
L 65.188235 77.739094 
L 62.695259 77.739094 
L 62.695259 77.758125 
L 60.756635 77.758125 
L 60.756635 77.739094 
L 58.258824 77.739094 
L 58.258824 77.734483 
z
" clip-path="url(#p29be888e6b)" style="fill: #ff0000"/>
   </g>
   <g id="patch_15">
    <path d="M 65.552941 22.341767 
L 72.482353 22.341767 
L 72.482353 33.149501 
L 69.989376 33.149501 
L 69.989376 77.758125 
L 68.050752 77.758125 
L 68.050752 33.149501 
L 65.552941 33.149501 
L 65.552941 22.341767 
z
" clip-path="url(#p29be888e6b)" style="fill: #ff0000"/>
   </g>
   <g id="patch_16">
    <path d="M 72.847059 22.341767 
L 79.776471 22.341767 
L 79.776471 33.149501 
L 77.283494 33.149501 
L 77.283494 77.758125 
L 75.34487 77.758125 
L 75.34487 33.149501 
L 72.847059 33.149501 
L 72.847059 22.341767 
z
" clip-path="url(#p29be888e6b)" style="fill: #ff0000"/>
   </g>
   <g id="patch_17">
    <path d="M 87.070588 77.734596 
Q 86.371746 77.74636 85.620102 77.752269 
Q 84.868458 77.758125 84.067118 77.758125 
Q 82.25634 77.758125 81.198758 77.723099 
Q 80.141176 77.688074 80.141176 77.628176 
Q 80.141176 77.567579 81.217394 77.532822 
Q 82.295164 77.498065 84.169615 77.498065 
Q 84.891753 77.498065 85.553323 77.502793 
Q 86.216447 77.507466 86.803475 77.516706 
L 86.803475 77.568546 
Q 86.197812 77.556674 85.59836 77.550819 
Q 84.998908 77.544909 84.396351 77.544909 
Q 83.281309 77.544909 82.677198 77.566505 
Q 82.073088 77.588047 82.073088 77.628176 
Q 82.073088 77.667929 82.655457 77.689632 
Q 83.237825 77.711281 84.309384 77.711281 
Q 84.601345 77.711281 84.851375 77.710045 
Q 85.101405 77.708756 85.300187 77.70607 
L 85.300187 77.6574 
L 84.158744 77.6574 
L 84.158744 77.614047 
L 87.070588 77.614047 
L 87.070588 77.734596 
z
" clip-path="url(#p29be888e6b)" style="fill: #ffa600"/>
   </g>
   <g id="patch_18">
    <path d="M 84.941186 67.450304 
L 82.276246 67.450304 
L 81.855466 77.498065 
L 80.141176 77.498065 
L 82.589351 22.341767 
L 84.622413 22.341767 
L 87.070588 77.498065 
L 85.357716 77.498065 
L 84.941186 67.450304 
z
M 82.701276 57.213409 
L 84.511905 57.213409 
L 83.608008 35.273826 
L 82.701276 57.213409 
z
" clip-path="url(#p29be888e6b)" style="fill: #008000"/>
   </g>
   <g id="patch_19">
    <path d="M 92.235304 77.749511 
L 89.570363 77.749511 
L 89.149583 77.758125 
L 87.435294 77.758125 
L 89.883469 77.710841 
L 91.916531 77.710841 
L 94.364706 77.758125 
L 92.651833 77.758125 
L 92.235304 77.749511 
z
M 89.995394 77.740736 
L 91.806023 77.740736 
L 90.902125 77.721928 
L 89.995394 77.740736 
z
" clip-path="url(#p29be888e6b)" style="fill: #008000"/>
   </g>
   <g id="patch_20">
    <path d="M 94.364706 77.707452 
Q 93.785073 77.709132 93.1583 77.709982 
Q 92.531528 77.710841 91.848888 77.710841 
Q 89.813187 77.710841 88.624241 77.704473 
Q 87.435294 77.698105 87.435294 77.687214 
Q 87.435294 77.676285 88.624241 77.669926 
Q 89.813187 77.663558 91.848888 77.663558 
Q 92.531528 77.663558 93.1583 77.664417 
Q 93.785073 77.665267 94.364706 77.666947 
L 94.364706 77.676373 
Q 93.779835 77.674146 93.212423 77.67311 
Q 92.645011 77.672075 92.018238 77.672075 
Q 90.893889 77.672075 90.249658 77.676109 
Q 89.607173 77.680133 89.607173 77.687214 
Q 89.607173 77.694266 90.249658 77.6983 
Q 90.893889 77.702324 92.018238 77.702324 
Q 92.645011 77.702324 93.212423 77.701289 
Q 93.779835 77.700244 94.364706 77.698017 
L 94.364706 77.707452 
z
" clip-path="url(#p29be888e6b)" style="fill: #0000ff"/>
   </g>
   <g id="patch_21">
    <path d="M 87.435294 22.341767 
L 94.364706 22.341767 
L 94.364706 33.131057 
L 91.871729 33.131057 
L 91.871729 77.663558 
L 89.933105 77.663558 
L 89.933105 33.131057 
L 87.435294 33.131057 
L 87.435294 22.341767 
z
" clip-path="url(#p29be888e6b)" style="fill: #ff0000"/>
   </g>
   <g id="patch_22">
    <path d="M 101.658824 77.754736 
Q 101.07919 77.756416 100.452418 77.757265 
Q 99.825646 77.758125 99.143005 77.758125 
Q 97.107305 77.758125 95.918358 77.751757 
Q 94.729412 77.745388 94.729412 77.734498 
Q 94.729412 77.723568 95.918358 77.71721 
Q 97.107305 77.710841 99.143005 77.710841 
Q 99.825646 77.710841 100.452418 77.711701 
Q 101.07919 77.712551 101.658824 77.714231 
L 101.658824 77.723656 
Q 101.073953 77.721429 100.50654 77.720394 
Q 99.939128 77.719359 99.312356 77.719359 
Q 98.188007 77.719359 97.543776 77.723392 
Q 96.901291 77.727417 96.901291 77.734498 
Q 96.901291 77.74155 97.543776 77.745584 
Q 98.188007 77.749608 99.312356 77.749608 
Q 99.939128 77.749608 100.50654 77.748573 
Q 101.073953 77.747527 101.658824 77.745301 
L 101.658824 77.754736 
z
" clip-path="url(#p29be888e6b)" style="fill: #0000ff"/>
   </g>
   <g id="patch_23">
    <path d="M 94.729412 22.318125 
L 101.658824 22.318125 
L 101.658824 33.121248 
L 99.165847 33.121248 
L 99.165847 77.710841 
L 97.227223 77.710841 
L 97.227223 33.121248 
L 94.729412 33.121248 
L 94.729412 22.318125 
z
" clip-path="url(#p29be888e6b)" style="fill: #ff0000"/>
   </g>
   <g id="patch_24">
    <path d="M 108.952941 77.358192 
Q 108.373308 77.55643 107.746536 77.656701 
Q 107.119763 77.758125 106.437123 77.758125 
Q 104.401423 77.758125 103.212476 77.006667 
Q 102.023529 76.255208 102.023529 74.970122 
Q 102.023529 73.680426 103.212476 72.930121 
Q 104.401423 72.178662 106.437123 72.178662 
Q 107.119763 72.178662 107.746536 72.280086 
Q 108.373308 72.380357 108.952941 72.578595 
L 108.952941 73.690799 
Q 108.36807 73.428019 107.800658 73.30585 
Q 107.233246 73.18368 106.606474 73.18368 
Q 105.482125 73.18368 104.837894 73.659681 
Q 104.195409 74.134528 104.195409 74.970122 
Q 104.195409 75.802259 104.837894 76.278259 
Q 105.482125 76.753107 106.606474 76.753107 
Q 107.233246 76.753107 107.800658 76.630938 
Q 108.36807 76.507615 108.952941 76.244835 
L 108.952941 77.358192 
z
" clip-path="url(#p29be888e6b)" style="fill: #0000ff"/>
   </g>
   <g id="patch_25">
    <path d="M 102.023529 22.318125 
L 108.952941 22.318125 
L 108.952941 32.042319 
L 106.459964 32.042319 
L 106.459964 72.178662 
L 104.521341 72.178662 
L 104.521341 32.042319 
L 102.023529 32.042319 
L 102.023529 22.318125 
z
" clip-path="url(#p29be888e6b)" style="fill: #ff0000"/>
   </g>
   <g id="patch_26">
    <path d="M 109.317647 77.545349 
L 116.247059 77.545349 
L 116.247059 77.586846 
L 113.754082 77.586846 
L 113.754082 77.758125 
L 111.815458 77.758125 
L 111.815458 77.586846 
L 109.317647 77.586846 
L 109.317647 77.545349 
z
" clip-path="url(#p29be888e6b)" style="fill: #ff0000"/>
   </g>
   <g id="patch_27">
    <path d="M 123.541176 77.741013 
Q 122.842334 77.749569 122.09069 77.753866 
Q 121.339046 77.758125 120.537707 77.758125 
Q 118.726928 77.758125 117.669346 77.732652 
Q 116.611765 77.707179 116.611765 77.663616 
Q 116.611765 77.619546 117.687982 77.594268 
Q 118.765753 77.568991 120.640204 77.568991 
Q 121.362341 77.568991 122.023912 77.572429 
Q 122.687036 77.575828 123.274063 77.582548 
L 123.274063 77.62025 
Q 122.6684 77.611615 122.068948 77.607357 
Q 121.469497 77.603059 120.866939 77.603059 
Q 119.751897 77.603059 119.147787 77.618765 
Q 118.543676 77.634432 118.543676 77.663616 
Q 118.543676 77.692528 119.126045 77.708312 
Q 119.708414 77.724057 120.779972 77.724057 
Q 121.071933 77.724057 121.321963 77.723158 
Q 121.571994 77.72222 121.770775 77.720267 
L 121.770775 77.68487 
L 120.629333 77.68487 
L 120.629333 77.653341 
L 123.541176 77.653341 
L 123.541176 77.741013 
z
" clip-path="url(#p29be888e6b)" style="fill: #ffa600"/>
   </g>
   <g id="patch_28">
    <path d="M 121.411774 76.699017 
L 118.746834 76.699017 
L 118.326054 77.568991 
L 116.611765 77.568991 
L 119.05994 72.793349 
L 121.093002 72.793349 
L 123.541176 77.568991 
L 121.828304 77.568991 
L 121.411774 76.699017 
z
M 119.171864 75.812668 
L 120.982494 75.812668 
L 120.078596 73.913056 
L 119.171864 75.812668 
z
" clip-path="url(#p29be888e6b)" style="fill: #008000"/>
   </g>
   <g id="patch_29">
    <path d="M 116.611765 53.194304 
L 123.541176 53.194304 
L 123.541176 57.016664 
L 121.0482 57.016664 
L 121.0482 72.793349 
L 119.109576 72.793349 
L 119.109576 57.016664 
L 116.611765 57.016664 
L 116.611765 53.194304 
z
" clip-path="url(#p29be888e6b)" style="fill: #ff0000"/>
   </g>
   <g id="patch_30">
    <path d="M 123.541176 50.982813 
Q 122.961543 52.078999 122.334771 52.633465 
Q 121.707999 53.194304 121.025358 53.194304 
Q 118.989658 53.194304 117.800711 49.038994 
Q 116.611765 44.883685 116.611765 37.777595 
Q 116.611765 30.646013 117.800711 26.497077 
Q 118.989658 22.341767 121.025358 22.341767 
Q 121.707999 22.341767 122.334771 22.902606 
Q 122.961543 23.457072 123.541176 24.553258 
L 123.541176 30.703372 
Q 122.956305 29.250288 122.388893 28.574731 
Q 121.821481 27.899175 121.194709 27.899175 
Q 120.07036 27.899175 119.426129 30.531296 
Q 118.783644 33.157044 118.783644 37.777595 
Q 118.783644 42.379027 119.426129 45.011148 
Q 120.07036 47.636896 121.194709 47.636896 
Q 121.821481 47.636896 122.388893 46.96134 
Q 122.956305 46.27941 123.541176 44.826326 
L 123.541176 50.982813 
z
" clip-path="url(#p29be888e6b)" style="fill: #0000ff"/>
   </g>
   <g id="patch_31">
    <path d="M 130.835294 77.75643 
Q 130.255661 77.75727 129.628889 77.757695 
Q 129.002116 77.758125 128.319476 77.758125 
Q 126.283776 77.758125 125.094829 77.754941 
Q 123.905882 77.751757 123.905882 77.746311 
Q 123.905882 77.740847 125.094829 77.737667 
Q 126.283776 77.734483 128.319476 77.734483 
Q 129.002116 77.734483 129.628889 77.734913 
Q 130.255661 77.735338 130.835294 77.736178 
L 130.835294 77.740891 
Q 130.250423 77.739777 129.683011 77.739259 
Q 129.115599 77.738742 128.488827 77.738742 
Q 127.364478 77.738742 126.720247 77.740759 
Q 126.077761 77.742771 126.077761 77.746311 
Q 126.077761 77.749837 126.720247 77.751854 
Q 127.364478 77.753866 128.488827 77.753866 
Q 129.115599 77.753866 129.683011 77.753349 
Q 130.250423 77.752826 130.835294 77.751713 
L 130.835294 77.75643 
z
" clip-path="url(#p29be888e6b)" style="fill: #0000ff"/>
   </g>
   <g id="patch_32">
    <path d="M 130.835294 76.833946 
Q 130.136452 77.284215 129.384808 77.510377 
Q 128.633164 77.734483 127.831824 77.734483 
Q 126.021046 77.734483 124.963464 76.393958 
Q 123.905882 75.053433 123.905882 72.76097 
Q 123.905882 70.441779 124.9821 69.111534 
Q 126.05987 67.781289 127.934321 67.781289 
Q 128.656458 67.781289 129.318029 67.962219 
Q 129.981153 68.141093 130.568181 68.494728 
L 130.568181 70.478788 
Q 129.962517 70.024407 129.363066 69.800301 
Q 128.763614 69.574139 128.161057 69.574139 
Q 127.046015 69.574139 126.441904 70.400659 
Q 125.837794 71.225123 125.837794 72.76097 
Q 125.837794 74.282425 126.420162 75.113057 
Q 127.002531 75.941634 128.07409 75.941634 
Q 128.366051 75.941634 128.616081 75.894345 
Q 128.866111 75.845001 129.064893 75.7422 
L 129.064893 73.879445 
L 127.92345 73.879445 
L 127.92345 72.220237 
L 130.835294 72.220237 
L 130.835294 76.833946 
z
" clip-path="url(#p29be888e6b)" style="fill: #ffa600"/>
   </g>
   <g id="patch_33">
    <path d="M 128.705892 59.499315 
L 126.040952 59.499315 
L 125.620172 67.781289 
L 123.905882 67.781289 
L 126.354057 22.318125 
L 128.387119 22.318125 
L 130.835294 67.781289 
L 129.122422 67.781289 
L 128.705892 59.499315 
z
M 126.465982 51.061446 
L 128.276611 51.061446 
L 127.372713 32.977512 
L 126.465982 51.061446 
z
" clip-path="url(#p29be888e6b)" style="fill: #008000"/>
   </g>
   <g id="patch_34">
    <path d="M 136.00001 77.753818 
L 133.335069 77.753818 
L 132.914289 77.758125 
L 131.2 77.758125 
L 133.648175 77.734483 
L 135.681237 77.734483 
L 138.129412 77.758125 
L 136.416539 77.758125 
L 136.00001 77.753818 
z
M 133.7601 77.74943 
L 135.570729 77.74943 
L 134.666831 77.740026 
L 133.7601 77.74943 
z
" clip-path="url(#p29be888e6b)" style="fill: #008000"/>
   </g>
   <g id="patch_35">
    <path d="M 138.129412 77.298119 
Q 137.430569 77.516301 136.678925 77.62589 
Q 135.927281 77.734483 135.125942 77.734483 
Q 133.315163 77.734483 132.257582 77.084918 
Q 131.2 76.435352 131.2 75.324515 
Q 131.2 74.200726 132.276217 73.556142 
Q 133.353988 72.911558 135.228439 72.911558 
Q 135.950576 72.911558 136.612147 72.999229 
Q 137.275271 73.085904 137.862299 73.257262 
L 137.862299 74.218659 
Q 137.256635 73.998484 136.657184 73.889891 
Q 136.057732 73.780302 135.455174 73.780302 
Q 134.340132 73.780302 133.736022 74.180801 
Q 133.131911 74.580304 133.131911 75.324515 
Q 133.131911 76.061752 133.71428 76.464244 
Q 134.296649 76.865739 135.368207 76.865739 
Q 135.660168 76.865739 135.910199 76.842825 
Q 136.160229 76.818914 136.359011 76.769101 
L 136.359011 75.866484 
L 135.217568 75.866484 
L 135.217568 75.062497 
L 138.129412 75.062497 
L 138.129412 77.298119 
z
" clip-path="url(#p29be888e6b)" style="fill: #ffa600"/>
   </g>
   <g id="patch_36">
    <path d="M 131.2 51.964931 
L 138.129412 51.964931 
L 138.129412 56.050107 
L 135.636435 56.050107 
L 135.636435 72.911558 
L 133.697811 72.911558 
L 133.697811 56.050107 
L 131.2 56.050107 
L 131.2 51.964931 
z
" clip-path="url(#p29be888e6b)" style="fill: #ff0000"/>
   </g>
   <g id="patch_37">
    <path d="M 138.129412 49.839866 
Q 137.549778 50.893212 136.923006 51.426009 
Q 136.296234 51.964931 135.613594 51.964931 
Q 133.577893 51.964931 132.388947 47.972013 
Q 131.2 43.979094 131.2 37.150714 
Q 131.2 30.297837 132.388947 26.311043 
Q 133.577893 22.318125 135.613594 22.318125 
Q 136.296234 22.318125 136.923006 22.857046 
Q 137.549778 23.389844 138.129412 24.44319 
L 138.129412 30.352954 
Q 137.544541 28.956658 136.977129 28.307502 
Q 136.409716 27.658347 135.782944 27.658347 
Q 134.658595 27.658347 134.014364 30.187604 
Q 133.371879 32.710736 133.371879 37.150714 
Q 133.371879 41.57232 134.014364 44.101577 
Q 134.658595 46.624709 135.782944 46.624709 
Q 136.409716 46.624709 136.977129 45.975554 
Q 137.544541 45.320274 138.129412 43.923977 
L 138.129412 49.839866 
z
" clip-path="url(#p29be888e6b)" style="fill: #0000ff"/>
   </g>
   <g id="patch_38">
    <path d="M 143.294127 67.658682 
L 140.629187 67.658682 
L 140.208407 77.758125 
L 138.494118 77.758125 
L 140.942293 22.318125 
L 142.975354 22.318125 
L 145.423529 77.758125 
L 143.710657 77.758125 
L 143.294127 67.658682 
z
M 141.054217 57.369132 
L 142.864847 57.369132 
L 141.960949 35.316702 
L 141.054217 57.369132 
z
" clip-path="url(#p29be888e6b)" style="fill: #008000"/>
   </g>
   <g id="patch_39">
    <path d="M 145.788235 22.318125 
L 152.717647 22.318125 
L 152.717647 33.13047 
L 150.22467 33.13047 
L 150.22467 77.758125 
L 148.286047 77.758125 
L 148.286047 33.13047 
L 145.788235 33.13047 
L 145.788235 22.318125 
z
" clip-path="url(#p29be888e6b)" style="fill: #ff0000"/>
   </g>
   <g id="patch_40">
    <path d="M 153.082353 22.318125 
L 160.011765 22.318125 
L 160.011765 33.13047 
L 157.518788 33.13047 
L 157.518788 77.758125 
L 155.580164 77.758125 
L 155.580164 33.13047 
L 153.082353 33.13047 
L 153.082353 22.318125 
z
" clip-path="url(#p29be888e6b)" style="fill: #ff0000"/>
   </g>
   <g id="patch_41">
    <path d="M 165.17648 77.736591 
L 162.51154 77.736591 
L 162.09076 77.758125 
L 160.376471 77.758125 
L 162.824646 77.639916 
L 164.857707 77.639916 
L 167.305882 77.758125 
L 165.59301 77.758125 
L 165.17648 77.736591 
z
M 162.93657 77.714652 
L 164.7472 77.714652 
L 163.843302 77.667632 
L 162.93657 77.714652 
z
" clip-path="url(#p29be888e6b)" style="fill: #008000"/>
   </g>
   <g id="patch_42">
    <path d="M 167.305882 72.634557 
Q 166.60704 75.137236 165.855396 76.39429 
Q 165.103752 77.639916 164.302413 77.639916 
Q 162.491634 77.639916 161.434052 70.189016 
Q 160.376471 62.738116 160.376471 49.996162 
Q 160.376471 37.105648 161.452688 29.711886 
Q 162.530459 22.318125 164.404909 22.318125 
Q 165.127047 22.318125 165.788618 23.323768 
Q 166.451742 24.317983 167.038769 26.283558 
L 167.038769 37.311347 
Q 166.433106 34.785812 165.833654 33.540186 
Q 165.234203 32.283133 164.631645 32.283133 
Q 163.516603 32.283133 162.912492 36.877093 
Q 162.308382 41.459625 162.308382 49.996162 
Q 162.308382 58.452705 162.890751 63.069521 
Q 163.473119 67.674908 164.544678 67.674908 
Q 164.836639 67.674908 165.086669 67.41207 
Q 165.336699 67.137804 165.535481 66.566416 
L 165.535481 56.212864 
L 164.394039 56.212864 
L 164.394039 46.990661 
L 167.305882 46.990661 
L 167.305882 72.634557 
z
" clip-path="url(#p29be888e6b)" style="fill: #ffa600"/>
   </g>
   <g id="patch_43">
    <path d="M 172.470598 74.34714 
L 169.805657 74.34714 
L 169.384877 77.758125 
L 167.670588 77.758125 
L 170.118763 59.033826 
L 172.151825 59.033826 
L 174.6 77.758125 
L 172.887128 77.758125 
L 172.470598 74.34714 
z
M 170.230688 70.871949 
L 172.041317 70.871949 
L 171.137419 63.423964 
L 170.230688 70.871949 
z
" clip-path="url(#p29be888e6b)" style="fill: #008000"/>
   </g>
   <g id="patch_44">
    <path d="M 174.6 55.711894 
Q 173.901157 57.37286 173.149514 58.207135 
Q 172.39787 59.033826 171.59653 59.033826 
Q 169.785752 59.033826 168.72817 54.088849 
Q 167.670588 49.143871 167.670588 40.687352 
Q 167.670588 32.132237 168.746806 27.225181 
Q 169.824576 22.318125 171.699027 22.318125 
Q 172.421164 22.318125 173.082735 22.985545 
Q 173.745859 23.645381 174.332887 24.949885 
L 174.332887 32.268755 
Q 173.727223 30.59262 173.127772 29.765929 
Q 172.52832 28.931654 171.925763 28.931654 
Q 170.810721 28.931654 170.20661 31.980551 
Q 169.6025 35.021864 169.6025 40.687352 
Q 169.6025 46.29975 170.184868 49.363816 
Q 170.767237 52.420298 171.838796 52.420298 
Q 172.130756 52.420298 172.380787 52.245859 
Q 172.630817 52.063835 172.829599 51.684619 
L 172.829599 44.813223 
L 171.688156 44.813223 
L 171.688156 38.692676 
L 174.6 38.692676 
L 174.6 55.711894 
z
" clip-path="url(#p29be888e6b)" style="fill: #ffa600"/>
   </g>
   <g id="matplotlib.axis_1"/>
   <g id="matplotlib.axis_2"/>
   <g id="text_1">
    <!-- -233 upstream of cyoA -->
    <g transform="translate(22.51875 16.318125) scale(0.12 -0.12)">
     <defs>
      <path id="DejaVuSans-2d" d="M 313 2009 
L 1997 2009 
L 1997 1497 
L 313 1497 
L 313 2009 
z
" transform="scale(0.015625)"/>
      <path id="DejaVuSans-32" d="M 1228 531 
L 3431 531 
L 3431 0 
L 469 0 
L 469 531 
Q 828 903 1448 1529 
Q 2069 2156 2228 2338 
Q 2531 2678 2651 2914 
Q 2772 3150 2772 3378 
Q 2772 3750 2511 3984 
Q 2250 4219 1831 4219 
Q 1534 4219 1204 4116 
Q 875 4013 500 3803 
L 500 4441 
Q 881 4594 1212 4672 
Q 1544 4750 1819 4750 
Q 2544 4750 2975 4387 
Q 3406 4025 3406 3419 
Q 3406 3131 3298 2873 
Q 3191 2616 2906 2266 
Q 2828 2175 2409 1742 
Q 1991 1309 1228 531 
z
" transform="scale(0.015625)"/>
      <path id="DejaVuSans-33" d="M 2597 2516 
Q 3050 2419 3304 2112 
Q 3559 1806 3559 1356 
Q 3559 666 3084 287 
Q 2609 -91 1734 -91 
Q 1441 -91 1130 -33 
Q 819 25 488 141 
L 488 750 
Q 750 597 1062 519 
Q 1375 441 1716 441 
Q 2309 441 2620 675 
Q 2931 909 2931 1356 
Q 2931 1769 2642 2001 
Q 2353 2234 1838 2234 
L 1294 2234 
L 1294 2753 
L 1863 2753 
Q 2328 2753 2575 2939 
Q 2822 3125 2822 3475 
Q 2822 3834 2567 4026 
Q 2313 4219 1838 4219 
Q 1578 4219 1281 4162 
Q 984 4106 628 3988 
L 628 4550 
Q 988 4650 1302 4700 
Q 1616 4750 1894 4750 
Q 2613 4750 3031 4423 
Q 3450 4097 3450 3541 
Q 3450 3153 3228 2886 
Q 3006 2619 2597 2516 
z
" transform="scale(0.015625)"/>
      <path id="DejaVuSans-20" transform="scale(0.015625)"/>
      <path id="DejaVuSans-75" d="M 544 1381 
L 544 3500 
L 1119 3500 
L 1119 1403 
Q 1119 906 1312 657 
Q 1506 409 1894 409 
Q 2359 409 2629 706 
Q 2900 1003 2900 1516 
L 2900 3500 
L 3475 3500 
L 3475 0 
L 2900 0 
L 2900 538 
Q 2691 219 2414 64 
Q 2138 -91 1772 -91 
Q 1169 -91 856 284 
Q 544 659 544 1381 
z
M 1991 3584 
L 1991 3584 
z
" transform="scale(0.015625)"/>
      <path id="DejaVuSans-70" d="M 1159 525 
L 1159 -1331 
L 581 -1331 
L 581 3500 
L 1159 3500 
L 1159 2969 
Q 1341 3281 1617 3432 
Q 1894 3584 2278 3584 
Q 2916 3584 3314 3078 
Q 3713 2572 3713 1747 
Q 3713 922 3314 415 
Q 2916 -91 2278 -91 
Q 1894 -91 1617 61 
Q 1341 213 1159 525 
z
M 3116 1747 
Q 3116 2381 2855 2742 
Q 2594 3103 2138 3103 
Q 1681 3103 1420 2742 
Q 1159 2381 1159 1747 
Q 1159 1113 1420 752 
Q 1681 391 2138 391 
Q 2594 391 2855 752 
Q 3116 1113 3116 1747 
z
" transform="scale(0.015625)"/>
      <path id="DejaVuSans-73" d="M 2834 3397 
L 2834 2853 
Q 2591 2978 2328 3040 
Q 2066 3103 1784 3103 
Q 1356 3103 1142 2972 
Q 928 2841 928 2578 
Q 928 2378 1081 2264 
Q 1234 2150 1697 2047 
L 1894 2003 
Q 2506 1872 2764 1633 
Q 3022 1394 3022 966 
Q 3022 478 2636 193 
Q 2250 -91 1575 -91 
Q 1294 -91 989 -36 
Q 684 19 347 128 
L 347 722 
Q 666 556 975 473 
Q 1284 391 1588 391 
Q 1994 391 2212 530 
Q 2431 669 2431 922 
Q 2431 1156 2273 1281 
Q 2116 1406 1581 1522 
L 1381 1569 
Q 847 1681 609 1914 
Q 372 2147 372 2553 
Q 372 3047 722 3315 
Q 1072 3584 1716 3584 
Q 2034 3584 2315 3537 
Q 2597 3491 2834 3397 
z
" transform="scale(0.015625)"/>
      <path id="DejaVuSans-74" d="M 1172 4494 
L 1172 3500 
L 2356 3500 
L 2356 3053 
L 1172 3053 
L 1172 1153 
Q 1172 725 1289 603 
Q 1406 481 1766 481 
L 2356 481 
L 2356 0 
L 1766 0 
Q 1100 0 847 248 
Q 594 497 594 1153 
L 594 3053 
L 172 3053 
L 172 3500 
L 594 3500 
L 594 4494 
L 1172 4494 
z
" transform="scale(0.015625)"/>
      <path id="DejaVuSans-72" d="M 2631 2963 
Q 2534 3019 2420 3045 
Q 2306 3072 2169 3072 
Q 1681 3072 1420 2755 
Q 1159 2438 1159 1844 
L 1159 0 
L 581 0 
L 581 3500 
L 1159 3500 
L 1159 2956 
Q 1341 3275 1631 3429 
Q 1922 3584 2338 3584 
Q 2397 3584 2469 3576 
Q 2541 3569 2628 3553 
L 2631 2963 
z
" transform="scale(0.015625)"/>
      <path id="DejaVuSans-65" d="M 3597 1894 
L 3597 1613 
L 953 1613 
Q 991 1019 1311 708 
Q 1631 397 2203 397 
Q 2534 397 2845 478 
Q 3156 559 3463 722 
L 3463 178 
Q 3153 47 2828 -22 
Q 2503 -91 2169 -91 
Q 1331 -91 842 396 
Q 353 884 353 1716 
Q 353 2575 817 3079 
Q 1281 3584 2069 3584 
Q 2775 3584 3186 3129 
Q 3597 2675 3597 1894 
z
M 3022 2063 
Q 3016 2534 2758 2815 
Q 2500 3097 2075 3097 
Q 1594 3097 1305 2825 
Q 1016 2553 972 2059 
L 3022 2063 
z
" transform="scale(0.015625)"/>
      <path id="DejaVuSans-61" d="M 2194 1759 
Q 1497 1759 1228 1600 
Q 959 1441 959 1056 
Q 959 750 1161 570 
Q 1363 391 1709 391 
Q 2188 391 2477 730 
Q 2766 1069 2766 1631 
L 2766 1759 
L 2194 1759 
z
M 3341 1997 
L 3341 0 
L 2766 0 
L 2766 531 
Q 2569 213 2275 61 
Q 1981 -91 1556 -91 
Q 1019 -91 701 211 
Q 384 513 384 1019 
Q 384 1609 779 1909 
Q 1175 2209 1959 2209 
L 2766 2209 
L 2766 2266 
Q 2766 2663 2505 2880 
Q 2244 3097 1772 3097 
Q 1472 3097 1187 3025 
Q 903 2953 641 2809 
L 641 3341 
Q 956 3463 1253 3523 
Q 1550 3584 1831 3584 
Q 2591 3584 2966 3190 
Q 3341 2797 3341 1997 
z
" transform="scale(0.015625)"/>
      <path id="DejaVuSans-6d" d="M 3328 2828 
Q 3544 3216 3844 3400 
Q 4144 3584 4550 3584 
Q 5097 3584 5394 3201 
Q 5691 2819 5691 2113 
L 5691 0 
L 5113 0 
L 5113 2094 
Q 5113 2597 4934 2840 
Q 4756 3084 4391 3084 
Q 3944 3084 3684 2787 
Q 3425 2491 3425 1978 
L 3425 0 
L 2847 0 
L 2847 2094 
Q 2847 2600 2669 2842 
Q 2491 3084 2119 3084 
Q 1678 3084 1418 2786 
Q 1159 2488 1159 1978 
L 1159 0 
L 581 0 
L 581 3500 
L 1159 3500 
L 1159 2956 
Q 1356 3278 1631 3431 
Q 1906 3584 2284 3584 
Q 2666 3584 2933 3390 
Q 3200 3197 3328 2828 
z
" transform="scale(0.015625)"/>
      <path id="DejaVuSans-6f" d="M 1959 3097 
Q 1497 3097 1228 2736 
Q 959 2375 959 1747 
Q 959 1119 1226 758 
Q 1494 397 1959 397 
Q 2419 397 2687 759 
Q 2956 1122 2956 1747 
Q 2956 2369 2687 2733 
Q 2419 3097 1959 3097 
z
M 1959 3584 
Q 2709 3584 3137 3096 
Q 3566 2609 3566 1747 
Q 3566 888 3137 398 
Q 2709 -91 1959 -91 
Q 1206 -91 779 398 
Q 353 888 353 1747 
Q 353 2609 779 3096 
Q 1206 3584 1959 3584 
z
" transform="scale(0.015625)"/>
      <path id="DejaVuSans-66" d="M 2375 4863 
L 2375 4384 
L 1825 4384 
Q 1516 4384 1395 4259 
Q 1275 4134 1275 3809 
L 1275 3500 
L 2222 3500 
L 2222 3053 
L 1275 3053 
L 1275 0 
L 697 0 
L 697 3053 
L 147 3053 
L 147 3500 
L 697 3500 
L 697 3744 
Q 697 4328 969 4595 
Q 1241 4863 1831 4863 
L 2375 4863 
z
" transform="scale(0.015625)"/>
      <path id="DejaVuSans-63" d="M 3122 3366 
L 3122 2828 
Q 2878 2963 2633 3030 
Q 2388 3097 2138 3097 
Q 1578 3097 1268 2742 
Q 959 2388 959 1747 
Q 959 1106 1268 751 
Q 1578 397 2138 397 
Q 2388 397 2633 464 
Q 2878 531 3122 666 
L 3122 134 
Q 2881 22 2623 -34 
Q 2366 -91 2075 -91 
Q 1284 -91 818 406 
Q 353 903 353 1747 
Q 353 2603 823 3093 
Q 1294 3584 2113 3584 
Q 2378 3584 2631 3529 
Q 2884 3475 3122 3366 
z
" transform="scale(0.015625)"/>
      <path id="DejaVuSans-79" d="M 2059 -325 
Q 1816 -950 1584 -1140 
Q 1353 -1331 966 -1331 
L 506 -1331 
L 506 -850 
L 844 -850 
Q 1081 -850 1212 -737 
Q 1344 -625 1503 -206 
L 1606 56 
L 191 3500 
L 800 3500 
L 1894 763 
L 2988 3500 
L 3597 3500 
L 2059 -325 
z
" transform="scale(0.015625)"/>
      <path id="DejaVuSans-41" d="M 2188 4044 
L 1331 1722 
L 3047 1722 
L 2188 4044 
z
M 1831 4666 
L 2547 4666 
L 4325 0 
L 3669 0 
L 3244 1197 
L 1141 1197 
L 716 0 
L 50 0 
L 1831 4666 
z
" transform="scale(0.015625)"/>
     </defs>
     <use xlink:href="#DejaVuSans-2d"/>
     <use xlink:href="#DejaVuSans-32" x="36.083984"/>
     <use xlink:href="#DejaVuSans-33" x="99.707031"/>
     <use xlink:href="#DejaVuSans-33" x="163.330078"/>
     <use xlink:href="#DejaVuSans-20" x="226.953125"/>
     <use xlink:href="#DejaVuSans-75" x="258.740234"/>
     <use xlink:href="#DejaVuSans-70" x="322.119141"/>
     <use xlink:href="#DejaVuSans-73" x="385.595703"/>
     <use xlink:href="#DejaVuSans-74" x="437.695312"/>
     <use xlink:href="#DejaVuSans-72" x="476.904297"/>
     <use xlink:href="#DejaVuSans-65" x="515.767578"/>
     <use xlink:href="#DejaVuSans-61" x="577.291016"/>
     <use xlink:href="#DejaVuSans-6d" x="638.570312"/>
     <use xlink:href="#DejaVuSans-20" x="735.982422"/>
     <use xlink:href="#DejaVuSans-6f" x="767.769531"/>
     <use xlink:href="#DejaVuSans-66" x="828.951172"/>
     <use xlink:href="#DejaVuSans-20" x="864.15625"/>
     <use xlink:href="#DejaVuSans-63" x="895.943359"/>
     <use xlink:href="#DejaVuSans-79" x="950.923828"/>
     <use xlink:href="#DejaVuSans-6f" x="1010.103516"/>
     <use xlink:href="#DejaVuSans-41" x="1071.285156"/>
    </g>
   </g>
  </g>
 </g>
 <defs>
  <clipPath id="p29be888e6b">
   <rect x="7.2" y="22.318125" width="167.4" height="55.44"/>
  </clipPath>
 </defs>
</svg>
