<?xml version="1.0" encoding="utf-8" standalone="no"?>
<!DOCTYPE svg PUBLIC "-//W3C//DTD SVG 1.1//EN"
  "http://www.w3.org/Graphics/SVG/1.1/DTD/svg11.dtd">
<svg xmlns:xlink="http://www.w3.org/1999/xlink" width="207.8875pt" height="86.518125pt" viewBox="0 0 207.8875 86.518125" xmlns="http://www.w3.org/2000/svg" version="1.1">
 <metadata>
  <rdf:RDF xmlns:dc="http://purl.org/dc/elements/1.1/" xmlns:cc="http://creativecommons.org/ns#" xmlns:rdf="http://www.w3.org/1999/02/22-rdf-syntax-ns#">
   <cc:Work>
    <dc:type rdf:resource="http://purl.org/dc/dcmitype/StillImage"/>
    <dc:date>2023-10-17T16:57:12.106886</dc:date>
    <dc:format>image/svg+xml</dc:format>
    <dc:creator>
     <cc:Agent>
      <dc:title>Matplotlib v3.6.2, https://matplotlib.org/</dc:title>
     </cc:Agent>
    </dc:creator>
   </cc:Work>
  </rdf:RDF>
 </metadata>
 <defs>
  <style type="text/css">*{stroke-linejoin: round; stroke-linecap: butt}</style>
 </defs>
 <g id="figure_1">
  <g id="patch_1">
   <path d="M 0 86.518125 
L 207.8875 86.518125 
L 207.8875 0 
L 0 0 
z
" style="fill: #ffffff"/>
  </g>
  <g id="axes_1">
   <g id="patch_2">
    <path d="M 33.2875 62.64 
L 200.6875 62.64 
L 200.6875 7.2 
L 33.2875 7.2 
z
" style="fill: #ffffff"/>
   </g>
   <g id="line2d_1">
    <path d="M 33.2875 62.64 
L 200.6875 62.64 
" clip-path="url(#p145e1f13b6)" style="fill: none; stroke: #000000; stroke-width: 0.5; stroke-linecap: square"/>
   </g>
   <g id="patch_3">
    <path d="M 41.258929 62.232793 
Q 40.454997 62.436396 39.590324 62.538663 
Q 38.725651 62.64 37.803809 62.64 
Q 35.720733 62.64 34.504117 62.033837 
Q 33.2875 61.427675 33.2875 60.391062 
Q 33.2875 59.342364 34.525555 58.74085 
Q 35.765396 58.139336 37.921719 58.139336 
Q 38.752448 58.139336 39.513504 58.221149 
Q 40.276345 58.302033 40.951648 58.461941 
L 40.951648 59.359099 
Q 40.254907 59.153635 39.565313 59.052298 
Q 38.875718 58.950032 38.18255 58.950032 
Q 36.899833 58.950032 36.204878 59.32377 
Q 35.509924 59.696579 35.509924 60.391062 
Q 35.509924 61.079038 36.179867 61.454636 
Q 36.84981 61.829304 38.082505 61.829304 
Q 38.41837 61.829304 38.705999 61.807921 
Q 38.993628 61.785608 39.222302 61.739123 
L 39.222302 60.896818 
L 37.909214 60.896818 
L 37.909214 60.146552 
L 41.258929 60.146552 
L 41.258929 62.232793 
z
" clip-path="url(#p145e1f13b6)" style="fill: #ffa600"/>
   </g>
   <g id="patch_4">
    <path d="M 38.809316 56.499574 
L 35.743632 56.499574 
L 35.259577 58.139336 
L 33.2875 58.139336 
L 36.103822 49.138007 
L 38.442607 49.138007 
L 41.258929 58.139336 
L 39.288481 58.139336 
L 38.809316 56.499574 
z
M 36.232577 54.828946 
L 38.315481 54.828946 
L 37.275659 51.248477 
L 36.232577 54.828946 
z
" clip-path="url(#p145e1f13b6)" style="fill: #008000"/>
   </g>
   <g id="patch_5">
    <path d="M 41.258929 48.46347 
Q 40.592132 48.797823 39.871109 48.966943 
Q 39.150085 49.138007 38.364792 49.138007 
Q 36.022971 49.138007 34.655236 47.870577 
Q 33.2875 46.603146 33.2875 44.435683 
Q 33.2875 42.260445 34.655236 40.994959 
Q 36.022971 39.727528 38.364792 39.727528 
Q 39.150085 39.727528 39.871109 39.898592 
Q 40.592132 40.067712 41.258929 40.402065 
L 41.258929 42.277941 
Q 40.586107 41.834729 39.93337 41.628674 
Q 39.280632 41.422619 38.559609 41.422619 
Q 37.266185 41.422619 36.525077 42.225455 
Q 35.785977 43.026347 35.785977 44.435683 
Q 35.785977 45.839188 36.525077 46.642024 
Q 37.266185 47.442916 38.559609 47.442916 
Q 39.280632 47.442916 39.93337 47.236861 
Q 40.586107 47.028862 41.258929 46.58565 
L 41.258929 48.46347 
z
" clip-path="url(#p145e1f13b6)" style="fill: #0000ff"/>
   </g>
   <g id="patch_6">
    <path d="M 33.2875 7.2 
L 41.258929 7.2 
L 41.258929 13.543774 
L 38.391068 13.543774 
L 38.391068 39.727528 
L 36.160922 39.727528 
L 36.160922 13.543774 
L 33.2875 13.543774 
L 33.2875 7.2 
z
" clip-path="url(#p145e1f13b6)" style="fill: #ff0000"/>
   </g>
   <g id="patch_7">
    <path d="M 49.649906 62.376051 
Q 48.98311 62.506884 48.262086 62.573062 
Q 47.541062 62.64 46.755769 62.64 
Q 44.413949 62.64 43.046213 62.144049 
Q 41.678477 61.648098 41.678477 60.79996 
Q 41.678477 59.94878 43.046213 59.45359 
Q 44.413949 58.957638 46.755769 58.957638 
Q 47.541062 58.957638 48.262086 59.024577 
Q 48.98311 59.090754 49.649906 59.221588 
L 49.649906 59.955626 
Q 48.977085 59.782195 48.324347 59.701565 
Q 47.67161 59.620935 46.950586 59.620935 
Q 45.657162 59.620935 44.916054 59.935088 
Q 44.176955 60.248481 44.176955 60.79996 
Q 44.176955 61.349158 44.916054 61.663311 
Q 45.657162 61.976703 46.950586 61.976703 
Q 47.67161 61.976703 48.324347 61.896073 
Q 48.977085 61.814682 49.649906 61.641252 
L 49.649906 62.376051 
z
" clip-path="url(#p145e1f13b6)" style="fill: #0000ff"/>
   </g>
   <g id="patch_8">
    <path d="M 47.200293 57.653282 
L 44.13461 57.653282 
L 43.650554 58.957638 
L 41.678477 58.957638 
L 44.494799 51.797491 
L 46.833584 51.797491 
L 49.649906 58.957638 
L 47.679459 58.957638 
L 47.200293 57.653282 
z
M 44.623554 56.324374 
L 46.706459 56.324374 
L 45.666636 53.476274 
L 44.623554 56.324374 
z
" clip-path="url(#p145e1f13b6)" style="fill: #008000"/>
   </g>
   <g id="patch_9">
    <path d="M 41.678477 38.090923 
L 49.649906 38.090923 
L 49.649906 40.764085 
L 46.782046 40.764085 
L 46.782046 51.797491 
L 44.551899 51.797491 
L 44.551899 40.764085 
L 41.678477 40.764085 
L 41.678477 38.090923 
z
" clip-path="url(#p145e1f13b6)" style="fill: #ff0000"/>
   </g>
   <g id="patch_10">
    <path d="M 49.649906 35.295999 
Q 48.845974 36.693461 47.981301 37.395382 
Q 47.116628 38.090923 46.194787 38.090923 
Q 44.11171 38.090923 42.895094 33.930443 
Q 41.678477 29.769963 41.678477 22.655033 
Q 41.678477 15.457148 42.916532 11.328574 
Q 44.156373 7.2 46.312697 7.2 
Q 47.143426 7.2 47.904481 7.761537 
Q 48.667323 8.316693 49.342625 9.414243 
L 49.342625 15.572008 
Q 48.645885 14.161784 47.95629 13.466244 
Q 47.266695 12.764322 46.573528 12.764322 
Q 45.29081 12.764322 44.595856 15.329526 
Q 43.900902 17.888349 43.900902 22.655033 
Q 43.900902 27.37705 44.570845 29.955015 
Q 45.240788 32.5266 46.473483 32.5266 
Q 46.809348 32.5266 47.096977 32.379835 
Q 47.384605 32.226688 47.613279 31.907633 
L 47.613279 26.126353 
L 46.300191 26.126353 
L 46.300191 20.976803 
L 49.649906 20.976803 
L 49.649906 35.295999 
z
" clip-path="url(#p145e1f13b6)" style="fill: #ffa600"/>
   </g>
   <g id="patch_11">
    <path d="M 58.040883 62.269811 
Q 57.236952 62.454906 56.372279 62.547875 
Q 55.507606 62.64 54.585764 62.64 
Q 52.502688 62.64 51.286071 62.088943 
Q 50.069455 61.537886 50.069455 60.595511 
Q 50.069455 59.642149 51.30751 59.095318 
Q 52.547351 58.548487 54.703674 58.548487 
Q 55.534403 58.548487 56.295459 58.622863 
Q 57.0583 58.696393 57.733603 58.841764 
L 57.733603 59.657362 
Q 57.036862 59.470578 56.347268 59.378453 
Q 55.657673 59.285483 54.964505 59.285483 
Q 53.681788 59.285483 52.986833 59.625245 
Q 52.291879 59.964162 52.291879 60.595511 
Q 52.291879 61.220944 52.961822 61.562396 
Q 53.631765 61.903004 54.86446 61.903004 
Q 55.200325 61.903004 55.487954 61.883565 
Q 55.775583 61.86328 56.004257 61.821021 
L 56.004257 61.055289 
L 54.691168 61.055289 
L 54.691168 60.373229 
L 58.040883 60.373229 
L 58.040883 62.269811 
z
" clip-path="url(#p145e1f13b6)" style="fill: #ffa600"/>
   </g>
   <g id="patch_12">
    <path d="M 55.59127 57.467735 
L 52.525587 57.467735 
L 52.041532 58.548487 
L 50.069455 58.548487 
L 52.885776 52.615793 
L 55.224562 52.615793 
L 58.040883 58.548487 
L 56.070436 58.548487 
L 55.59127 57.467735 
z
M 53.014532 56.366639 
L 55.097436 56.366639 
L 54.057614 54.006785 
L 53.014532 56.366639 
z
" clip-path="url(#p145e1f13b6)" style="fill: #008000"/>
   </g>
   <g id="patch_13">
    <path d="M 58.040883 51.8826 
Q 57.374087 52.246027 56.653064 52.429854 
Q 55.93204 52.615793 55.146747 52.615793 
Q 52.804926 52.615793 51.437191 51.238151 
Q 50.069455 49.860509 50.069455 47.504572 
Q 50.069455 45.140183 51.437191 43.764653 
Q 52.804926 42.387011 55.146747 42.387011 
Q 55.93204 42.387011 56.653064 42.572951 
Q 57.374087 42.756777 58.040883 43.120204 
L 58.040883 45.159199 
Q 57.368062 44.677447 56.715325 44.453474 
Q 56.062587 44.229502 55.341564 44.229502 
Q 54.04814 44.229502 53.307032 45.10215 
Q 52.567932 45.972684 52.567932 47.504572 
Q 52.567932 49.03012 53.307032 49.902768 
Q 54.04814 50.773303 55.341564 50.773303 
Q 56.062587 50.773303 56.715325 50.54933 
Q 57.368062 50.323245 58.040883 49.841492 
L 58.040883 51.8826 
z
" clip-path="url(#p145e1f13b6)" style="fill: #0000ff"/>
   </g>
   <g id="patch_14">
    <path d="M 50.069455 7.2 
L 58.040883 7.2 
L 58.040883 14.062448 
L 55.173023 14.062448 
L 55.173023 42.387011 
L 52.942877 42.387011 
L 52.942877 14.062448 
L 50.069455 14.062448 
L 50.069455 7.2 
z
" clip-path="url(#p145e1f13b6)" style="fill: #ff0000"/>
   </g>
   <g id="patch_15">
    <path d="M 66.431861 62.581345 
Q 65.765065 62.610419 65.044041 62.625125 
Q 64.323017 62.64 63.537724 62.64 
Q 61.195904 62.64 59.828168 62.529789 
Q 58.460432 62.419577 58.460432 62.231102 
Q 58.460432 62.041951 59.828168 61.931909 
Q 61.195904 61.821697 63.537724 61.821697 
Q 64.323017 61.821697 65.044041 61.836573 
Q 65.765065 61.851279 66.431861 61.880353 
L 66.431861 62.043472 
Q 65.759039 62.004932 65.106302 61.987014 
Q 64.453565 61.969097 63.732541 61.969097 
Q 62.439117 61.969097 61.698009 62.038908 
Q 60.95891 62.108551 60.95891 62.231102 
Q 60.95891 62.353146 61.698009 62.422958 
Q 62.439117 62.492601 63.732541 62.492601 
Q 64.453565 62.492601 65.106302 62.474683 
Q 65.759039 62.456596 66.431861 62.418056 
L 66.431861 62.581345 
z
" clip-path="url(#p145e1f13b6)" style="fill: #0000ff"/>
   </g>
   <g id="patch_16">
    <path d="M 58.460432 56.707306 
L 66.431861 56.707306 
L 66.431861 57.704755 
L 63.564 57.704755 
L 63.564 61.821697 
L 61.333854 61.821697 
L 61.333854 57.704755 
L 58.460432 57.704755 
L 58.460432 56.707306 
z
" clip-path="url(#p145e1f13b6)" style="fill: #ff0000"/>
   </g>
   <g id="patch_17">
    <path d="M 63.982248 55.365683 
L 60.916565 55.365683 
L 60.432509 56.707306 
L 58.460432 56.707306 
L 61.276754 49.342583 
L 63.615539 49.342583 
L 66.431861 56.707306 
L 64.461414 56.707306 
L 63.982248 55.365683 
z
M 61.405509 53.998805 
L 63.488414 53.998805 
L 62.448591 51.069331 
L 61.405509 53.998805 
z
" clip-path="url(#p145e1f13b6)" style="fill: #008000"/>
   </g>
   <g id="patch_18">
    <path d="M 66.431861 45.529641 
Q 65.627929 47.436112 64.763256 48.3937 
Q 63.898583 49.342583 62.976741 49.342583 
Q 60.893665 49.342583 59.677049 43.666697 
Q 58.460432 37.990811 58.460432 28.28435 
Q 58.460432 18.464719 59.698487 12.832359 
Q 60.938328 7.2 63.094651 7.2 
Q 63.925381 7.2 64.686436 7.966071 
Q 65.449278 8.723436 66.12458 10.220755 
L 66.12458 18.621415 
Q 65.42784 16.697533 64.738245 15.74865 
Q 64.04865 14.791062 63.355483 14.791062 
Q 62.072765 14.791062 61.377811 18.290612 
Q 60.682857 21.781456 60.682857 28.28435 
Q 60.682857 34.726306 61.3528 38.243266 
Q 62.022743 41.751521 63.255438 41.751521 
Q 63.591303 41.751521 63.878931 41.551298 
Q 64.16656 41.342369 64.395234 40.907102 
L 64.395234 33.020058 
L 63.082146 33.020058 
L 63.082146 25.994843 
L 66.431861 25.994843 
L 66.431861 45.529641 
z
" clip-path="url(#p145e1f13b6)" style="fill: #ffa600"/>
   </g>
   <g id="patch_19">
    <path d="M 74.822838 62.214283 
Q 74.018907 62.427142 73.154234 62.534057 
Q 72.289561 62.64 71.367719 62.64 
Q 69.284643 62.64 68.068026 62.006285 
Q 66.85141 61.372569 66.85141 60.288838 
Q 66.85141 59.192471 68.089464 58.563616 
Q 69.329306 57.93476 71.485629 57.93476 
Q 72.316358 57.93476 73.077413 58.020292 
Q 73.840255 58.104852 74.515558 58.272029 
L 74.515558 59.209967 
Q 73.818817 58.995164 73.129222 58.889221 
Q 72.439628 58.782306 71.74646 58.782306 
Q 70.463742 58.782306 69.768788 59.173032 
Q 69.073834 59.562787 69.073834 60.288838 
Q 69.073834 61.008086 69.743777 61.400756 
Q 70.41372 61.792454 71.646415 61.792454 
Q 71.98228 61.792454 72.269909 61.770099 
Q 72.557538 61.746772 72.786212 61.698174 
L 72.786212 60.817582 
L 71.473123 60.817582 
L 71.473123 60.033214 
L 74.822838 60.033214 
L 74.822838 62.214283 
z
" clip-path="url(#p145e1f13b6)" style="fill: #ffa600"/>
   </g>
   <g id="patch_20">
    <path d="M 66.85141 52.615793 
L 74.822838 52.615793 
L 74.822838 53.65314 
L 71.954978 53.65314 
L 71.954978 57.93476 
L 69.724832 57.93476 
L 69.724832 53.65314 
L 66.85141 53.65314 
L 66.85141 52.615793 
z
" clip-path="url(#p145e1f13b6)" style="fill: #ff0000"/>
   </g>
   <g id="patch_21">
    <path d="M 74.822838 52.117222 
Q 74.156042 52.364353 73.435018 52.489355 
Q 72.713995 52.615793 71.928702 52.615793 
Q 69.586881 52.615793 68.219145 51.678997 
Q 66.85141 50.7422 66.85141 49.140163 
Q 66.85141 47.532378 68.219145 46.597018 
Q 69.586881 45.660221 71.928702 45.660221 
Q 72.713995 45.660221 73.435018 45.78666 
Q 74.156042 45.911662 74.822838 46.158793 
L 74.822838 47.545309 
Q 74.150017 47.217718 73.49728 47.065416 
Q 72.844542 46.913115 72.123519 46.913115 
Q 70.830095 46.913115 70.088987 47.506516 
Q 69.349887 48.098479 69.349887 49.140163 
Q 69.349887 50.177536 70.088987 50.770936 
Q 70.830095 51.3629 72.123519 51.3629 
Q 72.844542 51.3629 73.49728 51.210598 
Q 74.150017 51.05686 74.822838 50.729269 
L 74.822838 52.117222 
z
" clip-path="url(#p145e1f13b6)" style="fill: #0000ff"/>
   </g>
   <g id="patch_22">
    <path d="M 72.373225 38.653966 
L 69.307542 38.653966 
L 68.823487 45.660221 
L 66.85141 45.660221 
L 69.667731 7.2 
L 72.006517 7.2 
L 74.822838 45.660221 
L 72.852391 45.660221 
L 72.373225 38.653966 
z
M 69.796487 31.515828 
L 71.879391 31.515828 
L 70.839569 16.217463 
L 69.796487 31.515828 
z
" clip-path="url(#p145e1f13b6)" style="fill: #008000"/>
   </g>
   <g id="patch_23">
    <path d="M 83.213816 62.024118 
Q 82.54702 62.329397 81.825996 62.483811 
Q 81.104972 62.64 80.319679 62.64 
Q 77.977859 62.64 76.610123 61.482781 
Q 75.242387 60.325561 75.242387 58.346574 
Q 75.242387 56.360487 76.610123 55.205042 
Q 77.977859 54.047823 80.319679 54.047823 
Q 81.104972 54.047823 81.825996 54.204012 
Q 82.54702 54.358426 83.213816 54.663705 
L 83.213816 56.376461 
Q 82.540994 55.971789 81.888257 55.783652 
Q 81.23552 55.595515 80.514496 55.595515 
Q 79.221072 55.595515 78.479964 56.328539 
Q 77.740865 57.059788 77.740865 58.346574 
Q 77.740865 59.628035 78.479964 60.361059 
Q 79.221072 61.092308 80.514496 61.092308 
Q 81.23552 61.092308 81.888257 60.904171 
Q 82.540994 60.714259 83.213816 60.309587 
L 83.213816 62.024118 
z
" clip-path="url(#p145e1f13b6)" style="fill: #0000ff"/>
   </g>
   <g id="patch_24">
    <path d="M 83.213816 53.011295 
Q 82.409884 53.529559 81.545211 53.789874 
Q 80.680538 54.047823 79.758696 54.047823 
Q 77.67562 54.047823 76.459004 52.504864 
Q 75.242387 50.961904 75.242387 48.323255 
Q 75.242387 45.65384 76.480442 44.122714 
Q 77.720283 42.591587 79.876606 42.591587 
Q 80.707336 42.591587 81.468391 42.799839 
Q 82.231233 43.005725 82.906535 43.412763 
L 82.906535 45.696437 
Q 82.209795 45.17344 81.5202 44.915492 
Q 80.830605 44.655176 80.137437 44.655176 
Q 78.85472 44.655176 78.159766 45.60651 
Q 77.464811 46.555478 77.464811 48.323255 
Q 77.464811 50.074466 78.134755 51.030533 
Q 78.804698 51.984233 80.037393 51.984233 
Q 80.373257 51.984233 80.660886 51.929804 
Q 80.948515 51.873008 81.177189 51.754682 
L 81.177189 49.610632 
L 79.864101 49.610632 
L 79.864101 47.700865 
L 83.213816 47.700865 
L 83.213816 53.011295 
z
" clip-path="url(#p145e1f13b6)" style="fill: #ffa600"/>
   </g>
   <g id="patch_25">
    <path d="M 80.764203 40.281013 
L 77.698519 40.281013 
L 77.214464 42.591587 
L 75.242387 42.591587 
L 78.058709 29.907897 
L 80.397494 29.907897 
L 83.213816 42.591587 
L 81.243369 42.591587 
L 80.764203 40.281013 
z
M 78.187464 37.926946 
L 80.270369 37.926946 
L 79.230546 32.881741 
L 78.187464 37.926946 
z
" clip-path="url(#p145e1f13b6)" style="fill: #008000"/>
   </g>
   <g id="patch_26">
    <path d="M 75.242387 7.2 
L 83.213816 7.2 
L 83.213816 11.628673 
L 80.345955 11.628673 
L 80.345955 29.907897 
L 78.115809 29.907897 
L 78.115809 11.628673 
L 75.242387 11.628673 
L 75.242387 7.2 
z
" clip-path="url(#p145e1f13b6)" style="fill: #ff0000"/>
   </g>
   <g id="patch_27">
    <path d="M 91.604793 61.733038 
Q 90.800862 62.186519 89.936189 62.414295 
Q 89.071515 62.64 88.149674 62.64 
Q 86.066598 62.64 84.849981 61.289911 
Q 83.633365 59.939821 83.633365 57.631003 
Q 83.633365 55.295265 84.871419 53.955529 
Q 86.111261 52.615793 88.267584 52.615793 
Q 89.098313 52.615793 89.859368 52.798014 
Q 90.62221 52.978164 91.297513 53.334323 
L 91.297513 55.332538 
Q 90.600772 54.874915 89.911177 54.64921 
Q 89.221583 54.421434 88.528415 54.421434 
Q 87.245697 54.421434 86.550743 55.253851 
Q 85.855789 56.084198 85.855789 57.631003 
Q 85.855789 59.163313 86.525732 59.999871 
Q 87.195675 60.834359 88.42837 60.834359 
Q 88.764235 60.834359 89.051864 60.786733 
Q 89.339493 60.737037 89.568166 60.633502 
L 89.568166 58.757458 
L 88.255078 58.757458 
L 88.255078 57.086411 
L 91.604793 57.086411 
L 91.604793 61.733038 
z
" clip-path="url(#p145e1f13b6)" style="fill: #ffa600"/>
   </g>
   <g id="patch_28">
    <path d="M 89.15518 50.30522 
L 86.089497 50.30522 
L 85.605442 52.615793 
L 83.633365 52.615793 
L 86.449686 39.932103 
L 88.788472 39.932103 
L 91.604793 52.615793 
L 89.634346 52.615793 
L 89.15518 50.30522 
z
M 86.578442 47.951153 
L 88.661346 47.951153 
L 87.621524 42.905947 
L 86.578442 47.951153 
z
" clip-path="url(#p145e1f13b6)" style="fill: #008000"/>
   </g>
   <g id="patch_29">
    <path d="M 83.633365 24.179779 
L 91.604793 24.179779 
L 91.604793 27.251921 
L 88.736933 27.251921 
L 88.736933 39.932103 
L 86.506787 39.932103 
L 86.506787 27.251921 
L 83.633365 27.251921 
L 83.633365 24.179779 
z
" clip-path="url(#p145e1f13b6)" style="fill: #ff0000"/>
   </g>
   <g id="patch_30">
    <path d="M 91.604793 22.962678 
Q 90.937997 23.565967 90.216973 23.871119 
Q 89.49595 24.179779 88.710657 24.179779 
Q 86.368836 24.179779 85.0011 21.892892 
Q 83.633365 19.606006 83.633365 15.695151 
Q 83.633365 11.770265 85.0011 9.486886 
Q 86.368836 7.2 88.710657 7.2 
Q 89.49595 7.2 90.216973 7.508659 
Q 90.937997 7.813811 91.604793 8.4171 
L 91.604793 11.801832 
Q 90.931972 11.002124 90.279234 10.630329 
Q 89.626497 10.258535 88.905474 10.258535 
Q 87.612049 10.258535 86.870942 11.70713 
Q 86.131842 13.152217 86.131842 15.695151 
Q 86.131842 18.227561 86.870942 19.676156 
Q 87.612049 21.121244 88.905474 21.121244 
Q 89.626497 21.121244 90.279234 20.749449 
Q 90.931972 20.374148 91.604793 19.574439 
L 91.604793 22.962678 
z
" clip-path="url(#p145e1f13b6)" style="fill: #0000ff"/>
   </g>
   <g id="patch_31">
    <path d="M 99.995771 61.751548 
Q 99.191839 62.195774 98.327166 62.418901 
Q 97.462493 62.64 96.540651 62.64 
Q 94.457575 62.64 93.240959 61.317463 
Q 92.024342 59.994927 92.024342 57.733227 
Q 92.024342 55.445158 93.262397 54.132763 
Q 94.502238 52.820369 96.658561 52.820369 
Q 97.489291 52.820369 98.250346 52.998871 
Q 99.013188 53.175344 99.68849 53.524234 
L 99.68849 55.48167 
Q 98.991749 55.033386 98.302155 54.812288 
Q 97.61256 54.58916 96.919392 54.58916 
Q 95.636675 54.58916 94.941721 55.404589 
Q 94.246766 56.21799 94.246766 57.733227 
Q 94.246766 59.234266 94.916709 60.053751 
Q 95.586652 60.871209 96.819348 60.871209 
Q 97.155212 60.871209 97.442841 60.824555 
Q 97.73047 60.775873 97.959144 60.674451 
L 97.959144 58.836693 
L 96.646056 58.836693 
L 96.646056 57.19975 
L 99.995771 57.19975 
L 99.995771 61.751548 
z
" clip-path="url(#p145e1f13b6)" style="fill: #ffa600"/>
   </g>
   <g id="patch_32">
    <path d="M 97.546158 50.957003 
L 94.480474 50.957003 
L 93.996419 52.820369 
L 92.024342 52.820369 
L 94.840664 42.591587 
L 97.179449 42.591587 
L 99.995771 52.820369 
L 98.025323 52.820369 
L 97.546158 50.957003 
z
M 94.969419 49.058562 
L 97.052324 49.058562 
L 96.012501 44.989848 
L 94.969419 49.058562 
z
" clip-path="url(#p145e1f13b6)" style="fill: #008000"/>
   </g>
   <g id="patch_33">
    <path d="M 99.995771 41.345159 
Q 99.328974 41.962985 98.607951 42.27549 
Q 97.886927 42.591587 97.101634 42.591587 
Q 94.759813 42.591587 93.392078 40.249595 
Q 92.024342 37.907603 92.024342 33.90251 
Q 92.024342 29.883048 93.392078 27.544649 
Q 94.759813 25.202657 97.101634 25.202657 
Q 97.886927 25.202657 98.607951 25.518754 
Q 99.328974 25.831259 99.995771 26.449085 
L 99.995771 29.915377 
Q 99.322949 29.096398 98.670212 28.715645 
Q 98.017475 28.334891 97.296451 28.334891 
Q 96.003027 28.334891 95.261919 29.818392 
Q 94.52282 31.298301 94.52282 33.90251 
Q 94.52282 36.495942 95.261919 37.979443 
Q 96.003027 39.459352 97.296451 39.459352 
Q 98.017475 39.459352 98.670212 39.078599 
Q 99.322949 38.694254 99.995771 37.875275 
L 99.995771 41.345159 
z
" clip-path="url(#p145e1f13b6)" style="fill: #0000ff"/>
   </g>
   <g id="patch_34">
    <path d="M 92.024342 7.2 
L 99.995771 7.2 
L 99.995771 10.71102 
L 97.12791 10.71102 
L 97.12791 25.202657 
L 94.897764 25.202657 
L 94.897764 10.71102 
L 92.024342 10.71102 
L 92.024342 7.2 
z
" clip-path="url(#p145e1f13b6)" style="fill: #ff0000"/>
   </g>
   <g id="patch_35">
    <path d="M 108.386748 62.156093 
Q 107.719952 62.395954 106.998928 62.51728 
Q 106.277905 62.64 105.492611 62.64 
Q 103.150791 62.64 101.783055 61.730756 
Q 100.41532 60.821512 100.41532 59.266594 
Q 100.41532 57.706097 101.783055 56.798248 
Q 103.150791 55.889004 105.492611 55.889004 
Q 106.277905 55.889004 106.998928 56.011724 
Q 107.719952 56.133049 108.386748 56.372911 
L 108.386748 57.718648 
Q 107.713927 57.400691 107.061189 57.25287 
Q 106.408452 57.105048 105.687428 57.105048 
Q 104.394004 57.105048 103.652896 57.680995 
Q 102.913797 58.255548 102.913797 59.266594 
Q 102.913797 60.273456 103.652896 60.849403 
Q 104.394004 61.423956 105.687428 61.423956 
Q 106.408452 61.423956 107.061189 61.276134 
Q 107.713927 61.126918 108.386748 60.808961 
L 108.386748 62.156093 
z
" clip-path="url(#p145e1f13b6)" style="fill: #0000ff"/>
   </g>
   <g id="patch_36">
    <path d="M 108.386748 54.982042 
Q 107.582817 55.435523 106.718143 55.663299 
Q 105.85347 55.889004 104.931629 55.889004 
Q 102.848553 55.889004 101.631936 54.538914 
Q 100.41532 53.188825 100.41532 50.880006 
Q 100.41532 48.544269 101.653374 47.204533 
Q 102.893215 45.864797 105.049539 45.864797 
Q 105.880268 45.864797 106.641323 46.047018 
Q 107.404165 46.227168 108.079468 46.583326 
L 108.079468 48.581541 
Q 107.382727 48.123919 106.693132 47.898214 
Q 106.003538 47.670438 105.31037 47.670438 
Q 104.027652 47.670438 103.332698 48.502855 
Q 102.637744 49.333202 102.637744 50.880006 
Q 102.637744 52.412316 103.307687 53.248875 
Q 103.97763 54.083363 105.210325 54.083363 
Q 105.54619 54.083363 105.833819 54.035737 
Q 106.121447 53.98604 106.350121 53.882506 
L 106.350121 52.006461 
L 105.037033 52.006461 
L 105.037033 50.335415 
L 108.386748 50.335415 
L 108.386748 54.982042 
z
" clip-path="url(#p145e1f13b6)" style="fill: #ffa600"/>
   </g>
   <g id="patch_37">
    <path d="M 100.41532 32.362804 
L 108.386748 32.362804 
L 108.386748 34.996069 
L 105.518888 34.996069 
L 105.518888 45.864797 
L 103.288741 45.864797 
L 103.288741 34.996069 
L 100.41532 34.996069 
L 100.41532 32.362804 
z
" clip-path="url(#p145e1f13b6)" style="fill: #ff0000"/>
   </g>
   <g id="patch_38">
    <path d="M 105.937135 27.778924 
L 102.871452 27.778924 
L 102.387397 32.362804 
L 100.41532 32.362804 
L 103.231641 7.2 
L 105.570427 7.2 
L 108.386748 32.362804 
L 106.416301 32.362804 
L 105.937135 27.778924 
z
M 103.360397 23.10876 
L 105.443301 23.10876 
L 104.403479 13.099723 
L 103.360397 23.10876 
z
" clip-path="url(#p145e1f13b6)" style="fill: #008000"/>
   </g>
   <g id="patch_39">
    <path d="M 114.328113 60.813901 
L 111.262429 60.813901 
L 110.778374 62.64 
L 108.806297 62.64 
L 111.622619 52.615793 
L 113.961404 52.615793 
L 116.777726 62.64 
L 114.807278 62.64 
L 114.328113 60.813901 
z
M 111.751374 58.953429 
L 113.834278 58.953429 
L 112.794456 54.96609 
L 111.751374 58.953429 
z
" clip-path="url(#p145e1f13b6)" style="fill: #008000"/>
   </g>
   <g id="patch_40">
    <path d="M 108.806297 39.318376 
L 116.777726 39.318376 
L 116.777726 41.911743 
L 113.909865 41.911743 
L 113.909865 52.615793 
L 111.679719 52.615793 
L 111.679719 41.911743 
L 108.806297 41.911743 
L 108.806297 39.318376 
z
" clip-path="url(#p145e1f13b6)" style="fill: #ff0000"/>
   </g>
   <g id="patch_41">
    <path d="M 116.777726 38.262578 
Q 116.110929 38.785913 115.389906 39.050624 
Q 114.668882 39.318376 113.883589 39.318376 
Q 111.541768 39.318376 110.174033 37.334572 
Q 108.806297 35.350767 108.806297 31.958217 
Q 108.806297 28.553497 110.174033 26.572735 
Q 111.541768 24.58893 113.883589 24.58893 
Q 114.668882 24.58893 115.389906 24.856683 
Q 116.110929 25.121393 116.777726 25.644728 
L 116.777726 28.580881 
Q 116.104904 27.887158 115.452167 27.564637 
Q 114.799429 27.242117 114.078406 27.242117 
Q 112.784982 27.242117 112.043874 28.498729 
Q 111.304774 29.752299 111.304774 31.958217 
Q 111.304774 34.155007 112.043874 35.41162 
Q 112.784982 36.66519 114.078406 36.66519 
Q 114.799429 36.66519 115.452167 36.342669 
Q 116.104904 36.017106 116.777726 35.323383 
L 116.777726 38.262578 
z
" clip-path="url(#p145e1f13b6)" style="fill: #0000ff"/>
   </g>
   <g id="patch_42">
    <path d="M 116.777726 23.015629 
Q 115.973794 23.802279 115.109121 24.197401 
Q 114.244448 24.58893 113.322606 24.58893 
Q 111.23953 24.58893 110.022914 22.246938 
Q 108.806297 19.904946 108.806297 15.899853 
Q 108.806297 11.848063 110.044352 9.524032 
Q 111.284193 7.2 113.440516 7.2 
Q 114.271245 7.2 115.032301 7.516097 
Q 115.795142 7.828602 116.470445 8.446428 
L 116.470445 11.91272 
Q 115.773704 11.118885 115.08411 10.727356 
Q 114.394515 10.332234 113.701347 10.332234 
Q 112.41863 10.332234 111.723675 11.776223 
Q 111.028721 13.21662 111.028721 15.899853 
Q 111.028721 18.557942 111.698664 20.009115 
Q 112.368607 21.456695 113.601302 21.456695 
Q 113.937167 21.456695 114.224796 21.374079 
Q 114.512425 21.287871 114.741099 21.10827 
L 114.741099 17.853907 
L 113.428011 17.853907 
L 113.428011 14.955154 
L 116.777726 14.955154 
L 116.777726 23.015629 
z
" clip-path="url(#p145e1f13b6)" style="fill: #ffa600"/>
   </g>
   <g id="patch_43">
    <path d="M 125.168703 62.141429 
Q 124.501907 62.388559 123.780883 62.513561 
Q 123.059859 62.64 122.274566 62.64 
Q 119.932746 62.64 118.56501 61.703203 
Q 117.197274 60.766407 117.197274 59.164369 
Q 117.197274 57.556585 118.56501 56.621225 
Q 119.932746 55.684428 122.274566 55.684428 
Q 123.059859 55.684428 123.780883 55.810867 
Q 124.501907 55.935869 125.168703 56.182999 
L 125.168703 57.569516 
Q 124.495881 57.241924 123.843144 57.089623 
Q 123.190407 56.937322 122.469383 56.937322 
Q 121.175959 56.937322 120.434851 57.530722 
Q 119.695752 58.122686 119.695752 59.164369 
Q 119.695752 60.201742 120.434851 60.795143 
Q 121.175959 61.387106 122.469383 61.387106 
Q 123.190407 61.387106 123.843144 61.234805 
Q 124.495881 61.081067 125.168703 60.753475 
L 125.168703 62.141429 
z
" clip-path="url(#p145e1f13b6)" style="fill: #0000ff"/>
   </g>
   <g id="patch_44">
    <path d="M 117.197274 45.455646 
L 125.168703 45.455646 
L 125.168703 47.450543 
L 122.300843 47.450543 
L 122.300843 55.684428 
L 120.070696 55.684428 
L 120.070696 47.450543 
L 117.197274 47.450543 
L 117.197274 45.455646 
z
" clip-path="url(#p145e1f13b6)" style="fill: #ff0000"/>
   </g>
   <g id="patch_45">
    <path d="M 125.168703 44.456137 
Q 124.364771 44.955891 123.500098 45.206909 
Q 122.635425 45.455646 121.713584 45.455646 
Q 119.630507 45.455646 118.413891 43.967792 
Q 117.197274 42.479939 117.197274 39.935526 
Q 117.197274 37.361448 118.435329 35.885005 
Q 119.67517 34.408561 121.831494 34.408561 
Q 122.662223 34.408561 123.423278 34.609375 
Q 124.18612 34.807908 124.861422 35.200409 
L 124.861422 37.402524 
Q 124.164682 36.898206 123.475087 36.649469 
Q 122.785492 36.398451 122.092325 36.398451 
Q 120.809607 36.398451 120.114653 37.315809 
Q 119.419699 38.230884 119.419699 39.935526 
Q 119.419699 41.624195 120.089642 42.546116 
Q 120.759585 43.465756 121.99228 43.465756 
Q 122.328145 43.465756 122.615774 43.41327 
Q 122.903402 43.358502 123.132076 43.244403 
L 123.132076 41.176926 
L 121.818988 41.176926 
L 121.818988 39.335364 
L 125.168703 39.335364 
L 125.168703 44.456137 
z
" clip-path="url(#p145e1f13b6)" style="fill: #ffa600"/>
   </g>
   <g id="patch_46">
    <path d="M 122.71909 29.452008 
L 119.653407 29.452008 
L 119.169351 34.408561 
L 117.197274 34.408561 
L 120.013596 7.2 
L 122.352381 7.2 
L 125.168703 34.408561 
L 123.198256 34.408561 
L 122.71909 29.452008 
z
M 120.142351 24.402155 
L 122.225256 24.402155 
L 121.185433 13.579375 
L 120.142351 24.402155 
z
" clip-path="url(#p145e1f13b6)" style="fill: #008000"/>
   </g>
   <g id="patch_47">
    <path d="M 131.110067 62.192792 
L 128.044384 62.192792 
L 127.560329 62.64 
L 125.588252 62.64 
L 128.404573 60.185092 
L 130.743359 60.185092 
L 133.55968 62.64 
L 131.589233 62.64 
L 131.110067 62.192792 
z
M 128.533329 61.737166 
L 130.616233 61.737166 
L 129.576411 60.760675 
L 128.533329 61.737166 
z
" clip-path="url(#p145e1f13b6)" style="fill: #008000"/>
   </g>
   <g id="patch_48">
    <path d="M 133.55968 59.994462 
Q 132.892884 60.088953 132.171861 60.136748 
Q 131.450837 60.185092 130.665544 60.185092 
Q 128.323723 60.185092 126.955988 59.826905 
Q 125.588252 59.468718 125.588252 58.856175 
Q 125.588252 58.241433 126.955988 57.883796 
Q 128.323723 57.525609 130.665544 57.525609 
Q 131.450837 57.525609 132.171861 57.573953 
Q 132.892884 57.621748 133.55968 57.716239 
L 133.55968 58.246378 
Q 132.886859 58.121122 132.234122 58.062889 
Q 131.581384 58.004656 130.860361 58.004656 
Q 129.566937 58.004656 128.825829 58.231545 
Q 128.086729 58.457884 128.086729 58.856175 
Q 128.086729 59.252817 128.825829 59.479706 
Q 129.566937 59.706045 130.860361 59.706045 
Q 131.581384 59.706045 132.234122 59.647812 
Q 132.886859 59.58903 133.55968 59.463774 
L 133.55968 59.994462 
z
" clip-path="url(#p145e1f13b6)" style="fill: #0000ff"/>
   </g>
   <g id="patch_49">
    <path d="M 133.55968 57.247967 
Q 132.755749 57.386788 131.891076 57.456515 
Q 131.026403 57.525609 130.104561 57.525609 
Q 128.021485 57.525609 126.804868 57.112316 
Q 125.588252 56.699024 125.588252 55.992242 
Q 125.588252 55.277221 126.826307 54.867097 
Q 128.066148 54.456974 130.222471 54.456974 
Q 131.0532 54.456974 131.814256 54.512756 
Q 132.577097 54.567904 133.2524 54.676932 
L 133.2524 55.288631 
Q 132.555659 55.148542 131.866065 55.079449 
Q 131.17647 55.009721 130.483302 55.009721 
Q 129.200585 55.009721 128.50563 55.264543 
Q 127.810676 55.518731 127.810676 55.992242 
Q 127.810676 56.461317 128.480619 56.717406 
Q 129.150562 56.972862 130.383257 56.972862 
Q 130.719122 56.972862 131.006751 56.958282 
Q 131.29438 56.943069 131.523054 56.911375 
L 131.523054 56.337075 
L 130.209965 56.337075 
L 130.209965 55.825531 
L 133.55968 55.825531 
L 133.55968 57.247967 
z
" clip-path="url(#p145e1f13b6)" style="fill: #ffa600"/>
   </g>
   <g id="patch_50">
    <path d="M 125.588252 7.2 
L 133.55968 7.2 
L 133.55968 16.416427 
L 130.69182 16.416427 
L 130.69182 54.456974 
L 128.461674 54.456974 
L 128.461674 16.416427 
L 125.588252 16.416427 
L 125.588252 7.2 
z
" clip-path="url(#p145e1f13b6)" style="fill: #ff0000"/>
   </g>
   <g id="patch_51">
    <path d="M 133.979229 61.617122 
L 141.950658 61.617122 
L 141.950658 61.816612 
L 139.082797 61.816612 
L 139.082797 62.64 
L 136.852651 62.64 
L 136.852651 61.816612 
L 133.979229 61.816612 
L 133.979229 61.617122 
z
" clip-path="url(#p145e1f13b6)" style="fill: #ff0000"/>
   </g>
   <g id="patch_52">
    <path d="M 141.950658 61.413518 
Q 141.146726 61.51532 140.282053 61.566453 
Q 139.41738 61.617122 138.495538 61.617122 
Q 136.412462 61.617122 135.195846 61.31404 
Q 133.979229 61.010959 133.979229 60.492653 
Q 133.979229 59.968304 135.217284 59.667547 
Q 136.457125 59.36679 138.613448 59.36679 
Q 139.444178 59.36679 140.205233 59.407696 
Q 140.968075 59.448138 141.643377 59.528092 
L 141.643377 59.976671 
Q 140.946637 59.873939 140.257042 59.823271 
Q 139.567447 59.772138 138.87428 59.772138 
Q 137.591562 59.772138 136.896608 59.959007 
Q 136.201654 60.145411 136.201654 60.492653 
Q 136.201654 60.836641 136.871597 61.02444 
Q 137.54154 61.211774 138.774235 61.211774 
Q 139.1101 61.211774 139.397728 61.201082 
Q 139.685357 61.189926 139.914031 61.166683 
L 139.914031 60.745531 
L 138.600943 60.745531 
L 138.600943 60.370398 
L 141.950658 60.370398 
L 141.950658 61.413518 
z
" clip-path="url(#p145e1f13b6)" style="fill: #ffa600"/>
   </g>
   <g id="patch_53">
    <path d="M 139.501045 58.323305 
L 136.435362 58.323305 
L 135.951306 59.36679 
L 133.979229 59.36679 
L 136.795551 53.638672 
L 139.134336 53.638672 
L 141.950658 59.36679 
L 139.980211 59.36679 
L 139.501045 58.323305 
z
M 136.924306 57.260178 
L 139.007211 57.260178 
L 137.967388 54.981698 
L 136.924306 57.260178 
z
" clip-path="url(#p145e1f13b6)" style="fill: #008000"/>
   </g>
   <g id="patch_54">
    <path d="M 141.950658 50.309975 
Q 141.283862 51.959934 140.562838 52.794507 
Q 139.841814 53.638672 139.056521 53.638672 
Q 136.714701 53.638672 135.346965 47.384176 
Q 133.979229 41.12968 133.979229 30.433725 
Q 133.979229 19.699399 135.346965 13.454496 
Q 136.714701 7.2 139.056521 7.2 
Q 139.841814 7.2 140.562838 8.044165 
Q 141.283862 8.878737 141.950658 10.528696 
L 141.950658 19.785734 
Q 141.277836 17.598579 140.625099 16.581744 
Q 139.972362 15.564908 139.251338 15.564908 
Q 137.957914 15.564908 137.216806 19.526729 
Q 136.477707 23.478956 136.477707 30.433725 
Q 136.477707 37.359716 137.216806 41.321536 
Q 137.957914 45.273763 139.251338 45.273763 
Q 139.972362 45.273763 140.625099 44.256928 
Q 141.277836 43.2305 141.950658 41.043345 
L 141.950658 50.309975 
z
" clip-path="url(#p145e1f13b6)" style="fill: #0000ff"/>
   </g>
   <g id="patch_55">
    <path d="M 150.341635 62.610672 
Q 149.674839 62.625209 148.953815 62.632562 
Q 148.232792 62.64 147.447499 62.64 
Q 145.105678 62.64 143.737942 62.584894 
Q 142.370207 62.529789 142.370207 62.435551 
Q 142.370207 62.340976 143.737942 62.285954 
Q 145.105678 62.230849 147.447499 62.230849 
Q 148.232792 62.230849 148.953815 62.238286 
Q 149.674839 62.245639 150.341635 62.260176 
L 150.341635 62.341736 
Q 149.668814 62.322466 149.016077 62.313507 
Q 148.363339 62.304548 147.642316 62.304548 
Q 146.348892 62.304548 145.607784 62.339454 
Q 144.868684 62.374276 144.868684 62.435551 
Q 144.868684 62.496573 145.607784 62.531479 
Q 146.348892 62.5663 147.642316 62.5663 
Q 148.363339 62.5663 149.016077 62.557341 
Q 149.668814 62.548298 150.341635 62.529028 
L 150.341635 62.610672 
z
" clip-path="url(#p145e1f13b6)" style="fill: #0000ff"/>
   </g>
   <g id="patch_56">
    <path d="M 142.370207 61.003395 
L 150.341635 61.003395 
L 150.341635 61.242783 
L 147.473775 61.242783 
L 147.473775 62.230849 
L 145.243629 62.230849 
L 145.243629 61.242783 
L 142.370207 61.242783 
L 142.370207 61.003395 
z
" clip-path="url(#p145e1f13b6)" style="fill: #ff0000"/>
   </g>
   <g id="patch_57">
    <path d="M 150.341635 60.633206 
Q 149.537704 60.818301 148.673031 60.91127 
Q 147.808358 61.003395 146.886516 61.003395 
Q 144.80344 61.003395 143.586823 60.452338 
Q 142.370207 59.901281 142.370207 58.958906 
Q 142.370207 58.005544 143.608261 57.458713 
Q 144.848103 56.911882 147.004426 56.911882 
Q 147.835155 56.911882 148.59621 56.986258 
Q 149.359052 57.059788 150.034355 57.205159 
L 150.034355 58.020757 
Q 149.337614 57.833973 148.648019 57.741848 
Q 147.958425 57.648878 147.265257 57.648878 
Q 145.982539 57.648878 145.287585 57.98864 
Q 144.592631 58.327557 144.592631 58.958906 
Q 144.592631 59.584339 145.262574 59.925791 
Q 145.932517 60.266398 147.165212 60.266398 
Q 147.501077 60.266398 147.788706 60.246959 
Q 148.076335 60.226675 148.305009 60.184416 
L 148.305009 59.418684 
L 146.99192 59.418684 
L 146.99192 58.736624 
L 150.341635 58.736624 
L 150.341635 60.633206 
z
" clip-path="url(#p145e1f13b6)" style="fill: #ffa600"/>
   </g>
   <g id="patch_58">
    <path d="M 147.892022 47.855924 
L 144.826339 47.855924 
L 144.342284 56.911882 
L 142.370207 56.911882 
L 145.186528 7.2 
L 147.525314 7.2 
L 150.341635 56.911882 
L 148.371188 56.911882 
L 147.892022 47.855924 
z
M 145.315284 38.629501 
L 147.398188 38.629501 
L 146.358366 18.855551 
L 145.315284 38.629501 
z
" clip-path="url(#p145e1f13b6)" style="fill: #008000"/>
   </g>
   <g id="patch_59">
    <path d="M 158.732613 62.473415 
Q 157.928681 62.556708 157.064008 62.598544 
Q 156.199335 62.64 155.277493 62.64 
Q 153.194417 62.64 151.977801 62.392024 
Q 150.761184 62.144049 150.761184 61.71998 
Q 150.761184 61.290967 151.999239 61.044893 
Q 153.23908 60.798819 155.395403 60.798819 
Q 156.226133 60.798819 156.987188 60.832288 
Q 157.75003 60.865377 158.425332 60.930794 
L 158.425332 61.297813 
Q 157.728592 61.21376 157.038997 61.172304 
Q 156.349402 61.130468 155.656234 61.130468 
Q 154.373517 61.130468 153.678563 61.28336 
Q 152.983608 61.435873 152.983608 61.71998 
Q 152.983608 62.001425 153.653552 62.155078 
Q 154.323495 62.308352 155.55619 62.308352 
Q 155.892054 62.308352 156.179683 62.299604 
Q 156.467312 62.290476 156.695986 62.27146 
L 156.695986 61.92688 
L 155.382898 61.92688 
L 155.382898 61.619953 
L 158.732613 61.619953 
L 158.732613 62.473415 
z
" clip-path="url(#p145e1f13b6)" style="fill: #ffa600"/>
   </g>
   <g id="patch_60">
    <path d="M 150.761184 58.753063 
L 158.732613 58.753063 
L 158.732613 59.152042 
L 155.864752 59.152042 
L 155.864752 60.798819 
L 153.634606 60.798819 
L 153.634606 59.152042 
L 150.761184 59.152042 
L 150.761184 58.753063 
z
" clip-path="url(#p145e1f13b6)" style="fill: #ff0000"/>
   </g>
   <g id="patch_61">
    <path d="M 156.283 58.007716 
L 153.217316 58.007716 
L 152.733261 58.753063 
L 150.761184 58.753063 
L 153.577506 54.66155 
L 155.916291 54.66155 
L 158.732613 58.753063 
L 156.762166 58.753063 
L 156.283 58.007716 
z
M 153.706261 57.24834 
L 155.789166 57.24834 
L 154.749343 55.620854 
L 153.706261 57.24834 
z
" clip-path="url(#p145e1f13b6)" style="fill: #008000"/>
   </g>
   <g id="patch_62">
    <path d="M 158.732613 51.259534 
Q 158.065817 52.945836 157.344793 53.798791 
Q 156.623769 54.66155 155.838476 54.66155 
Q 153.496656 54.66155 152.12892 48.26929 
Q 150.761184 41.87703 150.761184 30.945481 
Q 150.761184 19.974716 152.12892 13.59226 
Q 153.496656 7.2 155.838476 7.2 
Q 156.623769 7.2 157.344793 8.062759 
Q 158.065817 8.915714 158.732613 10.602016 
L 158.732613 20.062953 
Q 158.059791 17.827622 157.407054 16.78839 
Q 156.754317 15.749157 156.033293 15.749157 
Q 154.739869 15.749157 153.998761 19.798242 
Q 153.259662 23.837523 153.259662 30.945481 
Q 153.259662 38.024027 153.998761 42.073111 
Q 154.739869 46.112392 156.033293 46.112392 
Q 156.754317 46.112392 157.407054 45.07316 
Q 158.059791 44.024123 158.732613 41.788793 
L 158.732613 51.259534 
z
" clip-path="url(#p145e1f13b6)" style="fill: #0000ff"/>
   </g>
   <g id="patch_63">
    <path d="M 159.152162 60.185092 
L 167.12359 60.185092 
L 167.12359 60.663868 
L 164.25573 60.663868 
L 164.25573 62.64 
L 162.025584 62.64 
L 162.025584 60.663868 
L 159.152162 60.663868 
L 159.152162 60.185092 
z
" clip-path="url(#p145e1f13b6)" style="fill: #ff0000"/>
   </g>
   <g id="patch_64">
    <path d="M 167.12359 59.979798 
Q 166.456794 60.081558 165.73577 60.133029 
Q 165.014747 60.185092 164.229454 60.185092 
Q 161.887633 60.185092 160.519897 59.799352 
Q 159.152162 59.413613 159.152162 58.75395 
Q 159.152162 58.091921 160.519897 57.706773 
Q 161.887633 57.321033 164.229454 57.321033 
Q 165.014747 57.321033 165.73577 57.373096 
Q 166.456794 57.424568 167.12359 57.526327 
L 167.12359 58.097246 
Q 166.450769 57.962355 165.798031 57.899643 
Q 165.145294 57.836931 164.42427 57.836931 
Q 163.130846 57.836931 162.389739 58.081272 
Q 161.650639 58.325022 161.650639 58.75395 
Q 161.650639 59.181104 162.389739 59.425445 
Q 163.130846 59.669195 164.42427 59.669195 
Q 165.145294 59.669195 165.798031 59.606483 
Q 166.450769 59.543179 167.12359 59.408288 
L 167.12359 59.979798 
z
" clip-path="url(#p145e1f13b6)" style="fill: #0000ff"/>
   </g>
   <g id="patch_65">
    <path d="M 167.12359 56.636184 
Q 166.319659 56.978609 165.454985 57.150603 
Q 164.590312 57.321033 163.668471 57.321033 
Q 161.585395 57.321033 160.368778 56.301578 
Q 159.152162 55.282123 159.152162 53.538729 
Q 159.152162 51.775009 160.390216 50.763372 
Q 161.630058 49.751734 163.786381 49.751734 
Q 164.61711 49.751734 165.378165 49.88933 
Q 166.141007 50.025361 166.81631 50.294297 
L 166.81631 51.803153 
Q 166.119569 51.457602 165.429974 51.287172 
Q 164.74038 51.115178 164.047212 51.115178 
Q 162.764494 51.115178 162.06954 51.743737 
Q 161.374586 52.370734 161.374586 53.538729 
Q 161.374586 54.69578 162.044529 55.327467 
Q 162.714472 55.95759 163.947167 55.95759 
Q 164.283032 55.95759 164.570661 55.921628 
Q 164.85829 55.884102 165.086963 55.805923 
L 165.086963 54.389318 
L 163.773875 54.389318 
L 163.773875 53.127507 
L 167.12359 53.127507 
L 167.12359 56.636184 
z
" clip-path="url(#p145e1f13b6)" style="fill: #ffa600"/>
   </g>
   <g id="patch_66">
    <path d="M 164.673977 42.000132 
L 161.608294 42.000132 
L 161.124239 49.751734 
L 159.152162 49.751734 
L 161.968483 7.2 
L 164.307269 7.2 
L 167.12359 49.751734 
L 165.153143 49.751734 
L 164.673977 42.000132 
z
M 162.097239 34.102618 
L 164.180143 34.102618 
L 163.140321 17.176768 
L 162.097239 34.102618 
z
" clip-path="url(#p145e1f13b6)" style="fill: #008000"/>
   </g>
   <g id="patch_67">
    <path d="M 175.514568 62.269811 
Q 174.710636 62.454906 173.845963 62.547875 
Q 172.98129 62.64 172.059448 62.64 
Q 169.976372 62.64 168.759756 62.088943 
Q 167.543139 61.537886 167.543139 60.595511 
Q 167.543139 59.642149 168.781194 59.095318 
Q 170.021035 58.548487 172.177358 58.548487 
Q 173.008088 58.548487 173.769143 58.622863 
Q 174.531985 58.696393 175.207287 58.841764 
L 175.207287 59.657362 
Q 174.510546 59.470578 173.820952 59.378453 
Q 173.131357 59.285483 172.438189 59.285483 
Q 171.155472 59.285483 170.460518 59.625245 
Q 169.765563 59.964162 169.765563 60.595511 
Q 169.765563 61.220944 170.435506 61.562396 
Q 171.105449 61.903004 172.338145 61.903004 
Q 172.674009 61.903004 172.961638 61.883565 
Q 173.249267 61.86328 173.477941 61.821021 
L 173.477941 61.055289 
L 172.164853 61.055289 
L 172.164853 60.373229 
L 175.514568 60.373229 
L 175.514568 62.269811 
z
" clip-path="url(#p145e1f13b6)" style="fill: #ffa600"/>
   </g>
   <g id="patch_68">
    <path d="M 175.514568 57.829958 
Q 174.847771 58.186116 174.126748 58.366266 
Q 173.405724 58.548487 172.620431 58.548487 
Q 170.27861 58.548487 168.910875 57.198398 
Q 167.543139 55.848308 167.543139 53.53949 
Q 167.543139 51.222389 168.910875 49.87437 
Q 170.27861 48.52428 172.620431 48.52428 
Q 173.405724 48.52428 174.126748 48.706501 
Q 174.847771 48.886651 175.514568 49.24281 
L 175.514568 51.241025 
Q 174.841746 50.768908 174.189009 50.549415 
Q 173.536272 50.329921 172.815248 50.329921 
Q 171.521824 50.329921 170.780716 51.185116 
Q 170.041617 52.03824 170.041617 53.53949 
Q 170.041617 55.034527 170.780716 55.889722 
Q 171.521824 56.742846 172.815248 56.742846 
Q 173.536272 56.742846 174.189009 56.523353 
Q 174.841746 56.301789 175.514568 55.829672 
L 175.514568 57.829958 
z
" clip-path="url(#p145e1f13b6)" style="fill: #0000ff"/>
   </g>
   <g id="patch_69">
    <path d="M 173.064955 44.946618 
L 169.999271 44.946618 
L 169.515216 48.52428 
L 167.543139 48.52428 
L 170.359461 28.885018 
L 172.698246 28.885018 
L 175.514568 48.52428 
L 173.54412 48.52428 
L 173.064955 44.946618 
z
M 170.488216 41.301611 
L 172.571121 41.301611 
L 171.531298 33.48968 
L 170.488216 41.301611 
z
" clip-path="url(#p145e1f13b6)" style="fill: #008000"/>
   </g>
   <g id="patch_70">
    <path d="M 167.543139 7.2 
L 175.514568 7.2 
L 175.514568 11.429183 
L 172.646707 11.429183 
L 172.646707 28.885018 
L 170.416561 28.885018 
L 170.416561 11.429183 
L 167.543139 11.429183 
L 167.543139 7.2 
z
" clip-path="url(#p145e1f13b6)" style="fill: #ff0000"/>
   </g>
   <g id="patch_71">
    <path d="M 183.905545 62.244076 
Q 183.238749 62.440326 182.517725 62.539593 
Q 181.796702 62.64 181.011408 62.64 
Q 178.669588 62.64 177.301852 61.896073 
Q 175.934117 61.152146 175.934117 59.87994 
Q 175.934117 58.60317 177.301852 57.860384 
Q 178.669588 57.116458 181.011408 57.116458 
Q 181.796702 57.116458 182.517725 57.216865 
Q 183.238749 57.316131 183.905545 57.512382 
L 183.905545 58.613439 
Q 183.232724 58.353293 182.579986 58.232348 
Q 181.927249 58.111403 181.206225 58.111403 
Q 179.912801 58.111403 179.171693 58.582632 
Q 178.432594 59.052721 178.432594 59.87994 
Q 178.432594 60.703737 179.171693 61.174966 
Q 179.912801 61.645055 181.206225 61.645055 
Q 181.927249 61.645055 182.579986 61.52411 
Q 183.232724 61.402024 183.905545 61.141877 
L 183.905545 62.244076 
z
" clip-path="url(#p145e1f13b6)" style="fill: #0000ff"/>
   </g>
   <g id="patch_72">
    <path d="M 181.455932 53.762399 
L 178.390249 53.762399 
L 177.906194 57.116458 
L 175.934117 57.116458 
L 178.750438 38.704649 
L 181.089224 38.704649 
L 183.905545 57.116458 
L 181.935098 57.116458 
L 181.455932 53.762399 
z
M 178.879194 50.345205 
L 180.962098 50.345205 
L 179.922276 43.02152 
L 178.879194 50.345205 
z
" clip-path="url(#p145e1f13b6)" style="fill: #008000"/>
   </g>
   <g id="patch_73">
    <path d="M 175.934117 7.2 
L 183.905545 7.2 
L 183.905545 13.344284 
L 181.037685 13.344284 
L 181.037685 38.704649 
L 178.807538 38.704649 
L 178.807538 13.344284 
L 175.934117 13.344284 
L 175.934117 7.2 
z
" clip-path="url(#p145e1f13b6)" style="fill: #ff0000"/>
   </g>
   <g id="patch_74">
    <path d="M 192.296523 62.332059 
Q 191.629726 62.484698 190.908703 62.561905 
Q 190.187679 62.64 189.402386 62.64 
Q 187.060565 62.64 185.69283 62.06139 
Q 184.325094 61.482781 184.325094 60.493287 
Q 184.325094 59.500243 185.69283 58.922521 
Q 187.060565 58.343911 189.402386 58.343911 
Q 190.187679 58.343911 190.908703 58.422006 
Q 191.629726 58.499213 192.296523 58.651853 
L 192.296523 59.50823 
Q 191.623701 59.305895 190.970964 59.211826 
Q 190.318226 59.117758 189.597203 59.117758 
Q 188.303779 59.117758 187.562671 59.48427 
Q 186.823571 59.849894 186.823571 60.493287 
Q 186.823571 61.134017 187.562671 61.500529 
Q 188.303779 61.866154 189.597203 61.866154 
Q 190.318226 61.866154 190.970964 61.772085 
Q 191.623701 61.67713 192.296523 61.474794 
L 192.296523 62.332059 
z
" clip-path="url(#p145e1f13b6)" style="fill: #0000ff"/>
   </g>
   <g id="patch_75">
    <path d="M 192.296523 57.936704 
Q 191.492591 58.140308 190.627918 58.242574 
Q 189.763245 58.343911 188.841403 58.343911 
Q 186.758327 58.343911 185.54171 57.737749 
Q 184.325094 57.131586 184.325094 56.094974 
Q 184.325094 55.046275 185.563149 54.444761 
Q 186.80299 53.843247 188.959313 53.843247 
Q 189.790042 53.843247 190.551098 53.925061 
Q 191.313939 54.005944 191.989242 54.165852 
L 191.989242 55.06301 
Q 191.292501 54.857547 190.602907 54.75621 
Q 189.913312 54.653943 189.220144 54.653943 
Q 187.937427 54.653943 187.242472 55.027681 
Q 186.547518 55.40049 186.547518 56.094974 
Q 186.547518 56.78295 187.217461 57.158547 
Q 187.887404 57.533215 189.120099 57.533215 
Q 189.455964 57.533215 189.743593 57.511832 
Q 190.031222 57.48952 190.259896 57.443035 
L 190.259896 56.600729 
L 188.946808 56.600729 
L 188.946808 55.850464 
L 192.296523 55.850464 
L 192.296523 57.936704 
z
" clip-path="url(#p145e1f13b6)" style="fill: #ffa600"/>
   </g>
   <g id="patch_76">
    <path d="M 189.84691 50.563723 
L 186.781226 50.563723 
L 186.297171 53.843247 
L 184.325094 53.843247 
L 187.141416 35.84059 
L 189.480201 35.84059 
L 192.296523 53.843247 
L 190.326075 53.843247 
L 189.84691 50.563723 
z
M 187.270171 47.222467 
L 189.353075 47.222467 
L 188.313253 40.061531 
L 187.270171 47.222467 
z
" clip-path="url(#p145e1f13b6)" style="fill: #008000"/>
   </g>
   <g id="patch_77">
    <path d="M 184.325094 7.2 
L 192.296523 7.2 
L 192.296523 12.785713 
L 189.428662 12.785713 
L 189.428662 35.84059 
L 187.198516 35.84059 
L 187.198516 12.785713 
L 184.325094 12.785713 
L 184.325094 7.2 
z
" clip-path="url(#p145e1f13b6)" style="fill: #ff0000"/>
   </g>
   <g id="patch_78">
    <path d="M 200.6875 62.436396 
Q 199.883568 62.538198 199.018895 62.589332 
Q 198.154222 62.64 197.232381 62.64 
Q 195.149304 62.64 193.932688 62.336919 
Q 192.716071 62.033837 192.716071 61.515531 
Q 192.716071 60.991182 193.954126 60.690425 
Q 195.193967 60.389668 197.350291 60.389668 
Q 198.18102 60.389668 198.942075 60.430575 
Q 199.704917 60.471016 200.380219 60.55097 
L 200.380219 60.999549 
Q 199.683479 60.896818 198.993884 60.846149 
Q 198.304289 60.795016 197.611122 60.795016 
Q 196.328404 60.795016 195.63345 60.981885 
Q 194.938496 61.168289 194.938496 61.515531 
Q 194.938496 61.859519 195.608439 62.047318 
Q 196.278382 62.234652 197.511077 62.234652 
Q 197.846942 62.234652 198.134571 62.22396 
Q 198.422199 62.212804 198.650873 62.189562 
L 198.650873 61.768409 
L 197.337785 61.768409 
L 197.337785 61.393276 
L 200.6875 61.393276 
L 200.6875 62.436396 
z
" clip-path="url(#p145e1f13b6)" style="fill: #ffa600"/>
   </g>
   <g id="patch_79">
    <path d="M 200.6875 59.744458 
Q 200.020704 60.064274 199.29968 60.226041 
Q 198.578656 60.389668 197.793363 60.389668 
Q 195.451543 60.389668 194.083807 59.177343 
Q 192.716071 57.965018 192.716071 55.891793 
Q 192.716071 53.81113 194.083807 52.600665 
Q 195.451543 51.388339 197.793363 51.388339 
Q 198.578656 51.388339 199.29968 51.551966 
Q 200.020704 51.713734 200.6875 52.033549 
L 200.6875 53.827865 
Q 200.014678 53.403923 199.361941 53.206827 
Q 198.709204 53.009731 197.98818 53.009731 
Q 196.694756 53.009731 195.953648 53.777661 
Q 195.214549 54.543732 195.214549 55.891793 
Q 195.214549 57.234276 195.953648 58.002205 
Q 196.694756 58.768276 197.98818 58.768276 
Q 198.709204 58.768276 199.361941 58.57118 
Q 200.014678 58.372225 200.6875 57.948283 
L 200.6875 59.744458 
z
" clip-path="url(#p145e1f13b6)" style="fill: #0000ff"/>
   </g>
   <g id="patch_80">
    <path d="M 198.237887 49.226835 
L 195.172204 49.226835 
L 194.688148 51.388339 
L 192.716071 51.388339 
L 195.532393 39.522952 
L 197.871178 39.522952 
L 200.6875 51.388339 
L 198.717053 51.388339 
L 198.237887 49.226835 
z
M 195.661148 47.024644 
L 197.744053 47.024644 
L 196.70423 42.304935 
L 195.661148 47.024644 
z
" clip-path="url(#p145e1f13b6)" style="fill: #008000"/>
   </g>
   <g id="patch_81">
    <path d="M 192.716071 7.2 
L 200.6875 7.2 
L 200.6875 13.503876 
L 197.81964 13.503876 
L 197.81964 39.522952 
L 195.589493 39.522952 
L 195.589493 13.503876 
L 192.716071 13.503876 
L 192.716071 7.2 
z
" clip-path="url(#p145e1f13b6)" style="fill: #ff0000"/>
   </g>
   <g id="matplotlib.axis_1">
    <g id="xtick_1">
     <g id="line2d_2">
      <defs>
       <path id="m1c6a947734" d="M 0 0 
L 0 3.5 
" style="stroke: #000000; stroke-width: 0.8"/>
      </defs>
      <g>
       <use xlink:href="#m1c6a947734" x="37.273214" y="62.64" style="stroke: #000000; stroke-width: 0.8"/>
      </g>
     </g>
     <g id="text_1">
      <!-- 0 -->
      <g transform="translate(34.091964 77.238438) scale(0.1 -0.1)">
       <defs>
        <path id="DejaVuSans-30" d="M 2034 4250 
Q 1547 4250 1301 3770 
Q 1056 3291 1056 2328 
Q 1056 1369 1301 889 
Q 1547 409 2034 409 
Q 2525 409 2770 889 
Q 3016 1369 3016 2328 
Q 3016 3291 2770 3770 
Q 2525 4250 2034 4250 
z
M 2034 4750 
Q 2819 4750 3233 4129 
Q 3647 3509 3647 2328 
Q 3647 1150 3233 529 
Q 2819 -91 2034 -91 
Q 1250 -91 836 529 
Q 422 1150 422 2328 
Q 422 3509 836 4129 
Q 1250 4750 2034 4750 
z
" transform="scale(0.015625)"/>
       </defs>
       <use xlink:href="#DejaVuSans-30"/>
      </g>
     </g>
    </g>
    <g id="xtick_2">
     <g id="line2d_3">
      <g>
       <use xlink:href="#m1c6a947734" x="79.228102" y="62.64" style="stroke: #000000; stroke-width: 0.8"/>
      </g>
     </g>
     <g id="text_2">
      <!-- 5 -->
      <g transform="translate(76.046852 77.238438) scale(0.1 -0.1)">
       <defs>
        <path id="DejaVuSans-35" d="M 691 4666 
L 3169 4666 
L 3169 4134 
L 1269 4134 
L 1269 2991 
Q 1406 3038 1543 3061 
Q 1681 3084 1819 3084 
Q 2600 3084 3056 2656 
Q 3513 2228 3513 1497 
Q 3513 744 3044 326 
Q 2575 -91 1722 -91 
Q 1428 -91 1123 -41 
Q 819 9 494 109 
L 494 744 
Q 775 591 1075 516 
Q 1375 441 1709 441 
Q 2250 441 2565 725 
Q 2881 1009 2881 1497 
Q 2881 1984 2565 2268 
Q 2250 2553 1709 2553 
Q 1456 2553 1204 2497 
Q 953 2441 691 2322 
L 691 4666 
z
" transform="scale(0.015625)"/>
       </defs>
       <use xlink:href="#DejaVuSans-35"/>
      </g>
     </g>
    </g>
    <g id="xtick_3">
     <g id="line2d_4">
      <g>
       <use xlink:href="#m1c6a947734" x="121.182989" y="62.64" style="stroke: #000000; stroke-width: 0.8"/>
      </g>
     </g>
     <g id="text_3">
      <!-- 10 -->
      <g transform="translate(114.820489 77.238438) scale(0.1 -0.1)">
       <defs>
        <path id="DejaVuSans-31" d="M 794 531 
L 1825 531 
L 1825 4091 
L 703 3866 
L 703 4441 
L 1819 4666 
L 2450 4666 
L 2450 531 
L 3481 531 
L 3481 0 
L 794 0 
L 794 531 
z
" transform="scale(0.015625)"/>
       </defs>
       <use xlink:href="#DejaVuSans-31"/>
       <use xlink:href="#DejaVuSans-30" x="63.623047"/>
      </g>
     </g>
    </g>
    <g id="xtick_4">
     <g id="line2d_5">
      <g>
       <use xlink:href="#m1c6a947734" x="163.137876" y="62.64" style="stroke: #000000; stroke-width: 0.8"/>
      </g>
     </g>
     <g id="text_4">
      <!-- 15 -->
      <g transform="translate(156.775376 77.238438) scale(0.1 -0.1)">
       <use xlink:href="#DejaVuSans-31"/>
       <use xlink:href="#DejaVuSans-35" x="63.623047"/>
      </g>
     </g>
    </g>
   </g>
   <g id="matplotlib.axis_2">
    <g id="ytick_1">
     <g id="line2d_6">
      <defs>
       <path id="m3eb98afaa2" d="M 0 0 
L -3.5 0 
" style="stroke: #000000; stroke-width: 0.8"/>
      </defs>
      <g>
       <use xlink:href="#m3eb98afaa2" x="33.2875" y="62.64" style="stroke: #000000; stroke-width: 0.8"/>
      </g>
     </g>
     <g id="text_5">
      <!-- 0 -->
      <g transform="translate(19.925 66.439219) scale(0.1 -0.1)">
       <use xlink:href="#DejaVuSans-30"/>
      </g>
     </g>
    </g>
    <g id="ytick_2">
     <g id="line2d_7">
      <g>
       <use xlink:href="#m3eb98afaa2" x="33.2875" y="21.724871" style="stroke: #000000; stroke-width: 0.8"/>
      </g>
     </g>
     <g id="text_6">
      <!-- 200 -->
      <g transform="translate(7.2 25.52409) scale(0.1 -0.1)">
       <defs>
        <path id="DejaVuSans-32" d="M 1228 531 
L 3431 531 
L 3431 0 
L 469 0 
L 469 531 
Q 828 903 1448 1529 
Q 2069 2156 2228 2338 
Q 2531 2678 2651 2914 
Q 2772 3150 2772 3378 
Q 2772 3750 2511 3984 
Q 2250 4219 1831 4219 
Q 1534 4219 1204 4116 
Q 875 4013 500 3803 
L 500 4441 
Q 881 4594 1212 4672 
Q 1544 4750 1819 4750 
Q 2544 4750 2975 4387 
Q 3406 4025 3406 3419 
Q 3406 3131 3298 2873 
Q 3191 2616 2906 2266 
Q 2828 2175 2409 1742 
Q 1991 1309 1228 531 
z
" transform="scale(0.015625)"/>
       </defs>
       <use xlink:href="#DejaVuSans-32"/>
       <use xlink:href="#DejaVuSans-30" x="63.623047"/>
       <use xlink:href="#DejaVuSans-30" x="127.246094"/>
      </g>
     </g>
    </g>
   </g>
  </g>
 </g>
 <defs>
  <clipPath id="p145e1f13b6">
   <rect x="33.2875" y="7.2" width="167.4" height="55.44"/>
  </clipPath>
 </defs>
</svg>
