<?xml version="1.0" encoding="utf-8" standalone="no"?>
<!DOCTYPE svg PUBLIC "-//W3C//DTD SVG 1.1//EN"
  "http://www.w3.org/Graphics/SVG/1.1/DTD/svg11.dtd">
<svg xmlns:xlink="http://www.w3.org/1999/xlink" width="181.8pt" height="84.958125pt" viewBox="0 0 181.8 84.958125" xmlns="http://www.w3.org/2000/svg" version="1.1">
 <metadata>
  <rdf:RDF xmlns:dc="http://purl.org/dc/elements/1.1/" xmlns:cc="http://creativecommons.org/ns#" xmlns:rdf="http://www.w3.org/1999/02/22-rdf-syntax-ns#">
   <cc:Work>
    <dc:type rdf:resource="http://purl.org/dc/dcmitype/StillImage"/>
    <dc:date>2023-09-14T17:35:28.843362</dc:date>
    <dc:format>image/svg+xml</dc:format>
    <dc:creator>
     <cc:Agent>
      <dc:title>Matplotlib v3.6.2, https://matplotlib.org/</dc:title>
     </cc:Agent>
    </dc:creator>
   </cc:Work>
  </rdf:RDF>
 </metadata>
 <defs>
  <style type="text/css">*{stroke-linejoin: round; stroke-linecap: butt}</style>
 </defs>
 <g id="figure_1">
  <g id="patch_1">
   <path d="M 0 84.958125 
L 181.8 84.958125 
L 181.8 0 
L 0 0 
z
" style="fill: #ffffff"/>
  </g>
  <g id="axes_1">
   <g id="patch_2">
    <path d="M 7.2 77.758125 
L 174.6 77.758125 
L 174.6 22.318125 
L 7.2 22.318125 
z
" style="fill: #ffffff"/>
   </g>
   <g id="line2d_1">
    <path d="M 7.2 77.758125 
L 174.6 77.758125 
" clip-path="url(#p71784537c2)" style="fill: none; stroke: #000000; stroke-width: 0.5; stroke-linecap: square"/>
   </g>
   <g id="patch_3">
    <path d="M 14.129412 72.74207 
Q 13.430569 75.250098 12.678925 76.509837 
Q 11.927281 77.758125 11.125942 77.758125 
Q 9.315163 77.758125 8.257582 70.291304 
Q 7.2 62.824483 7.2 50.055303 
Q 7.2 37.137245 8.276217 29.727685 
Q 9.353988 22.318125 11.228439 22.318125 
Q 11.950576 22.318125 12.612147 23.325917 
Q 13.275271 24.322256 13.862299 26.292031 
L 13.862299 37.343384 
Q 13.256635 34.812453 12.657184 33.564165 
Q 12.057732 32.304425 11.455174 32.304425 
Q 10.340132 32.304425 9.736022 36.908201 
Q 9.131911 41.500525 9.131911 50.055303 
Q 9.131911 58.529916 9.71428 63.156596 
Q 10.296649 67.771825 11.368207 67.771825 
Q 11.660168 67.771825 11.910199 67.508425 
Q 12.160229 67.233572 12.359011 66.660963 
L 12.359011 56.285289 
L 11.217568 56.285289 
L 11.217568 47.04338 
L 14.129412 47.04338 
L 14.129412 72.74207 
z
" clip-path="url(#p71784537c2)" style="fill: #ffa600"/>
   </g>
   <g id="patch_4">
    <path d="M 14.494118 77.592985 
L 21.423529 77.592985 
L 21.423529 77.625192 
L 18.930553 77.625192 
L 18.930553 77.758125 
L 16.991929 77.758125 
L 16.991929 77.625192 
L 14.494118 77.625192 
L 14.494118 77.592985 
z
" clip-path="url(#p71784537c2)" style="fill: #ff0000"/>
   </g>
   <g id="patch_5">
    <path d="M 21.423529 73.630916 
Q 20.843896 75.594823 20.217124 76.588195 
Q 19.590352 77.592985 18.907711 77.592985 
Q 16.872011 77.592985 15.683064 70.148405 
Q 14.494118 62.703826 14.494118 49.972682 
Q 14.494118 37.195866 15.683064 29.762704 
Q 16.872011 22.318125 18.907711 22.318125 
Q 19.590352 22.318125 20.217124 23.322915 
Q 20.843896 24.316287 21.423529 26.280194 
L 21.423529 37.298628 
Q 20.838658 34.695309 20.271246 33.484994 
Q 19.703834 32.274679 19.077062 32.274679 
Q 17.952713 32.274679 17.308482 36.99034 
Q 16.665997 41.694584 16.665997 49.972682 
Q 16.665997 58.216526 17.308482 62.932187 
Q 17.952713 67.636431 19.077062 67.636431 
Q 19.703834 67.636431 20.271246 66.426116 
Q 20.838658 65.204383 21.423529 62.601063 
L 21.423529 73.630916 
z
" clip-path="url(#p71784537c2)" style="fill: #0000ff"/>
   </g>
   <g id="patch_6">
    <path d="M 26.588245 67.658682 
L 23.923305 67.658682 
L 23.502524 77.758125 
L 21.788235 77.758125 
L 24.23641 22.318125 
L 26.269472 22.318125 
L 28.717647 77.758125 
L 27.004775 77.758125 
L 26.588245 67.658682 
z
M 24.348335 57.369132 
L 26.158964 57.369132 
L 25.255066 35.316702 
L 24.348335 57.369132 
z
" clip-path="url(#p71784537c2)" style="fill: #008000"/>
   </g>
   <g id="patch_7">
    <path d="M 29.082353 22.318125 
L 36.011765 22.318125 
L 36.011765 33.13047 
L 33.518788 33.13047 
L 33.518788 77.758125 
L 31.580164 77.758125 
L 31.580164 33.13047 
L 29.082353 33.13047 
L 29.082353 22.318125 
z
" clip-path="url(#p71784537c2)" style="fill: #ff0000"/>
   </g>
   <g id="patch_8">
    <path d="M 36.376471 22.318125 
L 43.305882 22.318125 
L 43.305882 33.13047 
L 40.812906 33.13047 
L 40.812906 77.758125 
L 38.874282 77.758125 
L 38.874282 33.13047 
L 36.376471 33.13047 
L 36.376471 22.318125 
z
" clip-path="url(#p71784537c2)" style="fill: #ff0000"/>
   </g>
   <g id="patch_9">
    <path d="M 50.6 72.74207 
Q 49.901157 75.250098 49.149514 76.509837 
Q 48.39787 77.758125 47.59653 77.758125 
Q 45.785752 77.758125 44.72817 70.291304 
Q 43.670588 62.824483 43.670588 50.055303 
Q 43.670588 37.137245 44.746806 29.727685 
Q 45.824576 22.318125 47.699027 22.318125 
Q 48.421164 22.318125 49.082735 23.325917 
Q 49.745859 24.322256 50.332887 26.292031 
L 50.332887 37.343384 
Q 49.727223 34.812453 49.127772 33.564165 
Q 48.52832 32.304425 47.925763 32.304425 
Q 46.810721 32.304425 46.20661 36.908201 
Q 45.6025 41.500525 45.6025 50.055303 
Q 45.6025 58.529916 46.184868 63.156596 
Q 46.767237 67.771825 47.838796 67.771825 
Q 48.130756 67.771825 48.380787 67.508425 
Q 48.630817 67.233572 48.829599 66.660963 
L 48.829599 56.285289 
L 47.688156 56.285289 
L 47.688156 47.04338 
L 50.6 47.04338 
L 50.6 72.74207 
z
" clip-path="url(#p71784537c2)" style="fill: #ffa600"/>
   </g>
   <g id="patch_10">
    <path d="M 55.764716 67.658682 
L 53.099775 67.658682 
L 52.678995 77.758125 
L 50.964706 77.758125 
L 53.412881 22.318125 
L 55.445943 22.318125 
L 57.894118 77.758125 
L 56.181245 77.758125 
L 55.764716 67.658682 
z
M 53.524805 57.369132 
L 55.335435 57.369132 
L 54.431537 35.316702 
L 53.524805 57.369132 
z
" clip-path="url(#p71784537c2)" style="fill: #008000"/>
   </g>
   <g id="patch_11">
    <path d="M 63.058833 67.658682 
L 60.393893 67.658682 
L 59.973113 77.758125 
L 58.258824 77.758125 
L 60.706998 22.318125 
L 62.74006 22.318125 
L 65.188235 77.758125 
L 63.475363 77.758125 
L 63.058833 67.658682 
z
M 60.818923 57.369132 
L 62.629552 57.369132 
L 61.725655 35.316702 
L 60.818923 57.369132 
z
" clip-path="url(#p71784537c2)" style="fill: #008000"/>
   </g>
   <g id="patch_12">
    <path d="M 72.482353 73.784219 
Q 71.90272 75.753994 71.275947 76.750333 
Q 70.649175 77.758125 69.966535 77.758125 
Q 67.930835 77.758125 66.741888 70.291304 
Q 65.552941 62.824483 65.552941 50.055303 
Q 65.552941 37.240315 66.741888 29.784946 
Q 67.930835 22.318125 69.966535 22.318125 
Q 70.649175 22.318125 71.275947 23.325917 
Q 71.90272 24.322256 72.482353 26.292031 
L 72.482353 37.343384 
Q 71.897482 34.732287 71.33007 33.518356 
Q 70.762658 32.304425 70.135885 32.304425 
Q 69.011536 32.304425 68.367305 37.034175 
Q 67.72482 41.752473 67.72482 50.055303 
Q 67.72482 58.323777 68.367305 63.053527 
Q 69.011536 67.771825 70.135885 67.771825 
Q 70.762658 67.771825 71.33007 66.557894 
Q 71.897482 65.33251 72.482353 62.721414 
L 72.482353 73.784219 
z
" clip-path="url(#p71784537c2)" style="fill: #0000ff"/>
   </g>
   <g id="patch_13">
    <path d="M 72.847059 22.318125 
L 79.776471 22.318125 
L 79.776471 33.13047 
L 77.283494 33.13047 
L 77.283494 77.758125 
L 75.34487 77.758125 
L 75.34487 33.13047 
L 72.847059 33.13047 
L 72.847059 22.318125 
z
" clip-path="url(#p71784537c2)" style="fill: #ff0000"/>
   </g>
   <g id="patch_14">
    <path d="M 80.141176 22.318125 
L 87.070588 22.318125 
L 87.070588 33.13047 
L 84.577611 33.13047 
L 84.577611 77.758125 
L 82.638988 77.758125 
L 82.638988 33.13047 
L 80.141176 33.13047 
L 80.141176 22.318125 
z
" clip-path="url(#p71784537c2)" style="fill: #ff0000"/>
   </g>
   <g id="patch_15">
    <path d="M 94.364706 72.74207 
Q 93.665863 75.250098 92.914219 76.509837 
Q 92.162575 77.758125 91.361236 77.758125 
Q 89.550457 77.758125 88.492876 70.291304 
Q 87.435294 62.824483 87.435294 50.055303 
Q 87.435294 37.137245 88.511512 29.727685 
Q 89.589282 22.318125 91.463733 22.318125 
Q 92.18587 22.318125 92.847441 23.325917 
Q 93.510565 24.322256 94.097593 26.292031 
L 94.097593 37.343384 
Q 93.491929 34.812453 92.892478 33.564165 
Q 92.293026 32.304425 91.690469 32.304425 
Q 90.575426 32.304425 89.971316 36.908201 
Q 89.367205 41.500525 89.367205 50.055303 
Q 89.367205 58.529916 89.949574 63.156596 
Q 90.531943 67.771825 91.603501 67.771825 
Q 91.895462 67.771825 92.145493 67.508425 
Q 92.395523 67.233572 92.594305 66.660963 
L 92.594305 56.285289 
L 91.452862 56.285289 
L 91.452862 47.04338 
L 94.364706 47.04338 
L 94.364706 72.74207 
z
" clip-path="url(#p71784537c2)" style="fill: #ffa600"/>
   </g>
   <g id="patch_16">
    <path d="M 94.729412 22.318125 
L 101.658824 22.318125 
L 101.658824 33.13047 
L 99.165847 33.13047 
L 99.165847 77.758125 
L 97.227223 77.758125 
L 97.227223 33.13047 
L 94.729412 33.13047 
L 94.729412 22.318125 
z
" clip-path="url(#p71784537c2)" style="fill: #ff0000"/>
   </g>
   <g id="patch_17">
    <path d="M 108.952941 72.74207 
Q 108.254099 75.250098 107.502455 76.509837 
Q 106.750811 77.758125 105.949471 77.758125 
Q 104.138693 77.758125 103.081111 70.291304 
Q 102.023529 62.824483 102.023529 50.055303 
Q 102.023529 37.137245 103.099747 29.727685 
Q 104.177517 22.318125 106.051968 22.318125 
Q 106.774106 22.318125 107.435676 23.325917 
Q 108.0988 24.322256 108.685828 26.292031 
L 108.685828 37.343384 
Q 108.080165 34.812453 107.480713 33.564165 
Q 106.881261 32.304425 106.278704 32.304425 
Q 105.163662 32.304425 104.559551 36.908201 
Q 103.955441 41.500525 103.955441 50.055303 
Q 103.955441 58.529916 104.537809 63.156596 
Q 105.120178 67.771825 106.191737 67.771825 
Q 106.483698 67.771825 106.733728 67.508425 
Q 106.983758 67.233572 107.18254 66.660963 
L 107.18254 56.285289 
L 106.041097 56.285289 
L 106.041097 47.04338 
L 108.952941 47.04338 
L 108.952941 72.74207 
z
" clip-path="url(#p71784537c2)" style="fill: #ffa600"/>
   </g>
   <g id="patch_18">
    <path d="M 116.247059 72.74207 
Q 115.548216 75.250098 114.796572 76.509837 
Q 114.044928 77.758125 113.243589 77.758125 
Q 111.43281 77.758125 110.375229 70.291304 
Q 109.317647 62.824483 109.317647 50.055303 
Q 109.317647 37.137245 110.393865 29.727685 
Q 111.471635 22.318125 113.346086 22.318125 
Q 114.068223 22.318125 114.729794 23.325917 
Q 115.392918 24.322256 115.979946 26.292031 
L 115.979946 37.343384 
Q 115.374282 34.812453 114.774831 33.564165 
Q 114.175379 32.304425 113.572821 32.304425 
Q 112.457779 32.304425 111.853669 36.908201 
Q 111.249558 41.500525 111.249558 50.055303 
Q 111.249558 58.529916 111.831927 63.156596 
Q 112.414296 67.771825 113.485854 67.771825 
Q 113.777815 67.771825 114.027846 67.508425 
Q 114.277876 67.233572 114.476658 66.660963 
L 114.476658 56.285289 
L 113.335215 56.285289 
L 113.335215 47.04338 
L 116.247059 47.04338 
L 116.247059 72.74207 
z
" clip-path="url(#p71784537c2)" style="fill: #ffa600"/>
   </g>
   <g id="patch_19">
    <path d="M 121.411774 67.658682 
L 118.746834 67.658682 
L 118.326054 77.758125 
L 116.611765 77.758125 
L 119.05994 22.318125 
L 121.093002 22.318125 
L 123.541176 77.758125 
L 121.828304 77.758125 
L 121.411774 67.658682 
z
M 119.171864 57.369132 
L 120.982494 57.369132 
L 120.078596 35.316702 
L 119.171864 57.369132 
z
" clip-path="url(#p71784537c2)" style="fill: #008000"/>
   </g>
   <g id="patch_20">
    <path d="M 123.905882 22.318125 
L 130.835294 22.318125 
L 130.835294 33.13047 
L 128.342317 33.13047 
L 128.342317 77.758125 
L 126.403694 77.758125 
L 126.403694 33.13047 
L 123.905882 33.13047 
L 123.905882 22.318125 
z
" clip-path="url(#p71784537c2)" style="fill: #ff0000"/>
   </g>
   <g id="patch_21">
    <path d="M 136.00001 67.658682 
L 133.335069 67.658682 
L 132.914289 77.758125 
L 131.2 77.758125 
L 133.648175 22.318125 
L 135.681237 22.318125 
L 138.129412 77.758125 
L 136.416539 77.758125 
L 136.00001 67.658682 
z
M 133.7601 57.369132 
L 135.570729 57.369132 
L 134.666831 35.316702 
L 133.7601 57.369132 
z
" clip-path="url(#p71784537c2)" style="fill: #008000"/>
   </g>
   <g id="patch_22">
    <path d="M 143.294127 67.658682 
L 140.629187 67.658682 
L 140.208407 77.758125 
L 138.494118 77.758125 
L 140.942293 22.318125 
L 142.975354 22.318125 
L 145.423529 77.758125 
L 143.710657 77.758125 
L 143.294127 67.658682 
z
M 141.054217 57.369132 
L 142.864847 57.369132 
L 141.960949 35.316702 
L 141.054217 57.369132 
z
" clip-path="url(#p71784537c2)" style="fill: #008000"/>
   </g>
   <g id="patch_23">
    <path d="M 150.588245 67.658682 
L 147.923305 67.658682 
L 147.502524 77.758125 
L 145.788235 77.758125 
L 148.23641 22.318125 
L 150.269472 22.318125 
L 152.717647 77.758125 
L 151.004775 77.758125 
L 150.588245 67.658682 
z
M 148.348335 57.369132 
L 150.158964 57.369132 
L 149.255066 35.316702 
L 148.348335 57.369132 
z
" clip-path="url(#p71784537c2)" style="fill: #008000"/>
   </g>
   <g id="patch_24">
    <path d="M 157.882363 67.658682 
L 155.217422 67.658682 
L 154.796642 77.758125 
L 153.082353 77.758125 
L 155.530528 22.318125 
L 157.56359 22.318125 
L 160.011765 77.758125 
L 158.298892 77.758125 
L 157.882363 67.658682 
z
M 155.642453 57.369132 
L 157.453082 57.369132 
L 156.549184 35.316702 
L 155.642453 57.369132 
z
" clip-path="url(#p71784537c2)" style="fill: #008000"/>
   </g>
   <g id="patch_25">
    <path d="M 160.376471 22.318125 
L 167.305882 22.318125 
L 167.305882 33.13047 
L 164.812906 33.13047 
L 164.812906 77.758125 
L 162.874282 77.758125 
L 162.874282 33.13047 
L 160.376471 33.13047 
L 160.376471 22.318125 
z
" clip-path="url(#p71784537c2)" style="fill: #ff0000"/>
   </g>
   <g id="patch_26">
    <path d="M 174.6 73.784219 
Q 174.020367 75.753994 173.393594 76.750333 
Q 172.766822 77.758125 172.084182 77.758125 
Q 170.048482 77.758125 168.859535 70.291304 
Q 167.670588 62.824483 167.670588 50.055303 
Q 167.670588 37.240315 168.859535 29.784946 
Q 170.048482 22.318125 172.084182 22.318125 
Q 172.766822 22.318125 173.393594 23.325917 
Q 174.020367 24.322256 174.6 26.292031 
L 174.6 37.343384 
Q 174.015129 34.732287 173.447717 33.518356 
Q 172.880305 32.304425 172.253533 32.304425 
Q 171.129184 32.304425 170.484952 37.034175 
Q 169.842467 41.752473 169.842467 50.055303 
Q 169.842467 58.323777 170.484952 63.053527 
Q 171.129184 67.771825 172.253533 67.771825 
Q 172.880305 67.771825 173.447717 66.557894 
Q 174.015129 65.33251 174.6 62.721414 
L 174.6 73.784219 
z
" clip-path="url(#p71784537c2)" style="fill: #0000ff"/>
   </g>
   <g id="matplotlib.axis_1"/>
   <g id="matplotlib.axis_2"/>
   <g id="text_1">
    <!-- -114 upstream of rpoH -->
    <g transform="translate(22.685625 16.318125) scale(0.12 -0.12)">
     <defs>
      <path id="DejaVuSans-2d" d="M 313 2009 
L 1997 2009 
L 1997 1497 
L 313 1497 
L 313 2009 
z
" transform="scale(0.015625)"/>
      <path id="DejaVuSans-31" d="M 794 531 
L 1825 531 
L 1825 4091 
L 703 3866 
L 703 4441 
L 1819 4666 
L 2450 4666 
L 2450 531 
L 3481 531 
L 3481 0 
L 794 0 
L 794 531 
z
" transform="scale(0.015625)"/>
      <path id="DejaVuSans-34" d="M 2419 4116 
L 825 1625 
L 2419 1625 
L 2419 4116 
z
M 2253 4666 
L 3047 4666 
L 3047 1625 
L 3713 1625 
L 3713 1100 
L 3047 1100 
L 3047 0 
L 2419 0 
L 2419 1100 
L 313 1100 
L 313 1709 
L 2253 4666 
z
" transform="scale(0.015625)"/>
      <path id="DejaVuSans-20" transform="scale(0.015625)"/>
      <path id="DejaVuSans-75" d="M 544 1381 
L 544 3500 
L 1119 3500 
L 1119 1403 
Q 1119 906 1312 657 
Q 1506 409 1894 409 
Q 2359 409 2629 706 
Q 2900 1003 2900 1516 
L 2900 3500 
L 3475 3500 
L 3475 0 
L 2900 0 
L 2900 538 
Q 2691 219 2414 64 
Q 2138 -91 1772 -91 
Q 1169 -91 856 284 
Q 544 659 544 1381 
z
M 1991 3584 
L 1991 3584 
z
" transform="scale(0.015625)"/>
      <path id="DejaVuSans-70" d="M 1159 525 
L 1159 -1331 
L 581 -1331 
L 581 3500 
L 1159 3500 
L 1159 2969 
Q 1341 3281 1617 3432 
Q 1894 3584 2278 3584 
Q 2916 3584 3314 3078 
Q 3713 2572 3713 1747 
Q 3713 922 3314 415 
Q 2916 -91 2278 -91 
Q 1894 -91 1617 61 
Q 1341 213 1159 525 
z
M 3116 1747 
Q 3116 2381 2855 2742 
Q 2594 3103 2138 3103 
Q 1681 3103 1420 2742 
Q 1159 2381 1159 1747 
Q 1159 1113 1420 752 
Q 1681 391 2138 391 
Q 2594 391 2855 752 
Q 3116 1113 3116 1747 
z
" transform="scale(0.015625)"/>
      <path id="DejaVuSans-73" d="M 2834 3397 
L 2834 2853 
Q 2591 2978 2328 3040 
Q 2066 3103 1784 3103 
Q 1356 3103 1142 2972 
Q 928 2841 928 2578 
Q 928 2378 1081 2264 
Q 1234 2150 1697 2047 
L 1894 2003 
Q 2506 1872 2764 1633 
Q 3022 1394 3022 966 
Q 3022 478 2636 193 
Q 2250 -91 1575 -91 
Q 1294 -91 989 -36 
Q 684 19 347 128 
L 347 722 
Q 666 556 975 473 
Q 1284 391 1588 391 
Q 1994 391 2212 530 
Q 2431 669 2431 922 
Q 2431 1156 2273 1281 
Q 2116 1406 1581 1522 
L 1381 1569 
Q 847 1681 609 1914 
Q 372 2147 372 2553 
Q 372 3047 722 3315 
Q 1072 3584 1716 3584 
Q 2034 3584 2315 3537 
Q 2597 3491 2834 3397 
z
" transform="scale(0.015625)"/>
      <path id="DejaVuSans-74" d="M 1172 4494 
L 1172 3500 
L 2356 3500 
L 2356 3053 
L 1172 3053 
L 1172 1153 
Q 1172 725 1289 603 
Q 1406 481 1766 481 
L 2356 481 
L 2356 0 
L 1766 0 
Q 1100 0 847 248 
Q 594 497 594 1153 
L 594 3053 
L 172 3053 
L 172 3500 
L 594 3500 
L 594 4494 
L 1172 4494 
z
" transform="scale(0.015625)"/>
      <path id="DejaVuSans-72" d="M 2631 2963 
Q 2534 3019 2420 3045 
Q 2306 3072 2169 3072 
Q 1681 3072 1420 2755 
Q 1159 2438 1159 1844 
L 1159 0 
L 581 0 
L 581 3500 
L 1159 3500 
L 1159 2956 
Q 1341 3275 1631 3429 
Q 1922 3584 2338 3584 
Q 2397 3584 2469 3576 
Q 2541 3569 2628 3553 
L 2631 2963 
z
" transform="scale(0.015625)"/>
      <path id="DejaVuSans-65" d="M 3597 1894 
L 3597 1613 
L 953 1613 
Q 991 1019 1311 708 
Q 1631 397 2203 397 
Q 2534 397 2845 478 
Q 3156 559 3463 722 
L 3463 178 
Q 3153 47 2828 -22 
Q 2503 -91 2169 -91 
Q 1331 -91 842 396 
Q 353 884 353 1716 
Q 353 2575 817 3079 
Q 1281 3584 2069 3584 
Q 2775 3584 3186 3129 
Q 3597 2675 3597 1894 
z
M 3022 2063 
Q 3016 2534 2758 2815 
Q 2500 3097 2075 3097 
Q 1594 3097 1305 2825 
Q 1016 2553 972 2059 
L 3022 2063 
z
" transform="scale(0.015625)"/>
      <path id="DejaVuSans-61" d="M 2194 1759 
Q 1497 1759 1228 1600 
Q 959 1441 959 1056 
Q 959 750 1161 570 
Q 1363 391 1709 391 
Q 2188 391 2477 730 
Q 2766 1069 2766 1631 
L 2766 1759 
L 2194 1759 
z
M 3341 1997 
L 3341 0 
L 2766 0 
L 2766 531 
Q 2569 213 2275 61 
Q 1981 -91 1556 -91 
Q 1019 -91 701 211 
Q 384 513 384 1019 
Q 384 1609 779 1909 
Q 1175 2209 1959 2209 
L 2766 2209 
L 2766 2266 
Q 2766 2663 2505 2880 
Q 2244 3097 1772 3097 
Q 1472 3097 1187 3025 
Q 903 2953 641 2809 
L 641 3341 
Q 956 3463 1253 3523 
Q 1550 3584 1831 3584 
Q 2591 3584 2966 3190 
Q 3341 2797 3341 1997 
z
" transform="scale(0.015625)"/>
      <path id="DejaVuSans-6d" d="M 3328 2828 
Q 3544 3216 3844 3400 
Q 4144 3584 4550 3584 
Q 5097 3584 5394 3201 
Q 5691 2819 5691 2113 
L 5691 0 
L 5113 0 
L 5113 2094 
Q 5113 2597 4934 2840 
Q 4756 3084 4391 3084 
Q 3944 3084 3684 2787 
Q 3425 2491 3425 1978 
L 3425 0 
L 2847 0 
L 2847 2094 
Q 2847 2600 2669 2842 
Q 2491 3084 2119 3084 
Q 1678 3084 1418 2786 
Q 1159 2488 1159 1978 
L 1159 0 
L 581 0 
L 581 3500 
L 1159 3500 
L 1159 2956 
Q 1356 3278 1631 3431 
Q 1906 3584 2284 3584 
Q 2666 3584 2933 3390 
Q 3200 3197 3328 2828 
z
" transform="scale(0.015625)"/>
      <path id="DejaVuSans-6f" d="M 1959 3097 
Q 1497 3097 1228 2736 
Q 959 2375 959 1747 
Q 959 1119 1226 758 
Q 1494 397 1959 397 
Q 2419 397 2687 759 
Q 2956 1122 2956 1747 
Q 2956 2369 2687 2733 
Q 2419 3097 1959 3097 
z
M 1959 3584 
Q 2709 3584 3137 3096 
Q 3566 2609 3566 1747 
Q 3566 888 3137 398 
Q 2709 -91 1959 -91 
Q 1206 -91 779 398 
Q 353 888 353 1747 
Q 353 2609 779 3096 
Q 1206 3584 1959 3584 
z
" transform="scale(0.015625)"/>
      <path id="DejaVuSans-66" d="M 2375 4863 
L 2375 4384 
L 1825 4384 
Q 1516 4384 1395 4259 
Q 1275 4134 1275 3809 
L 1275 3500 
L 2222 3500 
L 2222 3053 
L 1275 3053 
L 1275 0 
L 697 0 
L 697 3053 
L 147 3053 
L 147 3500 
L 697 3500 
L 697 3744 
Q 697 4328 969 4595 
Q 1241 4863 1831 4863 
L 2375 4863 
z
" transform="scale(0.015625)"/>
      <path id="DejaVuSans-48" d="M 628 4666 
L 1259 4666 
L 1259 2753 
L 3553 2753 
L 3553 4666 
L 4184 4666 
L 4184 0 
L 3553 0 
L 3553 2222 
L 1259 2222 
L 1259 0 
L 628 0 
L 628 4666 
z
" transform="scale(0.015625)"/>
     </defs>
     <use xlink:href="#DejaVuSans-2d"/>
     <use xlink:href="#DejaVuSans-31" x="36.083984"/>
     <use xlink:href="#DejaVuSans-31" x="99.707031"/>
     <use xlink:href="#DejaVuSans-34" x="163.330078"/>
     <use xlink:href="#DejaVuSans-20" x="226.953125"/>
     <use xlink:href="#DejaVuSans-75" x="258.740234"/>
     <use xlink:href="#DejaVuSans-70" x="322.119141"/>
     <use xlink:href="#DejaVuSans-73" x="385.595703"/>
     <use xlink:href="#DejaVuSans-74" x="437.695312"/>
     <use xlink:href="#DejaVuSans-72" x="476.904297"/>
     <use xlink:href="#DejaVuSans-65" x="515.767578"/>
     <use xlink:href="#DejaVuSans-61" x="577.291016"/>
     <use xlink:href="#DejaVuSans-6d" x="638.570312"/>
     <use xlink:href="#DejaVuSans-20" x="735.982422"/>
     <use xlink:href="#DejaVuSans-6f" x="767.769531"/>
     <use xlink:href="#DejaVuSans-66" x="828.951172"/>
     <use xlink:href="#DejaVuSans-20" x="864.15625"/>
     <use xlink:href="#DejaVuSans-72" x="895.943359"/>
     <use xlink:href="#DejaVuSans-70" x="937.056641"/>
     <use xlink:href="#DejaVuSans-6f" x="1000.533203"/>
     <use xlink:href="#DejaVuSans-48" x="1061.714844"/>
    </g>
   </g>
  </g>
 </g>
 <defs>
  <clipPath id="p71784537c2">
   <rect x="7.2" y="22.318125" width="167.4" height="55.44"/>
  </clipPath>
 </defs>
</svg>
