<?xml version="1.0" encoding="utf-8" standalone="no"?>
<!DOCTYPE svg PUBLIC "-//W3C//DTD SVG 1.1//EN"
  "http://www.w3.org/Graphics/SVG/1.1/DTD/svg11.dtd">
<svg xmlns:xlink="http://www.w3.org/1999/xlink" width="221.804403pt" height="266.51625pt" viewBox="0 0 221.804403 266.51625" xmlns="http://www.w3.org/2000/svg" version="1.1">
 <metadata>
  <rdf:RDF xmlns:dc="http://purl.org/dc/elements/1.1/" xmlns:cc="http://creativecommons.org/ns#" xmlns:rdf="http://www.w3.org/1999/02/22-rdf-syntax-ns#">
   <cc:Work>
    <dc:type rdf:resource="http://purl.org/dc/dcmitype/StillImage"/>
    <dc:date>2023-10-17T17:11:44.188900</dc:date>
    <dc:format>image/svg+xml</dc:format>
    <dc:creator>
     <cc:Agent>
      <dc:title>Matplotlib v3.6.2, https://matplotlib.org/</dc:title>
     </cc:Agent>
    </dc:creator>
   </cc:Work>
  </rdf:RDF>
 </metadata>
 <defs>
  <style type="text/css">*{stroke-linejoin: round; stroke-linecap: butt}</style>
 </defs>
 <g id="figure_1">
  <g id="patch_1">
   <path d="M 0 266.51625 
L 221.804403 266.51625 
L 221.804403 0 
L 0 0 
z
" style="fill: #ffffff"/>
  </g>
  <g id="axes_1">
   <g id="patch_2">
    <path d="M 71.901562 228.96 
L 211.401563 228.96 
L 211.401563 7.2 
L 71.901562 7.2 
z
" style="fill: #ffffff"/>
   </g>
   <g id="patch_3">
    <path d="M 161.466903 11.04384 
L 161.466903 25.53216 
L 188.151563 25.53216 
L 188.151563 11.04384 
L 161.466903 11.04384 
z
" clip-path="url(#pb8102e6d6d)" style="fill: #3274a1; stroke: #3f3f3f; stroke-width: 1.5; stroke-linejoin: miter"/>
   </g>
   <g id="patch_4">
    <path d="M 151.559233 25.82784 
L 151.559233 40.31616 
L 179.697017 40.31616 
L 179.697017 25.82784 
L 151.559233 25.82784 
z
" clip-path="url(#pb8102e6d6d)" style="fill: #c03d3e; stroke: #3f3f3f; stroke-width: 1.5; stroke-linejoin: miter"/>
   </g>
   <g id="patch_5">
    <path d="M 149.922313 48.00384 
L 149.922313 62.49216 
L 178.065841 62.49216 
L 178.065841 48.00384 
L 149.922313 48.00384 
z
" clip-path="url(#pb8102e6d6d)" style="fill: #3274a1; stroke: #3f3f3f; stroke-width: 1.5; stroke-linejoin: miter"/>
   </g>
   <g id="patch_6">
    <path d="M 155.436147 62.78784 
L 155.436147 77.27616 
L 183.694547 77.27616 
L 183.694547 62.78784 
L 155.436147 62.78784 
z
" clip-path="url(#pb8102e6d6d)" style="fill: #c03d3e; stroke: #3f3f3f; stroke-width: 1.5; stroke-linejoin: miter"/>
   </g>
   <g id="patch_7">
    <path d="M 124.893446 84.96384 
L 124.893446 99.45216 
L 159.768446 99.45216 
L 159.768446 84.96384 
L 124.893446 84.96384 
z
" clip-path="url(#pb8102e6d6d)" style="fill: #3274a1; stroke: #3f3f3f; stroke-width: 1.5; stroke-linejoin: miter"/>
   </g>
   <g id="patch_8">
    <path d="M 171.242472 99.74784 
L 171.242472 114.23616 
L 196.002212 114.23616 
L 196.002212 99.74784 
L 171.242472 99.74784 
z
" clip-path="url(#pb8102e6d6d)" style="fill: #c03d3e; stroke: #3f3f3f; stroke-width: 1.5; stroke-linejoin: miter"/>
   </g>
   <g id="patch_9">
    <path d="M 157.503835 121.92384 
L 157.503835 136.41216 
L 181.282244 136.41216 
L 181.282244 121.92384 
L 157.503835 121.92384 
z
" clip-path="url(#pb8102e6d6d)" style="fill: #3274a1; stroke: #3f3f3f; stroke-width: 1.5; stroke-linejoin: miter"/>
   </g>
   <g id="patch_10">
    <path d="M 146.430556 136.70784 
L 146.430556 151.19616 
L 175.221081 151.19616 
L 175.221081 136.70784 
L 146.430556 136.70784 
z
" clip-path="url(#pb8102e6d6d)" style="fill: #c03d3e; stroke: #3f3f3f; stroke-width: 1.5; stroke-linejoin: miter"/>
   </g>
   <g id="patch_11">
    <path d="M 144.090374 158.88384 
L 144.090374 173.37216 
L 175.221081 173.37216 
L 175.221081 158.88384 
L 144.090374 158.88384 
z
" clip-path="url(#pb8102e6d6d)" style="fill: #3274a1; stroke: #3f3f3f; stroke-width: 1.5; stroke-linejoin: miter"/>
   </g>
   <g id="patch_12">
    <path d="M 141.651563 173.66784 
L 141.651563 188.15616 
L 185.550164 188.15616 
L 185.550164 173.66784 
L 141.651563 173.66784 
z
" clip-path="url(#pb8102e6d6d)" style="fill: #c03d3e; stroke: #3f3f3f; stroke-width: 1.5; stroke-linejoin: miter"/>
   </g>
   <g id="patch_13">
    <path d="M 134.606108 195.84384 
L 134.606108 210.33216 
L 189.208381 210.33216 
L 189.208381 195.84384 
L 134.606108 195.84384 
z
" clip-path="url(#pb8102e6d6d)" style="fill: #3274a1; stroke: #3f3f3f; stroke-width: 1.5; stroke-linejoin: miter"/>
   </g>
   <g id="patch_14">
    <path d="M 125.79929 210.62784 
L 125.79929 225.11616 
L 189.208381 225.11616 
L 189.208381 210.62784 
L 125.79929 210.62784 
z
" clip-path="url(#pb8102e6d6d)" style="fill: #c03d3e; stroke: #3f3f3f; stroke-width: 1.5; stroke-linejoin: miter"/>
   </g>
   <g id="patch_15">
    <path d="M 78.242472 25.68 
L 78.242472 25.68 
L 78.242472 25.68 
L 78.242472 25.68 
z
" clip-path="url(#pb8102e6d6d)" style="fill: #3274a1; stroke: #3f3f3f; stroke-width: 0.75; stroke-linejoin: miter"/>
   </g>
   <g id="patch_16">
    <path d="M 78.242472 25.68 
L 78.242472 25.68 
L 78.242472 25.68 
L 78.242472 25.68 
z
" clip-path="url(#pb8102e6d6d)" style="fill: #c03d3e; stroke: #3f3f3f; stroke-width: 0.75; stroke-linejoin: miter"/>
   </g>
   <g id="matplotlib.axis_1">
    <g id="xtick_1">
     <g id="line2d_1">
      <defs>
       <path id="maf263e37a4" d="M 0 0 
L 0 3.5 
" style="stroke: #000000; stroke-width: 0.8"/>
      </defs>
      <g>
       <use xlink:href="#maf263e37a4" x="78.242472" y="228.96" style="stroke: #000000; stroke-width: 0.8"/>
      </g>
     </g>
     <g id="text_1">
      <!-- 0 -->
      <g transform="translate(75.061222 243.558437) scale(0.1 -0.1)">
       <defs>
        <path id="DejaVuSans-30" d="M 2034 4250 
Q 1547 4250 1301 3770 
Q 1056 3291 1056 2328 
Q 1056 1369 1301 889 
Q 1547 409 2034 409 
Q 2525 409 2770 889 
Q 3016 1369 3016 2328 
Q 3016 3291 2770 3770 
Q 2525 4250 2034 4250 
z
M 2034 4750 
Q 2819 4750 3233 4129 
Q 3647 3509 3647 2328 
Q 3647 1150 3233 529 
Q 2819 -91 2034 -91 
Q 1250 -91 836 529 
Q 422 1150 422 2328 
Q 422 3509 836 4129 
Q 1250 4750 2034 4750 
z
" transform="scale(0.015625)"/>
       </defs>
       <use xlink:href="#DejaVuSans-30"/>
      </g>
     </g>
    </g>
    <g id="xtick_2">
     <g id="line2d_2">
      <g>
       <use xlink:href="#maf263e37a4" x="141.651563" y="228.96" style="stroke: #000000; stroke-width: 0.8"/>
      </g>
     </g>
     <g id="text_2">
      <!-- 50 -->
      <g transform="translate(135.289062 243.558437) scale(0.1 -0.1)">
       <defs>
        <path id="DejaVuSans-35" d="M 691 4666 
L 3169 4666 
L 3169 4134 
L 1269 4134 
L 1269 2991 
Q 1406 3038 1543 3061 
Q 1681 3084 1819 3084 
Q 2600 3084 3056 2656 
Q 3513 2228 3513 1497 
Q 3513 744 3044 326 
Q 2575 -91 1722 -91 
Q 1428 -91 1123 -41 
Q 819 9 494 109 
L 494 744 
Q 775 591 1075 516 
Q 1375 441 1709 441 
Q 2250 441 2565 725 
Q 2881 1009 2881 1497 
Q 2881 1984 2565 2268 
Q 2250 2553 1709 2553 
Q 1456 2553 1204 2497 
Q 953 2441 691 2322 
L 691 4666 
z
" transform="scale(0.015625)"/>
       </defs>
       <use xlink:href="#DejaVuSans-35"/>
       <use xlink:href="#DejaVuSans-30" x="63.623047"/>
      </g>
     </g>
    </g>
    <g id="xtick_3">
     <g id="line2d_3">
      <g>
       <use xlink:href="#maf263e37a4" x="205.060653" y="228.96" style="stroke: #000000; stroke-width: 0.8"/>
      </g>
     </g>
     <g id="text_3">
      <!-- 100 -->
      <g transform="translate(195.516903 243.558437) scale(0.1 -0.1)">
       <defs>
        <path id="DejaVuSans-31" d="M 794 531 
L 1825 531 
L 1825 4091 
L 703 3866 
L 703 4441 
L 1819 4666 
L 2450 4666 
L 2450 531 
L 3481 531 
L 3481 0 
L 794 0 
L 794 531 
z
" transform="scale(0.015625)"/>
       </defs>
       <use xlink:href="#DejaVuSans-31"/>
       <use xlink:href="#DejaVuSans-30" x="63.623047"/>
       <use xlink:href="#DejaVuSans-30" x="127.246094"/>
      </g>
     </g>
    </g>
    <g id="text_4">
     <!-- % invariant bps -->
     <g transform="translate(102.550781 257.236562) scale(0.1 -0.1)">
      <defs>
       <path id="DejaVuSans-25" d="M 4653 2053 
Q 4381 2053 4226 1822 
Q 4072 1591 4072 1178 
Q 4072 772 4226 539 
Q 4381 306 4653 306 
Q 4919 306 5073 539 
Q 5228 772 5228 1178 
Q 5228 1588 5073 1820 
Q 4919 2053 4653 2053 
z
M 4653 2450 
Q 5147 2450 5437 2106 
Q 5728 1763 5728 1178 
Q 5728 594 5436 251 
Q 5144 -91 4653 -91 
Q 4153 -91 3862 251 
Q 3572 594 3572 1178 
Q 3572 1766 3864 2108 
Q 4156 2450 4653 2450 
z
M 1428 4353 
Q 1159 4353 1004 4120 
Q 850 3888 850 3481 
Q 850 3069 1003 2837 
Q 1156 2606 1428 2606 
Q 1700 2606 1854 2837 
Q 2009 3069 2009 3481 
Q 2009 3884 1853 4118 
Q 1697 4353 1428 4353 
z
M 4250 4750 
L 4750 4750 
L 1831 -91 
L 1331 -91 
L 4250 4750 
z
M 1428 4750 
Q 1922 4750 2215 4408 
Q 2509 4066 2509 3481 
Q 2509 2891 2217 2550 
Q 1925 2209 1428 2209 
Q 931 2209 642 2551 
Q 353 2894 353 3481 
Q 353 4063 643 4406 
Q 934 4750 1428 4750 
z
" transform="scale(0.015625)"/>
       <path id="DejaVuSans-20" transform="scale(0.015625)"/>
       <path id="DejaVuSans-69" d="M 603 3500 
L 1178 3500 
L 1178 0 
L 603 0 
L 603 3500 
z
M 603 4863 
L 1178 4863 
L 1178 4134 
L 603 4134 
L 603 4863 
z
" transform="scale(0.015625)"/>
       <path id="DejaVuSans-6e" d="M 3513 2113 
L 3513 0 
L 2938 0 
L 2938 2094 
Q 2938 2591 2744 2837 
Q 2550 3084 2163 3084 
Q 1697 3084 1428 2787 
Q 1159 2491 1159 1978 
L 1159 0 
L 581 0 
L 581 3500 
L 1159 3500 
L 1159 2956 
Q 1366 3272 1645 3428 
Q 1925 3584 2291 3584 
Q 2894 3584 3203 3211 
Q 3513 2838 3513 2113 
z
" transform="scale(0.015625)"/>
       <path id="DejaVuSans-76" d="M 191 3500 
L 800 3500 
L 1894 563 
L 2988 3500 
L 3597 3500 
L 2284 0 
L 1503 0 
L 191 3500 
z
" transform="scale(0.015625)"/>
       <path id="DejaVuSans-61" d="M 2194 1759 
Q 1497 1759 1228 1600 
Q 959 1441 959 1056 
Q 959 750 1161 570 
Q 1363 391 1709 391 
Q 2188 391 2477 730 
Q 2766 1069 2766 1631 
L 2766 1759 
L 2194 1759 
z
M 3341 1997 
L 3341 0 
L 2766 0 
L 2766 531 
Q 2569 213 2275 61 
Q 1981 -91 1556 -91 
Q 1019 -91 701 211 
Q 384 513 384 1019 
Q 384 1609 779 1909 
Q 1175 2209 1959 2209 
L 2766 2209 
L 2766 2266 
Q 2766 2663 2505 2880 
Q 2244 3097 1772 3097 
Q 1472 3097 1187 3025 
Q 903 2953 641 2809 
L 641 3341 
Q 956 3463 1253 3523 
Q 1550 3584 1831 3584 
Q 2591 3584 2966 3190 
Q 3341 2797 3341 1997 
z
" transform="scale(0.015625)"/>
       <path id="DejaVuSans-72" d="M 2631 2963 
Q 2534 3019 2420 3045 
Q 2306 3072 2169 3072 
Q 1681 3072 1420 2755 
Q 1159 2438 1159 1844 
L 1159 0 
L 581 0 
L 581 3500 
L 1159 3500 
L 1159 2956 
Q 1341 3275 1631 3429 
Q 1922 3584 2338 3584 
Q 2397 3584 2469 3576 
Q 2541 3569 2628 3553 
L 2631 2963 
z
" transform="scale(0.015625)"/>
       <path id="DejaVuSans-74" d="M 1172 4494 
L 1172 3500 
L 2356 3500 
L 2356 3053 
L 1172 3053 
L 1172 1153 
Q 1172 725 1289 603 
Q 1406 481 1766 481 
L 2356 481 
L 2356 0 
L 1766 0 
Q 1100 0 847 248 
Q 594 497 594 1153 
L 594 3053 
L 172 3053 
L 172 3500 
L 594 3500 
L 594 4494 
L 1172 4494 
z
" transform="scale(0.015625)"/>
       <path id="DejaVuSans-62" d="M 3116 1747 
Q 3116 2381 2855 2742 
Q 2594 3103 2138 3103 
Q 1681 3103 1420 2742 
Q 1159 2381 1159 1747 
Q 1159 1113 1420 752 
Q 1681 391 2138 391 
Q 2594 391 2855 752 
Q 3116 1113 3116 1747 
z
M 1159 2969 
Q 1341 3281 1617 3432 
Q 1894 3584 2278 3584 
Q 2916 3584 3314 3078 
Q 3713 2572 3713 1747 
Q 3713 922 3314 415 
Q 2916 -91 2278 -91 
Q 1894 -91 1617 61 
Q 1341 213 1159 525 
L 1159 0 
L 581 0 
L 581 4863 
L 1159 4863 
L 1159 2969 
z
" transform="scale(0.015625)"/>
       <path id="DejaVuSans-70" d="M 1159 525 
L 1159 -1331 
L 581 -1331 
L 581 3500 
L 1159 3500 
L 1159 2969 
Q 1341 3281 1617 3432 
Q 1894 3584 2278 3584 
Q 2916 3584 3314 3078 
Q 3713 2572 3713 1747 
Q 3713 922 3314 415 
Q 2916 -91 2278 -91 
Q 1894 -91 1617 61 
Q 1341 213 1159 525 
z
M 3116 1747 
Q 3116 2381 2855 2742 
Q 2594 3103 2138 3103 
Q 1681 3103 1420 2742 
Q 1159 2381 1159 1747 
Q 1159 1113 1420 752 
Q 1681 391 2138 391 
Q 2594 391 2855 752 
Q 3116 1113 3116 1747 
z
" transform="scale(0.015625)"/>
       <path id="DejaVuSans-73" d="M 2834 3397 
L 2834 2853 
Q 2591 2978 2328 3040 
Q 2066 3103 1784 3103 
Q 1356 3103 1142 2972 
Q 928 2841 928 2578 
Q 928 2378 1081 2264 
Q 1234 2150 1697 2047 
L 1894 2003 
Q 2506 1872 2764 1633 
Q 3022 1394 3022 966 
Q 3022 478 2636 193 
Q 2250 -91 1575 -91 
Q 1294 -91 989 -36 
Q 684 19 347 128 
L 347 722 
Q 666 556 975 473 
Q 1284 391 1588 391 
Q 1994 391 2212 530 
Q 2431 669 2431 922 
Q 2431 1156 2273 1281 
Q 2116 1406 1581 1522 
L 1381 1569 
Q 847 1681 609 1914 
Q 372 2147 372 2553 
Q 372 3047 722 3315 
Q 1072 3584 1716 3584 
Q 2034 3584 2315 3537 
Q 2597 3491 2834 3397 
z
" transform="scale(0.015625)"/>
      </defs>
      <use xlink:href="#DejaVuSans-25"/>
      <use xlink:href="#DejaVuSans-20" x="95.019531"/>
      <use xlink:href="#DejaVuSans-69" x="126.806641"/>
      <use xlink:href="#DejaVuSans-6e" x="154.589844"/>
      <use xlink:href="#DejaVuSans-76" x="217.96875"/>
      <use xlink:href="#DejaVuSans-61" x="277.148438"/>
      <use xlink:href="#DejaVuSans-72" x="338.427734"/>
      <use xlink:href="#DejaVuSans-69" x="379.541016"/>
      <use xlink:href="#DejaVuSans-61" x="407.324219"/>
      <use xlink:href="#DejaVuSans-6e" x="468.603516"/>
      <use xlink:href="#DejaVuSans-74" x="531.982422"/>
      <use xlink:href="#DejaVuSans-20" x="571.191406"/>
      <use xlink:href="#DejaVuSans-62" x="602.978516"/>
      <use xlink:href="#DejaVuSans-70" x="666.455078"/>
      <use xlink:href="#DejaVuSans-73" x="729.931641"/>
     </g>
    </g>
   </g>
   <g id="matplotlib.axis_2">
    <g id="ytick_1">
     <g id="line2d_4">
      <defs>
       <path id="m2e2543ff98" d="M 0 0 
L -3.5 0 
" style="stroke: #000000; stroke-width: 0.8"/>
      </defs>
      <g>
       <use xlink:href="#m2e2543ff98" x="71.901562" y="25.68" style="stroke: #000000; stroke-width: 0.8"/>
      </g>
     </g>
     <g id="text_5">
      <!-- FNR -->
      <g transform="translate(44.720312 24.640156) scale(0.1 -0.1)">
       <defs>
        <path id="DejaVuSans-46" d="M 628 4666 
L 3309 4666 
L 3309 4134 
L 1259 4134 
L 1259 2759 
L 3109 2759 
L 3109 2228 
L 1259 2228 
L 1259 0 
L 628 0 
L 628 4666 
z
" transform="scale(0.015625)"/>
        <path id="DejaVuSans-4e" d="M 628 4666 
L 1478 4666 
L 3547 763 
L 3547 4666 
L 4159 4666 
L 4159 0 
L 3309 0 
L 1241 3903 
L 1241 0 
L 628 0 
L 628 4666 
z
" transform="scale(0.015625)"/>
        <path id="DejaVuSans-52" d="M 2841 2188 
Q 3044 2119 3236 1894 
Q 3428 1669 3622 1275 
L 4263 0 
L 3584 0 
L 2988 1197 
Q 2756 1666 2539 1819 
Q 2322 1972 1947 1972 
L 1259 1972 
L 1259 0 
L 628 0 
L 628 4666 
L 2053 4666 
Q 2853 4666 3247 4331 
Q 3641 3997 3641 3322 
Q 3641 2881 3436 2590 
Q 3231 2300 2841 2188 
z
M 1259 4147 
L 1259 2491 
L 2053 2491 
Q 2509 2491 2742 2702 
Q 2975 2913 2975 3322 
Q 2975 3731 2742 3939 
Q 2509 4147 2053 4147 
L 1259 4147 
z
" transform="scale(0.015625)"/>
       </defs>
       <use xlink:href="#DejaVuSans-46"/>
       <use xlink:href="#DejaVuSans-4e" x="57.519531"/>
       <use xlink:href="#DejaVuSans-52" x="132.324219"/>
      </g>
      <!-- (n=44;26) -->
      <g transform="translate(13.5625 35.837969) scale(0.1 -0.1)">
       <defs>
        <path id="DejaVuSans-28" d="M 1984 4856 
Q 1566 4138 1362 3434 
Q 1159 2731 1159 2009 
Q 1159 1288 1364 580 
Q 1569 -128 1984 -844 
L 1484 -844 
Q 1016 -109 783 600 
Q 550 1309 550 2009 
Q 550 2706 781 3412 
Q 1013 4119 1484 4856 
L 1984 4856 
z
" transform="scale(0.015625)"/>
        <path id="DejaVuSans-3d" d="M 678 2906 
L 4684 2906 
L 4684 2381 
L 678 2381 
L 678 2906 
z
M 678 1631 
L 4684 1631 
L 4684 1100 
L 678 1100 
L 678 1631 
z
" transform="scale(0.015625)"/>
        <path id="DejaVuSans-34" d="M 2419 4116 
L 825 1625 
L 2419 1625 
L 2419 4116 
z
M 2253 4666 
L 3047 4666 
L 3047 1625 
L 3713 1625 
L 3713 1100 
L 3047 1100 
L 3047 0 
L 2419 0 
L 2419 1100 
L 313 1100 
L 313 1709 
L 2253 4666 
z
" transform="scale(0.015625)"/>
        <path id="DejaVuSans-3b" d="M 750 3309 
L 1409 3309 
L 1409 2516 
L 750 2516 
L 750 3309 
z
M 750 794 
L 1409 794 
L 1409 256 
L 897 -744 
L 494 -744 
L 750 256 
L 750 794 
z
" transform="scale(0.015625)"/>
        <path id="DejaVuSans-32" d="M 1228 531 
L 3431 531 
L 3431 0 
L 469 0 
L 469 531 
Q 828 903 1448 1529 
Q 2069 2156 2228 2338 
Q 2531 2678 2651 2914 
Q 2772 3150 2772 3378 
Q 2772 3750 2511 3984 
Q 2250 4219 1831 4219 
Q 1534 4219 1204 4116 
Q 875 4013 500 3803 
L 500 4441 
Q 881 4594 1212 4672 
Q 1544 4750 1819 4750 
Q 2544 4750 2975 4387 
Q 3406 4025 3406 3419 
Q 3406 3131 3298 2873 
Q 3191 2616 2906 2266 
Q 2828 2175 2409 1742 
Q 1991 1309 1228 531 
z
" transform="scale(0.015625)"/>
        <path id="DejaVuSans-36" d="M 2113 2584 
Q 1688 2584 1439 2293 
Q 1191 2003 1191 1497 
Q 1191 994 1439 701 
Q 1688 409 2113 409 
Q 2538 409 2786 701 
Q 3034 994 3034 1497 
Q 3034 2003 2786 2293 
Q 2538 2584 2113 2584 
z
M 3366 4563 
L 3366 3988 
Q 3128 4100 2886 4159 
Q 2644 4219 2406 4219 
Q 1781 4219 1451 3797 
Q 1122 3375 1075 2522 
Q 1259 2794 1537 2939 
Q 1816 3084 2150 3084 
Q 2853 3084 3261 2657 
Q 3669 2231 3669 1497 
Q 3669 778 3244 343 
Q 2819 -91 2113 -91 
Q 1303 -91 875 529 
Q 447 1150 447 2328 
Q 447 3434 972 4092 
Q 1497 4750 2381 4750 
Q 2619 4750 2861 4703 
Q 3103 4656 3366 4563 
z
" transform="scale(0.015625)"/>
        <path id="DejaVuSans-29" d="M 513 4856 
L 1013 4856 
Q 1481 4119 1714 3412 
Q 1947 2706 1947 2009 
Q 1947 1309 1714 600 
Q 1481 -109 1013 -844 
L 513 -844 
Q 928 -128 1133 580 
Q 1338 1288 1338 2009 
Q 1338 2731 1133 3434 
Q 928 4138 513 4856 
z
" transform="scale(0.015625)"/>
       </defs>
       <use xlink:href="#DejaVuSans-28"/>
       <use xlink:href="#DejaVuSans-6e" x="39.013672"/>
       <use xlink:href="#DejaVuSans-3d" x="102.392578"/>
       <use xlink:href="#DejaVuSans-34" x="186.181641"/>
       <use xlink:href="#DejaVuSans-34" x="249.804688"/>
       <use xlink:href="#DejaVuSans-3b" x="313.427734"/>
       <use xlink:href="#DejaVuSans-32" x="347.119141"/>
       <use xlink:href="#DejaVuSans-36" x="410.742188"/>
       <use xlink:href="#DejaVuSans-29" x="474.365234"/>
      </g>
     </g>
    </g>
    <g id="ytick_2">
     <g id="line2d_5">
      <g>
       <use xlink:href="#m2e2543ff98" x="71.901562" y="62.64" style="stroke: #000000; stroke-width: 0.8"/>
      </g>
     </g>
     <g id="text_6">
      <!-- CRP -->
      <g transform="translate(44.940625 61.600156) scale(0.1 -0.1)">
       <defs>
        <path id="DejaVuSans-43" d="M 4122 4306 
L 4122 3641 
Q 3803 3938 3442 4084 
Q 3081 4231 2675 4231 
Q 1875 4231 1450 3742 
Q 1025 3253 1025 2328 
Q 1025 1406 1450 917 
Q 1875 428 2675 428 
Q 3081 428 3442 575 
Q 3803 722 4122 1019 
L 4122 359 
Q 3791 134 3420 21 
Q 3050 -91 2638 -91 
Q 1578 -91 968 557 
Q 359 1206 359 2328 
Q 359 3453 968 4101 
Q 1578 4750 2638 4750 
Q 3056 4750 3426 4639 
Q 3797 4528 4122 4306 
z
" transform="scale(0.015625)"/>
        <path id="DejaVuSans-50" d="M 1259 4147 
L 1259 2394 
L 2053 2394 
Q 2494 2394 2734 2622 
Q 2975 2850 2975 3272 
Q 2975 3691 2734 3919 
Q 2494 4147 2053 4147 
L 1259 4147 
z
M 628 4666 
L 2053 4666 
Q 2838 4666 3239 4311 
Q 3641 3956 3641 3272 
Q 3641 2581 3239 2228 
Q 2838 1875 2053 1875 
L 1259 1875 
L 1259 0 
L 628 0 
L 628 4666 
z
" transform="scale(0.015625)"/>
       </defs>
       <use xlink:href="#DejaVuSans-43"/>
       <use xlink:href="#DejaVuSans-52" x="69.824219"/>
       <use xlink:href="#DejaVuSans-50" x="139.306641"/>
      </g>
      <!-- (n=147;42) -->
      <g transform="translate(7.2 72.797969) scale(0.1 -0.1)">
       <defs>
        <path id="DejaVuSans-37" d="M 525 4666 
L 3525 4666 
L 3525 4397 
L 1831 0 
L 1172 0 
L 2766 4134 
L 525 4134 
L 525 4666 
z
" transform="scale(0.015625)"/>
       </defs>
       <use xlink:href="#DejaVuSans-28"/>
       <use xlink:href="#DejaVuSans-6e" x="39.013672"/>
       <use xlink:href="#DejaVuSans-3d" x="102.392578"/>
       <use xlink:href="#DejaVuSans-31" x="186.181641"/>
       <use xlink:href="#DejaVuSans-34" x="249.804688"/>
       <use xlink:href="#DejaVuSans-37" x="313.427734"/>
       <use xlink:href="#DejaVuSans-3b" x="377.050781"/>
       <use xlink:href="#DejaVuSans-34" x="410.742188"/>
       <use xlink:href="#DejaVuSans-32" x="474.365234"/>
       <use xlink:href="#DejaVuSans-29" x="537.988281"/>
      </g>
     </g>
    </g>
    <g id="ytick_3">
     <g id="line2d_6">
      <g>
       <use xlink:href="#m2e2543ff98" x="71.901562" y="99.6" style="stroke: #000000; stroke-width: 0.8"/>
      </g>
     </g>
     <g id="text_7">
      <!-- IHF -->
      <g transform="translate(48.679687 98.560156) scale(0.1 -0.1)">
       <defs>
        <path id="DejaVuSans-49" d="M 628 4666 
L 1259 4666 
L 1259 0 
L 628 0 
L 628 4666 
z
" transform="scale(0.015625)"/>
        <path id="DejaVuSans-48" d="M 628 4666 
L 1259 4666 
L 1259 2753 
L 3553 2753 
L 3553 4666 
L 4184 4666 
L 4184 0 
L 3553 0 
L 3553 2222 
L 1259 2222 
L 1259 0 
L 628 0 
L 628 4666 
z
" transform="scale(0.015625)"/>
       </defs>
       <use xlink:href="#DejaVuSans-49"/>
       <use xlink:href="#DejaVuSans-48" x="29.492188"/>
       <use xlink:href="#DejaVuSans-46" x="104.6875"/>
      </g>
      <!-- (n=30;37) -->
      <g transform="translate(13.5625 109.757969) scale(0.1 -0.1)">
       <defs>
        <path id="DejaVuSans-33" d="M 2597 2516 
Q 3050 2419 3304 2112 
Q 3559 1806 3559 1356 
Q 3559 666 3084 287 
Q 2609 -91 1734 -91 
Q 1441 -91 1130 -33 
Q 819 25 488 141 
L 488 750 
Q 750 597 1062 519 
Q 1375 441 1716 441 
Q 2309 441 2620 675 
Q 2931 909 2931 1356 
Q 2931 1769 2642 2001 
Q 2353 2234 1838 2234 
L 1294 2234 
L 1294 2753 
L 1863 2753 
Q 2328 2753 2575 2939 
Q 2822 3125 2822 3475 
Q 2822 3834 2567 4026 
Q 2313 4219 1838 4219 
Q 1578 4219 1281 4162 
Q 984 4106 628 3988 
L 628 4550 
Q 988 4650 1302 4700 
Q 1616 4750 1894 4750 
Q 2613 4750 3031 4423 
Q 3450 4097 3450 3541 
Q 3450 3153 3228 2886 
Q 3006 2619 2597 2516 
z
" transform="scale(0.015625)"/>
       </defs>
       <use xlink:href="#DejaVuSans-28"/>
       <use xlink:href="#DejaVuSans-6e" x="39.013672"/>
       <use xlink:href="#DejaVuSans-3d" x="102.392578"/>
       <use xlink:href="#DejaVuSans-33" x="186.181641"/>
       <use xlink:href="#DejaVuSans-30" x="249.804688"/>
       <use xlink:href="#DejaVuSans-3b" x="313.427734"/>
       <use xlink:href="#DejaVuSans-33" x="347.119141"/>
       <use xlink:href="#DejaVuSans-37" x="410.742188"/>
       <use xlink:href="#DejaVuSans-29" x="474.365234"/>
      </g>
     </g>
    </g>
    <g id="ytick_4">
     <g id="line2d_7">
      <g>
       <use xlink:href="#m2e2543ff98" x="71.901562" y="136.56" style="stroke: #000000; stroke-width: 0.8"/>
      </g>
     </g>
     <g id="text_8">
      <!-- ArcA -->
      <g transform="translate(41.835938 135.520156) scale(0.1 -0.1)">
       <defs>
        <path id="DejaVuSans-41" d="M 2188 4044 
L 1331 1722 
L 3047 1722 
L 2188 4044 
z
M 1831 4666 
L 2547 4666 
L 4325 0 
L 3669 0 
L 3244 1197 
L 1141 1197 
L 716 0 
L 50 0 
L 1831 4666 
z
" transform="scale(0.015625)"/>
        <path id="DejaVuSans-63" d="M 3122 3366 
L 3122 2828 
Q 2878 2963 2633 3030 
Q 2388 3097 2138 3097 
Q 1578 3097 1268 2742 
Q 959 2388 959 1747 
Q 959 1106 1268 751 
Q 1578 397 2138 397 
Q 2388 397 2633 464 
Q 2878 531 3122 666 
L 3122 134 
Q 2881 22 2623 -34 
Q 2366 -91 2075 -91 
Q 1284 -91 818 406 
Q 353 903 353 1747 
Q 353 2603 823 3093 
Q 1294 3584 2113 3584 
Q 2378 3584 2631 3529 
Q 2884 3475 3122 3366 
z
" transform="scale(0.015625)"/>
       </defs>
       <use xlink:href="#DejaVuSans-41"/>
       <use xlink:href="#DejaVuSans-72" x="68.408203"/>
       <use xlink:href="#DejaVuSans-63" x="107.271484"/>
       <use xlink:href="#DejaVuSans-41" x="162.251953"/>
      </g>
      <!-- (n=13;54) -->
      <g transform="translate(13.5625 146.717969) scale(0.1 -0.1)">
       <use xlink:href="#DejaVuSans-28"/>
       <use xlink:href="#DejaVuSans-6e" x="39.013672"/>
       <use xlink:href="#DejaVuSans-3d" x="102.392578"/>
       <use xlink:href="#DejaVuSans-31" x="186.181641"/>
       <use xlink:href="#DejaVuSans-33" x="249.804688"/>
       <use xlink:href="#DejaVuSans-3b" x="313.427734"/>
       <use xlink:href="#DejaVuSans-35" x="347.119141"/>
       <use xlink:href="#DejaVuSans-34" x="410.742188"/>
       <use xlink:href="#DejaVuSans-29" x="474.365234"/>
      </g>
     </g>
    </g>
    <g id="ytick_5">
     <g id="line2d_8">
      <g>
       <use xlink:href="#m2e2543ff98" x="71.901562" y="173.52" style="stroke: #000000; stroke-width: 0.8"/>
      </g>
     </g>
     <g id="text_9">
      <!-- Lrp -->
      <g transform="translate(48.870312 172.480156) scale(0.1 -0.1)">
       <defs>
        <path id="DejaVuSans-4c" d="M 628 4666 
L 1259 4666 
L 1259 531 
L 3531 531 
L 3531 0 
L 628 0 
L 628 4666 
z
" transform="scale(0.015625)"/>
       </defs>
       <use xlink:href="#DejaVuSans-4c"/>
       <use xlink:href="#DejaVuSans-72" x="55.712891"/>
       <use xlink:href="#DejaVuSans-70" x="96.826172"/>
      </g>
      <!-- (n=11;37) -->
      <g transform="translate(13.5625 183.677969) scale(0.1 -0.1)">
       <use xlink:href="#DejaVuSans-28"/>
       <use xlink:href="#DejaVuSans-6e" x="39.013672"/>
       <use xlink:href="#DejaVuSans-3d" x="102.392578"/>
       <use xlink:href="#DejaVuSans-31" x="186.181641"/>
       <use xlink:href="#DejaVuSans-31" x="249.804688"/>
       <use xlink:href="#DejaVuSans-3b" x="313.427734"/>
       <use xlink:href="#DejaVuSans-33" x="347.119141"/>
       <use xlink:href="#DejaVuSans-37" x="410.742188"/>
       <use xlink:href="#DejaVuSans-29" x="474.365234"/>
      </g>
     </g>
    </g>
    <g id="ytick_6">
     <g id="line2d_9">
      <g>
       <use xlink:href="#m2e2543ff98" x="71.901562" y="210.48" style="stroke: #000000; stroke-width: 0.8"/>
      </g>
     </g>
     <g id="text_10">
      <!-- NarL -->
      <g transform="translate(41.609375 209.440156) scale(0.1 -0.1)">
       <use xlink:href="#DejaVuSans-4e"/>
       <use xlink:href="#DejaVuSans-61" x="74.804688"/>
       <use xlink:href="#DejaVuSans-72" x="136.083984"/>
       <use xlink:href="#DejaVuSans-4c" x="177.197266"/>
      </g>
      <!-- (n=36;44) -->
      <g transform="translate(13.5625 220.637969) scale(0.1 -0.1)">
       <use xlink:href="#DejaVuSans-28"/>
       <use xlink:href="#DejaVuSans-6e" x="39.013672"/>
       <use xlink:href="#DejaVuSans-3d" x="102.392578"/>
       <use xlink:href="#DejaVuSans-33" x="186.181641"/>
       <use xlink:href="#DejaVuSans-36" x="249.804688"/>
       <use xlink:href="#DejaVuSans-3b" x="313.427734"/>
       <use xlink:href="#DejaVuSans-34" x="347.119141"/>
       <use xlink:href="#DejaVuSans-34" x="410.742188"/>
       <use xlink:href="#DejaVuSans-29" x="474.365234"/>
      </g>
     </g>
    </g>
   </g>
   <g id="line2d_10">
    <path d="M 161.466903 18.288 
L 137.42429 18.288 
" clip-path="url(#pb8102e6d6d)" style="fill: none; stroke: #3f3f3f; stroke-width: 1.5; stroke-linecap: square"/>
   </g>
   <g id="line2d_11">
    <path d="M 188.151563 18.288 
L 205.060653 18.288 
" clip-path="url(#pb8102e6d6d)" style="fill: none; stroke: #3f3f3f; stroke-width: 1.5; stroke-linecap: square"/>
   </g>
   <g id="line2d_12">
    <path d="M 137.42429 14.66592 
L 137.42429 21.91008 
" clip-path="url(#pb8102e6d6d)" style="fill: none; stroke: #3f3f3f; stroke-width: 1.5; stroke-linecap: square"/>
   </g>
   <g id="line2d_13">
    <path d="M 205.060653 14.66592 
L 205.060653 21.91008 
" clip-path="url(#pb8102e6d6d)" style="fill: none; stroke: #3f3f3f; stroke-width: 1.5; stroke-linecap: square"/>
   </g>
   <g id="line2d_14">
    <path d="M 151.559233 33.072 
L 112.060653 33.072 
" clip-path="url(#pb8102e6d6d)" style="fill: none; stroke: #3f3f3f; stroke-width: 1.5; stroke-linecap: square"/>
   </g>
   <g id="line2d_15">
    <path d="M 179.697017 33.072 
L 205.060653 33.072 
" clip-path="url(#pb8102e6d6d)" style="fill: none; stroke: #3f3f3f; stroke-width: 1.5; stroke-linecap: square"/>
   </g>
   <g id="line2d_16">
    <path d="M 112.060653 29.44992 
L 112.060653 36.69408 
" clip-path="url(#pb8102e6d6d)" style="fill: none; stroke: #3f3f3f; stroke-width: 1.5; stroke-linecap: square"/>
   </g>
   <g id="line2d_17">
    <path d="M 205.060653 29.44992 
L 205.060653 36.69408 
" clip-path="url(#pb8102e6d6d)" style="fill: none; stroke: #3f3f3f; stroke-width: 1.5; stroke-linecap: square"/>
   </g>
   <g id="line2d_18">
    <path d="M 149.922313 55.248 
L 115.231108 55.248 
" clip-path="url(#pb8102e6d6d)" style="fill: none; stroke: #3f3f3f; stroke-width: 1.5; stroke-linecap: square"/>
   </g>
   <g id="line2d_19">
    <path d="M 178.065841 55.248 
L 199.546819 55.248 
" clip-path="url(#pb8102e6d6d)" style="fill: none; stroke: #3f3f3f; stroke-width: 1.5; stroke-linecap: square"/>
   </g>
   <g id="line2d_20">
    <path d="M 115.231108 51.62592 
L 115.231108 58.87008 
" clip-path="url(#pb8102e6d6d)" style="fill: none; stroke: #3f3f3f; stroke-width: 1.5; stroke-linecap: square"/>
   </g>
   <g id="line2d_21">
    <path d="M 199.546819 51.62592 
L 199.546819 58.87008 
" clip-path="url(#pb8102e6d6d)" style="fill: none; stroke: #3f3f3f; stroke-width: 1.5; stroke-linecap: square"/>
   </g>
   <g id="line2d_22">
    <path d="M 155.436147 70.032 
L 116.83931 70.032 
" clip-path="url(#pb8102e6d6d)" style="fill: none; stroke: #3f3f3f; stroke-width: 1.5; stroke-linecap: square"/>
   </g>
   <g id="line2d_23">
    <path d="M 183.694547 70.032 
L 205.060653 70.032 
" clip-path="url(#pb8102e6d6d)" style="fill: none; stroke: #3f3f3f; stroke-width: 1.5; stroke-linecap: square"/>
   </g>
   <g id="line2d_24">
    <path d="M 116.83931 66.40992 
L 116.83931 73.65408 
" clip-path="url(#pb8102e6d6d)" style="fill: none; stroke: #3f3f3f; stroke-width: 1.5; stroke-linecap: square"/>
   </g>
   <g id="line2d_25">
    <path d="M 205.060653 66.40992 
L 205.060653 73.65408 
" clip-path="url(#pb8102e6d6d)" style="fill: none; stroke: #3f3f3f; stroke-width: 1.5; stroke-linecap: square"/>
   </g>
   <g id="line2d_26">
    <path d="M 124.893446 92.208 
L 87.300913 92.208 
" clip-path="url(#pb8102e6d6d)" style="fill: none; stroke: #3f3f3f; stroke-width: 1.5; stroke-linecap: square"/>
   </g>
   <g id="line2d_27">
    <path d="M 159.768446 92.208 
L 196.002212 92.208 
" clip-path="url(#pb8102e6d6d)" style="fill: none; stroke: #3f3f3f; stroke-width: 1.5; stroke-linecap: square"/>
   </g>
   <g id="line2d_28">
    <path d="M 87.300913 88.58592 
L 87.300913 95.83008 
" clip-path="url(#pb8102e6d6d)" style="fill: none; stroke: #3f3f3f; stroke-width: 1.5; stroke-linecap: square"/>
   </g>
   <g id="line2d_29">
    <path d="M 196.002212 88.58592 
L 196.002212 95.83008 
" clip-path="url(#pb8102e6d6d)" style="fill: none; stroke: #3f3f3f; stroke-width: 1.5; stroke-linecap: square"/>
   </g>
   <g id="line2d_30">
    <path d="M 171.242472 106.992 
L 154.333381 106.992 
" clip-path="url(#pb8102e6d6d)" style="fill: none; stroke: #3f3f3f; stroke-width: 1.5; stroke-linecap: square"/>
   </g>
   <g id="line2d_31">
    <path d="M 196.002212 106.992 
L 205.060653 106.992 
" clip-path="url(#pb8102e6d6d)" style="fill: none; stroke: #3f3f3f; stroke-width: 1.5; stroke-linecap: square"/>
   </g>
   <g id="line2d_32">
    <path d="M 154.333381 103.36992 
L 154.333381 110.61408 
" clip-path="url(#pb8102e6d6d)" style="fill: none; stroke: #3f3f3f; stroke-width: 1.5; stroke-linecap: square"/>
   </g>
   <g id="line2d_33">
    <path d="M 205.060653 103.36992 
L 205.060653 110.61408 
" clip-path="url(#pb8102e6d6d)" style="fill: none; stroke: #3f3f3f; stroke-width: 1.5; stroke-linecap: square"/>
   </g>
   <g id="line2d_34">
    <path d="M 157.503835 129.168 
L 157.503835 129.168 
" clip-path="url(#pb8102e6d6d)" style="fill: none; stroke: #3f3f3f; stroke-width: 1.5; stroke-linecap: square"/>
   </g>
   <g id="line2d_35">
    <path d="M 181.282244 129.168 
L 197.134517 129.168 
" clip-path="url(#pb8102e6d6d)" style="fill: none; stroke: #3f3f3f; stroke-width: 1.5; stroke-linecap: square"/>
   </g>
   <g id="line2d_36">
    <path d="M 157.503835 125.54592 
L 157.503835 132.79008 
" clip-path="url(#pb8102e6d6d)" style="fill: none; stroke: #3f3f3f; stroke-width: 1.5; stroke-linecap: square"/>
   </g>
   <g id="line2d_37">
    <path d="M 197.134517 125.54592 
L 197.134517 132.79008 
" clip-path="url(#pb8102e6d6d)" style="fill: none; stroke: #3f3f3f; stroke-width: 1.5; stroke-linecap: square"/>
   </g>
   <g id="line2d_38">
    <path d="M 146.430556 143.952 
L 109.947017 143.952 
" clip-path="url(#pb8102e6d6d)" style="fill: none; stroke: #3f3f3f; stroke-width: 1.5; stroke-linecap: square"/>
   </g>
   <g id="line2d_39">
    <path d="M 175.221081 143.952 
L 205.060653 143.952 
" clip-path="url(#pb8102e6d6d)" style="fill: none; stroke: #3f3f3f; stroke-width: 1.5; stroke-linecap: square"/>
   </g>
   <g id="line2d_40">
    <path d="M 109.947017 140.32992 
L 109.947017 147.57408 
" clip-path="url(#pb8102e6d6d)" style="fill: none; stroke: #3f3f3f; stroke-width: 1.5; stroke-linecap: square"/>
   </g>
   <g id="line2d_41">
    <path d="M 205.060653 140.32992 
L 205.060653 147.57408 
" clip-path="url(#pb8102e6d6d)" style="fill: none; stroke: #3f3f3f; stroke-width: 1.5; stroke-linecap: square"/>
   </g>
   <g id="line2d_42">
    <path d="M 144.090374 166.128 
L 125.79929 166.128 
" clip-path="url(#pb8102e6d6d)" style="fill: none; stroke: #3f3f3f; stroke-width: 1.5; stroke-linecap: square"/>
   </g>
   <g id="line2d_43">
    <path d="M 175.221081 166.128 
L 195.305409 166.128 
" clip-path="url(#pb8102e6d6d)" style="fill: none; stroke: #3f3f3f; stroke-width: 1.5; stroke-linecap: square"/>
   </g>
   <g id="line2d_44">
    <path d="M 125.79929 162.50592 
L 125.79929 169.75008 
" clip-path="url(#pb8102e6d6d)" style="fill: none; stroke: #3f3f3f; stroke-width: 1.5; stroke-linecap: square"/>
   </g>
   <g id="line2d_45">
    <path d="M 195.305409 162.50592 
L 195.305409 169.75008 
" clip-path="url(#pb8102e6d6d)" style="fill: none; stroke: #3f3f3f; stroke-width: 1.5; stroke-linecap: square"/>
   </g>
   <g id="line2d_46">
    <path d="M 141.651563 180.912 
L 78.242472 180.912 
" clip-path="url(#pb8102e6d6d)" style="fill: none; stroke: #3f3f3f; stroke-width: 1.5; stroke-linecap: square"/>
   </g>
   <g id="line2d_47">
    <path d="M 185.550164 180.912 
L 205.060653 180.912 
" clip-path="url(#pb8102e6d6d)" style="fill: none; stroke: #3f3f3f; stroke-width: 1.5; stroke-linecap: square"/>
   </g>
   <g id="line2d_48">
    <path d="M 78.242472 177.28992 
L 78.242472 184.53408 
" clip-path="url(#pb8102e6d6d)" style="fill: none; stroke: #3f3f3f; stroke-width: 1.5; stroke-linecap: square"/>
   </g>
   <g id="line2d_49">
    <path d="M 205.060653 177.28992 
L 205.060653 184.53408 
" clip-path="url(#pb8102e6d6d)" style="fill: none; stroke: #3f3f3f; stroke-width: 1.5; stroke-linecap: square"/>
   </g>
   <g id="line2d_50">
    <path d="M 134.606108 203.088 
L 78.242472 203.088 
" clip-path="url(#pb8102e6d6d)" style="fill: none; stroke: #3f3f3f; stroke-width: 1.5; stroke-linecap: square"/>
   </g>
   <g id="line2d_51">
    <path d="M 189.208381 203.088 
L 205.060653 203.088 
" clip-path="url(#pb8102e6d6d)" style="fill: none; stroke: #3f3f3f; stroke-width: 1.5; stroke-linecap: square"/>
   </g>
   <g id="line2d_52">
    <path d="M 78.242472 199.46592 
L 78.242472 206.71008 
" clip-path="url(#pb8102e6d6d)" style="fill: none; stroke: #3f3f3f; stroke-width: 1.5; stroke-linecap: square"/>
   </g>
   <g id="line2d_53">
    <path d="M 205.060653 199.46592 
L 205.060653 206.71008 
" clip-path="url(#pb8102e6d6d)" style="fill: none; stroke: #3f3f3f; stroke-width: 1.5; stroke-linecap: square"/>
   </g>
   <g id="line2d_54">
    <path d="M 125.79929 217.872 
L 78.242472 217.872 
" clip-path="url(#pb8102e6d6d)" style="fill: none; stroke: #3f3f3f; stroke-width: 1.5; stroke-linecap: square"/>
   </g>
   <g id="line2d_55">
    <path d="M 189.208381 217.872 
L 205.060653 217.872 
" clip-path="url(#pb8102e6d6d)" style="fill: none; stroke: #3f3f3f; stroke-width: 1.5; stroke-linecap: square"/>
   </g>
   <g id="line2d_56">
    <path d="M 78.242472 214.24992 
L 78.242472 221.49408 
" clip-path="url(#pb8102e6d6d)" style="fill: none; stroke: #3f3f3f; stroke-width: 1.5; stroke-linecap: square"/>
   </g>
   <g id="line2d_57">
    <path d="M 205.060653 214.24992 
L 205.060653 221.49408 
" clip-path="url(#pb8102e6d6d)" style="fill: none; stroke: #3f3f3f; stroke-width: 1.5; stroke-linecap: square"/>
   </g>
   <g id="line2d_58">
    <path d="M 172.29929 11.04384 
L 172.29929 25.53216 
" clip-path="url(#pb8102e6d6d)" style="fill: none; stroke: #3f3f3f; stroke-width: 1.5; stroke-linecap: square"/>
   </g>
   <g id="line2d_59">
    <path d="M 171.242472 25.82784 
L 171.242472 40.31616 
" clip-path="url(#pb8102e6d6d)" style="fill: none; stroke: #3f3f3f; stroke-width: 1.5; stroke-linecap: square"/>
   </g>
   <g id="line2d_60">
    <path d="M 166.463815 48.00384 
L 166.463815 62.49216 
" clip-path="url(#pb8102e6d6d)" style="fill: none; stroke: #3f3f3f; stroke-width: 1.5; stroke-linecap: square"/>
   </g>
   <g id="line2d_61">
    <path d="M 171.977649 62.78784 
L 171.977649 77.27616 
" clip-path="url(#pb8102e6d6d)" style="fill: none; stroke: #3f3f3f; stroke-width: 1.5; stroke-linecap: square"/>
   </g>
   <g id="line2d_62">
    <path d="M 132.593121 84.96384 
L 132.593121 99.45216 
" clip-path="url(#pb8102e6d6d)" style="fill: none; stroke: #3f3f3f; stroke-width: 1.5; stroke-linecap: square"/>
   </g>
   <g id="line2d_63">
    <path d="M 186.94377 99.74784 
L 186.94377 114.23616 
" clip-path="url(#pb8102e6d6d)" style="fill: none; stroke: #3f3f3f; stroke-width: 1.5; stroke-linecap: square"/>
   </g>
   <g id="line2d_64">
    <path d="M 173.356108 121.92384 
L 173.356108 136.41216 
" clip-path="url(#pb8102e6d6d)" style="fill: none; stroke: #3f3f3f; stroke-width: 1.5; stroke-linecap: square"/>
   </g>
   <g id="line2d_65">
    <path d="M 165.429972 136.70784 
L 165.429972 151.19616 
" clip-path="url(#pb8102e6d6d)" style="fill: none; stroke: #3f3f3f; stroke-width: 1.5; stroke-linecap: square"/>
   </g>
   <g id="line2d_66">
    <path d="M 160.301295 158.88384 
L 160.301295 173.37216 
" clip-path="url(#pb8102e6d6d)" style="fill: none; stroke: #3f3f3f; stroke-width: 1.5; stroke-linecap: square"/>
   </g>
   <g id="line2d_67">
    <path d="M 165.429972 173.66784 
L 165.429972 188.15616 
" clip-path="url(#pb8102e6d6d)" style="fill: none; stroke: #3f3f3f; stroke-width: 1.5; stroke-linecap: square"/>
   </g>
   <g id="line2d_68">
    <path d="M 157.503835 195.84384 
L 157.503835 210.33216 
" clip-path="url(#pb8102e6d6d)" style="fill: none; stroke: #3f3f3f; stroke-width: 1.5; stroke-linecap: square"/>
   </g>
   <g id="line2d_69">
    <path d="M 145.17429 210.62784 
L 145.17429 225.11616 
" clip-path="url(#pb8102e6d6d)" style="fill: none; stroke: #3f3f3f; stroke-width: 1.5; stroke-linecap: square"/>
   </g>
   <g id="patch_17">
    <path d="M 71.901562 228.96 
L 71.901562 7.2 
" style="fill: none; stroke: #000000; stroke-width: 0.8; stroke-linejoin: miter; stroke-linecap: square"/>
   </g>
   <g id="patch_18">
    <path d="M 211.401563 228.96 
L 211.401563 7.2 
" style="fill: none; stroke: #000000; stroke-width: 0.8; stroke-linejoin: miter; stroke-linecap: square"/>
   </g>
   <g id="patch_19">
    <path d="M 71.901562 228.96 
L 211.401563 228.96 
" style="fill: none; stroke: #000000; stroke-width: 0.8; stroke-linejoin: miter; stroke-linecap: square"/>
   </g>
   <g id="patch_20">
    <path d="M 71.901562 7.2 
L 211.401563 7.2 
" style="fill: none; stroke: #000000; stroke-width: 0.8; stroke-linejoin: miter; stroke-linecap: square"/>
   </g>
   <g id="legend_1">
    <g id="patch_21">
     <path d="M 80.001562 113.958281 
L 98.001562 113.958281 
L 98.001562 107.658281 
L 80.001562 107.658281 
z
" style="fill: #3274a1; stroke: #3f3f3f; stroke-width: 0.75; stroke-linejoin: miter"/>
    </g>
    <g id="text_11">
     <!-- activator -->
     <g transform="translate(105.201562 113.958281) scale(0.09 -0.09)">
      <defs>
       <path id="DejaVuSans-6f" d="M 1959 3097 
Q 1497 3097 1228 2736 
Q 959 2375 959 1747 
Q 959 1119 1226 758 
Q 1494 397 1959 397 
Q 2419 397 2687 759 
Q 2956 1122 2956 1747 
Q 2956 2369 2687 2733 
Q 2419 3097 1959 3097 
z
M 1959 3584 
Q 2709 3584 3137 3096 
Q 3566 2609 3566 1747 
Q 3566 888 3137 398 
Q 2709 -91 1959 -91 
Q 1206 -91 779 398 
Q 353 888 353 1747 
Q 353 2609 779 3096 
Q 1206 3584 1959 3584 
z
" transform="scale(0.015625)"/>
      </defs>
      <use xlink:href="#DejaVuSans-61"/>
      <use xlink:href="#DejaVuSans-63" x="61.279297"/>
      <use xlink:href="#DejaVuSans-74" x="116.259766"/>
      <use xlink:href="#DejaVuSans-69" x="155.46875"/>
      <use xlink:href="#DejaVuSans-76" x="183.251953"/>
      <use xlink:href="#DejaVuSans-61" x="242.431641"/>
      <use xlink:href="#DejaVuSans-74" x="303.710938"/>
      <use xlink:href="#DejaVuSans-6f" x="342.919922"/>
      <use xlink:href="#DejaVuSans-72" x="404.101562"/>
     </g>
    </g>
    <g id="patch_22">
     <path d="M 80.001562 127.168594 
L 98.001562 127.168594 
L 98.001562 120.868594 
L 80.001562 120.868594 
z
" style="fill: #c03d3e; stroke: #3f3f3f; stroke-width: 0.75; stroke-linejoin: miter"/>
    </g>
    <g id="text_12">
     <!-- repressor -->
     <g transform="translate(105.201562 127.168594) scale(0.09 -0.09)">
      <defs>
       <path id="DejaVuSans-65" d="M 3597 1894 
L 3597 1613 
L 953 1613 
Q 991 1019 1311 708 
Q 1631 397 2203 397 
Q 2534 397 2845 478 
Q 3156 559 3463 722 
L 3463 178 
Q 3153 47 2828 -22 
Q 2503 -91 2169 -91 
Q 1331 -91 842 396 
Q 353 884 353 1716 
Q 353 2575 817 3079 
Q 1281 3584 2069 3584 
Q 2775 3584 3186 3129 
Q 3597 2675 3597 1894 
z
M 3022 2063 
Q 3016 2534 2758 2815 
Q 2500 3097 2075 3097 
Q 1594 3097 1305 2825 
Q 1016 2553 972 2059 
L 3022 2063 
z
" transform="scale(0.015625)"/>
      </defs>
      <use xlink:href="#DejaVuSans-72"/>
      <use xlink:href="#DejaVuSans-65" x="38.863281"/>
      <use xlink:href="#DejaVuSans-70" x="100.386719"/>
      <use xlink:href="#DejaVuSans-72" x="163.863281"/>
      <use xlink:href="#DejaVuSans-65" x="202.726562"/>
      <use xlink:href="#DejaVuSans-73" x="264.25"/>
      <use xlink:href="#DejaVuSans-73" x="316.349609"/>
      <use xlink:href="#DejaVuSans-6f" x="368.449219"/>
      <use xlink:href="#DejaVuSans-72" x="429.630859"/>
     </g>
    </g>
   </g>
  </g>
 </g>
 <defs>
  <clipPath id="pb8102e6d6d">
   <rect x="71.901562" y="7.2" width="139.5" height="221.76"/>
  </clipPath>
 </defs>
</svg>
