<?xml version="1.0" encoding="utf-8" standalone="no"?>
<!DOCTYPE svg PUBLIC "-//W3C//DTD SVG 1.1//EN"
  "http://www.w3.org/Graphics/SVG/1.1/DTD/svg11.dtd">
<svg xmlns:xlink="http://www.w3.org/1999/xlink" width="402.180625pt" height="208.595938pt" viewBox="0 0 402.180625 208.595938" xmlns="http://www.w3.org/2000/svg" version="1.1">
 <metadata>
  <rdf:RDF xmlns:dc="http://purl.org/dc/elements/1.1/" xmlns:cc="http://creativecommons.org/ns#" xmlns:rdf="http://www.w3.org/1999/02/22-rdf-syntax-ns#">
   <cc:Work>
    <dc:type rdf:resource="http://purl.org/dc/dcmitype/StillImage"/>
    <dc:date>2023-10-09T17:32:35.919976</dc:date>
    <dc:format>image/svg+xml</dc:format>
    <dc:creator>
     <cc:Agent>
      <dc:title>Matplotlib v3.6.2, https://matplotlib.org/</dc:title>
     </cc:Agent>
    </dc:creator>
   </cc:Work>
  </rdf:RDF>
 </metadata>
 <defs>
  <style type="text/css">*{stroke-linejoin: round; stroke-linecap: butt}</style>
 </defs>
 <g id="figure_1">
  <g id="patch_1">
   <path d="M 0 208.595938 
L 402.180625 208.595938 
L 402.180625 0 
L 0 0 
z
" style="fill: #ffffff"/>
  </g>
  <g id="axes_1">
   <g id="patch_2">
    <path d="M 60.180625 173.52 
L 394.980625 173.52 
L 394.980625 7.2 
L 60.180625 7.2 
z
" style="fill: #ffffff"/>
   </g>
   <g id="line2d_1">
    <path d="M 60.180625 96.384679 
L 394.980625 96.384679 
" clip-path="url(#p5fb3bb2d54)" style="fill: none; stroke-dasharray: 2.96,1.28; stroke-dashoffset: 0; stroke: #7f7f7f; stroke-width: 0.8"/>
   </g>
   <g id="PolyCollection_1">
    <defs>
     <path id="ma94fd075ea" d="M 84.999084 -42.635937 
L 83.190737 -42.635937 
L 83.152837 -44.008618 
L 83.126689 -45.381299 
L 83.111625 -46.753979 
L 83.106079 -48.12666 
L 83.107726 -49.49934 
L 83.113681 -50.872021 
L 83.120745 -52.244701 
L 83.125663 -53.617382 
L 83.125365 -54.990062 
L 83.117173 -56.362743 
L 83.098964 -57.735423 
L 83.069287 -59.108104 
L 83.027437 -60.480784 
L 82.973497 -61.853465 
L 82.90834 -63.226145 
L 82.833601 -64.598826 
L 82.751596 -65.971507 
L 82.665186 -67.344187 
L 82.577562 -68.716868 
L 82.491956 -70.089548 
L 82.411282 -71.462229 
L 82.337727 -72.834909 
L 82.272343 -74.20759 
L 82.214686 -75.58027 
L 82.162552 -76.952951 
L 82.111884 -78.325631 
L 82.056849 -79.698312 
L 81.990124 -81.070992 
L 81.903358 -82.443673 
L 81.78776 -83.816353 
L 81.634761 -85.189034 
L 81.436657 -86.561715 
L 81.187173 -87.934395 
L 80.881878 -89.307076 
L 80.518414 -90.679756 
L 80.096535 -92.052437 
L 79.617955 -93.425117 
L 79.086067 -94.797798 
L 78.505565 -96.170478 
L 77.882046 -97.543159 
L 77.221649 -98.915839 
L 76.530779 -100.28852 
L 75.815959 -101.6612 
L 75.083811 -103.033881 
L 74.341181 -104.406561 
L 73.595358 -105.779242 
L 72.854353 -107.151923 
L 72.12718 -108.524603 
L 71.42406 -109.897284 
L 70.756503 -111.269964 
L 70.137202 -112.642645 
L 69.579706 -114.015325 
L 69.097894 -115.388006 
L 68.705252 -116.760686 
L 68.41404 -118.133367 
L 68.234423 -119.506047 
L 68.17367 -120.878728 
L 68.235522 -122.251408 
L 68.419801 -123.624089 
L 68.722309 -124.996769 
L 69.135038 -126.36945 
L 69.646647 -127.742131 
L 70.243143 -129.114811 
L 70.908702 -130.487492 
L 71.62651 -131.860172 
L 72.379568 -133.232853 
L 73.151386 -134.605533 
L 73.92654 -135.978214 
L 74.691082 -137.350894 
L 75.432814 -138.723575 
L 76.141471 -140.096255 
L 76.808822 -141.468936 
L 77.428732 -142.841616 
L 77.997176 -144.214297 
L 78.512222 -145.586977 
L 78.973946 -146.959658 
L 79.384275 -148.332339 
L 79.746738 -149.705019 
L 80.066123 -151.0777 
L 80.348053 -152.45038 
L 80.598516 -153.823061 
L 80.823394 -155.195741 
L 81.028034 -156.568422 
L 81.216919 -157.941102 
L 81.393476 -159.313783 
L 81.560025 -160.686463 
L 81.717876 -162.059144 
L 81.867548 -163.431824 
L 82.009054 -164.804505 
L 82.142221 -166.177185 
L 82.266971 -167.549866 
L 82.383534 -168.922547 
L 82.492568 -170.295227 
L 82.59516 -171.667908 
L 82.692732 -173.040588 
L 82.786877 -174.413269 
L 82.879148 -175.785949 
L 82.970848 -177.15863 
L 83.062864 -178.53131 
L 85.126958 -178.53131 
L 85.126958 -178.53131 
L 85.218973 -177.15863 
L 85.310674 -175.785949 
L 85.402944 -174.413269 
L 85.497089 -173.040588 
L 85.594662 -171.667908 
L 85.697253 -170.295227 
L 85.806287 -168.922547 
L 85.922851 -167.549866 
L 86.0476 -166.177185 
L 86.180767 -164.804505 
L 86.322274 -163.431824 
L 86.471945 -162.059144 
L 86.629797 -160.686463 
L 86.796345 -159.313783 
L 86.972902 -157.941102 
L 87.161788 -156.568422 
L 87.366427 -155.195741 
L 87.591305 -153.823061 
L 87.841769 -152.45038 
L 88.123699 -151.0777 
L 88.443083 -149.705019 
L 88.805546 -148.332339 
L 89.215875 -146.959658 
L 89.677599 -145.586977 
L 90.192645 -144.214297 
L 90.76109 -142.841616 
L 91.380999 -141.468936 
L 92.04835 -140.096255 
L 92.757007 -138.723575 
L 93.49874 -137.350894 
L 94.263281 -135.978214 
L 95.038436 -134.605533 
L 95.810254 -133.232853 
L 96.563311 -131.860172 
L 97.281119 -130.487492 
L 97.946678 -129.114811 
L 98.543175 -127.742131 
L 99.054783 -126.36945 
L 99.467513 -124.996769 
L 99.770021 -123.624089 
L 99.954299 -122.251408 
L 100.016151 -120.878728 
L 99.955399 -119.506047 
L 99.775782 -118.133367 
L 99.48457 -116.760686 
L 99.091928 -115.388006 
L 98.610116 -114.015325 
L 98.05262 -112.642645 
L 97.433318 -111.269964 
L 96.765762 -109.897284 
L 96.062642 -108.524603 
L 95.335468 -107.151923 
L 94.594463 -105.779242 
L 93.84864 -104.406561 
L 93.106011 -103.033881 
L 92.373863 -101.6612 
L 91.659042 -100.28852 
L 90.968172 -98.915839 
L 90.307775 -97.543159 
L 89.684256 -96.170478 
L 89.103754 -94.797798 
L 88.571867 -93.425117 
L 88.093287 -92.052437 
L 87.671407 -90.679756 
L 87.307943 -89.307076 
L 87.002648 -87.934395 
L 86.753164 -86.561715 
L 86.55506 -85.189034 
L 86.402061 -83.816353 
L 86.286464 -82.443673 
L 86.199697 -81.070992 
L 86.132972 -79.698312 
L 86.077937 -78.325631 
L 86.027269 -76.952951 
L 85.975136 -75.58027 
L 85.917478 -74.20759 
L 85.852095 -72.834909 
L 85.77854 -71.462229 
L 85.697865 -70.089548 
L 85.612259 -68.716868 
L 85.524635 -67.344187 
L 85.438225 -65.971507 
L 85.356221 -64.598826 
L 85.281481 -63.226145 
L 85.216325 -61.853465 
L 85.162384 -60.480784 
L 85.120534 -59.108104 
L 85.090857 -57.735423 
L 85.072648 -56.362743 
L 85.064457 -54.990062 
L 85.064159 -53.617382 
L 85.069077 -52.244701 
L 85.076141 -50.872021 
L 85.082095 -49.49934 
L 85.083742 -48.12666 
L 85.078197 -46.753979 
L 85.063132 -45.381299 
L 85.036984 -44.008618 
L 84.999084 -42.635937 
z
" style="stroke: #3f3f3f; stroke-width: 1.5"/>
    </defs>
    <g clip-path="url(#p5fb3bb2d54)">
     <use xlink:href="#ma94fd075ea" x="0" y="208.595938" style="fill: #3274a1; stroke: #3f3f3f; stroke-width: 1.5"/>
    </g>
   </g>
   <g id="PolyCollection_2">
    <defs>
     <path id="md848231007" d="M 133.403027 -50.99275 
L 130.443938 -50.99275 
L 130.348496 -52.023364 
L 130.250941 -53.053979 
L 130.151462 -54.084594 
L 130.050273 -55.115208 
L 129.947614 -56.145823 
L 129.843749 -57.176438 
L 129.738965 -58.207052 
L 129.633569 -59.237667 
L 129.527877 -60.268282 
L 129.422206 -61.298896 
L 129.316865 -62.329511 
L 129.212137 -63.360125 
L 129.108266 -64.39074 
L 129.005441 -65.421355 
L 128.903781 -66.451969 
L 128.803319 -67.482584 
L 128.703989 -68.513199 
L 128.60562 -69.543813 
L 128.507921 -70.574428 
L 128.410482 -71.605042 
L 128.31277 -72.635657 
L 128.214137 -73.666272 
L 128.113819 -74.696886 
L 128.010957 -75.727501 
L 127.904601 -76.758116 
L 127.793734 -77.78873 
L 127.677288 -78.819345 
L 127.554172 -79.849959 
L 127.42329 -80.880574 
L 127.283573 -81.911189 
L 127.134004 -82.941803 
L 126.973651 -83.972418 
L 126.801693 -85.003033 
L 126.617452 -86.033647 
L 126.420425 -87.064262 
L 126.210309 -88.094877 
L 125.987033 -89.125491 
L 125.75078 -90.156106 
L 125.502008 -91.18672 
L 125.241465 -92.217335 
L 124.970202 -93.24795 
L 124.689571 -94.278564 
L 124.401224 -95.309179 
L 124.107092 -96.339794 
L 123.809367 -97.370408 
L 123.510462 -98.401023 
L 123.212972 -99.431637 
L 122.919616 -100.462252 
L 122.633184 -101.492867 
L 122.356466 -102.523481 
L 122.092185 -103.554096 
L 121.842929 -104.584711 
L 121.611083 -105.615325 
L 121.398765 -106.64594 
L 121.207774 -107.676554 
L 121.039542 -108.707169 
L 120.895106 -109.737784 
L 120.775088 -110.768398 
L 120.679693 -111.799013 
L 120.608724 -112.829628 
L 120.561606 -113.860242 
L 120.537431 -114.890857 
L 120.535008 -115.921472 
L 120.552927 -116.952086 
L 120.589625 -117.982701 
L 120.643458 -119.013315 
L 120.712764 -120.04393 
L 120.795933 -121.074545 
L 120.891459 -122.105159 
L 120.997991 -123.135774 
L 121.114361 -124.166389 
L 121.239612 -125.197003 
L 121.373004 -126.227618 
L 121.514009 -127.258232 
L 121.662296 -128.288847 
L 121.817709 -129.319462 
L 121.98023 -130.350076 
L 122.149944 -131.380691 
L 122.327003 -132.411306 
L 122.511582 -133.44192 
L 122.703848 -134.472535 
L 122.903926 -135.503149 
L 123.111875 -136.533764 
L 123.327669 -137.564379 
L 123.551188 -138.594993 
L 123.782209 -139.625608 
L 124.020411 -140.656223 
L 124.26538 -141.686837 
L 124.516619 -142.717452 
L 124.773559 -143.748067 
L 125.035569 -144.778681 
L 125.301973 -145.809296 
L 125.572057 -146.83991 
L 125.845078 -147.870525 
L 126.120268 -148.90114 
L 126.396842 -149.931754 
L 126.673995 -150.962369 
L 126.950904 -151.992984 
L 127.226727 -153.023598 
L 136.620237 -153.023598 
L 136.620237 -153.023598 
L 136.89606 -151.992984 
L 137.172969 -150.962369 
L 137.450122 -149.931754 
L 137.726696 -148.90114 
L 138.001887 -147.870525 
L 138.274907 -146.83991 
L 138.544992 -145.809296 
L 138.811396 -144.778681 
L 139.073406 -143.748067 
L 139.330345 -142.717452 
L 139.581584 -141.686837 
L 139.826553 -140.656223 
L 140.064756 -139.625608 
L 140.295776 -138.594993 
L 140.519295 -137.564379 
L 140.735089 -136.533764 
L 140.943038 -135.503149 
L 141.143116 -134.472535 
L 141.335382 -133.44192 
L 141.519961 -132.411306 
L 141.69702 -131.380691 
L 141.866735 -130.350076 
L 142.029255 -129.319462 
L 142.184668 -128.288847 
L 142.332956 -127.258232 
L 142.47396 -126.227618 
L 142.607352 -125.197003 
L 142.732604 -124.166389 
L 142.848974 -123.135774 
L 142.955505 -122.105159 
L 143.051032 -121.074545 
L 143.1342 -120.04393 
L 143.203507 -119.013315 
L 143.257339 -117.982701 
L 143.294038 -116.952086 
L 143.311957 -115.921472 
L 143.309534 -114.890857 
L 143.285358 -113.860242 
L 143.23824 -112.829628 
L 143.167271 -111.799013 
L 143.071877 -110.768398 
L 142.951859 -109.737784 
L 142.807423 -108.707169 
L 142.639191 -107.676554 
L 142.448199 -106.64594 
L 142.235882 -105.615325 
L 142.004035 -104.584711 
L 141.75478 -103.554096 
L 141.490499 -102.523481 
L 141.21378 -101.492867 
L 140.927348 -100.462252 
L 140.633993 -99.431637 
L 140.336502 -98.401023 
L 140.037597 -97.370408 
L 139.739872 -96.339794 
L 139.445741 -95.309179 
L 139.157393 -94.278564 
L 138.876762 -93.24795 
L 138.605499 -92.217335 
L 138.344956 -91.18672 
L 138.096184 -90.156106 
L 137.859931 -89.125491 
L 137.636655 -88.094877 
L 137.42654 -87.064262 
L 137.229512 -86.033647 
L 137.045271 -85.003033 
L 136.873313 -83.972418 
L 136.71296 -82.941803 
L 136.563392 -81.911189 
L 136.423674 -80.880574 
L 136.292792 -79.849959 
L 136.169676 -78.819345 
L 136.053231 -77.78873 
L 135.942363 -76.758116 
L 135.836007 -75.727501 
L 135.733145 -74.696886 
L 135.632828 -73.666272 
L 135.534194 -72.635657 
L 135.436483 -71.605042 
L 135.339043 -70.574428 
L 135.241344 -69.543813 
L 135.142975 -68.513199 
L 135.043646 -67.482584 
L 134.943183 -66.451969 
L 134.841523 -65.421355 
L 134.738698 -64.39074 
L 134.634827 -63.360125 
L 134.530099 -62.329511 
L 134.424758 -61.298896 
L 134.319088 -60.268282 
L 134.213395 -59.237667 
L 134.107999 -58.207052 
L 134.003215 -57.176438 
L 133.89935 -56.145823 
L 133.796691 -55.115208 
L 133.695503 -54.084594 
L 133.596024 -53.053979 
L 133.498468 -52.023364 
L 133.403027 -50.99275 
z
" style="stroke: #3f3f3f; stroke-width: 1.5"/>
    </defs>
    <g clip-path="url(#p5fb3bb2d54)">
     <use xlink:href="#md848231007" x="0" y="208.595938" style="fill: #3274a1; stroke: #3f3f3f; stroke-width: 1.5"/>
    </g>
   </g>
   <g id="PolyCollection_3">
    <defs>
     <path id="mcc3264e869" d="M 181.528434 -71.39892 
L 177.975674 -71.39892 
L 177.811252 -72.326792 
L 177.634785 -73.254664 
L 177.44532 -74.182536 
L 177.241906 -75.110408 
L 177.02362 -76.038281 
L 176.789614 -76.966153 
L 176.539147 -77.894025 
L 176.271629 -78.821897 
L 175.98666 -79.74977 
L 175.684068 -80.677642 
L 175.363944 -81.605514 
L 175.026671 -82.533386 
L 174.672956 -83.461259 
L 174.303844 -84.389131 
L 173.920739 -85.317003 
L 173.525405 -86.244875 
L 173.119967 -87.172748 
L 172.706895 -88.10062 
L 172.288981 -89.028492 
L 171.8693 -89.956364 
L 171.451161 -90.884237 
L 171.038041 -91.812109 
L 170.63351 -92.739981 
L 170.241141 -93.667853 
L 169.864417 -94.595726 
L 169.50662 -95.523598 
L 169.170737 -96.45147 
L 168.85935 -97.379342 
L 168.574547 -98.307215 
L 168.317842 -99.235087 
L 168.090111 -100.162959 
L 167.891556 -101.090831 
L 167.721693 -102.018704 
L 167.579365 -102.946576 
L 167.462791 -103.874448 
L 167.36964 -104.80232 
L 167.297129 -105.730192 
L 167.242151 -106.658065 
L 167.20141 -107.585937 
L 167.171577 -108.513809 
L 167.149439 -109.441681 
L 167.132054 -110.369554 
L 167.116889 -111.297426 
L 167.101939 -112.225298 
L 167.085824 -113.15317 
L 167.067856 -114.081043 
L 167.048073 -115.008915 
L 167.027237 -115.936787 
L 167.006799 -116.864659 
L 166.98883 -117.792532 
L 166.975926 -118.720404 
L 166.971081 -119.648276 
L 166.977554 -120.576148 
L 166.998709 -121.504021 
L 167.03787 -122.431893 
L 167.098163 -123.359765 
L 167.182381 -124.287637 
L 167.292861 -125.21551 
L 167.43139 -126.143382 
L 167.599129 -127.071254 
L 167.796573 -127.999126 
L 168.023542 -128.926999 
L 168.279194 -129.854871 
L 168.56207 -130.782743 
L 168.870158 -131.710615 
L 169.200974 -132.638488 
L 169.551654 -133.56636 
L 169.919056 -134.494232 
L 170.299856 -135.422104 
L 170.690646 -136.349976 
L 171.088014 -137.277849 
L 171.488626 -138.205721 
L 171.889281 -139.133593 
L 172.286966 -140.061465 
L 172.678885 -140.989338 
L 173.062489 -141.91721 
L 173.435492 -142.845082 
L 173.795876 -143.772954 
L 174.141902 -144.700827 
L 174.472111 -145.628699 
L 174.785328 -146.556571 
L 175.08067 -147.484443 
L 175.357549 -148.412316 
L 175.615676 -149.340188 
L 175.85507 -150.26806 
L 176.076052 -151.195932 
L 176.279247 -152.123805 
L 176.465565 -153.051677 
L 176.636183 -153.979549 
L 176.792512 -154.907421 
L 176.936154 -155.835294 
L 177.068851 -156.763166 
L 177.192424 -157.691038 
L 177.30871 -158.61891 
L 177.419493 -159.546783 
L 177.526438 -160.474655 
L 177.631034 -161.402527 
L 177.734542 -162.330399 
L 177.837955 -163.258271 
L 181.666152 -163.258271 
L 181.666152 -163.258271 
L 181.769565 -162.330399 
L 181.873073 -161.402527 
L 181.97767 -160.474655 
L 182.084615 -159.546783 
L 182.195397 -158.61891 
L 182.311683 -157.691038 
L 182.435256 -156.763166 
L 182.567954 -155.835294 
L 182.711596 -154.907421 
L 182.867924 -153.979549 
L 183.038542 -153.051677 
L 183.22486 -152.123805 
L 183.428055 -151.195932 
L 183.649037 -150.26806 
L 183.888431 -149.340188 
L 184.146558 -148.412316 
L 184.423437 -147.484443 
L 184.718779 -146.556571 
L 185.031996 -145.628699 
L 185.362205 -144.700827 
L 185.708231 -143.772954 
L 186.068615 -142.845082 
L 186.441618 -141.91721 
L 186.825223 -140.989338 
L 187.217142 -140.061465 
L 187.614826 -139.133593 
L 188.015481 -138.205721 
L 188.416093 -137.277849 
L 188.813461 -136.349976 
L 189.204251 -135.422104 
L 189.585052 -134.494232 
L 189.952454 -133.56636 
L 190.303134 -132.638488 
L 190.633949 -131.710615 
L 190.942037 -130.782743 
L 191.224913 -129.854871 
L 191.480565 -128.926999 
L 191.707534 -127.999126 
L 191.904978 -127.071254 
L 192.072717 -126.143382 
L 192.211246 -125.21551 
L 192.321726 -124.287637 
L 192.405944 -123.359765 
L 192.466237 -122.431893 
L 192.505398 -121.504021 
L 192.526553 -120.576148 
L 192.533026 -119.648276 
L 192.528181 -118.720404 
L 192.515277 -117.792532 
L 192.497308 -116.864659 
L 192.47687 -115.936787 
L 192.456034 -115.008915 
L 192.436251 -114.081043 
L 192.418283 -113.15317 
L 192.402168 -112.225298 
L 192.387218 -111.297426 
L 192.372053 -110.369554 
L 192.354669 -109.441681 
L 192.332531 -108.513809 
L 192.302697 -107.585937 
L 192.261956 -106.658065 
L 192.206978 -105.730192 
L 192.134468 -104.80232 
L 192.041316 -103.874448 
L 191.924742 -102.946576 
L 191.782414 -102.018704 
L 191.612551 -101.090831 
L 191.413996 -100.162959 
L 191.186266 -99.235087 
L 190.92956 -98.307215 
L 190.644757 -97.379342 
L 190.33337 -96.45147 
L 189.997487 -95.523598 
L 189.639691 -94.595726 
L 189.262966 -93.667853 
L 188.870598 -92.739981 
L 188.466067 -91.812109 
L 188.052947 -90.884237 
L 187.634807 -89.956364 
L 187.215126 -89.028492 
L 186.797212 -88.10062 
L 186.38414 -87.172748 
L 185.978702 -86.244875 
L 185.583368 -85.317003 
L 185.200263 -84.389131 
L 184.831151 -83.461259 
L 184.477436 -82.533386 
L 184.140163 -81.605514 
L 183.820039 -80.677642 
L 183.517447 -79.74977 
L 183.232478 -78.821897 
L 182.96496 -77.894025 
L 182.714493 -76.966153 
L 182.480487 -76.038281 
L 182.262202 -75.110408 
L 182.058787 -74.182536 
L 181.869323 -73.254664 
L 181.692855 -72.326792 
L 181.528434 -71.39892 
z
" style="stroke: #3f3f3f; stroke-width: 1.5"/>
    </defs>
    <g clip-path="url(#p5fb3bb2d54)">
     <use xlink:href="#mcc3264e869" x="0" y="208.595938" style="fill: #3274a1; stroke: #3f3f3f; stroke-width: 1.5"/>
    </g>
   </g>
   <g id="PolyCollection_4">
    <defs>
     <path id="mf4eac23908" d="M 230.375579 -72.199161 
L 224.785671 -72.199161 
L 224.624954 -73.427816 
L 224.464097 -74.65647 
L 224.302126 -75.885124 
L 224.137635 -77.113779 
L 223.968802 -78.342433 
L 223.793428 -79.571087 
L 223.608992 -80.799742 
L 223.412737 -82.028396 
L 223.20177 -83.25705 
L 222.973186 -84.485704 
L 222.724201 -85.714359 
L 222.452299 -86.943013 
L 222.155381 -88.171667 
L 221.831915 -89.400322 
L 221.481071 -90.628976 
L 221.102845 -91.85763 
L 220.698158 -93.086285 
L 220.268925 -94.314939 
L 219.818088 -95.543593 
L 219.349609 -96.772248 
L 218.868426 -98.000902 
L 218.380357 -99.229556 
L 217.891969 -100.45821 
L 217.41041 -101.686865 
L 216.943206 -102.915519 
L 216.498034 -104.144173 
L 216.082488 -105.372828 
L 215.703831 -106.601482 
L 215.368765 -107.830136 
L 215.083214 -109.058791 
L 214.852142 -110.287445 
L 214.679404 -111.516099 
L 214.567642 -112.744753 
L 214.518237 -113.973408 
L 214.531303 -115.202062 
L 214.605733 -116.430716 
L 214.739286 -117.659371 
L 214.928716 -118.888025 
L 215.169923 -120.116679 
L 215.458128 -121.345334 
L 215.788053 -122.573988 
L 216.154099 -123.802642 
L 216.550519 -125.031297 
L 216.971566 -126.259951 
L 217.411621 -127.488605 
L 217.865299 -128.717259 
L 218.327526 -129.945914 
L 218.793582 -131.174568 
L 219.259139 -132.403222 
L 219.720261 -133.631877 
L 220.173401 -134.860531 
L 220.615392 -136.089185 
L 221.043417 -137.31784 
L 221.455002 -138.546494 
L 221.847987 -139.775148 
L 222.220522 -141.003802 
L 222.571056 -142.232457 
L 222.898332 -143.461111 
L 223.201392 -144.689765 
L 223.479577 -145.91842 
L 223.732533 -147.147074 
L 223.960206 -148.375728 
L 224.162846 -149.604383 
L 224.340993 -150.833037 
L 224.495469 -152.061691 
L 224.627352 -153.290345 
L 224.737956 -154.519 
L 224.828797 -155.747654 
L 224.901562 -156.976308 
L 224.958072 -158.204963 
L 225.000246 -159.433617 
L 225.030067 -160.662271 
L 225.049544 -161.890926 
L 225.060684 -163.11958 
L 225.065458 -164.348234 
L 225.065781 -165.576889 
L 225.063483 -166.805543 
L 225.060289 -168.034197 
L 225.057804 -169.262851 
L 225.05749 -170.491506 
L 225.060655 -171.72016 
L 225.068442 -172.948814 
L 225.081813 -174.177469 
L 225.101548 -175.406123 
L 225.128235 -176.634777 
L 225.16227 -177.863432 
L 225.20386 -179.092086 
L 225.253028 -180.32074 
L 225.309627 -181.549394 
L 225.373345 -182.778049 
L 225.443734 -184.006703 
L 225.52022 -185.235357 
L 225.602128 -186.464012 
L 225.688708 -187.692666 
L 225.779153 -188.92132 
L 225.872623 -190.149975 
L 225.968266 -191.378629 
L 226.065237 -192.607283 
L 226.162712 -193.835938 
L 228.998538 -193.835938 
L 228.998538 -193.835938 
L 229.096013 -192.607283 
L 229.192984 -191.378629 
L 229.288627 -190.149975 
L 229.382097 -188.92132 
L 229.472542 -187.692666 
L 229.559122 -186.464012 
L 229.64103 -185.235357 
L 229.717516 -184.006703 
L 229.787905 -182.778049 
L 229.851623 -181.549394 
L 229.908222 -180.32074 
L 229.95739 -179.092086 
L 229.99898 -177.863432 
L 230.033015 -176.634777 
L 230.059702 -175.406123 
L 230.079437 -174.177469 
L 230.092808 -172.948814 
L 230.100595 -171.72016 
L 230.10376 -170.491506 
L 230.103446 -169.262851 
L 230.100961 -168.034197 
L 230.097767 -166.805543 
L 230.095469 -165.576889 
L 230.095792 -164.348234 
L 230.100566 -163.11958 
L 230.111706 -161.890926 
L 230.131183 -160.662271 
L 230.161004 -159.433617 
L 230.203178 -158.204963 
L 230.259688 -156.976308 
L 230.332453 -155.747654 
L 230.423294 -154.519 
L 230.533898 -153.290345 
L 230.665781 -152.061691 
L 230.820257 -150.833037 
L 230.998404 -149.604383 
L 231.201044 -148.375728 
L 231.428717 -147.147074 
L 231.681673 -145.91842 
L 231.959858 -144.689765 
L 232.262918 -143.461111 
L 232.590194 -142.232457 
L 232.940728 -141.003802 
L 233.313263 -139.775148 
L 233.706248 -138.546494 
L 234.117833 -137.31784 
L 234.545858 -136.089185 
L 234.987849 -134.860531 
L 235.440989 -133.631877 
L 235.902111 -132.403222 
L 236.367668 -131.174568 
L 236.833724 -129.945914 
L 237.295951 -128.717259 
L 237.749629 -127.488605 
L 238.189684 -126.259951 
L 238.610731 -125.031297 
L 239.007151 -123.802642 
L 239.373197 -122.573988 
L 239.703122 -121.345334 
L 239.991327 -120.116679 
L 240.232534 -118.888025 
L 240.421964 -117.659371 
L 240.555517 -116.430716 
L 240.629947 -115.202062 
L 240.643013 -113.973408 
L 240.593608 -112.744753 
L 240.481846 -111.516099 
L 240.309108 -110.287445 
L 240.078036 -109.058791 
L 239.792485 -107.830136 
L 239.457419 -106.601482 
L 239.078762 -105.372828 
L 238.663216 -104.144173 
L 238.218044 -102.915519 
L 237.75084 -101.686865 
L 237.269281 -100.45821 
L 236.780893 -99.229556 
L 236.292824 -98.000902 
L 235.811641 -96.772248 
L 235.343162 -95.543593 
L 234.892325 -94.314939 
L 234.463092 -93.086285 
L 234.058405 -91.85763 
L 233.680179 -90.628976 
L 233.329335 -89.400322 
L 233.005869 -88.171667 
L 232.708951 -86.943013 
L 232.437049 -85.714359 
L 232.188064 -84.485704 
L 231.95948 -83.25705 
L 231.748513 -82.028396 
L 231.552258 -80.799742 
L 231.367822 -79.571087 
L 231.192448 -78.342433 
L 231.023615 -77.113779 
L 230.859124 -75.885124 
L 230.697153 -74.65647 
L 230.536296 -73.427816 
L 230.375579 -72.199161 
z
" style="stroke: #3f3f3f; stroke-width: 1.5"/>
    </defs>
    <g clip-path="url(#p5fb3bb2d54)">
     <use xlink:href="#mf4eac23908" x="0" y="208.595938" style="fill: #3274a1; stroke: #3f3f3f; stroke-width: 1.5"/>
    </g>
   </g>
   <g id="PolyCollection_5">
    <defs>
     <path id="mcdd385699c" d="M 279.110575 -76.840565 
L 271.707818 -76.840565 
L 271.364132 -77.884921 
L 271.014292 -78.929277 
L 270.661387 -79.973633 
L 270.308643 -81.017989 
L 269.959352 -82.062346 
L 269.616793 -83.106702 
L 269.284161 -84.151058 
L 268.964493 -85.195414 
L 268.660594 -86.23977 
L 268.374976 -87.284126 
L 268.109799 -88.328482 
L 267.866816 -89.372839 
L 267.647331 -90.417195 
L 267.452158 -91.461551 
L 267.281598 -92.505907 
L 267.135413 -93.550263 
L 267.012822 -94.594619 
L 266.912497 -95.638976 
L 266.832584 -96.683332 
L 266.770727 -97.727688 
L 266.72411 -98.772044 
L 266.689518 -99.8164 
L 266.663408 -100.860756 
L 266.641997 -101.905113 
L 266.621366 -102.949469 
L 266.597568 -103.993825 
L 266.566752 -105.038181 
L 266.525285 -106.082537 
L 266.469878 -107.126893 
L 266.397707 -108.171249 
L 266.306524 -109.215606 
L 266.194752 -110.259962 
L 266.061569 -111.304318 
L 265.906964 -112.348674 
L 265.731768 -113.39303 
L 265.537662 -114.437386 
L 265.32715 -115.481743 
L 265.103508 -116.526099 
L 264.870706 -117.570455 
L 264.6333 -118.614811 
L 264.396305 -119.659167 
L 264.165056 -120.703523 
L 263.94505 -121.74788 
L 263.741792 -122.792236 
L 263.560638 -123.836592 
L 263.406649 -124.880948 
L 263.284464 -125.925304 
L 263.198179 -126.96966 
L 263.151268 -128.014016 
L 263.146504 -129.058373 
L 263.185928 -130.102729 
L 263.27082 -131.147085 
L 263.401697 -132.191441 
L 263.578332 -133.235797 
L 263.799776 -134.280153 
L 264.064395 -135.32451 
L 264.369905 -136.368866 
L 264.713423 -137.413222 
L 265.091511 -138.457578 
L 265.500225 -139.501934 
L 265.935174 -140.54629 
L 266.391578 -141.590647 
L 266.864341 -142.635003 
L 267.348129 -143.679359 
L 267.837463 -144.723715 
L 268.326816 -145.768071 
L 268.81073 -146.812427 
L 269.28393 -147.856783 
L 269.741445 -148.90114 
L 270.178728 -149.945496 
L 270.591767 -150.989852 
L 270.977181 -152.034208 
L 271.332306 -153.078564 
L 271.655247 -154.12292 
L 271.944913 -155.167277 
L 272.201019 -156.211633 
L 272.424065 -157.255989 
L 272.61528 -158.300345 
L 272.77655 -159.344701 
L 272.910321 -160.389057 
L 273.019488 -161.433414 
L 273.107271 -162.47777 
L 273.177096 -163.522126 
L 273.232466 -164.566482 
L 273.276846 -165.610838 
L 273.31356 -166.655194 
L 273.345697 -167.69955 
L 273.37604 -168.743907 
L 273.407008 -169.788263 
L 273.440623 -170.832619 
L 273.478489 -171.876975 
L 273.521793 -172.921331 
L 273.571315 -173.965687 
L 273.627453 -175.010044 
L 273.690261 -176.0544 
L 273.759487 -177.098756 
L 273.834621 -178.143112 
L 273.914943 -179.187468 
L 273.999572 -180.231824 
L 276.818821 -180.231824 
L 276.818821 -180.231824 
L 276.90345 -179.187468 
L 276.983772 -178.143112 
L 277.058906 -177.098756 
L 277.128132 -176.0544 
L 277.19094 -175.010044 
L 277.247078 -173.965687 
L 277.2966 -172.921331 
L 277.339904 -171.876975 
L 277.37777 -170.832619 
L 277.411385 -169.788263 
L 277.442353 -168.743907 
L 277.472695 -167.69955 
L 277.504832 -166.655194 
L 277.541546 -165.610838 
L 277.585927 -164.566482 
L 277.641297 -163.522126 
L 277.711122 -162.47777 
L 277.798905 -161.433414 
L 277.908072 -160.389057 
L 278.041843 -159.344701 
L 278.203113 -158.300345 
L 278.394328 -157.255989 
L 278.617374 -156.211633 
L 278.87348 -155.167277 
L 279.163146 -154.12292 
L 279.486087 -153.078564 
L 279.841212 -152.034208 
L 280.226626 -150.989852 
L 280.639665 -149.945496 
L 281.076948 -148.90114 
L 281.534463 -147.856783 
L 282.007663 -146.812427 
L 282.491577 -145.768071 
L 282.98093 -144.723715 
L 283.470264 -143.679359 
L 283.954052 -142.635003 
L 284.426815 -141.590647 
L 284.883219 -140.54629 
L 285.318168 -139.501934 
L 285.726882 -138.457578 
L 286.104969 -137.413222 
L 286.448488 -136.368866 
L 286.753998 -135.32451 
L 287.018616 -134.280153 
L 287.240061 -133.235797 
L 287.416696 -132.191441 
L 287.547573 -131.147085 
L 287.632464 -130.102729 
L 287.671888 -129.058373 
L 287.667125 -128.014016 
L 287.620213 -126.96966 
L 287.533929 -125.925304 
L 287.411743 -124.880948 
L 287.257755 -123.836592 
L 287.076601 -122.792236 
L 286.873343 -121.74788 
L 286.653337 -120.703523 
L 286.422088 -119.659167 
L 286.185093 -118.614811 
L 285.947687 -117.570455 
L 285.714885 -116.526099 
L 285.491243 -115.481743 
L 285.280731 -114.437386 
L 285.086624 -113.39303 
L 284.911429 -112.348674 
L 284.756824 -111.304318 
L 284.623641 -110.259962 
L 284.511869 -109.215606 
L 284.420686 -108.171249 
L 284.348515 -107.126893 
L 284.293108 -106.082537 
L 284.251641 -105.038181 
L 284.220825 -103.993825 
L 284.197027 -102.949469 
L 284.176396 -101.905113 
L 284.154985 -100.860756 
L 284.128875 -99.8164 
L 284.094283 -98.772044 
L 284.047666 -97.727688 
L 283.985809 -96.683332 
L 283.905896 -95.638976 
L 283.805571 -94.594619 
L 283.68298 -93.550263 
L 283.536795 -92.505907 
L 283.366234 -91.461551 
L 283.171062 -90.417195 
L 282.951577 -89.372839 
L 282.708594 -88.328482 
L 282.443417 -87.284126 
L 282.157799 -86.23977 
L 281.8539 -85.195414 
L 281.534231 -84.151058 
L 281.2016 -83.106702 
L 280.859041 -82.062346 
L 280.509749 -81.017989 
L 280.157006 -79.973633 
L 279.804101 -78.929277 
L 279.454261 -77.884921 
L 279.110575 -76.840565 
z
" style="stroke: #3f3f3f; stroke-width: 1.5"/>
    </defs>
    <g clip-path="url(#p5fb3bb2d54)">
     <use xlink:href="#mcdd385699c" x="0" y="208.595938" style="fill: #3274a1; stroke: #3f3f3f; stroke-width: 1.5"/>
    </g>
   </g>
   <g id="PolyCollection_6">
    <defs>
     <path id="m20670e32e2" d="M 323.92209 -57.794806 
L 322.553446 -57.794806 
L 322.499233 -58.756713 
L 322.446756 -59.71862 
L 322.396541 -60.680527 
L 322.349104 -61.642434 
L 322.30494 -62.604341 
L 322.264479 -63.566248 
L 322.228025 -64.528155 
L 322.195667 -65.490062 
L 322.167185 -66.451969 
L 322.141961 -67.413876 
L 322.118917 -68.375783 
L 322.096505 -69.33769 
L 322.072743 -70.299597 
L 322.045327 -71.261504 
L 322.011796 -72.223411 
L 321.969742 -73.185318 
L 321.917041 -74.147225 
L 321.852078 -75.109132 
L 321.773925 -76.071039 
L 321.682469 -77.032946 
L 321.578449 -77.994853 
L 321.46341 -78.95676 
L 321.33957 -79.918667 
L 321.209618 -80.880574 
L 321.076465 -81.842481 
L 320.942966 -82.804388 
L 320.811644 -83.766295 
L 320.684426 -84.728202 
L 320.562415 -85.690109 
L 320.445689 -86.652016 
L 320.333148 -87.613923 
L 320.22239 -88.57583 
L 320.109633 -89.537737 
L 319.989676 -90.499644 
L 319.855924 -91.461551 
L 319.700481 -92.423458 
L 319.514341 -93.385365 
L 319.287685 -94.347272 
L 319.010294 -95.309179 
L 318.672094 -96.271086 
L 318.263788 -97.232993 
L 317.777575 -98.1949 
L 317.207879 -99.156807 
L 316.552059 -100.118714 
L 315.810998 -101.080621 
L 314.989542 -102.042528 
L 314.096693 -103.004435 
L 313.145541 -103.966342 
L 312.152887 -104.928249 
L 311.138585 -105.890156 
L 310.124606 -106.852063 
L 309.133918 -107.81397 
L 308.189243 -108.775877 
L 307.311811 -109.737784 
L 306.520215 -110.699691 
L 305.829477 -111.661598 
L 305.25041 -112.623505 
L 304.789319 -113.585412 
L 304.448083 -114.547319 
L 304.224565 -115.509226 
L 304.113295 -116.471133 
L 304.106339 -117.43304 
L 304.194231 -118.394947 
L 304.366861 -119.356854 
L 304.614222 -120.318761 
L 304.926961 -121.280668 
L 305.296676 -122.242575 
L 305.715991 -123.204482 
L 306.178435 -124.166389 
L 306.67818 -125.128296 
L 307.209725 -126.090203 
L 307.767575 -127.05211 
L 308.345993 -128.014016 
L 308.938849 -128.975923 
L 309.539588 -129.93783 
L 310.14132 -130.899737 
L 310.737009 -131.861644 
L 311.319735 -132.823551 
L 311.883011 -133.785458 
L 312.421107 -134.747365 
L 312.929368 -135.709272 
L 313.404493 -136.671179 
L 313.844765 -137.633086 
L 314.25019 -138.594993 
L 314.622549 -139.5569 
L 314.96534 -140.518807 
L 315.283595 -141.480714 
L 315.583581 -142.442621 
L 315.872394 -143.404528 
L 316.157469 -144.366435 
L 316.446032 -145.328342 
L 316.744559 -146.290249 
L 317.058274 -147.252156 
L 317.390737 -148.214063 
L 317.743569 -149.17597 
L 318.116335 -150.137877 
L 318.506604 -151.099784 
L 318.910163 -152.061691 
L 319.321378 -153.023598 
L 327.154157 -153.023598 
L 327.154157 -153.023598 
L 327.565373 -152.061691 
L 327.968931 -151.099784 
L 328.3592 -150.137877 
L 328.731967 -149.17597 
L 329.084799 -148.214063 
L 329.417262 -147.252156 
L 329.730977 -146.290249 
L 330.029504 -145.328342 
L 330.318067 -144.366435 
L 330.603141 -143.404528 
L 330.891955 -142.442621 
L 331.191941 -141.480714 
L 331.510196 -140.518807 
L 331.852987 -139.5569 
L 332.225346 -138.594993 
L 332.630771 -137.633086 
L 333.071042 -136.671179 
L 333.546168 -135.709272 
L 334.054428 -134.747365 
L 334.592524 -133.785458 
L 335.155801 -132.823551 
L 335.738527 -131.861644 
L 336.334215 -130.899737 
L 336.935948 -129.93783 
L 337.536687 -128.975923 
L 338.129543 -128.014016 
L 338.707961 -127.05211 
L 339.265811 -126.090203 
L 339.797355 -125.128296 
L 340.297101 -124.166389 
L 340.759545 -123.204482 
L 341.17886 -122.242575 
L 341.548575 -121.280668 
L 341.861313 -120.318761 
L 342.108675 -119.356854 
L 342.281304 -118.394947 
L 342.369196 -117.43304 
L 342.362241 -116.471133 
L 342.250971 -115.509226 
L 342.027452 -114.547319 
L 341.686217 -113.585412 
L 341.225126 -112.623505 
L 340.646058 -111.661598 
L 339.955321 -110.699691 
L 339.163725 -109.737784 
L 338.286293 -108.775877 
L 337.341618 -107.81397 
L 336.35093 -106.852063 
L 335.336951 -105.890156 
L 334.322648 -104.928249 
L 333.329995 -103.966342 
L 332.378842 -103.004435 
L 331.485994 -102.042528 
L 330.664537 -101.080621 
L 329.923477 -100.118714 
L 329.267657 -99.156807 
L 328.697961 -98.1949 
L 328.211747 -97.232993 
L 327.803442 -96.271086 
L 327.465241 -95.309179 
L 327.187851 -94.347272 
L 326.961194 -93.385365 
L 326.775055 -92.423458 
L 326.619612 -91.461551 
L 326.485859 -90.499644 
L 326.365902 -89.537737 
L 326.253145 -88.57583 
L 326.142388 -87.613923 
L 326.029847 -86.652016 
L 325.913121 -85.690109 
L 325.791109 -84.728202 
L 325.663892 -83.766295 
L 325.532569 -82.804388 
L 325.399071 -81.842481 
L 325.265918 -80.880574 
L 325.135966 -79.918667 
L 325.012126 -78.95676 
L 324.897087 -77.994853 
L 324.793067 -77.032946 
L 324.701611 -76.071039 
L 324.623458 -75.109132 
L 324.558494 -74.147225 
L 324.505794 -73.185318 
L 324.46374 -72.223411 
L 324.430209 -71.261504 
L 324.402793 -70.299597 
L 324.379031 -69.33769 
L 324.356618 -68.375783 
L 324.333575 -67.413876 
L 324.308351 -66.451969 
L 324.279868 -65.490062 
L 324.24751 -64.528155 
L 324.211056 -63.566248 
L 324.170596 -62.604341 
L 324.126432 -61.642434 
L 324.078995 -60.680527 
L 324.02878 -59.71862 
L 323.976302 -58.756713 
L 323.92209 -57.794806 
z
" style="stroke: #3f3f3f; stroke-width: 1.5"/>
    </defs>
    <g clip-path="url(#p5fb3bb2d54)">
     <use xlink:href="#m20670e32e2" x="0" y="208.595938" style="fill: #3274a1; stroke: #3f3f3f; stroke-width: 1.5"/>
    </g>
   </g>
   <g id="matplotlib.axis_1">
    <g id="xtick_1">
     <g id="line2d_2">
      <defs>
       <path id="mc2a7e15a50" d="M 0 0 
L 0 3.5 
" style="stroke: #000000; stroke-width: 0.8"/>
      </defs>
      <g>
       <use xlink:href="#mc2a7e15a50" x="84.094911" y="173.52" style="stroke: #000000; stroke-width: 0.8"/>
      </g>
     </g>
     <g id="text_1">
      <!-- TFBS -->
      <g transform="translate(71.648036 188.118438) scale(0.1 -0.1)">
       <defs>
        <path id="DejaVuSans-54" d="M -19 4666 
L 3928 4666 
L 3928 4134 
L 2272 4134 
L 2272 0 
L 1638 0 
L 1638 4134 
L -19 4134 
L -19 4666 
z
" transform="scale(0.015625)"/>
        <path id="DejaVuSans-46" d="M 628 4666 
L 3309 4666 
L 3309 4134 
L 1259 4134 
L 1259 2759 
L 3109 2759 
L 3109 2228 
L 1259 2228 
L 1259 0 
L 628 0 
L 628 4666 
z
" transform="scale(0.015625)"/>
        <path id="DejaVuSans-42" d="M 1259 2228 
L 1259 519 
L 2272 519 
Q 2781 519 3026 730 
Q 3272 941 3272 1375 
Q 3272 1813 3026 2020 
Q 2781 2228 2272 2228 
L 1259 2228 
z
M 1259 4147 
L 1259 2741 
L 2194 2741 
Q 2656 2741 2882 2914 
Q 3109 3088 3109 3444 
Q 3109 3797 2882 3972 
Q 2656 4147 2194 4147 
L 1259 4147 
z
M 628 4666 
L 2241 4666 
Q 2963 4666 3353 4366 
Q 3744 4066 3744 3513 
Q 3744 3084 3544 2831 
Q 3344 2578 2956 2516 
Q 3422 2416 3680 2098 
Q 3938 1781 3938 1306 
Q 3938 681 3513 340 
Q 3088 0 2303 0 
L 628 0 
L 628 4666 
z
" transform="scale(0.015625)"/>
        <path id="DejaVuSans-53" d="M 3425 4513 
L 3425 3897 
Q 3066 4069 2747 4153 
Q 2428 4238 2131 4238 
Q 1616 4238 1336 4038 
Q 1056 3838 1056 3469 
Q 1056 3159 1242 3001 
Q 1428 2844 1947 2747 
L 2328 2669 
Q 3034 2534 3370 2195 
Q 3706 1856 3706 1288 
Q 3706 609 3251 259 
Q 2797 -91 1919 -91 
Q 1588 -91 1214 -16 
Q 841 59 441 206 
L 441 856 
Q 825 641 1194 531 
Q 1563 422 1919 422 
Q 2459 422 2753 634 
Q 3047 847 3047 1241 
Q 3047 1584 2836 1778 
Q 2625 1972 2144 2069 
L 1759 2144 
Q 1053 2284 737 2584 
Q 422 2884 422 3419 
Q 422 4038 858 4394 
Q 1294 4750 2059 4750 
Q 2388 4750 2728 4690 
Q 3069 4631 3425 4513 
z
" transform="scale(0.015625)"/>
       </defs>
       <use xlink:href="#DejaVuSans-54"/>
       <use xlink:href="#DejaVuSans-46" x="61.083984"/>
       <use xlink:href="#DejaVuSans-42" x="118.603516"/>
       <use xlink:href="#DejaVuSans-53" x="185.457031"/>
      </g>
      <!-- n=114 -->
      <g transform="translate(67.192567 199.31625) scale(0.1 -0.1)">
       <defs>
        <path id="DejaVuSans-6e" d="M 3513 2113 
L 3513 0 
L 2938 0 
L 2938 2094 
Q 2938 2591 2744 2837 
Q 2550 3084 2163 3084 
Q 1697 3084 1428 2787 
Q 1159 2491 1159 1978 
L 1159 0 
L 581 0 
L 581 3500 
L 1159 3500 
L 1159 2956 
Q 1366 3272 1645 3428 
Q 1925 3584 2291 3584 
Q 2894 3584 3203 3211 
Q 3513 2838 3513 2113 
z
" transform="scale(0.015625)"/>
        <path id="DejaVuSans-3d" d="M 678 2906 
L 4684 2906 
L 4684 2381 
L 678 2381 
L 678 2906 
z
M 678 1631 
L 4684 1631 
L 4684 1100 
L 678 1100 
L 678 1631 
z
" transform="scale(0.015625)"/>
        <path id="DejaVuSans-31" d="M 794 531 
L 1825 531 
L 1825 4091 
L 703 3866 
L 703 4441 
L 1819 4666 
L 2450 4666 
L 2450 531 
L 3481 531 
L 3481 0 
L 794 0 
L 794 531 
z
" transform="scale(0.015625)"/>
        <path id="DejaVuSans-34" d="M 2419 4116 
L 825 1625 
L 2419 1625 
L 2419 4116 
z
M 2253 4666 
L 3047 4666 
L 3047 1625 
L 3713 1625 
L 3713 1100 
L 3047 1100 
L 3047 0 
L 2419 0 
L 2419 1100 
L 313 1100 
L 313 1709 
L 2253 4666 
z
" transform="scale(0.015625)"/>
       </defs>
       <use xlink:href="#DejaVuSans-6e"/>
       <use xlink:href="#DejaVuSans-3d" x="63.378906"/>
       <use xlink:href="#DejaVuSans-31" x="147.167969"/>
       <use xlink:href="#DejaVuSans-31" x="210.791016"/>
       <use xlink:href="#DejaVuSans-34" x="274.414062"/>
      </g>
     </g>
    </g>
    <g id="xtick_2">
     <g id="line2d_3">
      <g>
       <use xlink:href="#mc2a7e15a50" x="131.923482" y="173.52" style="stroke: #000000; stroke-width: 0.8"/>
      </g>
     </g>
     <g id="text_2">
      <!-- -35 Box -->
      <g transform="translate(112.875045 188.118438) scale(0.1 -0.1)">
       <defs>
        <path id="DejaVuSans-2d" d="M 313 2009 
L 1997 2009 
L 1997 1497 
L 313 1497 
L 313 2009 
z
" transform="scale(0.015625)"/>
        <path id="DejaVuSans-33" d="M 2597 2516 
Q 3050 2419 3304 2112 
Q 3559 1806 3559 1356 
Q 3559 666 3084 287 
Q 2609 -91 1734 -91 
Q 1441 -91 1130 -33 
Q 819 25 488 141 
L 488 750 
Q 750 597 1062 519 
Q 1375 441 1716 441 
Q 2309 441 2620 675 
Q 2931 909 2931 1356 
Q 2931 1769 2642 2001 
Q 2353 2234 1838 2234 
L 1294 2234 
L 1294 2753 
L 1863 2753 
Q 2328 2753 2575 2939 
Q 2822 3125 2822 3475 
Q 2822 3834 2567 4026 
Q 2313 4219 1838 4219 
Q 1578 4219 1281 4162 
Q 984 4106 628 3988 
L 628 4550 
Q 988 4650 1302 4700 
Q 1616 4750 1894 4750 
Q 2613 4750 3031 4423 
Q 3450 4097 3450 3541 
Q 3450 3153 3228 2886 
Q 3006 2619 2597 2516 
z
" transform="scale(0.015625)"/>
        <path id="DejaVuSans-35" d="M 691 4666 
L 3169 4666 
L 3169 4134 
L 1269 4134 
L 1269 2991 
Q 1406 3038 1543 3061 
Q 1681 3084 1819 3084 
Q 2600 3084 3056 2656 
Q 3513 2228 3513 1497 
Q 3513 744 3044 326 
Q 2575 -91 1722 -91 
Q 1428 -91 1123 -41 
Q 819 9 494 109 
L 494 744 
Q 775 591 1075 516 
Q 1375 441 1709 441 
Q 2250 441 2565 725 
Q 2881 1009 2881 1497 
Q 2881 1984 2565 2268 
Q 2250 2553 1709 2553 
Q 1456 2553 1204 2497 
Q 953 2441 691 2322 
L 691 4666 
z
" transform="scale(0.015625)"/>
        <path id="DejaVuSans-20" transform="scale(0.015625)"/>
        <path id="DejaVuSans-6f" d="M 1959 3097 
Q 1497 3097 1228 2736 
Q 959 2375 959 1747 
Q 959 1119 1226 758 
Q 1494 397 1959 397 
Q 2419 397 2687 759 
Q 2956 1122 2956 1747 
Q 2956 2369 2687 2733 
Q 2419 3097 1959 3097 
z
M 1959 3584 
Q 2709 3584 3137 3096 
Q 3566 2609 3566 1747 
Q 3566 888 3137 398 
Q 2709 -91 1959 -91 
Q 1206 -91 779 398 
Q 353 888 353 1747 
Q 353 2609 779 3096 
Q 1206 3584 1959 3584 
z
" transform="scale(0.015625)"/>
        <path id="DejaVuSans-78" d="M 3513 3500 
L 2247 1797 
L 3578 0 
L 2900 0 
L 1881 1375 
L 863 0 
L 184 0 
L 1544 1831 
L 300 3500 
L 978 3500 
L 1906 2253 
L 2834 3500 
L 3513 3500 
z
" transform="scale(0.015625)"/>
       </defs>
       <use xlink:href="#DejaVuSans-2d"/>
       <use xlink:href="#DejaVuSans-33" x="36.083984"/>
       <use xlink:href="#DejaVuSans-35" x="99.707031"/>
       <use xlink:href="#DejaVuSans-20" x="163.330078"/>
       <use xlink:href="#DejaVuSans-42" x="195.117188"/>
       <use xlink:href="#DejaVuSans-6f" x="263.720703"/>
       <use xlink:href="#DejaVuSans-78" x="321.777344"/>
      </g>
      <!-- n=35 -->
      <g transform="translate(118.202388 199.31625) scale(0.1 -0.1)">
       <use xlink:href="#DejaVuSans-6e"/>
       <use xlink:href="#DejaVuSans-3d" x="63.378906"/>
       <use xlink:href="#DejaVuSans-33" x="147.167969"/>
       <use xlink:href="#DejaVuSans-35" x="210.791016"/>
      </g>
     </g>
    </g>
    <g id="xtick_3">
     <g id="line2d_4">
      <g>
       <use xlink:href="#mc2a7e15a50" x="179.752054" y="173.52" style="stroke: #000000; stroke-width: 0.8"/>
      </g>
     </g>
     <g id="text_3">
      <!-- Spacer -->
      <g transform="translate(162.458304 188.118438) scale(0.1 -0.1)">
       <defs>
        <path id="DejaVuSans-70" d="M 1159 525 
L 1159 -1331 
L 581 -1331 
L 581 3500 
L 1159 3500 
L 1159 2969 
Q 1341 3281 1617 3432 
Q 1894 3584 2278 3584 
Q 2916 3584 3314 3078 
Q 3713 2572 3713 1747 
Q 3713 922 3314 415 
Q 2916 -91 2278 -91 
Q 1894 -91 1617 61 
Q 1341 213 1159 525 
z
M 3116 1747 
Q 3116 2381 2855 2742 
Q 2594 3103 2138 3103 
Q 1681 3103 1420 2742 
Q 1159 2381 1159 1747 
Q 1159 1113 1420 752 
Q 1681 391 2138 391 
Q 2594 391 2855 752 
Q 3116 1113 3116 1747 
z
" transform="scale(0.015625)"/>
        <path id="DejaVuSans-61" d="M 2194 1759 
Q 1497 1759 1228 1600 
Q 959 1441 959 1056 
Q 959 750 1161 570 
Q 1363 391 1709 391 
Q 2188 391 2477 730 
Q 2766 1069 2766 1631 
L 2766 1759 
L 2194 1759 
z
M 3341 1997 
L 3341 0 
L 2766 0 
L 2766 531 
Q 2569 213 2275 61 
Q 1981 -91 1556 -91 
Q 1019 -91 701 211 
Q 384 513 384 1019 
Q 384 1609 779 1909 
Q 1175 2209 1959 2209 
L 2766 2209 
L 2766 2266 
Q 2766 2663 2505 2880 
Q 2244 3097 1772 3097 
Q 1472 3097 1187 3025 
Q 903 2953 641 2809 
L 641 3341 
Q 956 3463 1253 3523 
Q 1550 3584 1831 3584 
Q 2591 3584 2966 3190 
Q 3341 2797 3341 1997 
z
" transform="scale(0.015625)"/>
        <path id="DejaVuSans-63" d="M 3122 3366 
L 3122 2828 
Q 2878 2963 2633 3030 
Q 2388 3097 2138 3097 
Q 1578 3097 1268 2742 
Q 959 2388 959 1747 
Q 959 1106 1268 751 
Q 1578 397 2138 397 
Q 2388 397 2633 464 
Q 2878 531 3122 666 
L 3122 134 
Q 2881 22 2623 -34 
Q 2366 -91 2075 -91 
Q 1284 -91 818 406 
Q 353 903 353 1747 
Q 353 2603 823 3093 
Q 1294 3584 2113 3584 
Q 2378 3584 2631 3529 
Q 2884 3475 3122 3366 
z
" transform="scale(0.015625)"/>
        <path id="DejaVuSans-65" d="M 3597 1894 
L 3597 1613 
L 953 1613 
Q 991 1019 1311 708 
Q 1631 397 2203 397 
Q 2534 397 2845 478 
Q 3156 559 3463 722 
L 3463 178 
Q 3153 47 2828 -22 
Q 2503 -91 2169 -91 
Q 1331 -91 842 396 
Q 353 884 353 1716 
Q 353 2575 817 3079 
Q 1281 3584 2069 3584 
Q 2775 3584 3186 3129 
Q 3597 2675 3597 1894 
z
M 3022 2063 
Q 3016 2534 2758 2815 
Q 2500 3097 2075 3097 
Q 1594 3097 1305 2825 
Q 1016 2553 972 2059 
L 3022 2063 
z
" transform="scale(0.015625)"/>
        <path id="DejaVuSans-72" d="M 2631 2963 
Q 2534 3019 2420 3045 
Q 2306 3072 2169 3072 
Q 1681 3072 1420 2755 
Q 1159 2438 1159 1844 
L 1159 0 
L 581 0 
L 581 3500 
L 1159 3500 
L 1159 2956 
Q 1341 3275 1631 3429 
Q 1922 3584 2338 3584 
Q 2397 3584 2469 3576 
Q 2541 3569 2628 3553 
L 2631 2963 
z
" transform="scale(0.015625)"/>
       </defs>
       <use xlink:href="#DejaVuSans-53"/>
       <use xlink:href="#DejaVuSans-70" x="63.476562"/>
       <use xlink:href="#DejaVuSans-61" x="126.953125"/>
       <use xlink:href="#DejaVuSans-63" x="188.232422"/>
       <use xlink:href="#DejaVuSans-65" x="243.212891"/>
       <use xlink:href="#DejaVuSans-72" x="304.736328"/>
      </g>
      <!-- n=42 -->
      <g transform="translate(166.03096 199.31625) scale(0.1 -0.1)">
       <defs>
        <path id="DejaVuSans-32" d="M 1228 531 
L 3431 531 
L 3431 0 
L 469 0 
L 469 531 
Q 828 903 1448 1529 
Q 2069 2156 2228 2338 
Q 2531 2678 2651 2914 
Q 2772 3150 2772 3378 
Q 2772 3750 2511 3984 
Q 2250 4219 1831 4219 
Q 1534 4219 1204 4116 
Q 875 4013 500 3803 
L 500 4441 
Q 881 4594 1212 4672 
Q 1544 4750 1819 4750 
Q 2544 4750 2975 4387 
Q 3406 4025 3406 3419 
Q 3406 3131 3298 2873 
Q 3191 2616 2906 2266 
Q 2828 2175 2409 1742 
Q 1991 1309 1228 531 
z
" transform="scale(0.015625)"/>
       </defs>
       <use xlink:href="#DejaVuSans-6e"/>
       <use xlink:href="#DejaVuSans-3d" x="63.378906"/>
       <use xlink:href="#DejaVuSans-34" x="147.167969"/>
       <use xlink:href="#DejaVuSans-32" x="210.791016"/>
      </g>
     </g>
    </g>
    <g id="xtick_4">
     <g id="line2d_5">
      <g>
       <use xlink:href="#mc2a7e15a50" x="227.580625" y="173.52" style="stroke: #000000; stroke-width: 0.8"/>
      </g>
     </g>
     <g id="text_4">
      <!-- -10 Box -->
      <g transform="translate(208.532187 188.118438) scale(0.1 -0.1)">
       <defs>
        <path id="DejaVuSans-30" d="M 2034 4250 
Q 1547 4250 1301 3770 
Q 1056 3291 1056 2328 
Q 1056 1369 1301 889 
Q 1547 409 2034 409 
Q 2525 409 2770 889 
Q 3016 1369 3016 2328 
Q 3016 3291 2770 3770 
Q 2525 4250 2034 4250 
z
M 2034 4750 
Q 2819 4750 3233 4129 
Q 3647 3509 3647 2328 
Q 3647 1150 3233 529 
Q 2819 -91 2034 -91 
Q 1250 -91 836 529 
Q 422 1150 422 2328 
Q 422 3509 836 4129 
Q 1250 4750 2034 4750 
z
" transform="scale(0.015625)"/>
       </defs>
       <use xlink:href="#DejaVuSans-2d"/>
       <use xlink:href="#DejaVuSans-31" x="36.083984"/>
       <use xlink:href="#DejaVuSans-30" x="99.707031"/>
       <use xlink:href="#DejaVuSans-20" x="163.330078"/>
       <use xlink:href="#DejaVuSans-42" x="195.117188"/>
       <use xlink:href="#DejaVuSans-6f" x="263.720703"/>
       <use xlink:href="#DejaVuSans-78" x="321.777344"/>
      </g>
      <!-- n=40 -->
      <g transform="translate(213.859531 199.31625) scale(0.1 -0.1)">
       <use xlink:href="#DejaVuSans-6e"/>
       <use xlink:href="#DejaVuSans-3d" x="63.378906"/>
       <use xlink:href="#DejaVuSans-34" x="147.167969"/>
       <use xlink:href="#DejaVuSans-30" x="210.791016"/>
      </g>
     </g>
    </g>
    <g id="xtick_5">
     <g id="line2d_6">
      <g>
       <use xlink:href="#mc2a7e15a50" x="275.409196" y="173.52" style="stroke: #000000; stroke-width: 0.8"/>
      </g>
     </g>
     <g id="text_5">
      <!-- CRE -->
      <g transform="translate(265.284196 188.118438) scale(0.1 -0.1)">
       <defs>
        <path id="DejaVuSans-43" d="M 4122 4306 
L 4122 3641 
Q 3803 3938 3442 4084 
Q 3081 4231 2675 4231 
Q 1875 4231 1450 3742 
Q 1025 3253 1025 2328 
Q 1025 1406 1450 917 
Q 1875 428 2675 428 
Q 3081 428 3442 575 
Q 3803 722 4122 1019 
L 4122 359 
Q 3791 134 3420 21 
Q 3050 -91 2638 -91 
Q 1578 -91 968 557 
Q 359 1206 359 2328 
Q 359 3453 968 4101 
Q 1578 4750 2638 4750 
Q 3056 4750 3426 4639 
Q 3797 4528 4122 4306 
z
" transform="scale(0.015625)"/>
        <path id="DejaVuSans-52" d="M 2841 2188 
Q 3044 2119 3236 1894 
Q 3428 1669 3622 1275 
L 4263 0 
L 3584 0 
L 2988 1197 
Q 2756 1666 2539 1819 
Q 2322 1972 1947 1972 
L 1259 1972 
L 1259 0 
L 628 0 
L 628 4666 
L 2053 4666 
Q 2853 4666 3247 4331 
Q 3641 3997 3641 3322 
Q 3641 2881 3436 2590 
Q 3231 2300 2841 2188 
z
M 1259 4147 
L 1259 2491 
L 2053 2491 
Q 2509 2491 2742 2702 
Q 2975 2913 2975 3322 
Q 2975 3731 2742 3939 
Q 2509 4147 2053 4147 
L 1259 4147 
z
" transform="scale(0.015625)"/>
        <path id="DejaVuSans-45" d="M 628 4666 
L 3578 4666 
L 3578 4134 
L 1259 4134 
L 1259 2753 
L 3481 2753 
L 3481 2222 
L 1259 2222 
L 1259 531 
L 3634 531 
L 3634 0 
L 628 0 
L 628 4666 
z
" transform="scale(0.015625)"/>
       </defs>
       <use xlink:href="#DejaVuSans-43"/>
       <use xlink:href="#DejaVuSans-52" x="69.824219"/>
       <use xlink:href="#DejaVuSans-45" x="139.306641"/>
      </g>
      <!-- n=55 -->
      <g transform="translate(261.688103 199.31625) scale(0.1 -0.1)">
       <use xlink:href="#DejaVuSans-6e"/>
       <use xlink:href="#DejaVuSans-3d" x="63.378906"/>
       <use xlink:href="#DejaVuSans-35" x="147.167969"/>
       <use xlink:href="#DejaVuSans-35" x="210.791016"/>
      </g>
     </g>
    </g>
    <g id="xtick_6">
     <g id="line2d_7">
      <g>
       <use xlink:href="#mc2a7e15a50" x="323.237768" y="173.52" style="stroke: #000000; stroke-width: 0.8"/>
      </g>
     </g>
     <g id="text_6">
      <!-- Atten -->
      <g transform="translate(309.73933 188.118438) scale(0.1 -0.1)">
       <defs>
        <path id="DejaVuSans-41" d="M 2188 4044 
L 1331 1722 
L 3047 1722 
L 2188 4044 
z
M 1831 4666 
L 2547 4666 
L 4325 0 
L 3669 0 
L 3244 1197 
L 1141 1197 
L 716 0 
L 50 0 
L 1831 4666 
z
" transform="scale(0.015625)"/>
        <path id="DejaVuSans-74" d="M 1172 4494 
L 1172 3500 
L 2356 3500 
L 2356 3053 
L 1172 3053 
L 1172 1153 
Q 1172 725 1289 603 
Q 1406 481 1766 481 
L 2356 481 
L 2356 0 
L 1766 0 
Q 1100 0 847 248 
Q 594 497 594 1153 
L 594 3053 
L 172 3053 
L 172 3500 
L 594 3500 
L 594 4494 
L 1172 4494 
z
" transform="scale(0.015625)"/>
       </defs>
       <use xlink:href="#DejaVuSans-41"/>
       <use xlink:href="#DejaVuSans-74" x="66.658203"/>
       <use xlink:href="#DejaVuSans-74" x="105.867188"/>
       <use xlink:href="#DejaVuSans-65" x="145.076172"/>
       <use xlink:href="#DejaVuSans-6e" x="206.599609"/>
      </g>
      <!-- n=106 -->
      <g transform="translate(306.335424 199.31625) scale(0.1 -0.1)">
       <defs>
        <path id="DejaVuSans-36" d="M 2113 2584 
Q 1688 2584 1439 2293 
Q 1191 2003 1191 1497 
Q 1191 994 1439 701 
Q 1688 409 2113 409 
Q 2538 409 2786 701 
Q 3034 994 3034 1497 
Q 3034 2003 2786 2293 
Q 2538 2584 2113 2584 
z
M 3366 4563 
L 3366 3988 
Q 3128 4100 2886 4159 
Q 2644 4219 2406 4219 
Q 1781 4219 1451 3797 
Q 1122 3375 1075 2522 
Q 1259 2794 1537 2939 
Q 1816 3084 2150 3084 
Q 2853 3084 3261 2657 
Q 3669 2231 3669 1497 
Q 3669 778 3244 343 
Q 2819 -91 2113 -91 
Q 1303 -91 875 529 
Q 447 1150 447 2328 
Q 447 3434 972 4092 
Q 1497 4750 2381 4750 
Q 2619 4750 2861 4703 
Q 3103 4656 3366 4563 
z
" transform="scale(0.015625)"/>
       </defs>
       <use xlink:href="#DejaVuSans-6e"/>
       <use xlink:href="#DejaVuSans-3d" x="63.378906"/>
       <use xlink:href="#DejaVuSans-31" x="147.167969"/>
       <use xlink:href="#DejaVuSans-30" x="210.791016"/>
       <use xlink:href="#DejaVuSans-36" x="274.414062"/>
      </g>
     </g>
    </g>
    <g id="xtick_7">
     <g id="line2d_8">
      <g>
       <use xlink:href="#mc2a7e15a50" x="371.066339" y="173.52" style="stroke: #000000; stroke-width: 0.8"/>
      </g>
     </g>
     <g id="text_7">
      <!-- RBS -->
      <g transform="translate(361.074933 188.118438) scale(0.1 -0.1)">
       <use xlink:href="#DejaVuSans-52"/>
       <use xlink:href="#DejaVuSans-42" x="69.482422"/>
       <use xlink:href="#DejaVuSans-53" x="136.335938"/>
      </g>
      <!-- n=1 -->
      <g transform="translate(360.526496 199.31625) scale(0.1 -0.1)">
       <use xlink:href="#DejaVuSans-6e"/>
       <use xlink:href="#DejaVuSans-3d" x="63.378906"/>
       <use xlink:href="#DejaVuSans-31" x="147.167969"/>
      </g>
     </g>
    </g>
   </g>
   <g id="matplotlib.axis_2">
    <g id="ytick_1">
     <g id="line2d_9">
      <defs>
       <path id="m56092a9803" d="M 0 0 
L -3.5 0 
" style="stroke: #000000; stroke-width: 0.8"/>
      </defs>
      <g>
       <use xlink:href="#m56092a9803" x="60.180625" y="137.197018" style="stroke: #000000; stroke-width: 0.8"/>
      </g>
     </g>
     <g id="text_8">
      <!-- 50 -->
      <g transform="translate(32.075938 140.996237) scale(0.1 -0.1)">
       <defs>
        <path id="DejaVuSans-2212" d="M 678 2272 
L 4684 2272 
L 4684 1741 
L 678 1741 
L 678 2272 
z
" transform="scale(0.015625)"/>
       </defs>
       <use xlink:href="#DejaVuSans-2212"/>
       <use xlink:href="#DejaVuSans-35" x="83.789062"/>
       <use xlink:href="#DejaVuSans-30" x="147.412109"/>
      </g>
     </g>
    </g>
    <g id="ytick_2">
     <g id="line2d_10">
      <g>
       <use xlink:href="#m56092a9803" x="60.180625" y="96.384679" style="stroke: #000000; stroke-width: 0.8"/>
      </g>
     </g>
     <g id="text_9">
      <!-- 0 -->
      <g transform="translate(46.818125 100.183897) scale(0.1 -0.1)">
       <use xlink:href="#DejaVuSans-30"/>
      </g>
     </g>
    </g>
    <g id="ytick_3">
     <g id="line2d_11">
      <g>
       <use xlink:href="#m56092a9803" x="60.180625" y="55.572339" style="stroke: #000000; stroke-width: 0.8"/>
      </g>
     </g>
     <g id="text_10">
      <!-- 50 -->
      <g transform="translate(40.455625 59.371558) scale(0.1 -0.1)">
       <use xlink:href="#DejaVuSans-35"/>
       <use xlink:href="#DejaVuSans-30" x="63.623047"/>
      </g>
     </g>
    </g>
    <g id="ytick_4">
     <g id="line2d_12">
      <g>
       <use xlink:href="#m56092a9803" x="60.180625" y="14.76" style="stroke: #000000; stroke-width: 0.8"/>
      </g>
     </g>
     <g id="text_11">
      <!-- 100 -->
      <g transform="translate(34.093125 18.559219) scale(0.1 -0.1)">
       <use xlink:href="#DejaVuSans-31"/>
       <use xlink:href="#DejaVuSans-30" x="63.623047"/>
       <use xlink:href="#DejaVuSans-30" x="127.246094"/>
      </g>
     </g>
    </g>
    <g id="text_12">
     <!-- Diff in % bp w/variant within -->
     <g transform="translate(14.798438 161.320938) rotate(-90) scale(0.1 -0.1)">
      <defs>
       <path id="DejaVuSans-44" d="M 1259 4147 
L 1259 519 
L 2022 519 
Q 2988 519 3436 956 
Q 3884 1394 3884 2338 
Q 3884 3275 3436 3711 
Q 2988 4147 2022 4147 
L 1259 4147 
z
M 628 4666 
L 1925 4666 
Q 3281 4666 3915 4102 
Q 4550 3538 4550 2338 
Q 4550 1131 3912 565 
Q 3275 0 1925 0 
L 628 0 
L 628 4666 
z
" transform="scale(0.015625)"/>
       <path id="DejaVuSans-69" d="M 603 3500 
L 1178 3500 
L 1178 0 
L 603 0 
L 603 3500 
z
M 603 4863 
L 1178 4863 
L 1178 4134 
L 603 4134 
L 603 4863 
z
" transform="scale(0.015625)"/>
       <path id="DejaVuSans-66" d="M 2375 4863 
L 2375 4384 
L 1825 4384 
Q 1516 4384 1395 4259 
Q 1275 4134 1275 3809 
L 1275 3500 
L 2222 3500 
L 2222 3053 
L 1275 3053 
L 1275 0 
L 697 0 
L 697 3053 
L 147 3053 
L 147 3500 
L 697 3500 
L 697 3744 
Q 697 4328 969 4595 
Q 1241 4863 1831 4863 
L 2375 4863 
z
" transform="scale(0.015625)"/>
       <path id="DejaVuSans-25" d="M 4653 2053 
Q 4381 2053 4226 1822 
Q 4072 1591 4072 1178 
Q 4072 772 4226 539 
Q 4381 306 4653 306 
Q 4919 306 5073 539 
Q 5228 772 5228 1178 
Q 5228 1588 5073 1820 
Q 4919 2053 4653 2053 
z
M 4653 2450 
Q 5147 2450 5437 2106 
Q 5728 1763 5728 1178 
Q 5728 594 5436 251 
Q 5144 -91 4653 -91 
Q 4153 -91 3862 251 
Q 3572 594 3572 1178 
Q 3572 1766 3864 2108 
Q 4156 2450 4653 2450 
z
M 1428 4353 
Q 1159 4353 1004 4120 
Q 850 3888 850 3481 
Q 850 3069 1003 2837 
Q 1156 2606 1428 2606 
Q 1700 2606 1854 2837 
Q 2009 3069 2009 3481 
Q 2009 3884 1853 4118 
Q 1697 4353 1428 4353 
z
M 4250 4750 
L 4750 4750 
L 1831 -91 
L 1331 -91 
L 4250 4750 
z
M 1428 4750 
Q 1922 4750 2215 4408 
Q 2509 4066 2509 3481 
Q 2509 2891 2217 2550 
Q 1925 2209 1428 2209 
Q 931 2209 642 2551 
Q 353 2894 353 3481 
Q 353 4063 643 4406 
Q 934 4750 1428 4750 
z
" transform="scale(0.015625)"/>
       <path id="DejaVuSans-62" d="M 3116 1747 
Q 3116 2381 2855 2742 
Q 2594 3103 2138 3103 
Q 1681 3103 1420 2742 
Q 1159 2381 1159 1747 
Q 1159 1113 1420 752 
Q 1681 391 2138 391 
Q 2594 391 2855 752 
Q 3116 1113 3116 1747 
z
M 1159 2969 
Q 1341 3281 1617 3432 
Q 1894 3584 2278 3584 
Q 2916 3584 3314 3078 
Q 3713 2572 3713 1747 
Q 3713 922 3314 415 
Q 2916 -91 2278 -91 
Q 1894 -91 1617 61 
Q 1341 213 1159 525 
L 1159 0 
L 581 0 
L 581 4863 
L 1159 4863 
L 1159 2969 
z
" transform="scale(0.015625)"/>
       <path id="DejaVuSans-77" d="M 269 3500 
L 844 3500 
L 1563 769 
L 2278 3500 
L 2956 3500 
L 3675 769 
L 4391 3500 
L 4966 3500 
L 4050 0 
L 3372 0 
L 2619 2869 
L 1863 0 
L 1184 0 
L 269 3500 
z
" transform="scale(0.015625)"/>
       <path id="DejaVuSans-2f" d="M 1625 4666 
L 2156 4666 
L 531 -594 
L 0 -594 
L 1625 4666 
z
" transform="scale(0.015625)"/>
       <path id="DejaVuSans-76" d="M 191 3500 
L 800 3500 
L 1894 563 
L 2988 3500 
L 3597 3500 
L 2284 0 
L 1503 0 
L 191 3500 
z
" transform="scale(0.015625)"/>
       <path id="DejaVuSans-68" d="M 3513 2113 
L 3513 0 
L 2938 0 
L 2938 2094 
Q 2938 2591 2744 2837 
Q 2550 3084 2163 3084 
Q 1697 3084 1428 2787 
Q 1159 2491 1159 1978 
L 1159 0 
L 581 0 
L 581 4863 
L 1159 4863 
L 1159 2956 
Q 1366 3272 1645 3428 
Q 1925 3584 2291 3584 
Q 2894 3584 3203 3211 
Q 3513 2838 3513 2113 
z
" transform="scale(0.015625)"/>
      </defs>
      <use xlink:href="#DejaVuSans-44"/>
      <use xlink:href="#DejaVuSans-69" x="77.001953"/>
      <use xlink:href="#DejaVuSans-66" x="104.785156"/>
      <use xlink:href="#DejaVuSans-66" x="139.990234"/>
      <use xlink:href="#DejaVuSans-20" x="175.195312"/>
      <use xlink:href="#DejaVuSans-69" x="206.982422"/>
      <use xlink:href="#DejaVuSans-6e" x="234.765625"/>
      <use xlink:href="#DejaVuSans-20" x="298.144531"/>
      <use xlink:href="#DejaVuSans-25" x="329.931641"/>
      <use xlink:href="#DejaVuSans-20" x="424.951172"/>
      <use xlink:href="#DejaVuSans-62" x="456.738281"/>
      <use xlink:href="#DejaVuSans-70" x="520.214844"/>
      <use xlink:href="#DejaVuSans-20" x="583.691406"/>
      <use xlink:href="#DejaVuSans-77" x="615.478516"/>
      <use xlink:href="#DejaVuSans-2f" x="697.265625"/>
      <use xlink:href="#DejaVuSans-76" x="730.957031"/>
      <use xlink:href="#DejaVuSans-61" x="790.136719"/>
      <use xlink:href="#DejaVuSans-72" x="851.416016"/>
      <use xlink:href="#DejaVuSans-69" x="892.529297"/>
      <use xlink:href="#DejaVuSans-61" x="920.3125"/>
      <use xlink:href="#DejaVuSans-6e" x="981.591797"/>
      <use xlink:href="#DejaVuSans-74" x="1044.970703"/>
      <use xlink:href="#DejaVuSans-20" x="1084.179688"/>
      <use xlink:href="#DejaVuSans-77" x="1115.966797"/>
      <use xlink:href="#DejaVuSans-69" x="1197.753906"/>
      <use xlink:href="#DejaVuSans-74" x="1225.537109"/>
      <use xlink:href="#DejaVuSans-68" x="1264.746094"/>
      <use xlink:href="#DejaVuSans-69" x="1328.125"/>
      <use xlink:href="#DejaVuSans-6e" x="1355.908203"/>
     </g>
     <!-- features straddling gene boundary -->
     <g transform="translate(25.99625 177.255313) rotate(-90) scale(0.1 -0.1)">
      <defs>
       <path id="DejaVuSans-75" d="M 544 1381 
L 544 3500 
L 1119 3500 
L 1119 1403 
Q 1119 906 1312 657 
Q 1506 409 1894 409 
Q 2359 409 2629 706 
Q 2900 1003 2900 1516 
L 2900 3500 
L 3475 3500 
L 3475 0 
L 2900 0 
L 2900 538 
Q 2691 219 2414 64 
Q 2138 -91 1772 -91 
Q 1169 -91 856 284 
Q 544 659 544 1381 
z
M 1991 3584 
L 1991 3584 
z
" transform="scale(0.015625)"/>
       <path id="DejaVuSans-73" d="M 2834 3397 
L 2834 2853 
Q 2591 2978 2328 3040 
Q 2066 3103 1784 3103 
Q 1356 3103 1142 2972 
Q 928 2841 928 2578 
Q 928 2378 1081 2264 
Q 1234 2150 1697 2047 
L 1894 2003 
Q 2506 1872 2764 1633 
Q 3022 1394 3022 966 
Q 3022 478 2636 193 
Q 2250 -91 1575 -91 
Q 1294 -91 989 -36 
Q 684 19 347 128 
L 347 722 
Q 666 556 975 473 
Q 1284 391 1588 391 
Q 1994 391 2212 530 
Q 2431 669 2431 922 
Q 2431 1156 2273 1281 
Q 2116 1406 1581 1522 
L 1381 1569 
Q 847 1681 609 1914 
Q 372 2147 372 2553 
Q 372 3047 722 3315 
Q 1072 3584 1716 3584 
Q 2034 3584 2315 3537 
Q 2597 3491 2834 3397 
z
" transform="scale(0.015625)"/>
       <path id="DejaVuSans-64" d="M 2906 2969 
L 2906 4863 
L 3481 4863 
L 3481 0 
L 2906 0 
L 2906 525 
Q 2725 213 2448 61 
Q 2172 -91 1784 -91 
Q 1150 -91 751 415 
Q 353 922 353 1747 
Q 353 2572 751 3078 
Q 1150 3584 1784 3584 
Q 2172 3584 2448 3432 
Q 2725 3281 2906 2969 
z
M 947 1747 
Q 947 1113 1208 752 
Q 1469 391 1925 391 
Q 2381 391 2643 752 
Q 2906 1113 2906 1747 
Q 2906 2381 2643 2742 
Q 2381 3103 1925 3103 
Q 1469 3103 1208 2742 
Q 947 2381 947 1747 
z
" transform="scale(0.015625)"/>
       <path id="DejaVuSans-6c" d="M 603 4863 
L 1178 4863 
L 1178 0 
L 603 0 
L 603 4863 
z
" transform="scale(0.015625)"/>
       <path id="DejaVuSans-67" d="M 2906 1791 
Q 2906 2416 2648 2759 
Q 2391 3103 1925 3103 
Q 1463 3103 1205 2759 
Q 947 2416 947 1791 
Q 947 1169 1205 825 
Q 1463 481 1925 481 
Q 2391 481 2648 825 
Q 2906 1169 2906 1791 
z
M 3481 434 
Q 3481 -459 3084 -895 
Q 2688 -1331 1869 -1331 
Q 1566 -1331 1297 -1286 
Q 1028 -1241 775 -1147 
L 775 -588 
Q 1028 -725 1275 -790 
Q 1522 -856 1778 -856 
Q 2344 -856 2625 -561 
Q 2906 -266 2906 331 
L 2906 616 
Q 2728 306 2450 153 
Q 2172 0 1784 0 
Q 1141 0 747 490 
Q 353 981 353 1791 
Q 353 2603 747 3093 
Q 1141 3584 1784 3584 
Q 2172 3584 2450 3431 
Q 2728 3278 2906 2969 
L 2906 3500 
L 3481 3500 
L 3481 434 
z
" transform="scale(0.015625)"/>
       <path id="DejaVuSans-79" d="M 2059 -325 
Q 1816 -950 1584 -1140 
Q 1353 -1331 966 -1331 
L 506 -1331 
L 506 -850 
L 844 -850 
Q 1081 -850 1212 -737 
Q 1344 -625 1503 -206 
L 1606 56 
L 191 3500 
L 800 3500 
L 1894 763 
L 2988 3500 
L 3597 3500 
L 2059 -325 
z
" transform="scale(0.015625)"/>
      </defs>
      <use xlink:href="#DejaVuSans-66"/>
      <use xlink:href="#DejaVuSans-65" x="35.205078"/>
      <use xlink:href="#DejaVuSans-61" x="96.728516"/>
      <use xlink:href="#DejaVuSans-74" x="158.007812"/>
      <use xlink:href="#DejaVuSans-75" x="197.216797"/>
      <use xlink:href="#DejaVuSans-72" x="260.595703"/>
      <use xlink:href="#DejaVuSans-65" x="299.458984"/>
      <use xlink:href="#DejaVuSans-73" x="360.982422"/>
      <use xlink:href="#DejaVuSans-20" x="413.082031"/>
      <use xlink:href="#DejaVuSans-73" x="444.869141"/>
      <use xlink:href="#DejaVuSans-74" x="496.96875"/>
      <use xlink:href="#DejaVuSans-72" x="536.177734"/>
      <use xlink:href="#DejaVuSans-61" x="577.291016"/>
      <use xlink:href="#DejaVuSans-64" x="638.570312"/>
      <use xlink:href="#DejaVuSans-64" x="702.046875"/>
      <use xlink:href="#DejaVuSans-6c" x="765.523438"/>
      <use xlink:href="#DejaVuSans-69" x="793.306641"/>
      <use xlink:href="#DejaVuSans-6e" x="821.089844"/>
      <use xlink:href="#DejaVuSans-67" x="884.46875"/>
      <use xlink:href="#DejaVuSans-20" x="947.945312"/>
      <use xlink:href="#DejaVuSans-67" x="979.732422"/>
      <use xlink:href="#DejaVuSans-65" x="1043.208984"/>
      <use xlink:href="#DejaVuSans-6e" x="1104.732422"/>
      <use xlink:href="#DejaVuSans-65" x="1168.111328"/>
      <use xlink:href="#DejaVuSans-20" x="1229.634766"/>
      <use xlink:href="#DejaVuSans-62" x="1261.421875"/>
      <use xlink:href="#DejaVuSans-6f" x="1324.898438"/>
      <use xlink:href="#DejaVuSans-75" x="1386.080078"/>
      <use xlink:href="#DejaVuSans-6e" x="1449.458984"/>
      <use xlink:href="#DejaVuSans-64" x="1512.837891"/>
      <use xlink:href="#DejaVuSans-61" x="1576.314453"/>
      <use xlink:href="#DejaVuSans-72" x="1637.59375"/>
      <use xlink:href="#DejaVuSans-79" x="1678.707031"/>
     </g>
    </g>
   </g>
   <g id="line2d_13">
    <path d="M 84.094911 132.662314 
L 84.094911 49.128286 
" clip-path="url(#p5fb3bb2d54)" style="fill: none; stroke: #3f3f3f; stroke-width: 1.5; stroke-linecap: square"/>
   </g>
   <g id="line2d_14">
    <path d="M 84.094911 100.514499 
L 84.094911 78.94043 
" clip-path="url(#p5fb3bb2d54)" style="fill: none; stroke: #3f3f3f; stroke-width: 4.5; stroke-linecap: square"/>
   </g>
   <g id="line2d_15">
    <path d="M 131.923482 143.027352 
L 131.923482 55.572339 
" clip-path="url(#p5fb3bb2d54)" style="fill: none; stroke: #3f3f3f; stroke-width: 1.5; stroke-linecap: square"/>
   </g>
   <g id="line2d_16">
    <path d="M 131.923482 108.110129 
L 131.923482 75.978509 
" clip-path="url(#p5fb3bb2d54)" style="fill: none; stroke: #3f3f3f; stroke-width: 4.5; stroke-linecap: square"/>
   </g>
   <g id="line2d_17">
    <path d="M 179.752054 137.197018 
L 179.752054 45.337666 
" clip-path="url(#p5fb3bb2d54)" style="fill: none; stroke: #3f3f3f; stroke-width: 1.5; stroke-linecap: square"/>
   </g>
   <g id="line2d_18">
    <path d="M 179.752054 107.267969 
L 179.752054 79.903707 
" clip-path="url(#p5fb3bb2d54)" style="fill: none; stroke: #3f3f3f; stroke-width: 4.5; stroke-linecap: square"/>
   </g>
   <g id="line2d_19">
    <path d="M 227.580625 123.592905 
L 227.580625 47.409871 
" clip-path="url(#p5fb3bb2d54)" style="fill: none; stroke: #3f3f3f; stroke-width: 1.5; stroke-linecap: square"/>
   </g>
   <g id="line2d_20">
    <path d="M 227.580625 97.988021 
L 227.580625 75.978509 
" clip-path="url(#p5fb3bb2d54)" style="fill: none; stroke: #3f3f3f; stroke-width: 4.5; stroke-linecap: square"/>
   </g>
   <g id="line2d_21">
    <path d="M 275.409196 131.755373 
L 275.409196 28.364113 
" clip-path="url(#p5fb3bb2d54)" style="fill: none; stroke: #3f3f3f; stroke-width: 1.5; stroke-linecap: square"/>
   </g>
   <g id="line2d_22">
    <path d="M 275.409196 109.988792 
L 275.409196 71.443805 
" clip-path="url(#p5fb3bb2d54)" style="fill: none; stroke: #3f3f3f; stroke-width: 4.5; stroke-linecap: square"/>
   </g>
   <g id="line2d_23">
    <path d="M 323.237768 124.713244 
L 323.237768 55.572339 
" clip-path="url(#p5fb3bb2d54)" style="fill: none; stroke: #3f3f3f; stroke-width: 1.5; stroke-linecap: square"/>
   </g>
   <g id="line2d_24">
    <path d="M 323.237768 98.318173 
L 323.237768 79.293844 
" clip-path="url(#p5fb3bb2d54)" style="fill: none; stroke: #3f3f3f; stroke-width: 4.5; stroke-linecap: square"/>
   </g>
   <g id="line2d_25">
    <path d="M 351.934911 96.384679 
L 390.197768 96.384679 
" clip-path="url(#p5fb3bb2d54)" style="fill: none; stroke: #3f3f3f; stroke-width: 1.5; stroke-linecap: square"/>
   </g>
   <g id="patch_3">
    <path d="M 60.180625 173.52 
L 60.180625 7.2 
" style="fill: none; stroke: #000000; stroke-width: 0.8; stroke-linejoin: miter; stroke-linecap: square"/>
   </g>
   <g id="patch_4">
    <path d="M 394.980625 173.52 
L 394.980625 7.2 
" style="fill: none; stroke: #000000; stroke-width: 0.8; stroke-linejoin: miter; stroke-linecap: square"/>
   </g>
   <g id="patch_5">
    <path d="M 60.180625 173.52 
L 394.980625 173.52 
" style="fill: none; stroke: #000000; stroke-width: 0.8; stroke-linejoin: miter; stroke-linecap: square"/>
   </g>
   <g id="patch_6">
    <path d="M 60.180625 7.2 
L 394.980625 7.2 
" style="fill: none; stroke: #000000; stroke-width: 0.8; stroke-linejoin: miter; stroke-linecap: square"/>
   </g>
   <g id="PathCollection_1">
    <defs>
     <path id="m58b59cd636" d="M 0 1.5 
C 0.397805 1.5 0.77937 1.341951 1.06066 1.06066 
C 1.341951 0.77937 1.5 0.397805 1.5 0 
C 1.5 -0.397805 1.341951 -0.77937 1.06066 -1.06066 
C 0.77937 -1.341951 0.397805 -1.5 0 -1.5 
C -0.397805 -1.5 -0.77937 -1.341951 -1.06066 -1.06066 
C -1.341951 -0.77937 -1.5 -0.397805 -1.5 0 
C -1.5 0.397805 -1.341951 0.77937 -1.06066 1.06066 
C -0.77937 1.341951 -0.397805 1.5 0 1.5 
z
" style="stroke: #3f3f3f"/>
    </defs>
    <g clip-path="url(#p5fb3bb2d54)">
     <use xlink:href="#m58b59cd636" x="84.094911" y="88.572231" style="fill: #ffffff; stroke: #3f3f3f"/>
    </g>
   </g>
   <g id="PathCollection_2">
    <g clip-path="url(#p5fb3bb2d54)">
     <use xlink:href="#m58b59cd636" x="131.923482" y="96.384679" style="fill: #ffffff; stroke: #3f3f3f"/>
    </g>
   </g>
   <g id="PathCollection_3">
    <g clip-path="url(#p5fb3bb2d54)">
     <use xlink:href="#m58b59cd636" x="179.752054" y="92.358304" style="fill: #ffffff; stroke: #3f3f3f"/>
    </g>
   </g>
   <g id="PathCollection_4">
    <g clip-path="url(#p5fb3bb2d54)">
     <use xlink:href="#m58b59cd636" x="227.580625" y="96.384679" style="fill: #ffffff; stroke: #3f3f3f"/>
    </g>
   </g>
   <g id="PathCollection_5">
    <g clip-path="url(#p5fb3bb2d54)">
     <use xlink:href="#m58b59cd636" x="275.409196" y="82.780566" style="fill: #ffffff; stroke: #3f3f3f"/>
    </g>
   </g>
   <g id="PathCollection_6">
    <g clip-path="url(#p5fb3bb2d54)">
     <use xlink:href="#m58b59cd636" x="323.237768" y="90.105585" style="fill: #ffffff; stroke: #3f3f3f"/>
    </g>
   </g>
  </g>
 </g>
 <defs>
  <clipPath id="p5fb3bb2d54">
   <rect x="60.180625" y="7.2" width="334.8" height="166.32"/>
  </clipPath>
 </defs>
</svg>
